%TF.GenerationSoftware,KiCad,Pcbnew,8.0.5*%
%TF.CreationDate,2024-10-11T16:52:01+02:00*%
%TF.ProjectId,plug-module,706c7567-2d6d-46f6-9475-6c652e6b6963,rev?*%
%TF.SameCoordinates,Original*%
%TF.FileFunction,Legend,Top*%
%TF.FilePolarity,Positive*%
%FSLAX46Y46*%
G04 Gerber Fmt 4.6, Leading zero omitted, Abs format (unit mm)*
G04 Created by KiCad (PCBNEW 8.0.5) date 2024-10-11 16:52:01*
%MOMM*%
%LPD*%
G01*
G04 APERTURE LIST*
%ADD10C,0.150000*%
%ADD11C,0.120000*%
G04 APERTURE END LIST*
D10*
X173834761Y-39590057D02*
X173739523Y-39542438D01*
X173739523Y-39542438D02*
X173644285Y-39447200D01*
X173644285Y-39447200D02*
X173501428Y-39304342D01*
X173501428Y-39304342D02*
X173406190Y-39256723D01*
X173406190Y-39256723D02*
X173310952Y-39256723D01*
X173358571Y-39494819D02*
X173263333Y-39447200D01*
X173263333Y-39447200D02*
X173168095Y-39351961D01*
X173168095Y-39351961D02*
X173120476Y-39161485D01*
X173120476Y-39161485D02*
X173120476Y-38828152D01*
X173120476Y-38828152D02*
X173168095Y-38637676D01*
X173168095Y-38637676D02*
X173263333Y-38542438D01*
X173263333Y-38542438D02*
X173358571Y-38494819D01*
X173358571Y-38494819D02*
X173549047Y-38494819D01*
X173549047Y-38494819D02*
X173644285Y-38542438D01*
X173644285Y-38542438D02*
X173739523Y-38637676D01*
X173739523Y-38637676D02*
X173787142Y-38828152D01*
X173787142Y-38828152D02*
X173787142Y-39161485D01*
X173787142Y-39161485D02*
X173739523Y-39351961D01*
X173739523Y-39351961D02*
X173644285Y-39447200D01*
X173644285Y-39447200D02*
X173549047Y-39494819D01*
X173549047Y-39494819D02*
X173358571Y-39494819D01*
X174739523Y-39494819D02*
X174168095Y-39494819D01*
X174453809Y-39494819D02*
X174453809Y-38494819D01*
X174453809Y-38494819D02*
X174358571Y-38637676D01*
X174358571Y-38637676D02*
X174263333Y-38732914D01*
X174263333Y-38732914D02*
X174168095Y-38780533D01*
X175954819Y-80430476D02*
X175478628Y-80763809D01*
X175954819Y-81001904D02*
X174954819Y-81001904D01*
X174954819Y-81001904D02*
X174954819Y-80620952D01*
X174954819Y-80620952D02*
X175002438Y-80525714D01*
X175002438Y-80525714D02*
X175050057Y-80478095D01*
X175050057Y-80478095D02*
X175145295Y-80430476D01*
X175145295Y-80430476D02*
X175288152Y-80430476D01*
X175288152Y-80430476D02*
X175383390Y-80478095D01*
X175383390Y-80478095D02*
X175431009Y-80525714D01*
X175431009Y-80525714D02*
X175478628Y-80620952D01*
X175478628Y-80620952D02*
X175478628Y-81001904D01*
X175954819Y-80001904D02*
X174954819Y-80001904D01*
X174954819Y-80001904D02*
X175954819Y-79430476D01*
X175954819Y-79430476D02*
X174954819Y-79430476D01*
X175954819Y-78430476D02*
X175954819Y-79001904D01*
X175954819Y-78716190D02*
X174954819Y-78716190D01*
X174954819Y-78716190D02*
X175097676Y-78811428D01*
X175097676Y-78811428D02*
X175192914Y-78906666D01*
X175192914Y-78906666D02*
X175240533Y-79001904D01*
X140928095Y-93084819D02*
X140928095Y-93894342D01*
X140928095Y-93894342D02*
X140975714Y-93989580D01*
X140975714Y-93989580D02*
X141023333Y-94037200D01*
X141023333Y-94037200D02*
X141118571Y-94084819D01*
X141118571Y-94084819D02*
X141309047Y-94084819D01*
X141309047Y-94084819D02*
X141404285Y-94037200D01*
X141404285Y-94037200D02*
X141451904Y-93989580D01*
X141451904Y-93989580D02*
X141499523Y-93894342D01*
X141499523Y-93894342D02*
X141499523Y-93084819D01*
X141880476Y-93084819D02*
X142499523Y-93084819D01*
X142499523Y-93084819D02*
X142166190Y-93465771D01*
X142166190Y-93465771D02*
X142309047Y-93465771D01*
X142309047Y-93465771D02*
X142404285Y-93513390D01*
X142404285Y-93513390D02*
X142451904Y-93561009D01*
X142451904Y-93561009D02*
X142499523Y-93656247D01*
X142499523Y-93656247D02*
X142499523Y-93894342D01*
X142499523Y-93894342D02*
X142451904Y-93989580D01*
X142451904Y-93989580D02*
X142404285Y-94037200D01*
X142404285Y-94037200D02*
X142309047Y-94084819D01*
X142309047Y-94084819D02*
X142023333Y-94084819D01*
X142023333Y-94084819D02*
X141928095Y-94037200D01*
X141928095Y-94037200D02*
X141880476Y-93989580D01*
X161933333Y-68259580D02*
X161885714Y-68307200D01*
X161885714Y-68307200D02*
X161742857Y-68354819D01*
X161742857Y-68354819D02*
X161647619Y-68354819D01*
X161647619Y-68354819D02*
X161504762Y-68307200D01*
X161504762Y-68307200D02*
X161409524Y-68211961D01*
X161409524Y-68211961D02*
X161361905Y-68116723D01*
X161361905Y-68116723D02*
X161314286Y-67926247D01*
X161314286Y-67926247D02*
X161314286Y-67783390D01*
X161314286Y-67783390D02*
X161361905Y-67592914D01*
X161361905Y-67592914D02*
X161409524Y-67497676D01*
X161409524Y-67497676D02*
X161504762Y-67402438D01*
X161504762Y-67402438D02*
X161647619Y-67354819D01*
X161647619Y-67354819D02*
X161742857Y-67354819D01*
X161742857Y-67354819D02*
X161885714Y-67402438D01*
X161885714Y-67402438D02*
X161933333Y-67450057D01*
X162314286Y-67450057D02*
X162361905Y-67402438D01*
X162361905Y-67402438D02*
X162457143Y-67354819D01*
X162457143Y-67354819D02*
X162695238Y-67354819D01*
X162695238Y-67354819D02*
X162790476Y-67402438D01*
X162790476Y-67402438D02*
X162838095Y-67450057D01*
X162838095Y-67450057D02*
X162885714Y-67545295D01*
X162885714Y-67545295D02*
X162885714Y-67640533D01*
X162885714Y-67640533D02*
X162838095Y-67783390D01*
X162838095Y-67783390D02*
X162266667Y-68354819D01*
X162266667Y-68354819D02*
X162885714Y-68354819D01*
X161338095Y-97654819D02*
X161338095Y-98464342D01*
X161338095Y-98464342D02*
X161385714Y-98559580D01*
X161385714Y-98559580D02*
X161433333Y-98607200D01*
X161433333Y-98607200D02*
X161528571Y-98654819D01*
X161528571Y-98654819D02*
X161719047Y-98654819D01*
X161719047Y-98654819D02*
X161814285Y-98607200D01*
X161814285Y-98607200D02*
X161861904Y-98559580D01*
X161861904Y-98559580D02*
X161909523Y-98464342D01*
X161909523Y-98464342D02*
X161909523Y-97654819D01*
X162909523Y-98654819D02*
X162338095Y-98654819D01*
X162623809Y-98654819D02*
X162623809Y-97654819D01*
X162623809Y-97654819D02*
X162528571Y-97797676D01*
X162528571Y-97797676D02*
X162433333Y-97892914D01*
X162433333Y-97892914D02*
X162338095Y-97940533D01*
X198420819Y-39239333D02*
X199135104Y-39239333D01*
X199135104Y-39239333D02*
X199277961Y-39286952D01*
X199277961Y-39286952D02*
X199373200Y-39382190D01*
X199373200Y-39382190D02*
X199420819Y-39525047D01*
X199420819Y-39525047D02*
X199420819Y-39620285D01*
X198420819Y-38286952D02*
X198420819Y-38763142D01*
X198420819Y-38763142D02*
X198897009Y-38810761D01*
X198897009Y-38810761D02*
X198849390Y-38763142D01*
X198849390Y-38763142D02*
X198801771Y-38667904D01*
X198801771Y-38667904D02*
X198801771Y-38429809D01*
X198801771Y-38429809D02*
X198849390Y-38334571D01*
X198849390Y-38334571D02*
X198897009Y-38286952D01*
X198897009Y-38286952D02*
X198992247Y-38239333D01*
X198992247Y-38239333D02*
X199230342Y-38239333D01*
X199230342Y-38239333D02*
X199325580Y-38286952D01*
X199325580Y-38286952D02*
X199373200Y-38334571D01*
X199373200Y-38334571D02*
X199420819Y-38429809D01*
X199420819Y-38429809D02*
X199420819Y-38667904D01*
X199420819Y-38667904D02*
X199373200Y-38763142D01*
X199373200Y-38763142D02*
X199325580Y-38810761D01*
X141913333Y-68679580D02*
X141865714Y-68727200D01*
X141865714Y-68727200D02*
X141722857Y-68774819D01*
X141722857Y-68774819D02*
X141627619Y-68774819D01*
X141627619Y-68774819D02*
X141484762Y-68727200D01*
X141484762Y-68727200D02*
X141389524Y-68631961D01*
X141389524Y-68631961D02*
X141341905Y-68536723D01*
X141341905Y-68536723D02*
X141294286Y-68346247D01*
X141294286Y-68346247D02*
X141294286Y-68203390D01*
X141294286Y-68203390D02*
X141341905Y-68012914D01*
X141341905Y-68012914D02*
X141389524Y-67917676D01*
X141389524Y-67917676D02*
X141484762Y-67822438D01*
X141484762Y-67822438D02*
X141627619Y-67774819D01*
X141627619Y-67774819D02*
X141722857Y-67774819D01*
X141722857Y-67774819D02*
X141865714Y-67822438D01*
X141865714Y-67822438D02*
X141913333Y-67870057D01*
X142865714Y-68774819D02*
X142294286Y-68774819D01*
X142580000Y-68774819D02*
X142580000Y-67774819D01*
X142580000Y-67774819D02*
X142484762Y-67917676D01*
X142484762Y-67917676D02*
X142389524Y-68012914D01*
X142389524Y-68012914D02*
X142294286Y-68060533D01*
X155033333Y-38959580D02*
X154985714Y-39007200D01*
X154985714Y-39007200D02*
X154842857Y-39054819D01*
X154842857Y-39054819D02*
X154747619Y-39054819D01*
X154747619Y-39054819D02*
X154604762Y-39007200D01*
X154604762Y-39007200D02*
X154509524Y-38911961D01*
X154509524Y-38911961D02*
X154461905Y-38816723D01*
X154461905Y-38816723D02*
X154414286Y-38626247D01*
X154414286Y-38626247D02*
X154414286Y-38483390D01*
X154414286Y-38483390D02*
X154461905Y-38292914D01*
X154461905Y-38292914D02*
X154509524Y-38197676D01*
X154509524Y-38197676D02*
X154604762Y-38102438D01*
X154604762Y-38102438D02*
X154747619Y-38054819D01*
X154747619Y-38054819D02*
X154842857Y-38054819D01*
X154842857Y-38054819D02*
X154985714Y-38102438D01*
X154985714Y-38102438D02*
X155033333Y-38150057D01*
X155366667Y-38054819D02*
X155985714Y-38054819D01*
X155985714Y-38054819D02*
X155652381Y-38435771D01*
X155652381Y-38435771D02*
X155795238Y-38435771D01*
X155795238Y-38435771D02*
X155890476Y-38483390D01*
X155890476Y-38483390D02*
X155938095Y-38531009D01*
X155938095Y-38531009D02*
X155985714Y-38626247D01*
X155985714Y-38626247D02*
X155985714Y-38864342D01*
X155985714Y-38864342D02*
X155938095Y-38959580D01*
X155938095Y-38959580D02*
X155890476Y-39007200D01*
X155890476Y-39007200D02*
X155795238Y-39054819D01*
X155795238Y-39054819D02*
X155509524Y-39054819D01*
X155509524Y-39054819D02*
X155414286Y-39007200D01*
X155414286Y-39007200D02*
X155366667Y-38959580D01*
X140566666Y-101529819D02*
X140566666Y-102244104D01*
X140566666Y-102244104D02*
X140519047Y-102386961D01*
X140519047Y-102386961D02*
X140423809Y-102482200D01*
X140423809Y-102482200D02*
X140280952Y-102529819D01*
X140280952Y-102529819D02*
X140185714Y-102529819D01*
X140995238Y-101625057D02*
X141042857Y-101577438D01*
X141042857Y-101577438D02*
X141138095Y-101529819D01*
X141138095Y-101529819D02*
X141376190Y-101529819D01*
X141376190Y-101529819D02*
X141471428Y-101577438D01*
X141471428Y-101577438D02*
X141519047Y-101625057D01*
X141519047Y-101625057D02*
X141566666Y-101720295D01*
X141566666Y-101720295D02*
X141566666Y-101815533D01*
X141566666Y-101815533D02*
X141519047Y-101958390D01*
X141519047Y-101958390D02*
X140947619Y-102529819D01*
X140947619Y-102529819D02*
X141566666Y-102529819D01*
X188466666Y-101529819D02*
X188466666Y-102244104D01*
X188466666Y-102244104D02*
X188419047Y-102386961D01*
X188419047Y-102386961D02*
X188323809Y-102482200D01*
X188323809Y-102482200D02*
X188180952Y-102529819D01*
X188180952Y-102529819D02*
X188085714Y-102529819D01*
X189371428Y-101863152D02*
X189371428Y-102529819D01*
X189133333Y-101482200D02*
X188895238Y-102196485D01*
X188895238Y-102196485D02*
X189514285Y-102196485D01*
X154338095Y-30704819D02*
X154338095Y-31514342D01*
X154338095Y-31514342D02*
X154385714Y-31609580D01*
X154385714Y-31609580D02*
X154433333Y-31657200D01*
X154433333Y-31657200D02*
X154528571Y-31704819D01*
X154528571Y-31704819D02*
X154719047Y-31704819D01*
X154719047Y-31704819D02*
X154814285Y-31657200D01*
X154814285Y-31657200D02*
X154861904Y-31609580D01*
X154861904Y-31609580D02*
X154909523Y-31514342D01*
X154909523Y-31514342D02*
X154909523Y-30704819D01*
X155338095Y-30800057D02*
X155385714Y-30752438D01*
X155385714Y-30752438D02*
X155480952Y-30704819D01*
X155480952Y-30704819D02*
X155719047Y-30704819D01*
X155719047Y-30704819D02*
X155814285Y-30752438D01*
X155814285Y-30752438D02*
X155861904Y-30800057D01*
X155861904Y-30800057D02*
X155909523Y-30895295D01*
X155909523Y-30895295D02*
X155909523Y-30990533D01*
X155909523Y-30990533D02*
X155861904Y-31133390D01*
X155861904Y-31133390D02*
X155290476Y-31704819D01*
X155290476Y-31704819D02*
X155909523Y-31704819D01*
X142620819Y-39279333D02*
X143335104Y-39279333D01*
X143335104Y-39279333D02*
X143477961Y-39326952D01*
X143477961Y-39326952D02*
X143573200Y-39422190D01*
X143573200Y-39422190D02*
X143620819Y-39565047D01*
X143620819Y-39565047D02*
X143620819Y-39660285D01*
X143620819Y-38279333D02*
X143620819Y-38850761D01*
X143620819Y-38565047D02*
X142620819Y-38565047D01*
X142620819Y-38565047D02*
X142763676Y-38660285D01*
X142763676Y-38660285D02*
X142858914Y-38755523D01*
X142858914Y-38755523D02*
X142906533Y-38850761D01*
X168581905Y-54134819D02*
X168581905Y-53134819D01*
X168581905Y-53134819D02*
X168820000Y-53134819D01*
X168820000Y-53134819D02*
X168962857Y-53182438D01*
X168962857Y-53182438D02*
X169058095Y-53277676D01*
X169058095Y-53277676D02*
X169105714Y-53372914D01*
X169105714Y-53372914D02*
X169153333Y-53563390D01*
X169153333Y-53563390D02*
X169153333Y-53706247D01*
X169153333Y-53706247D02*
X169105714Y-53896723D01*
X169105714Y-53896723D02*
X169058095Y-53991961D01*
X169058095Y-53991961D02*
X168962857Y-54087200D01*
X168962857Y-54087200D02*
X168820000Y-54134819D01*
X168820000Y-54134819D02*
X168581905Y-54134819D01*
X170105714Y-54134819D02*
X169534286Y-54134819D01*
X169820000Y-54134819D02*
X169820000Y-53134819D01*
X169820000Y-53134819D02*
X169724762Y-53277676D01*
X169724762Y-53277676D02*
X169629524Y-53372914D01*
X169629524Y-53372914D02*
X169534286Y-53420533D01*
X163978095Y-54854819D02*
X163978095Y-53854819D01*
X164549523Y-54854819D02*
X164120952Y-54283390D01*
X164549523Y-53854819D02*
X163978095Y-54426247D01*
X153433333Y-51924819D02*
X153100000Y-51448628D01*
X152861905Y-51924819D02*
X152861905Y-50924819D01*
X152861905Y-50924819D02*
X153242857Y-50924819D01*
X153242857Y-50924819D02*
X153338095Y-50972438D01*
X153338095Y-50972438D02*
X153385714Y-51020057D01*
X153385714Y-51020057D02*
X153433333Y-51115295D01*
X153433333Y-51115295D02*
X153433333Y-51258152D01*
X153433333Y-51258152D02*
X153385714Y-51353390D01*
X153385714Y-51353390D02*
X153338095Y-51401009D01*
X153338095Y-51401009D02*
X153242857Y-51448628D01*
X153242857Y-51448628D02*
X152861905Y-51448628D01*
X154385714Y-51924819D02*
X153814286Y-51924819D01*
X154100000Y-51924819D02*
X154100000Y-50924819D01*
X154100000Y-50924819D02*
X154004762Y-51067676D01*
X154004762Y-51067676D02*
X153909524Y-51162914D01*
X153909524Y-51162914D02*
X153814286Y-51210533D01*
D11*
%TO.C,Q1*%
X172130000Y-44450000D02*
X175730000Y-44450000D01*
X172091522Y-44438478D02*
G75*
G02*
X173930000Y-39999999I1838478J1838478D01*
G01*
X173930000Y-40000000D02*
G75*
G02*
X175768478Y-44438478I0J-2600000D01*
G01*
%TO.C,RN1*%
X176500000Y-70680000D02*
X176500000Y-91340000D01*
X176500000Y-88630000D02*
X179300000Y-88630000D01*
X176500000Y-91340000D02*
X179300000Y-91340000D01*
X179300000Y-70680000D02*
X176500000Y-70680000D01*
X179300000Y-91340000D02*
X179300000Y-70680000D01*
%TO.C,U3*%
X139040000Y-72190000D02*
X139040000Y-92630000D01*
X139040000Y-92630000D02*
X140690000Y-92630000D01*
X142690000Y-92630000D02*
X144340000Y-92630000D01*
X144340000Y-72190000D02*
X139040000Y-72190000D01*
X144340000Y-92630000D02*
X144340000Y-72190000D01*
X140690000Y-92630000D02*
G75*
G02*
X142690000Y-92630000I1000000J0D01*
G01*
%TO.C,C2*%
X159830000Y-68805000D02*
X159830000Y-68790000D01*
X159830000Y-70930000D02*
X159830000Y-70915000D01*
X164370000Y-68790000D02*
X159830000Y-68790000D01*
X164370000Y-68805000D02*
X164370000Y-68790000D01*
X164370000Y-70930000D02*
X159830000Y-70930000D01*
X164370000Y-70930000D02*
X164370000Y-70915000D01*
%TO.C,U1*%
X159440000Y-71510000D02*
X159440000Y-97030000D01*
X159440000Y-97030000D02*
X164740000Y-97030000D01*
X161090000Y-71510000D02*
X159440000Y-71510000D01*
X164740000Y-71510000D02*
X163090000Y-71510000D01*
X164740000Y-97030000D02*
X164740000Y-71510000D01*
X163090000Y-71510000D02*
G75*
G02*
X161090000Y-71510000I-1000000J0D01*
G01*
%TO.C,J5*%
X187282000Y-33826000D02*
X187282000Y-34334000D01*
X187282000Y-34334000D02*
X187790000Y-34080000D01*
X187790000Y-34080000D02*
X187282000Y-33826000D01*
X188430000Y-55980000D02*
X188430000Y-22340000D01*
X188430000Y-55980000D02*
X197310000Y-55980000D01*
X197310000Y-22340000D02*
X188430000Y-22340000D01*
X197310000Y-22340000D02*
X197310000Y-55980000D01*
%TO.C,C1*%
X139810000Y-69450000D02*
X139810000Y-69465000D01*
X139810000Y-69450000D02*
X144350000Y-69450000D01*
X139810000Y-71575000D02*
X139810000Y-71590000D01*
X139810000Y-71590000D02*
X144350000Y-71590000D01*
X144350000Y-69450000D02*
X144350000Y-69465000D01*
X144350000Y-71575000D02*
X144350000Y-71590000D01*
%TO.C,C3*%
X152930000Y-35345000D02*
X152930000Y-35330000D01*
X152930000Y-37470000D02*
X152930000Y-37455000D01*
X157470000Y-35330000D02*
X152930000Y-35330000D01*
X157470000Y-35345000D02*
X157470000Y-35330000D01*
X157470000Y-37470000D02*
X152930000Y-37470000D01*
X157470000Y-37470000D02*
X157470000Y-37455000D01*
%TO.C,J2*%
X132900000Y-108515000D02*
X148900000Y-108515000D01*
X132900000Y-111935000D02*
X132900000Y-108515000D01*
X133350000Y-103015000D02*
X133350000Y-104625000D01*
X133950000Y-111935000D02*
X132900000Y-111935000D01*
X133950000Y-118135000D02*
X133950000Y-111935000D01*
X134140000Y-118135000D02*
X134140000Y-119635000D01*
X134140000Y-119635000D02*
X135780000Y-119635000D01*
X134960000Y-103015000D02*
X133350000Y-103015000D01*
X135780000Y-119635000D02*
X135780000Y-118135000D01*
X138100000Y-118135000D02*
X138100000Y-119635000D01*
X138100000Y-119635000D02*
X139740000Y-119635000D01*
X139740000Y-119635000D02*
X139740000Y-118135000D01*
X142060000Y-118135000D02*
X142060000Y-119635000D01*
X142060000Y-119635000D02*
X143700000Y-119635000D01*
X143700000Y-119635000D02*
X143700000Y-118135000D01*
X146020000Y-118135000D02*
X146020000Y-119635000D01*
X146020000Y-119635000D02*
X147660000Y-119635000D01*
X147660000Y-119635000D02*
X147660000Y-118135000D01*
X147850000Y-111935000D02*
X147850000Y-118135000D01*
X147850000Y-118135000D02*
X133950000Y-118135000D01*
X148900000Y-108515000D02*
X148900000Y-111935000D01*
X148900000Y-111935000D02*
X147850000Y-111935000D01*
%TO.C,J4*%
X180800000Y-108515000D02*
X196800000Y-108515000D01*
X180800000Y-111935000D02*
X180800000Y-108515000D01*
X181250000Y-103015000D02*
X181250000Y-104625000D01*
X181850000Y-111935000D02*
X180800000Y-111935000D01*
X181850000Y-118135000D02*
X181850000Y-111935000D01*
X182040000Y-118135000D02*
X182040000Y-119635000D01*
X182040000Y-119635000D02*
X183680000Y-119635000D01*
X182860000Y-103015000D02*
X181250000Y-103015000D01*
X183680000Y-119635000D02*
X183680000Y-118135000D01*
X186000000Y-118135000D02*
X186000000Y-119635000D01*
X186000000Y-119635000D02*
X187640000Y-119635000D01*
X187640000Y-119635000D02*
X187640000Y-118135000D01*
X189960000Y-118135000D02*
X189960000Y-119635000D01*
X189960000Y-119635000D02*
X191600000Y-119635000D01*
X191600000Y-119635000D02*
X191600000Y-118135000D01*
X193920000Y-118135000D02*
X193920000Y-119635000D01*
X193920000Y-119635000D02*
X195560000Y-119635000D01*
X195560000Y-119635000D02*
X195560000Y-118135000D01*
X195750000Y-111935000D02*
X195750000Y-118135000D01*
X195750000Y-118135000D02*
X181850000Y-118135000D01*
X196800000Y-108515000D02*
X196800000Y-111935000D01*
X196800000Y-111935000D02*
X195750000Y-111935000D01*
%TO.C,U2*%
X154390000Y-32340000D02*
X155800000Y-32340000D01*
X154400000Y-34660000D02*
X155800000Y-34660000D01*
X154020000Y-32390000D02*
X153780000Y-32060000D01*
X154260000Y-32060000D01*
X154020000Y-32390000D01*
G36*
X154020000Y-32390000D02*
G01*
X153780000Y-32060000D01*
X154260000Y-32060000D01*
X154020000Y-32390000D01*
G37*
%TO.C,J1*%
X131482000Y-33866000D02*
X131482000Y-34374000D01*
X131482000Y-34374000D02*
X131990000Y-34120000D01*
X131990000Y-34120000D02*
X131482000Y-33866000D01*
X132630000Y-56020000D02*
X132630000Y-22380000D01*
X132630000Y-56020000D02*
X141510000Y-56020000D01*
X141510000Y-22380000D02*
X132630000Y-22380000D01*
X141510000Y-22380000D02*
X141510000Y-56020000D01*
%TO.C,D1*%
X165400000Y-54680000D02*
X173240000Y-54680000D01*
X165400000Y-55160000D02*
X165400000Y-54680000D01*
X165400000Y-58040000D02*
X165400000Y-58520000D01*
X165400000Y-58520000D02*
X173240000Y-58520000D01*
X166540000Y-54680000D02*
X166540000Y-58520000D01*
X166660000Y-54680000D02*
X166660000Y-58520000D01*
X166780000Y-54680000D02*
X166780000Y-58520000D01*
X173240000Y-54680000D02*
X173240000Y-55160000D01*
X173240000Y-58520000D02*
X173240000Y-58040000D01*
%TO.C,R1*%
X149560000Y-49100000D02*
X150330000Y-49100000D01*
X150330000Y-47730000D02*
X150330000Y-50470000D01*
X150330000Y-50470000D02*
X156870000Y-50470000D01*
X156870000Y-47730000D02*
X150330000Y-47730000D01*
X156870000Y-50470000D02*
X156870000Y-47730000D01*
X157640000Y-49100000D02*
X156870000Y-49100000D01*
%TD*%
M02*
