%TF.GenerationSoftware,KiCad,Pcbnew,8.0.5*%
%TF.CreationDate,2024-10-11T16:52:01+02:00*%
%TF.ProjectId,plug-module,706c7567-2d6d-46f6-9475-6c652e6b6963,rev?*%
%TF.SameCoordinates,Original*%
%TF.FileFunction,Copper,L2,Bot*%
%TF.FilePolarity,Positive*%
%FSLAX46Y46*%
G04 Gerber Fmt 4.6, Leading zero omitted, Abs format (unit mm)*
G04 Created by KiCad (PCBNEW 8.0.5) date 2024-10-11 16:52:01*
%MOMM*%
%LPD*%
G01*
G04 APERTURE LIST*
G04 Aperture macros list*
%AMRoundRect*
0 Rectangle with rounded corners*
0 $1 Rounding radius*
0 $2 $3 $4 $5 $6 $7 $8 $9 X,Y pos of 4 corners*
0 Add a 4 corners polygon primitive as box body*
4,1,4,$2,$3,$4,$5,$6,$7,$8,$9,$2,$3,0*
0 Add four circle primitives for the rounded corners*
1,1,$1+$1,$2,$3*
1,1,$1+$1,$4,$5*
1,1,$1+$1,$6,$7*
1,1,$1+$1,$8,$9*
0 Add four rect primitives between the rounded corners*
20,1,$1+$1,$2,$3,$4,$5,0*
20,1,$1+$1,$4,$5,$6,$7,0*
20,1,$1+$1,$6,$7,$8,$9,0*
20,1,$1+$1,$8,$9,$2,$3,0*%
G04 Aperture macros list end*
%TA.AperFunction,ComponentPad*%
%ADD10R,1.050000X1.500000*%
%TD*%
%TA.AperFunction,ComponentPad*%
%ADD11O,1.050000X1.500000*%
%TD*%
%TA.AperFunction,ComponentPad*%
%ADD12R,1.600000X1.600000*%
%TD*%
%TA.AperFunction,ComponentPad*%
%ADD13O,1.600000X1.600000*%
%TD*%
%TA.AperFunction,ComponentPad*%
%ADD14C,1.600000*%
%TD*%
%TA.AperFunction,ComponentPad*%
%ADD15R,1.520000X1.520000*%
%TD*%
%TA.AperFunction,ComponentPad*%
%ADD16C,1.520000*%
%TD*%
%TA.AperFunction,ComponentPad*%
%ADD17RoundRect,0.250001X-1.099999X-1.099999X1.099999X-1.099999X1.099999X1.099999X-1.099999X1.099999X0*%
%TD*%
%TA.AperFunction,ComponentPad*%
%ADD18C,2.700000*%
%TD*%
%TA.AperFunction,ComponentPad*%
%ADD19R,2.400000X2.400000*%
%TD*%
%TA.AperFunction,ComponentPad*%
%ADD20O,2.400000X2.400000*%
%TD*%
%TA.AperFunction,ComponentPad*%
%ADD21C,1.524000*%
%TD*%
%TA.AperFunction,ViaPad*%
%ADD22C,0.600000*%
%TD*%
%TA.AperFunction,Conductor*%
%ADD23C,0.200000*%
%TD*%
%TA.AperFunction,Conductor*%
%ADD24C,0.400000*%
%TD*%
G04 APERTURE END LIST*
D10*
%TO.P,Q1,1,D*%
%TO.N,/RELAIS_GND*%
X172660000Y-42600000D03*
D11*
%TO.P,Q1,2,G*%
%TO.N,Net-(Q1-G)*%
X173930000Y-42600000D03*
%TO.P,Q1,3,S*%
%TO.N,GND*%
X175200000Y-42600000D03*
%TD*%
D12*
%TO.P,RN1,1,common*%
%TO.N,+5V*%
X177900000Y-89900000D03*
D13*
%TO.P,RN1,2,R1*%
%TO.N,/BIT6*%
X177900000Y-87360000D03*
%TO.P,RN1,3,R2*%
%TO.N,/BIT5*%
X177900000Y-84820000D03*
%TO.P,RN1,4,R3*%
%TO.N,/BIT4*%
X177900000Y-82280000D03*
%TO.P,RN1,5,R4*%
%TO.N,/BIT3*%
X177900000Y-79740000D03*
%TO.P,RN1,6,R5*%
%TO.N,/BIT2*%
X177900000Y-77200000D03*
%TO.P,RN1,7,R6*%
%TO.N,/BIT1*%
X177900000Y-74660000D03*
%TO.P,RN1,8,R7*%
%TO.N,/BIT0*%
X177900000Y-72120000D03*
%TD*%
D12*
%TO.P,U3,1,QB*%
%TO.N,Net-(U1-R1)*%
X145500000Y-91300000D03*
D13*
%TO.P,U3,2,QC*%
%TO.N,Net-(U1-R2)*%
X145500000Y-88760000D03*
%TO.P,U3,3,QD*%
%TO.N,Net-(U1-R3)*%
X145500000Y-86220000D03*
%TO.P,U3,4,QE*%
%TO.N,Net-(U1-R4)*%
X145500000Y-83680000D03*
%TO.P,U3,5,QF*%
%TO.N,Net-(U1-R5)*%
X145500000Y-81140000D03*
%TO.P,U3,6,QG*%
%TO.N,Net-(U1-R6)*%
X145500000Y-78600000D03*
%TO.P,U3,7,QH*%
%TO.N,unconnected-(U3-QH-Pad7)*%
X145500000Y-76060000D03*
%TO.P,U3,8,GND*%
%TO.N,GND*%
X145500000Y-73520000D03*
%TO.P,U3,9,QH'*%
%TO.N,/DATA_OUT*%
X137880000Y-73520000D03*
%TO.P,U3,10,~{SRCLR}*%
%TO.N,/SHIFT_CLEAR*%
X137880000Y-76060000D03*
%TO.P,U3,11,SRCLK*%
%TO.N,/SHIFT_CLOCK*%
X137880000Y-78600000D03*
%TO.P,U3,12,RCLK*%
%TO.N,/SHIFT_LATCH*%
X137880000Y-81140000D03*
%TO.P,U3,13,~{OE}*%
%TO.N,/SHIFT_OUTPUT_ENABLE*%
X137880000Y-83680000D03*
%TO.P,U3,14,SER*%
%TO.N,/DATA_IN*%
X137880000Y-86220000D03*
%TO.P,U3,15,QA*%
%TO.N,Net-(U1-R0)*%
X137880000Y-88760000D03*
%TO.P,U3,16,VCC*%
%TO.N,+5V*%
X137880000Y-91300000D03*
%TD*%
D14*
%TO.P,C2,1*%
%TO.N,+5V*%
X164600000Y-69860000D03*
%TO.P,C2,2*%
%TO.N,GND*%
X159600000Y-69860000D03*
%TD*%
D12*
%TO.P,U1,1,G*%
%TO.N,GND*%
X158280000Y-72840000D03*
D13*
%TO.P,U1,2,P0*%
%TO.N,/BIT0*%
X158280000Y-75380000D03*
%TO.P,U1,3,R0*%
%TO.N,Net-(U1-R0)*%
X158280000Y-77920000D03*
%TO.P,U1,4,P1*%
%TO.N,/BIT1*%
X158280000Y-80460000D03*
%TO.P,U1,5,R1*%
%TO.N,Net-(U1-R1)*%
X158280000Y-83000000D03*
%TO.P,U1,6,P2*%
%TO.N,/BIT2*%
X158280000Y-85540000D03*
%TO.P,U1,7,R2*%
%TO.N,Net-(U1-R2)*%
X158280000Y-88080000D03*
%TO.P,U1,8,P3*%
%TO.N,/BIT3*%
X158280000Y-90620000D03*
%TO.P,U1,9,R3*%
%TO.N,Net-(U1-R3)*%
X158280000Y-93160000D03*
%TO.P,U1,10,GND*%
%TO.N,GND*%
X158280000Y-95700000D03*
%TO.P,U1,11,P4*%
%TO.N,/BIT4*%
X165900000Y-95700000D03*
%TO.P,U1,12,R4*%
%TO.N,Net-(U1-R4)*%
X165900000Y-93160000D03*
%TO.P,U1,13,P5*%
%TO.N,/BIT5*%
X165900000Y-90620000D03*
%TO.P,U1,14,R5*%
%TO.N,Net-(U1-R5)*%
X165900000Y-88080000D03*
%TO.P,U1,15,P6*%
%TO.N,/BIT6*%
X165900000Y-85540000D03*
%TO.P,U1,16,R6*%
%TO.N,Net-(U1-R6)*%
X165900000Y-83000000D03*
%TO.P,U1,17,P7*%
%TO.N,GND*%
X165900000Y-80460000D03*
%TO.P,U1,18,R7*%
X165900000Y-77920000D03*
%TO.P,U1,19,P=R*%
%TO.N,/NEQ*%
X165900000Y-75380000D03*
%TO.P,U1,20,VCC*%
%TO.N,+5V*%
X165900000Y-72840000D03*
%TD*%
D15*
%TO.P,J5,1,Pin_1*%
%TO.N,/SHIFT_CLOCK*%
X191600000Y-44240000D03*
D16*
%TO.P,J5,2,Pin_2*%
%TO.N,/SHIFT_CLEAR*%
X194140000Y-44240000D03*
%TO.P,J5,3,Pin_3*%
%TO.N,/SHIFT_LATCH*%
X191600000Y-41700000D03*
%TO.P,J5,4,Pin_4*%
%TO.N,/SHIFT_OUTPUT_ENABLE*%
X194140000Y-41700000D03*
%TO.P,J5,5,Pin_5*%
%TO.N,/DATA_IN*%
X191600000Y-39160000D03*
%TO.P,J5,6,Pin_6*%
%TO.N,/SPIN_ENABLE*%
X194140000Y-39160000D03*
%TO.P,J5,7,Pin_7*%
%TO.N,+5V*%
X191600000Y-36620000D03*
%TO.P,J5,8,Pin_8*%
X194140000Y-36620000D03*
%TO.P,J5,9,Pin_9*%
%TO.N,GND*%
X191600000Y-34080000D03*
%TO.P,J5,10,Pin_10*%
X194140000Y-34080000D03*
%TD*%
D14*
%TO.P,C1,1*%
%TO.N,+5V*%
X139580000Y-70520000D03*
%TO.P,C1,2*%
%TO.N,GND*%
X144580000Y-70520000D03*
%TD*%
%TO.P,C3,1*%
%TO.N,+5V*%
X157700000Y-36400000D03*
%TO.P,C3,2*%
%TO.N,GND*%
X152700000Y-36400000D03*
%TD*%
D17*
%TO.P,J2,1,Pin_1*%
%TO.N,GND*%
X134960000Y-104625000D03*
D18*
%TO.P,J2,2,Pin_2*%
%TO.N,+24V*%
X138920000Y-104625000D03*
%TO.P,J2,3,Pin_3*%
%TO.N,/24VAC_N*%
X142880000Y-104625000D03*
%TO.P,J2,4,Pin_4*%
%TO.N,/24VAC_P*%
X146840000Y-104625000D03*
%TD*%
D17*
%TO.P,J4,1,Pin_1*%
%TO.N,GND*%
X182860000Y-104625000D03*
D18*
%TO.P,J4,2,Pin_2*%
%TO.N,+24V*%
X186820000Y-104625000D03*
%TO.P,J4,3,Pin_3*%
%TO.N,/24VAC_N*%
X190780000Y-104625000D03*
%TO.P,J4,4,Pin_4*%
%TO.N,/24VAC_P*%
X194740000Y-104625000D03*
%TD*%
D15*
%TO.P,J1,1,Pin_1*%
%TO.N,/SHIFT_CLOCK*%
X135800000Y-44280000D03*
D16*
%TO.P,J1,2,Pin_2*%
%TO.N,/SHIFT_CLEAR*%
X138340000Y-44280000D03*
%TO.P,J1,3,Pin_3*%
%TO.N,/SHIFT_LATCH*%
X135800000Y-41740000D03*
%TO.P,J1,4,Pin_4*%
%TO.N,/SHIFT_OUTPUT_ENABLE*%
X138340000Y-41740000D03*
%TO.P,J1,5,Pin_5*%
%TO.N,/DATA_OUT*%
X135800000Y-39200000D03*
%TO.P,J1,6,Pin_6*%
%TO.N,/SPIN_ENABLE*%
X138340000Y-39200000D03*
%TO.P,J1,7,Pin_7*%
%TO.N,+5V*%
X135800000Y-36660000D03*
%TO.P,J1,8,Pin_8*%
X138340000Y-36660000D03*
%TO.P,J1,9,Pin_9*%
%TO.N,GND*%
X135800000Y-34120000D03*
%TO.P,J1,10,Pin_10*%
X138340000Y-34120000D03*
%TD*%
D19*
%TO.P,D1,1,K*%
%TO.N,/RELAIS_GND*%
X164240000Y-56600000D03*
D20*
%TO.P,D1,2,A*%
%TO.N,GND*%
X174400000Y-56600000D03*
%TD*%
D14*
%TO.P,R1,1*%
%TO.N,Net-(Q1-G)*%
X158680000Y-49100000D03*
D13*
%TO.P,R1,2*%
%TO.N,GND*%
X148520000Y-49100000D03*
%TD*%
D21*
%TO.P,J3,1,Pin_1*%
%TO.N,GND*%
X193000000Y-59440000D03*
X187500000Y-59440000D03*
%TO.P,J3,2,Pin_2*%
X193000000Y-61980000D03*
X187500000Y-61980000D03*
%TO.P,J3,3,Pin_3*%
%TO.N,+24V*%
X193000000Y-64520000D03*
X187500000Y-64520000D03*
%TO.P,J3,4,Pin_4*%
X193000000Y-67060000D03*
X187500000Y-67060000D03*
%TO.P,J3,5,Pin_5*%
%TO.N,unconnected-(J3-Pin_5-Pad5)*%
X193000000Y-69600000D03*
%TO.N,unconnected-(J3-Pin_5-Pad5)_1*%
X187500000Y-69600000D03*
%TO.P,J3,6,Pin_6*%
%TO.N,/BIT0*%
X193000000Y-72140000D03*
X187500000Y-72140000D03*
%TO.P,J3,7,Pin_7*%
%TO.N,/BIT1*%
X193000000Y-74680000D03*
X187500000Y-74680000D03*
%TO.P,J3,8,Pin_8*%
%TO.N,/BIT2*%
X193000000Y-77220000D03*
X187500000Y-77220000D03*
%TO.P,J3,9,Pin_9*%
%TO.N,/BIT3*%
X193000000Y-79760000D03*
X187500000Y-79760000D03*
%TO.P,J3,10,Pin_10*%
%TO.N,/BIT4*%
X193000000Y-82300000D03*
X187500000Y-82300000D03*
%TO.P,J3,11,Pin_11*%
%TO.N,/BIT5*%
X193000000Y-84840000D03*
X187500000Y-84840000D03*
%TO.P,J3,12,Pin_12*%
%TO.N,/BIT6*%
X193000000Y-87380000D03*
X187500000Y-87380000D03*
%TO.P,J3,13,Pin_13*%
%TO.N,/RELAIS_GND*%
X193000000Y-89920000D03*
X187500000Y-89920000D03*
%TO.P,J3,14,Pin_14*%
%TO.N,/24VAC_N*%
X193000000Y-92460000D03*
X187500000Y-92460000D03*
%TO.P,J3,15,Pin_15*%
%TO.N,/24VAC_P*%
X193000000Y-95000000D03*
X187500000Y-95000000D03*
%TD*%
D22*
%TO.N,GND*%
X170200000Y-25200000D03*
X162200000Y-28200000D03*
X165200000Y-27200000D03*
X171200000Y-28200000D03*
X169200000Y-32200000D03*
X169200000Y-27200000D03*
X165200000Y-23200000D03*
X166200000Y-106200000D03*
X169200000Y-30200000D03*
X162200000Y-23200000D03*
X168200000Y-25200000D03*
X168200000Y-23200000D03*
X163200000Y-29200000D03*
X160200000Y-106200000D03*
X166200000Y-30200000D03*
X168200000Y-27200000D03*
X167200000Y-29200000D03*
X170200000Y-30200000D03*
X164200000Y-32200000D03*
X164200000Y-105200000D03*
X164200000Y-27200000D03*
X170200000Y-27200000D03*
X167200000Y-23200000D03*
X166200000Y-103200000D03*
X164200000Y-25200000D03*
X168200000Y-106200000D03*
X167200000Y-103200000D03*
X165200000Y-108200000D03*
X170200000Y-31200000D03*
X165200000Y-28200000D03*
X171200000Y-23200000D03*
X171200000Y-31200000D03*
X165200000Y-32200000D03*
X162200000Y-31200000D03*
X171200000Y-30200000D03*
X168200000Y-107200000D03*
X171200000Y-29200000D03*
X168200000Y-104200000D03*
X166200000Y-28200000D03*
X164200000Y-23200000D03*
X160200000Y-104200000D03*
X166200000Y-108200000D03*
X164200000Y-26200000D03*
X162200000Y-107200000D03*
X162200000Y-27200000D03*
X169200000Y-106200000D03*
X160200000Y-107200000D03*
X165200000Y-107200000D03*
X166200000Y-32200000D03*
X163200000Y-104200000D03*
X167200000Y-26200000D03*
X168200000Y-105200000D03*
X162200000Y-108200000D03*
X162200000Y-105200000D03*
X164200000Y-106200000D03*
X164200000Y-29200000D03*
X169200000Y-108200000D03*
X163200000Y-31200000D03*
X164200000Y-107200000D03*
X160200000Y-105200000D03*
X166200000Y-25200000D03*
X165200000Y-30200000D03*
X167200000Y-107200000D03*
X165200000Y-103200000D03*
X168200000Y-24200000D03*
X166200000Y-26200000D03*
X163200000Y-32200000D03*
X169200000Y-28200000D03*
X167200000Y-32200000D03*
X170200000Y-28200000D03*
X169200000Y-104200000D03*
X168200000Y-28200000D03*
X164200000Y-28200000D03*
X167200000Y-105200000D03*
X166200000Y-31200000D03*
X162200000Y-24200000D03*
X166200000Y-105200000D03*
X169200000Y-25200000D03*
X161200000Y-106200000D03*
X164200000Y-108200000D03*
X168200000Y-31200000D03*
X167200000Y-106200000D03*
X165200000Y-25200000D03*
X160200000Y-103200000D03*
X168200000Y-29200000D03*
X162200000Y-104200000D03*
X166200000Y-29200000D03*
X162200000Y-25200000D03*
X170200000Y-24200000D03*
X169200000Y-107200000D03*
X171200000Y-26200000D03*
X167200000Y-25200000D03*
X164200000Y-103200000D03*
X168200000Y-26200000D03*
X167200000Y-30200000D03*
X167200000Y-31200000D03*
X167200000Y-108200000D03*
X169200000Y-103200000D03*
X163200000Y-27200000D03*
X162200000Y-26200000D03*
X163200000Y-23200000D03*
X167200000Y-24200000D03*
X166200000Y-104200000D03*
X166200000Y-23200000D03*
X165200000Y-104200000D03*
X165200000Y-31200000D03*
X171200000Y-24200000D03*
X161200000Y-108200000D03*
X164200000Y-104200000D03*
X162200000Y-29200000D03*
X168200000Y-32200000D03*
X165200000Y-29200000D03*
X169200000Y-23200000D03*
X165200000Y-26200000D03*
X162200000Y-103200000D03*
X169200000Y-31200000D03*
X166200000Y-27200000D03*
X163200000Y-108200000D03*
X170200000Y-32200000D03*
X163200000Y-24200000D03*
X163200000Y-28200000D03*
X171200000Y-25200000D03*
X165200000Y-106200000D03*
X167200000Y-28200000D03*
X162200000Y-32200000D03*
X162200000Y-30200000D03*
X168200000Y-30200000D03*
X171200000Y-27200000D03*
X160200000Y-108200000D03*
X162200000Y-106200000D03*
X161200000Y-103200000D03*
X163200000Y-26200000D03*
X169200000Y-29200000D03*
X164200000Y-24200000D03*
X165200000Y-105200000D03*
X170200000Y-26200000D03*
X168200000Y-103200000D03*
X170200000Y-29200000D03*
X163200000Y-25200000D03*
X167200000Y-104200000D03*
X171200000Y-32200000D03*
X168200000Y-108200000D03*
X163200000Y-106200000D03*
X163200000Y-103200000D03*
X166200000Y-107200000D03*
X169200000Y-105200000D03*
X164200000Y-31200000D03*
X161200000Y-105200000D03*
X164200000Y-30200000D03*
X165200000Y-24200000D03*
X169200000Y-24200000D03*
X163200000Y-107200000D03*
X167200000Y-27200000D03*
X161200000Y-107200000D03*
X163200000Y-30200000D03*
X166200000Y-24200000D03*
X161200000Y-104200000D03*
X163200000Y-105200000D03*
X169200000Y-26200000D03*
X170200000Y-23200000D03*
%TO.N,+5V*%
X181600000Y-70200000D03*
X157800000Y-32800000D03*
%TO.N,/RELAIS_GND*%
X184000000Y-89000000D03*
X184000000Y-70800000D03*
%TO.N,/SHIFT_CLOCK*%
X182200000Y-47700000D03*
X152600000Y-43000000D03*
X135100000Y-71200000D03*
X143400000Y-43000000D03*
X135100000Y-74400000D03*
%TO.N,/SHIFT_LATCH*%
X152600000Y-40700000D03*
X134100000Y-71200000D03*
X182200000Y-45900000D03*
X134100000Y-74400000D03*
%TO.N,/SHIFT_OUTPUT_ENABLE*%
X182200000Y-46800000D03*
X133000000Y-74400000D03*
X136200000Y-61100000D03*
X152600000Y-41700000D03*
%TO.N,/SHIFT_CLEAR*%
X152600000Y-44300000D03*
X136200000Y-71200000D03*
X136200000Y-74400000D03*
X182200000Y-48700000D03*
%TO.N,/SPIN_ENABLE*%
X165500000Y-38100000D03*
X148100000Y-35700000D03*
%TO.N,/BIT5*%
X170400000Y-90600000D03*
%TO.N,/DATA_IN*%
X159400000Y-66600000D03*
X141100000Y-83400000D03*
X176500000Y-60400000D03*
%TO.N,Net-(Q1-G)*%
X162600000Y-37400000D03*
%TO.N,Net-(U1-R1)*%
X149500000Y-89400000D03*
%TO.N,Net-(U1-R2)*%
X150900000Y-88800000D03*
X155300000Y-88100000D03*
%TD*%
D23*
%TO.N,+5V*%
X143400000Y-34300000D02*
X141040000Y-36660000D01*
X160720000Y-65980000D02*
X157620000Y-62880000D01*
X155500000Y-34300000D02*
X157000000Y-32800000D01*
X191600000Y-36620000D02*
X194140000Y-36620000D01*
X177380000Y-65980000D02*
X160720000Y-65980000D01*
X164600000Y-69860000D02*
X164600000Y-71540000D01*
X137880000Y-91300000D02*
X139580000Y-89600000D01*
X164600000Y-71540000D02*
X165900000Y-72840000D01*
X181600000Y-70200000D02*
X177380000Y-65980000D01*
X154700000Y-59960000D02*
X157620000Y-62880000D01*
X157000000Y-32800000D02*
X157800000Y-32800000D01*
X135800000Y-36660000D02*
X138340000Y-36660000D01*
X157620000Y-62880000D02*
X156840000Y-62100000D01*
X191380000Y-36400000D02*
X191600000Y-36620000D01*
X141040000Y-36660000D02*
X138340000Y-36660000D01*
X154700000Y-39400000D02*
X154700000Y-59960000D01*
X155600000Y-34300000D02*
X155500000Y-34300000D01*
X164600000Y-69860000D02*
X160720000Y-65980000D01*
X157700000Y-36400000D02*
X154700000Y-39400000D01*
X139580000Y-89600000D02*
X139580000Y-70520000D01*
X148000000Y-62100000D02*
X139580000Y-70520000D01*
X157700000Y-36400000D02*
X191380000Y-36400000D01*
X155500000Y-34300000D02*
X143400000Y-34300000D01*
X156840000Y-62100000D02*
X148000000Y-62100000D01*
X157700000Y-36400000D02*
X155600000Y-34300000D01*
%TO.N,/RELAIS_GND*%
X180400000Y-62300000D02*
X166900000Y-62300000D01*
X187500000Y-89920000D02*
X184920000Y-89920000D01*
X164240000Y-56600000D02*
X164240000Y-51020000D01*
X166900000Y-62300000D02*
X164240000Y-59640000D01*
X184000000Y-65900000D02*
X180400000Y-62300000D01*
X164240000Y-59640000D02*
X164240000Y-56600000D01*
X184920000Y-89920000D02*
X184000000Y-89000000D01*
X184000000Y-70800000D02*
X184000000Y-65900000D01*
X164240000Y-51020000D02*
X172660000Y-42600000D01*
X187500000Y-89920000D02*
X193000000Y-89920000D01*
%TO.N,/SHIFT_CLOCK*%
X135100000Y-75820000D02*
X135100000Y-74400000D01*
X183500000Y-47700000D02*
X186960000Y-44240000D01*
X135100000Y-71200000D02*
X135100000Y-44980000D01*
X137880000Y-78600000D02*
X135100000Y-75820000D01*
X135100000Y-44980000D02*
X135800000Y-44280000D01*
X186960000Y-44240000D02*
X191600000Y-44240000D01*
X182200000Y-47700000D02*
X183500000Y-47700000D01*
X143400000Y-43000000D02*
X152600000Y-43000000D01*
%TO.N,/SHIFT_LATCH*%
X182200000Y-45900000D02*
X186400000Y-41700000D01*
X152580000Y-40680000D02*
X152600000Y-40700000D01*
X134100000Y-43440000D02*
X135800000Y-41740000D01*
X136860000Y-40680000D02*
X152580000Y-40680000D01*
X135800000Y-41740000D02*
X136860000Y-40680000D01*
X134100000Y-77360000D02*
X134100000Y-74400000D01*
X186400000Y-41700000D02*
X191600000Y-41700000D01*
X134100000Y-71200000D02*
X134100000Y-43440000D01*
X137880000Y-81140000D02*
X134100000Y-77360000D01*
%TO.N,/SHIFT_OUTPUT_ENABLE*%
X137000000Y-43080000D02*
X138340000Y-41740000D01*
X152560000Y-41740000D02*
X152600000Y-41700000D01*
X182200000Y-46800000D02*
X186100000Y-42900000D01*
X136200000Y-61100000D02*
X137000000Y-60300000D01*
X137880000Y-83680000D02*
X133000000Y-78800000D01*
X133000000Y-78800000D02*
X133000000Y-74400000D01*
X186100000Y-42900000D02*
X192940000Y-42900000D01*
X137000000Y-60300000D02*
X137000000Y-43080000D01*
X138340000Y-41740000D02*
X152560000Y-41740000D01*
X192940000Y-42900000D02*
X194140000Y-41700000D01*
%TO.N,/DATA_OUT*%
X131200000Y-43800000D02*
X135800000Y-39200000D01*
X131200000Y-70800000D02*
X131200000Y-43800000D01*
X137880000Y-73520000D02*
X133920000Y-73520000D01*
X133920000Y-73520000D02*
X131200000Y-70800000D01*
%TO.N,/SHIFT_CLEAR*%
X140400000Y-62100000D02*
X140400000Y-46340000D01*
X136200000Y-66300000D02*
X140400000Y-62100000D01*
X136200000Y-71200000D02*
X136200000Y-66300000D01*
X136220000Y-74400000D02*
X136200000Y-74400000D01*
X140400000Y-46340000D02*
X138340000Y-44280000D01*
X182200000Y-48700000D02*
X189680000Y-48700000D01*
X189680000Y-48700000D02*
X194140000Y-44240000D01*
X138340000Y-44280000D02*
X152580000Y-44280000D01*
X152580000Y-44280000D02*
X152600000Y-44300000D01*
X137880000Y-76060000D02*
X136220000Y-74400000D01*
%TO.N,/SPIN_ENABLE*%
X144600000Y-39200000D02*
X138340000Y-39200000D01*
X148100000Y-35700000D02*
X144600000Y-39200000D01*
X194140000Y-39160000D02*
X193080000Y-38100000D01*
X193080000Y-38100000D02*
X165500000Y-38100000D01*
D24*
%TO.N,+24V*%
X186820000Y-102280000D02*
X188700000Y-100400000D01*
X183600000Y-110400000D02*
X141900000Y-110400000D01*
X186820000Y-104625000D02*
X186820000Y-107180000D01*
X138920000Y-107420000D02*
X138920000Y-104625000D01*
X186820000Y-107180000D02*
X183600000Y-110400000D01*
X188700000Y-100400000D02*
X194800000Y-100400000D01*
X186820000Y-104625000D02*
X186820000Y-102280000D01*
X194800000Y-100400000D02*
X196500000Y-98700000D01*
X196500000Y-98700000D02*
X196500000Y-70560000D01*
X196500000Y-70560000D02*
X193000000Y-67060000D01*
X141900000Y-110400000D02*
X138920000Y-107420000D01*
%TO.N,/24VAC_P*%
X187500000Y-95000000D02*
X193000000Y-95000000D01*
X182700000Y-95000000D02*
X176500000Y-101200000D01*
X176500000Y-101200000D02*
X150265000Y-101200000D01*
X150265000Y-101200000D02*
X146840000Y-104625000D01*
X187500000Y-95000000D02*
X182700000Y-95000000D01*
%TO.N,/24VAC_N*%
X187500000Y-92460000D02*
X183140000Y-92460000D01*
X175900000Y-99700000D02*
X147805000Y-99700000D01*
X187500000Y-92460000D02*
X193000000Y-92460000D01*
X183140000Y-92460000D02*
X175900000Y-99700000D01*
X147805000Y-99700000D02*
X142880000Y-104625000D01*
D23*
%TO.N,/BIT3*%
X159720000Y-89180000D02*
X158280000Y-90620000D01*
X187500000Y-79760000D02*
X177920000Y-79760000D01*
X177920000Y-79760000D02*
X177900000Y-79740000D01*
X193000000Y-79760000D02*
X187500000Y-79760000D01*
X168460000Y-89180000D02*
X159720000Y-89180000D01*
X177900000Y-79740000D02*
X168460000Y-89180000D01*
%TO.N,/BIT6*%
X193000000Y-87380000D02*
X182420000Y-87380000D01*
X177920000Y-87380000D02*
X177900000Y-87360000D01*
X182400000Y-87400000D02*
X182380000Y-87380000D01*
X182420000Y-87380000D02*
X182400000Y-87400000D01*
X182380000Y-87380000D02*
X177920000Y-87380000D01*
%TO.N,/BIT4*%
X175820000Y-83380000D02*
X168900000Y-90300000D01*
X192980000Y-82280000D02*
X193000000Y-82300000D01*
X168900000Y-92700000D02*
X165900000Y-95700000D01*
X177900000Y-82280000D02*
X192980000Y-82280000D01*
X168900000Y-90300000D02*
X168900000Y-92700000D01*
X177900000Y-82280000D02*
X176800000Y-83380000D01*
X176800000Y-83380000D02*
X175820000Y-83380000D01*
%TO.N,/BIT5*%
X177900000Y-84820000D02*
X176180000Y-84820000D01*
X176180000Y-84820000D02*
X170400000Y-90600000D01*
X193000000Y-84840000D02*
X177920000Y-84840000D01*
X177920000Y-84840000D02*
X177900000Y-84820000D01*
%TO.N,/BIT0*%
X159720000Y-73940000D02*
X158280000Y-75380000D01*
X176080000Y-73940000D02*
X159720000Y-73940000D01*
X177920000Y-72140000D02*
X177900000Y-72120000D01*
X177900000Y-72120000D02*
X176080000Y-73940000D01*
X193000000Y-72140000D02*
X177920000Y-72140000D01*
%TO.N,/BIT1*%
X159720000Y-79020000D02*
X158280000Y-80460000D01*
X177920000Y-74680000D02*
X177900000Y-74660000D01*
X177900000Y-74660000D02*
X173540000Y-79020000D01*
X193000000Y-74680000D02*
X177920000Y-74680000D01*
X173540000Y-79020000D02*
X159720000Y-79020000D01*
%TO.N,/BIT2*%
X159380000Y-84440000D02*
X158280000Y-85540000D01*
X177900000Y-77200000D02*
X170660000Y-84440000D01*
X170660000Y-84440000D02*
X159380000Y-84440000D01*
X177920000Y-77220000D02*
X177900000Y-77200000D01*
X193000000Y-77220000D02*
X177920000Y-77220000D01*
%TO.N,/DATA_IN*%
X141100000Y-78580000D02*
X141100000Y-83400000D01*
X191600000Y-39160000D02*
X184840000Y-39160000D01*
X159400000Y-66600000D02*
X159000000Y-66600000D01*
X184840000Y-39160000D02*
X179100000Y-44900000D01*
X179100000Y-57800000D02*
X176500000Y-60400000D01*
X150980000Y-74620000D02*
X145060000Y-74620000D01*
X145060000Y-74620000D02*
X141100000Y-78580000D01*
X159000000Y-66600000D02*
X150980000Y-74620000D01*
X179100000Y-44900000D02*
X179100000Y-57800000D01*
%TO.N,Net-(Q1-G)*%
X158680000Y-46620000D02*
X165200000Y-40100000D01*
X172380000Y-40100000D02*
X173930000Y-41650000D01*
X162600000Y-37400000D02*
X165300000Y-40100000D01*
X158680000Y-49100000D02*
X158680000Y-46620000D01*
X165400000Y-40100000D02*
X172380000Y-40100000D01*
X173930000Y-41650000D02*
X173930000Y-42600000D01*
X165200000Y-40100000D02*
X165400000Y-40100000D01*
X165300000Y-40100000D02*
X165400000Y-40100000D01*
%TO.N,Net-(U1-R1)*%
X147600000Y-91300000D02*
X149500000Y-89400000D01*
X145500000Y-91300000D02*
X147600000Y-91300000D01*
%TO.N,Net-(U1-R6)*%
X164800000Y-81900000D02*
X155900000Y-81900000D01*
X152600000Y-78600000D02*
X145500000Y-78600000D01*
X165900000Y-83000000D02*
X164800000Y-81900000D01*
X155900000Y-81900000D02*
X152600000Y-78600000D01*
%TO.N,Net-(U1-R5)*%
X150240000Y-81140000D02*
X156080000Y-86980000D01*
X164800000Y-86980000D02*
X165900000Y-88080000D01*
X145500000Y-81140000D02*
X150240000Y-81140000D01*
X156080000Y-86980000D02*
X164800000Y-86980000D01*
%TO.N,Net-(U1-R4)*%
X157560000Y-92060000D02*
X164800000Y-92060000D01*
X145500000Y-83680000D02*
X149180000Y-83680000D01*
X149180000Y-83680000D02*
X157560000Y-92060000D01*
X164800000Y-92060000D02*
X165900000Y-93160000D01*
%TO.N,Net-(U1-R3)*%
X157060000Y-93160000D02*
X158280000Y-93160000D01*
X150120000Y-86220000D02*
X157060000Y-93160000D01*
X145500000Y-86220000D02*
X150120000Y-86220000D01*
%TO.N,Net-(U1-R2)*%
X150860000Y-88760000D02*
X150900000Y-88800000D01*
X145500000Y-88760000D02*
X150860000Y-88760000D01*
X155300000Y-88100000D02*
X155320000Y-88080000D01*
X155320000Y-88080000D02*
X158280000Y-88080000D01*
%TD*%
%TA.AperFunction,Conductor*%
%TO.N,GND*%
G36*
X198943039Y-21019685D02*
G01*
X198988794Y-21072489D01*
X199000000Y-21124000D01*
X199000000Y-118876000D01*
X198980315Y-118943039D01*
X198927511Y-118988794D01*
X198876000Y-119000000D01*
X131024127Y-119000000D01*
X130957088Y-118980315D01*
X130911333Y-118927511D01*
X130900127Y-118875873D01*
X130911429Y-107799172D01*
X130948268Y-71696731D01*
X130968020Y-71629718D01*
X131020871Y-71584017D01*
X131090039Y-71574144D01*
X131153565Y-71603234D01*
X131159948Y-71609183D01*
X132948424Y-73397659D01*
X132981909Y-73458982D01*
X132976925Y-73528674D01*
X132935053Y-73584607D01*
X132874627Y-73608560D01*
X132820749Y-73614630D01*
X132820745Y-73614631D01*
X132650476Y-73674211D01*
X132497737Y-73770184D01*
X132370184Y-73897737D01*
X132274211Y-74050476D01*
X132214631Y-74220745D01*
X132214630Y-74220750D01*
X132194435Y-74399996D01*
X132194435Y-74400003D01*
X132214630Y-74579249D01*
X132214631Y-74579254D01*
X132274211Y-74749523D01*
X132326828Y-74833261D01*
X132368805Y-74900068D01*
X132370185Y-74902263D01*
X132372445Y-74905097D01*
X132373334Y-74907275D01*
X132373889Y-74908158D01*
X132373734Y-74908255D01*
X132398855Y-74969783D01*
X132399500Y-74982412D01*
X132399500Y-78713330D01*
X132399499Y-78713348D01*
X132399499Y-78879054D01*
X132399498Y-78879054D01*
X132417270Y-78945381D01*
X132440423Y-79031785D01*
X132457012Y-79060518D01*
X132457013Y-79060520D01*
X132457014Y-79060520D01*
X132502794Y-79139815D01*
X132519479Y-79168714D01*
X132519481Y-79168717D01*
X132638349Y-79287585D01*
X132638355Y-79287590D01*
X136588058Y-83237293D01*
X136621543Y-83298616D01*
X136620152Y-83357067D01*
X136594366Y-83453302D01*
X136594364Y-83453313D01*
X136574532Y-83679998D01*
X136574532Y-83680001D01*
X136594364Y-83906686D01*
X136594366Y-83906697D01*
X136653258Y-84126488D01*
X136653261Y-84126497D01*
X136749431Y-84332732D01*
X136749432Y-84332734D01*
X136879954Y-84519141D01*
X137040858Y-84680045D01*
X137040861Y-84680047D01*
X137227266Y-84810568D01*
X137285275Y-84837618D01*
X137337714Y-84883791D01*
X137356866Y-84950984D01*
X137336650Y-85017865D01*
X137285275Y-85062381D01*
X137268272Y-85070310D01*
X137227267Y-85089431D01*
X137227265Y-85089432D01*
X137040858Y-85219954D01*
X136879954Y-85380858D01*
X136749432Y-85567265D01*
X136749431Y-85567267D01*
X136653261Y-85773502D01*
X136653258Y-85773511D01*
X136594366Y-85993302D01*
X136594364Y-85993313D01*
X136574532Y-86219998D01*
X136574532Y-86220001D01*
X136594364Y-86446686D01*
X136594366Y-86446697D01*
X136653258Y-86666488D01*
X136653261Y-86666497D01*
X136749431Y-86872732D01*
X136749432Y-86872734D01*
X136879954Y-87059141D01*
X137040858Y-87220045D01*
X137040861Y-87220047D01*
X137227266Y-87350568D01*
X137285275Y-87377618D01*
X137337714Y-87423791D01*
X137356866Y-87490984D01*
X137336650Y-87557865D01*
X137285275Y-87602381D01*
X137268272Y-87610310D01*
X137227267Y-87629431D01*
X137227265Y-87629432D01*
X137040858Y-87759954D01*
X136879954Y-87920858D01*
X136749432Y-88107265D01*
X136749431Y-88107267D01*
X136653261Y-88313502D01*
X136653258Y-88313511D01*
X136594366Y-88533302D01*
X136594364Y-88533313D01*
X136574532Y-88759998D01*
X136574532Y-88760001D01*
X136594364Y-88986686D01*
X136594366Y-88986697D01*
X136653258Y-89206488D01*
X136653261Y-89206497D01*
X136749431Y-89412732D01*
X136749432Y-89412734D01*
X136879954Y-89599141D01*
X137040858Y-89760045D01*
X137070071Y-89780500D01*
X137227266Y-89890568D01*
X137250384Y-89901348D01*
X137285275Y-89917618D01*
X137337714Y-89963791D01*
X137356866Y-90030984D01*
X137336650Y-90097865D01*
X137285275Y-90142381D01*
X137285118Y-90142455D01*
X137227267Y-90169431D01*
X137227265Y-90169432D01*
X137040858Y-90299954D01*
X136879954Y-90460858D01*
X136749432Y-90647265D01*
X136749431Y-90647267D01*
X136653261Y-90853502D01*
X136653258Y-90853511D01*
X136594366Y-91073302D01*
X136594364Y-91073313D01*
X136574532Y-91299998D01*
X136574532Y-91300001D01*
X136594364Y-91526686D01*
X136594366Y-91526697D01*
X136653258Y-91746488D01*
X136653261Y-91746497D01*
X136749431Y-91952732D01*
X136749432Y-91952734D01*
X136879954Y-92139141D01*
X137040858Y-92300045D01*
X137040861Y-92300047D01*
X137227266Y-92430568D01*
X137433504Y-92526739D01*
X137653308Y-92585635D01*
X137815230Y-92599801D01*
X137879998Y-92605468D01*
X137880000Y-92605468D01*
X137880002Y-92605468D01*
X137936807Y-92600498D01*
X138106692Y-92585635D01*
X138326496Y-92526739D01*
X138532734Y-92430568D01*
X138719139Y-92300047D01*
X138880047Y-92139139D01*
X139010568Y-91952734D01*
X139106739Y-91746496D01*
X139165635Y-91526692D01*
X139185468Y-91300000D01*
X139183082Y-91272733D01*
X139171802Y-91143796D01*
X139165635Y-91073308D01*
X139139847Y-90977066D01*
X139141510Y-90907217D01*
X139171939Y-90857294D01*
X139938506Y-90090728D01*
X139938511Y-90090724D01*
X139948714Y-90080520D01*
X139948716Y-90080520D01*
X140060520Y-89968716D01*
X140115082Y-89874211D01*
X140139577Y-89831785D01*
X140180500Y-89679057D01*
X140180500Y-89520943D01*
X140180500Y-83871646D01*
X140200185Y-83804607D01*
X140252989Y-83758852D01*
X140322147Y-83748908D01*
X140385703Y-83777933D01*
X140409492Y-83805672D01*
X140470184Y-83902262D01*
X140597738Y-84029816D01*
X140750478Y-84125789D01*
X140870853Y-84167910D01*
X140920745Y-84185368D01*
X140920750Y-84185369D01*
X141099996Y-84205565D01*
X141100000Y-84205565D01*
X141100004Y-84205565D01*
X141279249Y-84185369D01*
X141279252Y-84185368D01*
X141279255Y-84185368D01*
X141449522Y-84125789D01*
X141602262Y-84029816D01*
X141729816Y-83902262D01*
X141825789Y-83749522D01*
X141885368Y-83579255D01*
X141886522Y-83569017D01*
X141905565Y-83400003D01*
X141905565Y-83399996D01*
X141885369Y-83220750D01*
X141885368Y-83220745D01*
X141849815Y-83119141D01*
X141825789Y-83050478D01*
X141729816Y-82897738D01*
X141729814Y-82897736D01*
X141729813Y-82897734D01*
X141727550Y-82894896D01*
X141726659Y-82892715D01*
X141726111Y-82891842D01*
X141726264Y-82891745D01*
X141701144Y-82830209D01*
X141700500Y-82817587D01*
X141700500Y-78880096D01*
X141720185Y-78813057D01*
X141736814Y-78792420D01*
X144068779Y-76460454D01*
X144130100Y-76426971D01*
X144199792Y-76431955D01*
X144255725Y-76473827D01*
X144270791Y-76501673D01*
X144270973Y-76501589D01*
X144272395Y-76504638D01*
X144272972Y-76505705D01*
X144273256Y-76506485D01*
X144273260Y-76506495D01*
X144273261Y-76506496D01*
X144309432Y-76584065D01*
X144369431Y-76712732D01*
X144369432Y-76712734D01*
X144499954Y-76899141D01*
X144660858Y-77060045D01*
X144660861Y-77060047D01*
X144847266Y-77190568D01*
X144905275Y-77217618D01*
X144957714Y-77263791D01*
X144976866Y-77330984D01*
X144956650Y-77397865D01*
X144905275Y-77442382D01*
X144847267Y-77469431D01*
X144847265Y-77469432D01*
X144660858Y-77599954D01*
X144499954Y-77760858D01*
X144369432Y-77947265D01*
X144369431Y-77947267D01*
X144273261Y-78153502D01*
X144273258Y-78153511D01*
X144214366Y-78373302D01*
X144214364Y-78373313D01*
X144194532Y-78599998D01*
X144194532Y-78600001D01*
X144214364Y-78826686D01*
X144214366Y-78826697D01*
X144273258Y-79046488D01*
X144273261Y-79046497D01*
X144369431Y-79252732D01*
X144369432Y-79252734D01*
X144499954Y-79439141D01*
X144660858Y-79600045D01*
X144660861Y-79600047D01*
X144847266Y-79730568D01*
X144905275Y-79757618D01*
X144957714Y-79803791D01*
X144976866Y-79870984D01*
X144956650Y-79937865D01*
X144905275Y-79982382D01*
X144847267Y-80009431D01*
X144847265Y-80009432D01*
X144660858Y-80139954D01*
X144499954Y-80300858D01*
X144369432Y-80487265D01*
X144369431Y-80487267D01*
X144273261Y-80693502D01*
X144273258Y-80693511D01*
X144214366Y-80913302D01*
X144214364Y-80913313D01*
X144194532Y-81139998D01*
X144194532Y-81140001D01*
X144214364Y-81366686D01*
X144214366Y-81366697D01*
X144273258Y-81586488D01*
X144273261Y-81586497D01*
X144369431Y-81792732D01*
X144369432Y-81792734D01*
X144499954Y-81979141D01*
X144660858Y-82140045D01*
X144660861Y-82140047D01*
X144847266Y-82270568D01*
X144905275Y-82297618D01*
X144957714Y-82343791D01*
X144976866Y-82410984D01*
X144956650Y-82477865D01*
X144905275Y-82522381D01*
X144888272Y-82530310D01*
X144847267Y-82549431D01*
X144847265Y-82549432D01*
X144660858Y-82679954D01*
X144499954Y-82840858D01*
X144369432Y-83027265D01*
X144369431Y-83027267D01*
X144273261Y-83233502D01*
X144273258Y-83233511D01*
X144214366Y-83453302D01*
X144214364Y-83453313D01*
X144194532Y-83679998D01*
X144194532Y-83680001D01*
X144214364Y-83906686D01*
X144214366Y-83906697D01*
X144273258Y-84126488D01*
X144273261Y-84126497D01*
X144369431Y-84332732D01*
X144369432Y-84332734D01*
X144499954Y-84519141D01*
X144660858Y-84680045D01*
X144660861Y-84680047D01*
X144847266Y-84810568D01*
X144905275Y-84837618D01*
X144957714Y-84883791D01*
X144976866Y-84950984D01*
X144956650Y-85017865D01*
X144905275Y-85062381D01*
X144888272Y-85070310D01*
X144847267Y-85089431D01*
X144847265Y-85089432D01*
X144660858Y-85219954D01*
X144499954Y-85380858D01*
X144369432Y-85567265D01*
X144369431Y-85567267D01*
X144273261Y-85773502D01*
X144273258Y-85773511D01*
X144214366Y-85993302D01*
X144214364Y-85993313D01*
X144194532Y-86219998D01*
X144194532Y-86220001D01*
X144214364Y-86446686D01*
X144214366Y-86446697D01*
X144273258Y-86666488D01*
X144273261Y-86666497D01*
X144369431Y-86872732D01*
X144369432Y-86872734D01*
X144499954Y-87059141D01*
X144660858Y-87220045D01*
X144660861Y-87220047D01*
X144847266Y-87350568D01*
X144905275Y-87377618D01*
X144957714Y-87423791D01*
X144976866Y-87490984D01*
X144956650Y-87557865D01*
X144905275Y-87602381D01*
X144888272Y-87610310D01*
X144847267Y-87629431D01*
X144847265Y-87629432D01*
X144660858Y-87759954D01*
X144499954Y-87920858D01*
X144369432Y-88107265D01*
X144369431Y-88107267D01*
X144273261Y-88313502D01*
X144273258Y-88313511D01*
X144214366Y-88533302D01*
X144214364Y-88533313D01*
X144194532Y-88759998D01*
X144194532Y-88760001D01*
X144214364Y-88986686D01*
X144214366Y-88986697D01*
X144273258Y-89206488D01*
X144273261Y-89206497D01*
X144369431Y-89412732D01*
X144369432Y-89412734D01*
X144499954Y-89599141D01*
X144660858Y-89760045D01*
X144685462Y-89777273D01*
X144729087Y-89831849D01*
X144736281Y-89901348D01*
X144704758Y-89963703D01*
X144644529Y-89999117D01*
X144627593Y-90002138D01*
X144592516Y-90005908D01*
X144457671Y-90056202D01*
X144457664Y-90056206D01*
X144342455Y-90142452D01*
X144342452Y-90142455D01*
X144256206Y-90257664D01*
X144256202Y-90257671D01*
X144205908Y-90392517D01*
X144201195Y-90436362D01*
X144199501Y-90452123D01*
X144199500Y-90452135D01*
X144199500Y-92147870D01*
X144199501Y-92147876D01*
X144205908Y-92207483D01*
X144256202Y-92342328D01*
X144256206Y-92342335D01*
X144342452Y-92457544D01*
X144342455Y-92457547D01*
X144457664Y-92543793D01*
X144457671Y-92543797D01*
X144592517Y-92594091D01*
X144592516Y-92594091D01*
X144599444Y-92594835D01*
X144652127Y-92600500D01*
X146347872Y-92600499D01*
X146407483Y-92594091D01*
X146542331Y-92543796D01*
X146657546Y-92457546D01*
X146743796Y-92342331D01*
X146794091Y-92207483D01*
X146800500Y-92147873D01*
X146800500Y-92024500D01*
X146820185Y-91957461D01*
X146872989Y-91911706D01*
X146924500Y-91900500D01*
X147513331Y-91900500D01*
X147513347Y-91900501D01*
X147520943Y-91900501D01*
X147679054Y-91900501D01*
X147679057Y-91900501D01*
X147831785Y-91859577D01*
X147854021Y-91846739D01*
X147886104Y-91828216D01*
X147886105Y-91828215D01*
X147968716Y-91780520D01*
X148080520Y-91668716D01*
X148080520Y-91668714D01*
X148090724Y-91658511D01*
X148090727Y-91658506D01*
X149518536Y-90230698D01*
X149579857Y-90197215D01*
X149592310Y-90195163D01*
X149679255Y-90185368D01*
X149849522Y-90125789D01*
X150002262Y-90029816D01*
X150129816Y-89902262D01*
X150225789Y-89749522D01*
X150285368Y-89579255D01*
X150286425Y-89569867D01*
X150313488Y-89505453D01*
X150371080Y-89465895D01*
X150440917Y-89463753D01*
X150475619Y-89478752D01*
X150550475Y-89525788D01*
X150720745Y-89585368D01*
X150720750Y-89585369D01*
X150899996Y-89605565D01*
X150900000Y-89605565D01*
X150900004Y-89605565D01*
X151079249Y-89585369D01*
X151079252Y-89585368D01*
X151079255Y-89585368D01*
X151249522Y-89525789D01*
X151402262Y-89429816D01*
X151529816Y-89302262D01*
X151625789Y-89149522D01*
X151685368Y-88979255D01*
X151691439Y-88925374D01*
X151718505Y-88860960D01*
X151776099Y-88821404D01*
X151845936Y-88819265D01*
X151902340Y-88851575D01*
X156575139Y-93524374D01*
X156575149Y-93524385D01*
X156579479Y-93528715D01*
X156579480Y-93528716D01*
X156691284Y-93640520D01*
X156742634Y-93670166D01*
X156778095Y-93690639D01*
X156778097Y-93690641D01*
X156815123Y-93712018D01*
X156828215Y-93719577D01*
X156980943Y-93760500D01*
X157048308Y-93760500D01*
X157115347Y-93780185D01*
X157149880Y-93813374D01*
X157179346Y-93855456D01*
X157279954Y-93999141D01*
X157440858Y-94160045D01*
X157440861Y-94160047D01*
X157627266Y-94290568D01*
X157685865Y-94317893D01*
X157738305Y-94364065D01*
X157757457Y-94431258D01*
X157737242Y-94498139D01*
X157685867Y-94542657D01*
X157627515Y-94569867D01*
X157441179Y-94700342D01*
X157280342Y-94861179D01*
X157149865Y-95047517D01*
X157053734Y-95253673D01*
X157053730Y-95253682D01*
X157001127Y-95449999D01*
X157001128Y-95450000D01*
X157964314Y-95450000D01*
X157959920Y-95454394D01*
X157907259Y-95545606D01*
X157880000Y-95647339D01*
X157880000Y-95752661D01*
X157907259Y-95854394D01*
X157959920Y-95945606D01*
X157964314Y-95950000D01*
X157001128Y-95950000D01*
X157053730Y-96146317D01*
X157053734Y-96146326D01*
X157149865Y-96352482D01*
X157280342Y-96538820D01*
X157441179Y-96699657D01*
X157627517Y-96830134D01*
X157833673Y-96926265D01*
X157833682Y-96926269D01*
X158029999Y-96978872D01*
X158030000Y-96978871D01*
X158030000Y-96015686D01*
X158034394Y-96020080D01*
X158125606Y-96072741D01*
X158227339Y-96100000D01*
X158332661Y-96100000D01*
X158434394Y-96072741D01*
X158525606Y-96020080D01*
X158530000Y-96015686D01*
X158530000Y-96978872D01*
X158726317Y-96926269D01*
X158726326Y-96926265D01*
X158932482Y-96830134D01*
X159118820Y-96699657D01*
X159279657Y-96538820D01*
X159410134Y-96352482D01*
X159506265Y-96146326D01*
X159506269Y-96146317D01*
X159558872Y-95950000D01*
X158595686Y-95950000D01*
X158600080Y-95945606D01*
X158652741Y-95854394D01*
X158680000Y-95752661D01*
X158680000Y-95647339D01*
X158652741Y-95545606D01*
X158600080Y-95454394D01*
X158595686Y-95450000D01*
X159558872Y-95450000D01*
X159558872Y-95449999D01*
X159506269Y-95253682D01*
X159506265Y-95253673D01*
X159410134Y-95047517D01*
X159279657Y-94861179D01*
X159118820Y-94700342D01*
X158932482Y-94569865D01*
X158874133Y-94542657D01*
X158821694Y-94496484D01*
X158802542Y-94429291D01*
X158822758Y-94362410D01*
X158874129Y-94317895D01*
X158932734Y-94290568D01*
X159119139Y-94160047D01*
X159280047Y-93999139D01*
X159410568Y-93812734D01*
X159506739Y-93606496D01*
X159565635Y-93386692D01*
X159585468Y-93160000D01*
X159565635Y-92933308D01*
X159552308Y-92883573D01*
X159534362Y-92816593D01*
X159536025Y-92746743D01*
X159575188Y-92688881D01*
X159639417Y-92661377D01*
X159654137Y-92660500D01*
X164499903Y-92660500D01*
X164566942Y-92680185D01*
X164587584Y-92696819D01*
X164608058Y-92717293D01*
X164641543Y-92778616D01*
X164640152Y-92837067D01*
X164614366Y-92933302D01*
X164614364Y-92933313D01*
X164594532Y-93159998D01*
X164594532Y-93160001D01*
X164614364Y-93386686D01*
X164614366Y-93386697D01*
X164673258Y-93606488D01*
X164673261Y-93606497D01*
X164769431Y-93812732D01*
X164769432Y-93812734D01*
X164899954Y-93999141D01*
X165060858Y-94160045D01*
X165060861Y-94160047D01*
X165247266Y-94290568D01*
X165305275Y-94317618D01*
X165357714Y-94363791D01*
X165376866Y-94430984D01*
X165356650Y-94497865D01*
X165305275Y-94542382D01*
X165247267Y-94569431D01*
X165247265Y-94569432D01*
X165060858Y-94699954D01*
X164899954Y-94860858D01*
X164769432Y-95047265D01*
X164769431Y-95047267D01*
X164673261Y-95253502D01*
X164673258Y-95253511D01*
X164614366Y-95473302D01*
X164614364Y-95473313D01*
X164594532Y-95699998D01*
X164594532Y-95700001D01*
X164614364Y-95926686D01*
X164614366Y-95926697D01*
X164673258Y-96146488D01*
X164673261Y-96146497D01*
X164769431Y-96352732D01*
X164769432Y-96352734D01*
X164899954Y-96539141D01*
X165060858Y-96700045D01*
X165060861Y-96700047D01*
X165247266Y-96830568D01*
X165453504Y-96926739D01*
X165673308Y-96985635D01*
X165835230Y-96999801D01*
X165899998Y-97005468D01*
X165900000Y-97005468D01*
X165900002Y-97005468D01*
X165956673Y-97000509D01*
X166126692Y-96985635D01*
X166346496Y-96926739D01*
X166552734Y-96830568D01*
X166739139Y-96700047D01*
X166900047Y-96539139D01*
X167030568Y-96352734D01*
X167126739Y-96146496D01*
X167185635Y-95926692D01*
X167205468Y-95700000D01*
X167185635Y-95473308D01*
X167159847Y-95377066D01*
X167161510Y-95307217D01*
X167191939Y-95257294D01*
X169380520Y-93068716D01*
X169459577Y-92931784D01*
X169500501Y-92779057D01*
X169500501Y-92620942D01*
X169500501Y-92613347D01*
X169500500Y-92613329D01*
X169500500Y-91103476D01*
X169520185Y-91036437D01*
X169572989Y-90990682D01*
X169642147Y-90980738D01*
X169705703Y-91009763D01*
X169729493Y-91037503D01*
X169770184Y-91102262D01*
X169897738Y-91229816D01*
X169920517Y-91244129D01*
X170034026Y-91315452D01*
X170050478Y-91325789D01*
X170220745Y-91385368D01*
X170220750Y-91385369D01*
X170399996Y-91405565D01*
X170400000Y-91405565D01*
X170400004Y-91405565D01*
X170579249Y-91385369D01*
X170579252Y-91385368D01*
X170579255Y-91385368D01*
X170749522Y-91325789D01*
X170902262Y-91229816D01*
X171029816Y-91102262D01*
X171125789Y-90949522D01*
X171185368Y-90779255D01*
X171195161Y-90692329D01*
X171222226Y-90627918D01*
X171230690Y-90618543D01*
X176392416Y-85456819D01*
X176453739Y-85423334D01*
X176480097Y-85420500D01*
X176668308Y-85420500D01*
X176735347Y-85440185D01*
X176769880Y-85473374D01*
X176835624Y-85567267D01*
X176899954Y-85659141D01*
X177060858Y-85820045D01*
X177060861Y-85820047D01*
X177247266Y-85950568D01*
X177305275Y-85977618D01*
X177357714Y-86023791D01*
X177376866Y-86090984D01*
X177356650Y-86157865D01*
X177305275Y-86202382D01*
X177247267Y-86229431D01*
X177247265Y-86229432D01*
X177060858Y-86359954D01*
X176899954Y-86520858D01*
X176769432Y-86707265D01*
X176769431Y-86707267D01*
X176673261Y-86913502D01*
X176673258Y-86913511D01*
X176614366Y-87133302D01*
X176614364Y-87133313D01*
X176594532Y-87359998D01*
X176594532Y-87360001D01*
X176614364Y-87586686D01*
X176614366Y-87586697D01*
X176673258Y-87806488D01*
X176673261Y-87806497D01*
X176769431Y-88012732D01*
X176769432Y-88012734D01*
X176899954Y-88199141D01*
X177060858Y-88360045D01*
X177085462Y-88377273D01*
X177129087Y-88431849D01*
X177136281Y-88501348D01*
X177104758Y-88563703D01*
X177044529Y-88599117D01*
X177027593Y-88602138D01*
X176992516Y-88605908D01*
X176857671Y-88656202D01*
X176857664Y-88656206D01*
X176742455Y-88742452D01*
X176742452Y-88742455D01*
X176656206Y-88857664D01*
X176656202Y-88857671D01*
X176605908Y-88992517D01*
X176599501Y-89052116D01*
X176599501Y-89052123D01*
X176599500Y-89052135D01*
X176599500Y-90747870D01*
X176599501Y-90747876D01*
X176605908Y-90807483D01*
X176656202Y-90942328D01*
X176656206Y-90942335D01*
X176742452Y-91057544D01*
X176742455Y-91057547D01*
X176857664Y-91143793D01*
X176857671Y-91143797D01*
X176992517Y-91194091D01*
X176992516Y-91194091D01*
X176999444Y-91194835D01*
X177052127Y-91200500D01*
X178747872Y-91200499D01*
X178807483Y-91194091D01*
X178942331Y-91143796D01*
X179057546Y-91057546D01*
X179143796Y-90942331D01*
X179194091Y-90807483D01*
X179200500Y-90747873D01*
X179200499Y-89052128D01*
X179194091Y-88992517D01*
X179191920Y-88986697D01*
X179143797Y-88857671D01*
X179143793Y-88857664D01*
X179057547Y-88742455D01*
X179057544Y-88742452D01*
X178942335Y-88656206D01*
X178942328Y-88656202D01*
X178807482Y-88605908D01*
X178807483Y-88605908D01*
X178772404Y-88602137D01*
X178707853Y-88575399D01*
X178668005Y-88518006D01*
X178665512Y-88448181D01*
X178701165Y-88388092D01*
X178714539Y-88377272D01*
X178739140Y-88360046D01*
X178900045Y-88199141D01*
X178900047Y-88199139D01*
X179016114Y-88033375D01*
X179070689Y-87989752D01*
X179117688Y-87980500D01*
X182229973Y-87980500D01*
X182262066Y-87984725D01*
X182271990Y-87987384D01*
X182320943Y-88000501D01*
X182320945Y-88000501D01*
X182479055Y-88000501D01*
X182479057Y-88000501D01*
X182529817Y-87986899D01*
X182537934Y-87984725D01*
X182570027Y-87980500D01*
X183760042Y-87980500D01*
X183827081Y-88000185D01*
X183872836Y-88052989D01*
X183882780Y-88122147D01*
X183853755Y-88185703D01*
X183800997Y-88221542D01*
X183650477Y-88274211D01*
X183497737Y-88370184D01*
X183370184Y-88497737D01*
X183274211Y-88650476D01*
X183214631Y-88820745D01*
X183214630Y-88820750D01*
X183194435Y-88999996D01*
X183194435Y-89000003D01*
X183214630Y-89179249D01*
X183214631Y-89179254D01*
X183274211Y-89349523D01*
X183324662Y-89429815D01*
X183370184Y-89502262D01*
X183497738Y-89629816D01*
X183650478Y-89725789D01*
X183820745Y-89785368D01*
X183907669Y-89795161D01*
X183972080Y-89822226D01*
X183981465Y-89830700D01*
X184435139Y-90284374D01*
X184435149Y-90284385D01*
X184439479Y-90288715D01*
X184439480Y-90288716D01*
X184551284Y-90400520D01*
X184551286Y-90400521D01*
X184551290Y-90400524D01*
X184679675Y-90474646D01*
X184688216Y-90479577D01*
X184800019Y-90509534D01*
X184840942Y-90520500D01*
X184840943Y-90520500D01*
X186314695Y-90520500D01*
X186381734Y-90540185D01*
X186416270Y-90573377D01*
X186468007Y-90647265D01*
X186529170Y-90734615D01*
X186529175Y-90734621D01*
X186685378Y-90890824D01*
X186685384Y-90890829D01*
X186866333Y-91017531D01*
X186866334Y-91017531D01*
X186866338Y-91017534D01*
X186877400Y-91022692D01*
X186929840Y-91068861D01*
X186948995Y-91136053D01*
X186928782Y-91202935D01*
X186884017Y-91244129D01*
X186752235Y-91315446D01*
X186752220Y-91315456D01*
X186574047Y-91454134D01*
X186574044Y-91454137D01*
X186574041Y-91454139D01*
X186574041Y-91454140D01*
X186507253Y-91526692D01*
X186421833Y-91619483D01*
X186361946Y-91655473D01*
X186330603Y-91659500D01*
X183061156Y-91659500D01*
X183037991Y-91664108D01*
X183014826Y-91668716D01*
X183014825Y-91668716D01*
X182906510Y-91690261D01*
X182906498Y-91690264D01*
X182760827Y-91750602D01*
X182760815Y-91750609D01*
X182672981Y-91809299D01*
X182672980Y-91809300D01*
X182629708Y-91838212D01*
X182629707Y-91838213D01*
X175604741Y-98863181D01*
X175543418Y-98896666D01*
X175517060Y-98899500D01*
X147726155Y-98899500D01*
X147571510Y-98930261D01*
X147571498Y-98930264D01*
X147425827Y-98990602D01*
X147425814Y-98990609D01*
X147294711Y-99078210D01*
X147294707Y-99078213D01*
X143628038Y-102744882D01*
X143566715Y-102778367D01*
X143497025Y-102773383D01*
X143430921Y-102748728D01*
X143430917Y-102748727D01*
X143158299Y-102689422D01*
X142880001Y-102669518D01*
X142879999Y-102669518D01*
X142601700Y-102689422D01*
X142329083Y-102748727D01*
X142329078Y-102748728D01*
X142329077Y-102748729D01*
X142265875Y-102772301D01*
X142067661Y-102846231D01*
X142067657Y-102846233D01*
X141822792Y-102979940D01*
X141822784Y-102979945D01*
X141599439Y-103147138D01*
X141599421Y-103147154D01*
X141402154Y-103344421D01*
X141402138Y-103344439D01*
X141234945Y-103567784D01*
X141234940Y-103567792D01*
X141101233Y-103812657D01*
X141101231Y-103812661D01*
X141016182Y-104040690D01*
X140974311Y-104096624D01*
X140908846Y-104121041D01*
X140840573Y-104106189D01*
X140791168Y-104056784D01*
X140783818Y-104040690D01*
X140755498Y-103964762D01*
X140698769Y-103812663D01*
X140678203Y-103775000D01*
X140565059Y-103567792D01*
X140565054Y-103567784D01*
X140397861Y-103344439D01*
X140397845Y-103344421D01*
X140200578Y-103147154D01*
X140200560Y-103147138D01*
X139977215Y-102979945D01*
X139977207Y-102979940D01*
X139732342Y-102846233D01*
X139732338Y-102846231D01*
X139633230Y-102809266D01*
X139470923Y-102748729D01*
X139470919Y-102748728D01*
X139470916Y-102748727D01*
X139198299Y-102689422D01*
X138920001Y-102669518D01*
X138919999Y-102669518D01*
X138641700Y-102689422D01*
X138369083Y-102748727D01*
X138369078Y-102748728D01*
X138369077Y-102748729D01*
X138305875Y-102772301D01*
X138107661Y-102846231D01*
X138107657Y-102846233D01*
X137862792Y-102979940D01*
X137862784Y-102979945D01*
X137639439Y-103147138D01*
X137639421Y-103147154D01*
X137442154Y-103344421D01*
X137442138Y-103344439D01*
X137274945Y-103567784D01*
X137274940Y-103567792D01*
X137141233Y-103812657D01*
X137141231Y-103812661D01*
X137050182Y-104056777D01*
X137008311Y-104112711D01*
X136942846Y-104137128D01*
X136874573Y-104122276D01*
X136825168Y-104072871D01*
X136810000Y-104013444D01*
X136810000Y-103475027D01*
X136809999Y-103475014D01*
X136799506Y-103372310D01*
X136799505Y-103372303D01*
X136744358Y-103205881D01*
X136744356Y-103205876D01*
X136652315Y-103056655D01*
X136528344Y-102932684D01*
X136379123Y-102840643D01*
X136379118Y-102840641D01*
X136212696Y-102785494D01*
X136212689Y-102785493D01*
X136109985Y-102775000D01*
X135210000Y-102775000D01*
X135210000Y-103808519D01*
X135207936Y-103807665D01*
X135043718Y-103775000D01*
X134876282Y-103775000D01*
X134712064Y-103807665D01*
X134710000Y-103808519D01*
X134710000Y-102775000D01*
X133810014Y-102775000D01*
X133707310Y-102785493D01*
X133707303Y-102785494D01*
X133540881Y-102840641D01*
X133540876Y-102840643D01*
X133391655Y-102932684D01*
X133267684Y-103056655D01*
X133175643Y-103205876D01*
X133175641Y-103205881D01*
X133120494Y-103372303D01*
X133120493Y-103372310D01*
X133110000Y-103475014D01*
X133110000Y-104375000D01*
X134143520Y-104375000D01*
X134142665Y-104377064D01*
X134110000Y-104541282D01*
X134110000Y-104708718D01*
X134142665Y-104872936D01*
X134143520Y-104875000D01*
X133110000Y-104875000D01*
X133110000Y-105774985D01*
X133120493Y-105877689D01*
X133120494Y-105877696D01*
X133175641Y-106044118D01*
X133175643Y-106044123D01*
X133267684Y-106193344D01*
X133391655Y-106317315D01*
X133540876Y-106409356D01*
X133540881Y-106409358D01*
X133707303Y-106464505D01*
X133707310Y-106464506D01*
X133810014Y-106474999D01*
X133810027Y-106475000D01*
X134710000Y-106475000D01*
X134710000Y-105441480D01*
X134712064Y-105442335D01*
X134876282Y-105475000D01*
X135043718Y-105475000D01*
X135207936Y-105442335D01*
X135210000Y-105441480D01*
X135210000Y-106475000D01*
X136109973Y-106475000D01*
X136109985Y-106474999D01*
X136212689Y-106464506D01*
X136212696Y-106464505D01*
X136379118Y-106409358D01*
X136379123Y-106409356D01*
X136528344Y-106317315D01*
X136652315Y-106193344D01*
X136744356Y-106044123D01*
X136744358Y-106044118D01*
X136799505Y-105877696D01*
X136799506Y-105877689D01*
X136809999Y-105774985D01*
X136810000Y-105774972D01*
X136810000Y-105236555D01*
X136829685Y-105169516D01*
X136882489Y-105123761D01*
X136951647Y-105113817D01*
X137015203Y-105142842D01*
X137050180Y-105193219D01*
X137113043Y-105361763D01*
X137141231Y-105437338D01*
X137141233Y-105437342D01*
X137274940Y-105682207D01*
X137274945Y-105682215D01*
X137442138Y-105905560D01*
X137442154Y-105905578D01*
X137639421Y-106102845D01*
X137639439Y-106102861D01*
X137862784Y-106270054D01*
X137862792Y-106270059D01*
X138054927Y-106374973D01*
X138104332Y-106424378D01*
X138119500Y-106483805D01*
X138119500Y-107498846D01*
X138150261Y-107653489D01*
X138150264Y-107653501D01*
X138210602Y-107799172D01*
X138210609Y-107799185D01*
X138298210Y-107930288D01*
X138298213Y-107930292D01*
X141278211Y-110910289D01*
X141389711Y-111021789D01*
X141520821Y-111109394D01*
X141623833Y-111152062D01*
X141666502Y-111169737D01*
X141821152Y-111200499D01*
X141821155Y-111200500D01*
X141821157Y-111200500D01*
X183678844Y-111200500D01*
X183678845Y-111200499D01*
X183833497Y-111169737D01*
X183979179Y-111109394D01*
X184110289Y-111021789D01*
X187441789Y-107690289D01*
X187529394Y-107559179D01*
X187589738Y-107413497D01*
X187620500Y-107258842D01*
X187620500Y-107101157D01*
X187620500Y-106483805D01*
X187640185Y-106416766D01*
X187685073Y-106374973D01*
X187790665Y-106317315D01*
X187877213Y-106270056D01*
X188100568Y-106102855D01*
X188297855Y-105905568D01*
X188465056Y-105682213D01*
X188598769Y-105437337D01*
X188683819Y-105209307D01*
X188725689Y-105153375D01*
X188791154Y-105128958D01*
X188859426Y-105143810D01*
X188908832Y-105193215D01*
X188916178Y-105209300D01*
X188972060Y-105359126D01*
X189001231Y-105437338D01*
X189001233Y-105437342D01*
X189134940Y-105682207D01*
X189134945Y-105682215D01*
X189302138Y-105905560D01*
X189302154Y-105905578D01*
X189499421Y-106102845D01*
X189499439Y-106102861D01*
X189722784Y-106270054D01*
X189722792Y-106270059D01*
X189967657Y-106403766D01*
X189967661Y-106403768D01*
X189967663Y-106403769D01*
X190229077Y-106501271D01*
X190365391Y-106530924D01*
X190501700Y-106560577D01*
X190501702Y-106560577D01*
X190501706Y-106560578D01*
X190749014Y-106578265D01*
X190779999Y-106580482D01*
X190780000Y-106580482D01*
X190780001Y-106580482D01*
X190807881Y-106578487D01*
X191058294Y-106560578D01*
X191330923Y-106501271D01*
X191592337Y-106403769D01*
X191837213Y-106270056D01*
X192060568Y-106102855D01*
X192257855Y-105905568D01*
X192425056Y-105682213D01*
X192558769Y-105437337D01*
X192643819Y-105209307D01*
X192685689Y-105153375D01*
X192751154Y-105128958D01*
X192819426Y-105143810D01*
X192868832Y-105193215D01*
X192876178Y-105209300D01*
X192932060Y-105359126D01*
X192961231Y-105437338D01*
X192961233Y-105437342D01*
X193094940Y-105682207D01*
X193094945Y-105682215D01*
X193262138Y-105905560D01*
X193262154Y-105905578D01*
X193459421Y-106102845D01*
X193459439Y-106102861D01*
X193682784Y-106270054D01*
X193682792Y-106270059D01*
X193927657Y-106403766D01*
X193927661Y-106403768D01*
X193927663Y-106403769D01*
X194189077Y-106501271D01*
X194325391Y-106530924D01*
X194461700Y-106560577D01*
X194461702Y-106560577D01*
X194461706Y-106560578D01*
X194709014Y-106578265D01*
X194739999Y-106580482D01*
X194740000Y-106580482D01*
X194740001Y-106580482D01*
X194767881Y-106578487D01*
X195018294Y-106560578D01*
X195290923Y-106501271D01*
X195552337Y-106403769D01*
X195797213Y-106270056D01*
X196020568Y-106102855D01*
X196217855Y-105905568D01*
X196385056Y-105682213D01*
X196518769Y-105437337D01*
X196616271Y-105175923D01*
X196675578Y-104903294D01*
X196695482Y-104625000D01*
X196675578Y-104346706D01*
X196616271Y-104074077D01*
X196518769Y-103812663D01*
X196498203Y-103775000D01*
X196385059Y-103567792D01*
X196385054Y-103567784D01*
X196217861Y-103344439D01*
X196217845Y-103344421D01*
X196020578Y-103147154D01*
X196020560Y-103147138D01*
X195797215Y-102979945D01*
X195797207Y-102979940D01*
X195552342Y-102846233D01*
X195552338Y-102846231D01*
X195453230Y-102809266D01*
X195290923Y-102748729D01*
X195290919Y-102748728D01*
X195290916Y-102748727D01*
X195018299Y-102689422D01*
X194740001Y-102669518D01*
X194739999Y-102669518D01*
X194461700Y-102689422D01*
X194189083Y-102748727D01*
X194189078Y-102748728D01*
X194189077Y-102748729D01*
X194125875Y-102772301D01*
X193927661Y-102846231D01*
X193927657Y-102846233D01*
X193682792Y-102979940D01*
X193682784Y-102979945D01*
X193459439Y-103147138D01*
X193459421Y-103147154D01*
X193262154Y-103344421D01*
X193262138Y-103344439D01*
X193094945Y-103567784D01*
X193094940Y-103567792D01*
X192961233Y-103812657D01*
X192961231Y-103812661D01*
X192876182Y-104040690D01*
X192834311Y-104096624D01*
X192768846Y-104121041D01*
X192700573Y-104106189D01*
X192651168Y-104056784D01*
X192643818Y-104040690D01*
X192615498Y-103964762D01*
X192558769Y-103812663D01*
X192538203Y-103775000D01*
X192425059Y-103567792D01*
X192425054Y-103567784D01*
X192257861Y-103344439D01*
X192257845Y-103344421D01*
X192060578Y-103147154D01*
X192060560Y-103147138D01*
X191837215Y-102979945D01*
X191837207Y-102979940D01*
X191592342Y-102846233D01*
X191592338Y-102846231D01*
X191493230Y-102809266D01*
X191330923Y-102748729D01*
X191330919Y-102748728D01*
X191330916Y-102748727D01*
X191058299Y-102689422D01*
X190780001Y-102669518D01*
X190779999Y-102669518D01*
X190501700Y-102689422D01*
X190229083Y-102748727D01*
X190229078Y-102748728D01*
X190229077Y-102748729D01*
X190165875Y-102772301D01*
X189967661Y-102846231D01*
X189967657Y-102846233D01*
X189722792Y-102979940D01*
X189722784Y-102979945D01*
X189499439Y-103147138D01*
X189499421Y-103147154D01*
X189302154Y-103344421D01*
X189302138Y-103344439D01*
X189134945Y-103567784D01*
X189134940Y-103567792D01*
X189001233Y-103812657D01*
X189001231Y-103812661D01*
X188916182Y-104040690D01*
X188874311Y-104096624D01*
X188808846Y-104121041D01*
X188740573Y-104106189D01*
X188691168Y-104056784D01*
X188683818Y-104040690D01*
X188655498Y-103964762D01*
X188598769Y-103812663D01*
X188578203Y-103775000D01*
X188465059Y-103567792D01*
X188465054Y-103567784D01*
X188297861Y-103344439D01*
X188297845Y-103344421D01*
X188100578Y-103147154D01*
X188100560Y-103147138D01*
X187877215Y-102979945D01*
X187877207Y-102979940D01*
X187685073Y-102875026D01*
X187635668Y-102825620D01*
X187620500Y-102766194D01*
X187620500Y-102662940D01*
X187640185Y-102595901D01*
X187656819Y-102575259D01*
X188995259Y-101236819D01*
X189056582Y-101203334D01*
X189082940Y-101200500D01*
X194878844Y-101200500D01*
X194878845Y-101200499D01*
X195033497Y-101169737D01*
X195179179Y-101109394D01*
X195310289Y-101021789D01*
X197121789Y-99210289D01*
X197209394Y-99079179D01*
X197269737Y-98933497D01*
X197300500Y-98778842D01*
X197300500Y-98621158D01*
X197300500Y-70481158D01*
X197294398Y-70450478D01*
X197294398Y-70450476D01*
X197294398Y-70450475D01*
X197269738Y-70326506D01*
X197269736Y-70326500D01*
X197241108Y-70257386D01*
X197241098Y-70257365D01*
X197241086Y-70257334D01*
X197209394Y-70180821D01*
X197159137Y-70105606D01*
X197121790Y-70049712D01*
X197086472Y-70014394D01*
X197010289Y-69938211D01*
X194389821Y-67317743D01*
X194356336Y-67256420D01*
X194353926Y-67219824D01*
X194367170Y-67060000D01*
X194348524Y-66834971D01*
X194293093Y-66616081D01*
X194202390Y-66409299D01*
X194078889Y-66220267D01*
X193925959Y-66054140D01*
X193925954Y-66054136D01*
X193925952Y-66054134D01*
X193747779Y-65915456D01*
X193747768Y-65915449D01*
X193717474Y-65899055D01*
X193667883Y-65849836D01*
X193652775Y-65781619D01*
X193676945Y-65716063D01*
X193717474Y-65680945D01*
X193720021Y-65679566D01*
X193747771Y-65664549D01*
X193753940Y-65659748D01*
X193918986Y-65531287D01*
X193925959Y-65525860D01*
X194078889Y-65359733D01*
X194202390Y-65170701D01*
X194293093Y-64963919D01*
X194348524Y-64745029D01*
X194367170Y-64520000D01*
X194367170Y-64519993D01*
X194348525Y-64294978D01*
X194348524Y-64294975D01*
X194348524Y-64294971D01*
X194293093Y-64076081D01*
X194202390Y-63869299D01*
X194078889Y-63680267D01*
X193925959Y-63514140D01*
X193925954Y-63514136D01*
X193925952Y-63514134D01*
X193747779Y-63375456D01*
X193747773Y-63375452D01*
X193720181Y-63360520D01*
X193615433Y-63303833D01*
X193565844Y-63254614D01*
X193550736Y-63186398D01*
X193574906Y-63120842D01*
X193622052Y-63082395D01*
X193633410Y-63077099D01*
X193633417Y-63077094D01*
X193698188Y-63031741D01*
X193027448Y-62361000D01*
X193050160Y-62361000D01*
X193147061Y-62335036D01*
X193233940Y-62284876D01*
X193304876Y-62213940D01*
X193355036Y-62127061D01*
X193381000Y-62030160D01*
X193381000Y-62007447D01*
X194051741Y-62678188D01*
X194097094Y-62613417D01*
X194097100Y-62613407D01*
X194190419Y-62413284D01*
X194190424Y-62413270D01*
X194247573Y-62199986D01*
X194247575Y-62199976D01*
X194266821Y-61980000D01*
X194266821Y-61979999D01*
X194247575Y-61760023D01*
X194247573Y-61760013D01*
X194190424Y-61546729D01*
X194190420Y-61546720D01*
X194097096Y-61346586D01*
X194051741Y-61281811D01*
X194051740Y-61281810D01*
X193381000Y-61952551D01*
X193381000Y-61929840D01*
X193355036Y-61832939D01*
X193304876Y-61746060D01*
X193233940Y-61675124D01*
X193147061Y-61624964D01*
X193050160Y-61599000D01*
X193027448Y-61599000D01*
X193698188Y-60928259D01*
X193698187Y-60928258D01*
X193633411Y-60882901D01*
X193633405Y-60882898D01*
X193503627Y-60822382D01*
X193451187Y-60776210D01*
X193432035Y-60709017D01*
X193452251Y-60642135D01*
X193503627Y-60597618D01*
X193633407Y-60537100D01*
X193633417Y-60537094D01*
X193698188Y-60491741D01*
X193027448Y-59821000D01*
X193050160Y-59821000D01*
X193147061Y-59795036D01*
X193233940Y-59744876D01*
X193304876Y-59673940D01*
X193355036Y-59587061D01*
X193381000Y-59490160D01*
X193381000Y-59467447D01*
X194051741Y-60138188D01*
X194097094Y-60073417D01*
X194097100Y-60073407D01*
X194190419Y-59873284D01*
X194190424Y-59873270D01*
X194247573Y-59659986D01*
X194247575Y-59659976D01*
X194266821Y-59440000D01*
X194266821Y-59439999D01*
X194247575Y-59220023D01*
X194247573Y-59220013D01*
X194190424Y-59006729D01*
X194190420Y-59006720D01*
X194097096Y-58806586D01*
X194051741Y-58741811D01*
X194051740Y-58741810D01*
X193381000Y-59412551D01*
X193381000Y-59389840D01*
X193355036Y-59292939D01*
X193304876Y-59206060D01*
X193233940Y-59135124D01*
X193147061Y-59084964D01*
X193050160Y-59059000D01*
X193027448Y-59059000D01*
X193698188Y-58388259D01*
X193698187Y-58388258D01*
X193633411Y-58342901D01*
X193633405Y-58342898D01*
X193433284Y-58249580D01*
X193433270Y-58249575D01*
X193219986Y-58192426D01*
X193219976Y-58192424D01*
X193000001Y-58173179D01*
X192999999Y-58173179D01*
X192780023Y-58192424D01*
X192780013Y-58192426D01*
X192566729Y-58249575D01*
X192566720Y-58249579D01*
X192366590Y-58342901D01*
X192301811Y-58388258D01*
X192972553Y-59059000D01*
X192949840Y-59059000D01*
X192852939Y-59084964D01*
X192766060Y-59135124D01*
X192695124Y-59206060D01*
X192644964Y-59292939D01*
X192619000Y-59389840D01*
X192619000Y-59412553D01*
X191948258Y-58741811D01*
X191902901Y-58806590D01*
X191809579Y-59006720D01*
X191809575Y-59006729D01*
X191752426Y-59220013D01*
X191752424Y-59220023D01*
X191733179Y-59439999D01*
X191733179Y-59440000D01*
X191752424Y-59659976D01*
X191752426Y-59659986D01*
X191809575Y-59873270D01*
X191809580Y-59873284D01*
X191902898Y-60073405D01*
X191902901Y-60073411D01*
X191948258Y-60138187D01*
X191948259Y-60138188D01*
X192619000Y-59467447D01*
X192619000Y-59490160D01*
X192644964Y-59587061D01*
X192695124Y-59673940D01*
X192766060Y-59744876D01*
X192852939Y-59795036D01*
X192949840Y-59821000D01*
X192972553Y-59821000D01*
X192301810Y-60491740D01*
X192366589Y-60537098D01*
X192496373Y-60597618D01*
X192548812Y-60643790D01*
X192567964Y-60710984D01*
X192547748Y-60777865D01*
X192496373Y-60822382D01*
X192366590Y-60882901D01*
X192301811Y-60928258D01*
X192972553Y-61599000D01*
X192949840Y-61599000D01*
X192852939Y-61624964D01*
X192766060Y-61675124D01*
X192695124Y-61746060D01*
X192644964Y-61832939D01*
X192619000Y-61929840D01*
X192619000Y-61952553D01*
X191948258Y-61281811D01*
X191902901Y-61346590D01*
X191809579Y-61546720D01*
X191809575Y-61546729D01*
X191752426Y-61760013D01*
X191752424Y-61760023D01*
X191733179Y-61979999D01*
X191733179Y-61980000D01*
X191752424Y-62199976D01*
X191752426Y-62199986D01*
X191809575Y-62413270D01*
X191809580Y-62413284D01*
X191902898Y-62613405D01*
X191902901Y-62613411D01*
X191948258Y-62678187D01*
X191948259Y-62678188D01*
X192619000Y-62007447D01*
X192619000Y-62030160D01*
X192644964Y-62127061D01*
X192695124Y-62213940D01*
X192766060Y-62284876D01*
X192852939Y-62335036D01*
X192949840Y-62361000D01*
X192972553Y-62361000D01*
X192301810Y-63031740D01*
X192366588Y-63077098D01*
X192377950Y-63082396D01*
X192430390Y-63128567D01*
X192449543Y-63195760D01*
X192429329Y-63262642D01*
X192384565Y-63303834D01*
X192252226Y-63375452D01*
X192252220Y-63375456D01*
X192074047Y-63514134D01*
X192074044Y-63514137D01*
X191921108Y-63680270D01*
X191797608Y-63869302D01*
X191706907Y-64076079D01*
X191651476Y-64294970D01*
X191651474Y-64294978D01*
X191632830Y-64519993D01*
X191632830Y-64520006D01*
X191651474Y-64745021D01*
X191651476Y-64745029D01*
X191706907Y-64963919D01*
X191797610Y-65170701D01*
X191921111Y-65359733D01*
X192074041Y-65525860D01*
X192074044Y-65525862D01*
X192074047Y-65525865D01*
X192252220Y-65664543D01*
X192252235Y-65664553D01*
X192282526Y-65680946D01*
X192332117Y-65730166D01*
X192347224Y-65798382D01*
X192323053Y-65863938D01*
X192282526Y-65899054D01*
X192252235Y-65915446D01*
X192252220Y-65915456D01*
X192074047Y-66054134D01*
X192074044Y-66054137D01*
X191921108Y-66220270D01*
X191797608Y-66409302D01*
X191706907Y-66616079D01*
X191651476Y-66834970D01*
X191651474Y-66834978D01*
X191632830Y-67059993D01*
X191632830Y-67060006D01*
X191651474Y-67285021D01*
X191651476Y-67285029D01*
X191676885Y-67385368D01*
X191706907Y-67503919D01*
X191797610Y-67710701D01*
X191921111Y-67899733D01*
X192074041Y-68065860D01*
X192074044Y-68065862D01*
X192074047Y-68065865D01*
X192252220Y-68204543D01*
X192252226Y-68204547D01*
X192252229Y-68204549D01*
X192384017Y-68275869D01*
X192433607Y-68325089D01*
X192448715Y-68393305D01*
X192424545Y-68458861D01*
X192377407Y-68497305D01*
X192366338Y-68502466D01*
X192185377Y-68629175D01*
X192029175Y-68785377D01*
X191902466Y-68966338D01*
X191902465Y-68966340D01*
X191809107Y-69166548D01*
X191809104Y-69166554D01*
X191751930Y-69379929D01*
X191751929Y-69379937D01*
X191732677Y-69599997D01*
X191732677Y-69600002D01*
X191751929Y-69820062D01*
X191751930Y-69820070D01*
X191809104Y-70033445D01*
X191809105Y-70033447D01*
X191809106Y-70033450D01*
X191885401Y-70197066D01*
X191902466Y-70233662D01*
X191902468Y-70233666D01*
X192029170Y-70414615D01*
X192029175Y-70414621D01*
X192185378Y-70570824D01*
X192185384Y-70570829D01*
X192366333Y-70697531D01*
X192366335Y-70697532D01*
X192366338Y-70697534D01*
X192471559Y-70746599D01*
X192495189Y-70757618D01*
X192547628Y-70803790D01*
X192566780Y-70870984D01*
X192546564Y-70937865D01*
X192495189Y-70982382D01*
X192366340Y-71042465D01*
X192366338Y-71042466D01*
X192185377Y-71169175D01*
X192029175Y-71325377D01*
X191916271Y-71486623D01*
X191861694Y-71530248D01*
X191814696Y-71539500D01*
X188685304Y-71539500D01*
X188618265Y-71519815D01*
X188583729Y-71486623D01*
X188470827Y-71325381D01*
X188411706Y-71266260D01*
X188314620Y-71169174D01*
X188314616Y-71169171D01*
X188314615Y-71169170D01*
X188133666Y-71042468D01*
X188133658Y-71042464D01*
X188004811Y-70982382D01*
X187952371Y-70936210D01*
X187933219Y-70869017D01*
X187953435Y-70802135D01*
X188004811Y-70757618D01*
X188028242Y-70746692D01*
X188133662Y-70697534D01*
X188314620Y-70570826D01*
X188470826Y-70414620D01*
X188597534Y-70233662D01*
X188690894Y-70033450D01*
X188748070Y-69820068D01*
X188767323Y-69600000D01*
X188764714Y-69570184D01*
X188757460Y-69487259D01*
X188748070Y-69379932D01*
X188690894Y-69166550D01*
X188597534Y-68966339D01*
X188470826Y-68785380D01*
X188314620Y-68629174D01*
X188314616Y-68629171D01*
X188314615Y-68629170D01*
X188133666Y-68502468D01*
X188133663Y-68502467D01*
X188133664Y-68502467D01*
X188133662Y-68502466D01*
X188122595Y-68497305D01*
X188070157Y-68451136D01*
X188051004Y-68383942D01*
X188071219Y-68317061D01*
X188115983Y-68275869D01*
X188247771Y-68204549D01*
X188425959Y-68065860D01*
X188578889Y-67899733D01*
X188702390Y-67710701D01*
X188793093Y-67503919D01*
X188848524Y-67285029D01*
X188853099Y-67229815D01*
X188867170Y-67060006D01*
X188867170Y-67059993D01*
X188848525Y-66834978D01*
X188848524Y-66834975D01*
X188848524Y-66834971D01*
X188793093Y-66616081D01*
X188702390Y-66409299D01*
X188578889Y-66220267D01*
X188425959Y-66054140D01*
X188425954Y-66054136D01*
X188425952Y-66054134D01*
X188247779Y-65915456D01*
X188247768Y-65915449D01*
X188217474Y-65899055D01*
X188167883Y-65849836D01*
X188152775Y-65781619D01*
X188176945Y-65716063D01*
X188217474Y-65680945D01*
X188220021Y-65679566D01*
X188247771Y-65664549D01*
X188253940Y-65659748D01*
X188418986Y-65531287D01*
X188425959Y-65525860D01*
X188578889Y-65359733D01*
X188702390Y-65170701D01*
X188793093Y-64963919D01*
X188848524Y-64745029D01*
X188867170Y-64520000D01*
X188867170Y-64519993D01*
X188848525Y-64294978D01*
X188848524Y-64294975D01*
X188848524Y-64294971D01*
X188793093Y-64076081D01*
X188702390Y-63869299D01*
X188578889Y-63680267D01*
X188425959Y-63514140D01*
X188425954Y-63514136D01*
X188425952Y-63514134D01*
X188247779Y-63375456D01*
X188247773Y-63375452D01*
X188220181Y-63360520D01*
X188115433Y-63303833D01*
X188065844Y-63254614D01*
X188050736Y-63186398D01*
X188074906Y-63120842D01*
X188122052Y-63082395D01*
X188133410Y-63077099D01*
X188133417Y-63077094D01*
X188198188Y-63031741D01*
X187527448Y-62361000D01*
X187550160Y-62361000D01*
X187647061Y-62335036D01*
X187733940Y-62284876D01*
X187804876Y-62213940D01*
X187855036Y-62127061D01*
X187881000Y-62030160D01*
X187881000Y-62007447D01*
X188551741Y-62678188D01*
X188597094Y-62613417D01*
X188597100Y-62613407D01*
X188690419Y-62413284D01*
X188690424Y-62413270D01*
X188747573Y-62199986D01*
X188747575Y-62199976D01*
X188766821Y-61980000D01*
X188766821Y-61979999D01*
X188747575Y-61760023D01*
X188747573Y-61760013D01*
X188690424Y-61546729D01*
X188690420Y-61546720D01*
X188597096Y-61346586D01*
X188551741Y-61281811D01*
X188551740Y-61281810D01*
X187881000Y-61952551D01*
X187881000Y-61929840D01*
X187855036Y-61832939D01*
X187804876Y-61746060D01*
X187733940Y-61675124D01*
X187647061Y-61624964D01*
X187550160Y-61599000D01*
X187527448Y-61599000D01*
X188198188Y-60928259D01*
X188198187Y-60928258D01*
X188133411Y-60882901D01*
X188133405Y-60882898D01*
X188003627Y-60822382D01*
X187951187Y-60776210D01*
X187932035Y-60709017D01*
X187952251Y-60642135D01*
X188003627Y-60597618D01*
X188133407Y-60537100D01*
X188133417Y-60537094D01*
X188198188Y-60491741D01*
X187527448Y-59821000D01*
X187550160Y-59821000D01*
X187647061Y-59795036D01*
X187733940Y-59744876D01*
X187804876Y-59673940D01*
X187855036Y-59587061D01*
X187881000Y-59490160D01*
X187881000Y-59467447D01*
X188551741Y-60138188D01*
X188597094Y-60073417D01*
X188597100Y-60073407D01*
X188690419Y-59873284D01*
X188690424Y-59873270D01*
X188747573Y-59659986D01*
X188747575Y-59659976D01*
X188766821Y-59440000D01*
X188766821Y-59439999D01*
X188747575Y-59220023D01*
X188747573Y-59220013D01*
X188690424Y-59006729D01*
X188690420Y-59006720D01*
X188597096Y-58806586D01*
X188551741Y-58741811D01*
X188551740Y-58741810D01*
X187881000Y-59412551D01*
X187881000Y-59389840D01*
X187855036Y-59292939D01*
X187804876Y-59206060D01*
X187733940Y-59135124D01*
X187647061Y-59084964D01*
X187550160Y-59059000D01*
X187527448Y-59059000D01*
X188198188Y-58388259D01*
X188198187Y-58388258D01*
X188133411Y-58342901D01*
X188133405Y-58342898D01*
X187933284Y-58249580D01*
X187933270Y-58249575D01*
X187719986Y-58192426D01*
X187719976Y-58192424D01*
X187500001Y-58173179D01*
X187499999Y-58173179D01*
X187280023Y-58192424D01*
X187280013Y-58192426D01*
X187066729Y-58249575D01*
X187066720Y-58249579D01*
X186866590Y-58342901D01*
X186801811Y-58388258D01*
X187472553Y-59059000D01*
X187449840Y-59059000D01*
X187352939Y-59084964D01*
X187266060Y-59135124D01*
X187195124Y-59206060D01*
X187144964Y-59292939D01*
X187119000Y-59389840D01*
X187119000Y-59412553D01*
X186448258Y-58741811D01*
X186402901Y-58806590D01*
X186309579Y-59006720D01*
X186309575Y-59006729D01*
X186252426Y-59220013D01*
X186252424Y-59220023D01*
X186233179Y-59439999D01*
X186233179Y-59440000D01*
X186252424Y-59659976D01*
X186252426Y-59659986D01*
X186309575Y-59873270D01*
X186309580Y-59873284D01*
X186402898Y-60073405D01*
X186402901Y-60073411D01*
X186448258Y-60138187D01*
X186448259Y-60138188D01*
X187119000Y-59467447D01*
X187119000Y-59490160D01*
X187144964Y-59587061D01*
X187195124Y-59673940D01*
X187266060Y-59744876D01*
X187352939Y-59795036D01*
X187449840Y-59821000D01*
X187472553Y-59821000D01*
X186801810Y-60491740D01*
X186866589Y-60537098D01*
X186996373Y-60597618D01*
X187048812Y-60643790D01*
X187067964Y-60710984D01*
X187047748Y-60777865D01*
X186996373Y-60822382D01*
X186866590Y-60882901D01*
X186801811Y-60928258D01*
X187472553Y-61599000D01*
X187449840Y-61599000D01*
X187352939Y-61624964D01*
X187266060Y-61675124D01*
X187195124Y-61746060D01*
X187144964Y-61832939D01*
X187119000Y-61929840D01*
X187119000Y-61952553D01*
X186448258Y-61281811D01*
X186402901Y-61346590D01*
X186309579Y-61546720D01*
X186309575Y-61546729D01*
X186252426Y-61760013D01*
X186252424Y-61760023D01*
X186233179Y-61979999D01*
X186233179Y-61980000D01*
X186252424Y-62199976D01*
X186252426Y-62199986D01*
X186309575Y-62413270D01*
X186309580Y-62413284D01*
X186402898Y-62613405D01*
X186402901Y-62613411D01*
X186448258Y-62678187D01*
X186448259Y-62678188D01*
X187119000Y-62007447D01*
X187119000Y-62030160D01*
X187144964Y-62127061D01*
X187195124Y-62213940D01*
X187266060Y-62284876D01*
X187352939Y-62335036D01*
X187449840Y-62361000D01*
X187472553Y-62361000D01*
X186801810Y-63031740D01*
X186866588Y-63077098D01*
X186877950Y-63082396D01*
X186930390Y-63128567D01*
X186949543Y-63195760D01*
X186929329Y-63262642D01*
X186884565Y-63303834D01*
X186752226Y-63375452D01*
X186752220Y-63375456D01*
X186574047Y-63514134D01*
X186574044Y-63514137D01*
X186421108Y-63680270D01*
X186297608Y-63869302D01*
X186206907Y-64076079D01*
X186151476Y-64294970D01*
X186151474Y-64294978D01*
X186132830Y-64519993D01*
X186132830Y-64520006D01*
X186151474Y-64745021D01*
X186151476Y-64745029D01*
X186206907Y-64963919D01*
X186297610Y-65170701D01*
X186421111Y-65359733D01*
X186574041Y-65525860D01*
X186574044Y-65525862D01*
X186574047Y-65525865D01*
X186752220Y-65664543D01*
X186752235Y-65664553D01*
X186782526Y-65680946D01*
X186832117Y-65730166D01*
X186847224Y-65798382D01*
X186823053Y-65863938D01*
X186782526Y-65899054D01*
X186752235Y-65915446D01*
X186752220Y-65915456D01*
X186574047Y-66054134D01*
X186574044Y-66054137D01*
X186421108Y-66220270D01*
X186297608Y-66409302D01*
X186206907Y-66616079D01*
X186151476Y-66834970D01*
X186151474Y-66834978D01*
X186132830Y-67059993D01*
X186132830Y-67060006D01*
X186151474Y-67285021D01*
X186151476Y-67285029D01*
X186176885Y-67385368D01*
X186206907Y-67503919D01*
X186297610Y-67710701D01*
X186421111Y-67899733D01*
X186574041Y-68065860D01*
X186574044Y-68065862D01*
X186574047Y-68065865D01*
X186752220Y-68204543D01*
X186752226Y-68204547D01*
X186752229Y-68204549D01*
X186884017Y-68275869D01*
X186933607Y-68325089D01*
X186948715Y-68393305D01*
X186924545Y-68458861D01*
X186877407Y-68497305D01*
X186866338Y-68502466D01*
X186685377Y-68629175D01*
X186529175Y-68785377D01*
X186402466Y-68966338D01*
X186402465Y-68966340D01*
X186309107Y-69166548D01*
X186309104Y-69166554D01*
X186251930Y-69379929D01*
X186251929Y-69379937D01*
X186232677Y-69599997D01*
X186232677Y-69600002D01*
X186251929Y-69820062D01*
X186251930Y-69820070D01*
X186309104Y-70033445D01*
X186309105Y-70033447D01*
X186309106Y-70033450D01*
X186385401Y-70197066D01*
X186402466Y-70233662D01*
X186402468Y-70233666D01*
X186529170Y-70414615D01*
X186529175Y-70414621D01*
X186685378Y-70570824D01*
X186685384Y-70570829D01*
X186866333Y-70697531D01*
X186866335Y-70697532D01*
X186866338Y-70697534D01*
X186971559Y-70746599D01*
X186995189Y-70757618D01*
X187047628Y-70803790D01*
X187066780Y-70870984D01*
X187046564Y-70937865D01*
X186995189Y-70982382D01*
X186866340Y-71042465D01*
X186866338Y-71042466D01*
X186685377Y-71169175D01*
X186529175Y-71325377D01*
X186416271Y-71486623D01*
X186361694Y-71530248D01*
X186314696Y-71539500D01*
X184691940Y-71539500D01*
X184624901Y-71519815D01*
X184579146Y-71467011D01*
X184569202Y-71397853D01*
X184598227Y-71334297D01*
X184604259Y-71327819D01*
X184606701Y-71325377D01*
X184629816Y-71302262D01*
X184725789Y-71149522D01*
X184785368Y-70979255D01*
X184785369Y-70979249D01*
X184805565Y-70800003D01*
X184805565Y-70799996D01*
X184785369Y-70620750D01*
X184785368Y-70620745D01*
X184767902Y-70570829D01*
X184725789Y-70450478D01*
X184629816Y-70297738D01*
X184629814Y-70297736D01*
X184629813Y-70297734D01*
X184627550Y-70294896D01*
X184626659Y-70292715D01*
X184626111Y-70291842D01*
X184626264Y-70291745D01*
X184601144Y-70230209D01*
X184600500Y-70217587D01*
X184600500Y-65989059D01*
X184600501Y-65989046D01*
X184600501Y-65820945D01*
X184600501Y-65820943D01*
X184559577Y-65668215D01*
X184526708Y-65611284D01*
X184480520Y-65531284D01*
X184368716Y-65419480D01*
X184368715Y-65419479D01*
X184364385Y-65415149D01*
X184364374Y-65415139D01*
X180887590Y-61938355D01*
X180887588Y-61938352D01*
X180768717Y-61819481D01*
X180768716Y-61819480D01*
X180681904Y-61769360D01*
X180681904Y-61769359D01*
X180681900Y-61769358D01*
X180631785Y-61740423D01*
X180479057Y-61699499D01*
X180320943Y-61699499D01*
X180313347Y-61699499D01*
X180313331Y-61699500D01*
X167200097Y-61699500D01*
X167133058Y-61679815D01*
X167112416Y-61663181D01*
X164876819Y-59427584D01*
X164843334Y-59366261D01*
X164840500Y-59339903D01*
X164840500Y-58424499D01*
X164860185Y-58357460D01*
X164912989Y-58311705D01*
X164964500Y-58300499D01*
X165487871Y-58300499D01*
X165487872Y-58300499D01*
X165547483Y-58294091D01*
X165682331Y-58243796D01*
X165797546Y-58157546D01*
X165883796Y-58042331D01*
X165934091Y-57907483D01*
X165940500Y-57847873D01*
X165940499Y-56350000D01*
X172713968Y-56350000D01*
X173851518Y-56350000D01*
X173840889Y-56368409D01*
X173800000Y-56521009D01*
X173800000Y-56678991D01*
X173840889Y-56831591D01*
X173851518Y-56850000D01*
X172713968Y-56850000D01*
X172714274Y-56854079D01*
X172714275Y-56854086D01*
X172770967Y-57102475D01*
X172770973Y-57102494D01*
X172864058Y-57339671D01*
X172864057Y-57339671D01*
X172991455Y-57560328D01*
X173150320Y-57759540D01*
X173337097Y-57932842D01*
X173547616Y-58076371D01*
X173547624Y-58076376D01*
X173777176Y-58186921D01*
X173777174Y-58186921D01*
X174020652Y-58262024D01*
X174020660Y-58262026D01*
X174150000Y-58281520D01*
X174150000Y-57148482D01*
X174168409Y-57159111D01*
X174321009Y-57200000D01*
X174478991Y-57200000D01*
X174631591Y-57159111D01*
X174650000Y-57148482D01*
X174650000Y-58281519D01*
X174779339Y-58262026D01*
X174779347Y-58262024D01*
X175022824Y-58186921D01*
X175252376Y-58076376D01*
X175252377Y-58076375D01*
X175462905Y-57932840D01*
X175649679Y-57759540D01*
X175808544Y-57560328D01*
X175935941Y-57339671D01*
X176029026Y-57102494D01*
X176029032Y-57102475D01*
X176085724Y-56854086D01*
X176085725Y-56854079D01*
X176086032Y-56850000D01*
X174948482Y-56850000D01*
X174959111Y-56831591D01*
X175000000Y-56678991D01*
X175000000Y-56521009D01*
X174959111Y-56368409D01*
X174948482Y-56350000D01*
X176086031Y-56350000D01*
X176085725Y-56345920D01*
X176085724Y-56345913D01*
X176029032Y-56097524D01*
X176029026Y-56097505D01*
X175935941Y-55860328D01*
X175935942Y-55860328D01*
X175808544Y-55639671D01*
X175649679Y-55440459D01*
X175462905Y-55267159D01*
X175252377Y-55123624D01*
X175252376Y-55123623D01*
X175022823Y-55013078D01*
X175022825Y-55013078D01*
X174779354Y-54937977D01*
X174779348Y-54937976D01*
X174650000Y-54918479D01*
X174650000Y-56051517D01*
X174631591Y-56040889D01*
X174478991Y-56000000D01*
X174321009Y-56000000D01*
X174168409Y-56040889D01*
X174150000Y-56051517D01*
X174150000Y-54918479D01*
X174020651Y-54937976D01*
X174020645Y-54937977D01*
X173777175Y-55013078D01*
X173547624Y-55123623D01*
X173547616Y-55123628D01*
X173337097Y-55267157D01*
X173150320Y-55440459D01*
X172991455Y-55639671D01*
X172864058Y-55860328D01*
X172770973Y-56097505D01*
X172770967Y-56097524D01*
X172714275Y-56345913D01*
X172714274Y-56345920D01*
X172713968Y-56350000D01*
X165940499Y-56350000D01*
X165940499Y-55352128D01*
X165934091Y-55292517D01*
X165924632Y-55267157D01*
X165883797Y-55157671D01*
X165883793Y-55157664D01*
X165797547Y-55042455D01*
X165797544Y-55042452D01*
X165682335Y-54956206D01*
X165682328Y-54956202D01*
X165547482Y-54905908D01*
X165547483Y-54905908D01*
X165487883Y-54899501D01*
X165487881Y-54899500D01*
X165487873Y-54899500D01*
X165487865Y-54899500D01*
X164964500Y-54899500D01*
X164897461Y-54879815D01*
X164851706Y-54827011D01*
X164840500Y-54775500D01*
X164840500Y-51320096D01*
X164860185Y-51253057D01*
X164876814Y-51232420D01*
X172222416Y-43886817D01*
X172283739Y-43853333D01*
X172310097Y-43850499D01*
X173232871Y-43850499D01*
X173232872Y-43850499D01*
X173292483Y-43844091D01*
X173427331Y-43793796D01*
X173428430Y-43792972D01*
X173429717Y-43792492D01*
X173435112Y-43789547D01*
X173435535Y-43790322D01*
X173493887Y-43768552D01*
X173550198Y-43777673D01*
X173630873Y-43811091D01*
X173796777Y-43844091D01*
X173828992Y-43850499D01*
X173828996Y-43850500D01*
X173828997Y-43850500D01*
X174031004Y-43850500D01*
X174031005Y-43850499D01*
X174229127Y-43811091D01*
X174415756Y-43733786D01*
X174496562Y-43679792D01*
X174563234Y-43658917D01*
X174630614Y-43677401D01*
X174634340Y-43679795D01*
X174714479Y-43733343D01*
X174714486Y-43733347D01*
X174901016Y-43810609D01*
X174901025Y-43810612D01*
X174950000Y-43820353D01*
X174950000Y-42965865D01*
X174952383Y-42941671D01*
X174955500Y-42926002D01*
X174955500Y-42885830D01*
X174969745Y-42900075D01*
X175055255Y-42949444D01*
X175150630Y-42975000D01*
X175249370Y-42975000D01*
X175344745Y-42949444D01*
X175430255Y-42900075D01*
X175450000Y-42880330D01*
X175450000Y-43820352D01*
X175498974Y-43810612D01*
X175498983Y-43810609D01*
X175685513Y-43733347D01*
X175685526Y-43733340D01*
X175853399Y-43621170D01*
X175853403Y-43621167D01*
X175996167Y-43478403D01*
X175996170Y-43478399D01*
X176108340Y-43310526D01*
X176108347Y-43310513D01*
X176185609Y-43123983D01*
X176185612Y-43123974D01*
X176224999Y-42925958D01*
X176225000Y-42925955D01*
X176225000Y-42850000D01*
X175480330Y-42850000D01*
X175500075Y-42830255D01*
X175549444Y-42744745D01*
X175575000Y-42649370D01*
X175575000Y-42550630D01*
X175549444Y-42455255D01*
X175500075Y-42369745D01*
X175480330Y-42350000D01*
X176225000Y-42350000D01*
X176225000Y-42274045D01*
X176224999Y-42274041D01*
X176185612Y-42076025D01*
X176185609Y-42076016D01*
X176108347Y-41889486D01*
X176108340Y-41889473D01*
X175996170Y-41721600D01*
X175996167Y-41721596D01*
X175853403Y-41578832D01*
X175853399Y-41578829D01*
X175685526Y-41466659D01*
X175685513Y-41466652D01*
X175498984Y-41389390D01*
X175498977Y-41389388D01*
X175450000Y-41379645D01*
X175450000Y-42319670D01*
X175430255Y-42299925D01*
X175344745Y-42250556D01*
X175249370Y-42225000D01*
X175150630Y-42225000D01*
X175055255Y-42250556D01*
X174969745Y-42299925D01*
X174955500Y-42314170D01*
X174955500Y-42273996D01*
X174955499Y-42273995D01*
X174952383Y-42258326D01*
X174950000Y-42234134D01*
X174950000Y-41379646D01*
X174949999Y-41379645D01*
X174901022Y-41389388D01*
X174901015Y-41389390D01*
X174714483Y-41466654D01*
X174678615Y-41490620D01*
X174611937Y-41511497D01*
X174544557Y-41493012D01*
X174497868Y-41441032D01*
X174489949Y-41419605D01*
X174489576Y-41418213D01*
X174453604Y-41355909D01*
X174453604Y-41355907D01*
X174410524Y-41281290D01*
X174410521Y-41281286D01*
X174410520Y-41281284D01*
X174298716Y-41169480D01*
X174298715Y-41169479D01*
X174294385Y-41165149D01*
X174294374Y-41165139D01*
X172867590Y-39738355D01*
X172867588Y-39738352D01*
X172748717Y-39619481D01*
X172748709Y-39619475D01*
X172660789Y-39568715D01*
X172660788Y-39568715D01*
X172640077Y-39556757D01*
X172611785Y-39540423D01*
X172459057Y-39499499D01*
X172300943Y-39499499D01*
X172293347Y-39499499D01*
X172293331Y-39499500D01*
X165600098Y-39499500D01*
X165533059Y-39479815D01*
X165512417Y-39463181D01*
X165110916Y-39061680D01*
X165077431Y-39000357D01*
X165082415Y-38930665D01*
X165124287Y-38874732D01*
X165189751Y-38850315D01*
X165239552Y-38856958D01*
X165320737Y-38885366D01*
X165320743Y-38885367D01*
X165320745Y-38885368D01*
X165320746Y-38885368D01*
X165320750Y-38885369D01*
X165499996Y-38905565D01*
X165500000Y-38905565D01*
X165500004Y-38905565D01*
X165679249Y-38885369D01*
X165679252Y-38885368D01*
X165679255Y-38885368D01*
X165849522Y-38825789D01*
X166002262Y-38729816D01*
X166002267Y-38729810D01*
X166005097Y-38727555D01*
X166007275Y-38726665D01*
X166008158Y-38726111D01*
X166008255Y-38726265D01*
X166069783Y-38701145D01*
X166082412Y-38700500D01*
X184150902Y-38700500D01*
X184217941Y-38720185D01*
X184263696Y-38772989D01*
X184273640Y-38842147D01*
X184244615Y-38905703D01*
X184238583Y-38912181D01*
X178619481Y-44531282D01*
X178619477Y-44531287D01*
X178577196Y-44604522D01*
X178540424Y-44668211D01*
X178540423Y-44668212D01*
X178515868Y-44759851D01*
X178499499Y-44820943D01*
X178499499Y-44820945D01*
X178499499Y-44989046D01*
X178499500Y-44989059D01*
X178499500Y-57499902D01*
X178479815Y-57566941D01*
X178463181Y-57587583D01*
X176481465Y-59569298D01*
X176420142Y-59602783D01*
X176407668Y-59604837D01*
X176320750Y-59614630D01*
X176150478Y-59674210D01*
X175997737Y-59770184D01*
X175896137Y-59871785D01*
X175870184Y-59897738D01*
X175834516Y-59954503D01*
X175774211Y-60050476D01*
X175714631Y-60220745D01*
X175714630Y-60220750D01*
X175694435Y-60399996D01*
X175694435Y-60400003D01*
X175714630Y-60579249D01*
X175714631Y-60579254D01*
X175774211Y-60749523D01*
X175800105Y-60790732D01*
X175870184Y-60902262D01*
X175997738Y-61029816D01*
X176150478Y-61125789D01*
X176217426Y-61149215D01*
X176320745Y-61185368D01*
X176320750Y-61185369D01*
X176499996Y-61205565D01*
X176500000Y-61205565D01*
X176500004Y-61205565D01*
X176679249Y-61185369D01*
X176679252Y-61185368D01*
X176679255Y-61185368D01*
X176849522Y-61125789D01*
X177002262Y-61029816D01*
X177129816Y-60902262D01*
X177225789Y-60749522D01*
X177285368Y-60579255D01*
X177295161Y-60492329D01*
X177322226Y-60427918D01*
X177330690Y-60418543D01*
X179458506Y-58290728D01*
X179458511Y-58290724D01*
X179468714Y-58280520D01*
X179468716Y-58280520D01*
X179580520Y-58168716D01*
X179653487Y-58042333D01*
X179653488Y-58042332D01*
X179659576Y-58031787D01*
X179659576Y-58031786D01*
X179659577Y-58031785D01*
X179700500Y-57879058D01*
X179700500Y-57720943D01*
X179700500Y-45200097D01*
X179720185Y-45133058D01*
X179736819Y-45112416D01*
X185052416Y-39796819D01*
X185113739Y-39763334D01*
X185140097Y-39760500D01*
X190417138Y-39760500D01*
X190484177Y-39780185D01*
X190518711Y-39813375D01*
X190546721Y-39853377D01*
X190630713Y-39973331D01*
X190786669Y-40129287D01*
X190967337Y-40255792D01*
X190967339Y-40255793D01*
X190967342Y-40255795D01*
X191099923Y-40317618D01*
X191152362Y-40363790D01*
X191171514Y-40430984D01*
X191151298Y-40497865D01*
X191099923Y-40542382D01*
X190967344Y-40604204D01*
X190967342Y-40604205D01*
X190786668Y-40730713D01*
X190630713Y-40886668D01*
X190518713Y-41046623D01*
X190464136Y-41090248D01*
X190417138Y-41099500D01*
X186486669Y-41099500D01*
X186486653Y-41099499D01*
X186479057Y-41099499D01*
X186320943Y-41099499D01*
X186213587Y-41128265D01*
X186168210Y-41140424D01*
X186168209Y-41140425D01*
X186133066Y-41160716D01*
X186133064Y-41160717D01*
X186031290Y-41219475D01*
X186031282Y-41219481D01*
X185919478Y-41331286D01*
X182181465Y-45069298D01*
X182120142Y-45102783D01*
X182107668Y-45104837D01*
X182020750Y-45114630D01*
X181850478Y-45174210D01*
X181697737Y-45270184D01*
X181570184Y-45397737D01*
X181474211Y-45550476D01*
X181414631Y-45720745D01*
X181414630Y-45720750D01*
X181394435Y-45899996D01*
X181394435Y-45900003D01*
X181414630Y-46079249D01*
X181414633Y-46079262D01*
X181474209Y-46249519D01*
X181495893Y-46284030D01*
X181514892Y-46351267D01*
X181495893Y-46415970D01*
X181474209Y-46450480D01*
X181414633Y-46620737D01*
X181414630Y-46620750D01*
X181394435Y-46799996D01*
X181394435Y-46800003D01*
X181414630Y-46979249D01*
X181414633Y-46979262D01*
X181474209Y-47149519D01*
X181495893Y-47184030D01*
X181514892Y-47251267D01*
X181495893Y-47315970D01*
X181474209Y-47350480D01*
X181414633Y-47520737D01*
X181414630Y-47520750D01*
X181394435Y-47699996D01*
X181394435Y-47700003D01*
X181414630Y-47879249D01*
X181414633Y-47879262D01*
X181474209Y-48049520D01*
X181527309Y-48134029D01*
X181546309Y-48201266D01*
X181527309Y-48265971D01*
X181474209Y-48350479D01*
X181414633Y-48520737D01*
X181414630Y-48520750D01*
X181394435Y-48699996D01*
X181394435Y-48700003D01*
X181414630Y-48879249D01*
X181414631Y-48879254D01*
X181474211Y-49049523D01*
X181570184Y-49202262D01*
X181697738Y-49329816D01*
X181850478Y-49425789D01*
X181984659Y-49472741D01*
X182020745Y-49485368D01*
X182020750Y-49485369D01*
X182199996Y-49505565D01*
X182200000Y-49505565D01*
X182200004Y-49505565D01*
X182379249Y-49485369D01*
X182379252Y-49485368D01*
X182379255Y-49485368D01*
X182549522Y-49425789D01*
X182702262Y-49329816D01*
X182702267Y-49329810D01*
X182705097Y-49327555D01*
X182707275Y-49326665D01*
X182708158Y-49326111D01*
X182708255Y-49326265D01*
X182769783Y-49301145D01*
X182782412Y-49300500D01*
X189593331Y-49300500D01*
X189593347Y-49300501D01*
X189600943Y-49300501D01*
X189759054Y-49300501D01*
X189759057Y-49300501D01*
X189911785Y-49259577D01*
X189961904Y-49230639D01*
X190048716Y-49180520D01*
X190160520Y-49068716D01*
X190160520Y-49068714D01*
X190170728Y-49058507D01*
X190170730Y-49058504D01*
X193729954Y-45499279D01*
X193791275Y-45465796D01*
X193849726Y-45467186D01*
X193920280Y-45486092D01*
X194071031Y-45499281D01*
X194139998Y-45505315D01*
X194140000Y-45505315D01*
X194140002Y-45505315D01*
X194195059Y-45500498D01*
X194359720Y-45486092D01*
X194572763Y-45429007D01*
X194772658Y-45335795D01*
X194953329Y-45209288D01*
X195109288Y-45053329D01*
X195235795Y-44872658D01*
X195329007Y-44672763D01*
X195386092Y-44459720D01*
X195405315Y-44240000D01*
X195386092Y-44020280D01*
X195338055Y-43841006D01*
X195329009Y-43807244D01*
X195329008Y-43807243D01*
X195329007Y-43807237D01*
X195235795Y-43607343D01*
X195109288Y-43426671D01*
X195109286Y-43426668D01*
X194953330Y-43270712D01*
X194772662Y-43144207D01*
X194772654Y-43144203D01*
X194640077Y-43082382D01*
X194587637Y-43036210D01*
X194568485Y-42969017D01*
X194588700Y-42902136D01*
X194640077Y-42857618D01*
X194660242Y-42848215D01*
X194772658Y-42795795D01*
X194953329Y-42669288D01*
X195109288Y-42513329D01*
X195235795Y-42332658D01*
X195329007Y-42132763D01*
X195386092Y-41919720D01*
X195405315Y-41700000D01*
X195386092Y-41480280D01*
X195332773Y-41281290D01*
X195329009Y-41267244D01*
X195329008Y-41267243D01*
X195329007Y-41267237D01*
X195235795Y-41067343D01*
X195109288Y-40886671D01*
X195109286Y-40886668D01*
X194953330Y-40730712D01*
X194772662Y-40604207D01*
X194772654Y-40604203D01*
X194640077Y-40542382D01*
X194587637Y-40496210D01*
X194568485Y-40429017D01*
X194588700Y-40362136D01*
X194640077Y-40317618D01*
X194772658Y-40255795D01*
X194953329Y-40129288D01*
X195109288Y-39973329D01*
X195235795Y-39792658D01*
X195329007Y-39592763D01*
X195386092Y-39379720D01*
X195404596Y-39168215D01*
X195405315Y-39160001D01*
X195405315Y-39159998D01*
X195394054Y-39031284D01*
X195386092Y-38940280D01*
X195329007Y-38727237D01*
X195235795Y-38527343D01*
X195109288Y-38346671D01*
X195109286Y-38346668D01*
X194953330Y-38190712D01*
X194772662Y-38064207D01*
X194772654Y-38064203D01*
X194640077Y-38002382D01*
X194587637Y-37956210D01*
X194568485Y-37889017D01*
X194588700Y-37822136D01*
X194640077Y-37777618D01*
X194772658Y-37715795D01*
X194953329Y-37589288D01*
X195109288Y-37433329D01*
X195235795Y-37252658D01*
X195329007Y-37052763D01*
X195386092Y-36839720D01*
X195405315Y-36620000D01*
X195386092Y-36400280D01*
X195329007Y-36187237D01*
X195235795Y-35987343D01*
X195109288Y-35806671D01*
X195109286Y-35806668D01*
X194953330Y-35650712D01*
X194772662Y-35524207D01*
X194772654Y-35524203D01*
X194639486Y-35462106D01*
X194587046Y-35415934D01*
X194567894Y-35348740D01*
X194588110Y-35281859D01*
X194639486Y-35237342D01*
X194772402Y-35175362D01*
X194772410Y-35175358D01*
X194836751Y-35130305D01*
X194836751Y-35130304D01*
X194232668Y-34526220D01*
X194315623Y-34503992D01*
X194419376Y-34444090D01*
X194504090Y-34359376D01*
X194563992Y-34255623D01*
X194586220Y-34172667D01*
X195190304Y-34776751D01*
X195190305Y-34776751D01*
X195235358Y-34712410D01*
X195235362Y-34712402D01*
X195328532Y-34512598D01*
X195328536Y-34512587D01*
X195385597Y-34299634D01*
X195385598Y-34299626D01*
X195404813Y-34080001D01*
X195404813Y-34079998D01*
X195385598Y-33860373D01*
X195385597Y-33860366D01*
X195328533Y-33647404D01*
X195235360Y-33447595D01*
X195235359Y-33447593D01*
X195190304Y-33383248D01*
X195190304Y-33383247D01*
X194586220Y-33987331D01*
X194563992Y-33904377D01*
X194504090Y-33800624D01*
X194419376Y-33715910D01*
X194315623Y-33656008D01*
X194232667Y-33633779D01*
X194836751Y-33029694D01*
X194772402Y-32984638D01*
X194572593Y-32891466D01*
X194572587Y-32891463D01*
X194359634Y-32834402D01*
X194359626Y-32834401D01*
X194140002Y-32815187D01*
X194139998Y-32815187D01*
X193920373Y-32834401D01*
X193920366Y-32834402D01*
X193707404Y-32891466D01*
X193507594Y-32984640D01*
X193443248Y-33029694D01*
X194047333Y-33633779D01*
X193964377Y-33656008D01*
X193860624Y-33715910D01*
X193775910Y-33800624D01*
X193716008Y-33904377D01*
X193693779Y-33987333D01*
X193089694Y-33383248D01*
X193044640Y-33447594D01*
X192982382Y-33581106D01*
X192936209Y-33633545D01*
X192869016Y-33652697D01*
X192802135Y-33632481D01*
X192757618Y-33581106D01*
X192695360Y-33447595D01*
X192695359Y-33447593D01*
X192650304Y-33383248D01*
X192650304Y-33383247D01*
X192046220Y-33987331D01*
X192023992Y-33904377D01*
X191964090Y-33800624D01*
X191879376Y-33715910D01*
X191775623Y-33656008D01*
X191692667Y-33633779D01*
X192296751Y-33029694D01*
X192232402Y-32984638D01*
X192032593Y-32891466D01*
X192032587Y-32891463D01*
X191819634Y-32834402D01*
X191819626Y-32834401D01*
X191600002Y-32815187D01*
X191599998Y-32815187D01*
X191380373Y-32834401D01*
X191380366Y-32834402D01*
X191167404Y-32891466D01*
X190967594Y-32984640D01*
X190903248Y-33029694D01*
X191507333Y-33633779D01*
X191424377Y-33656008D01*
X191320624Y-33715910D01*
X191235910Y-33800624D01*
X191176008Y-33904377D01*
X191153779Y-33987333D01*
X190549694Y-33383248D01*
X190504640Y-33447594D01*
X190411466Y-33647404D01*
X190354402Y-33860366D01*
X190354401Y-33860373D01*
X190335187Y-34079998D01*
X190335187Y-34080001D01*
X190354401Y-34299626D01*
X190354402Y-34299634D01*
X190411463Y-34512587D01*
X190411466Y-34512593D01*
X190504638Y-34712402D01*
X190549694Y-34776750D01*
X191153779Y-34172666D01*
X191176008Y-34255623D01*
X191235910Y-34359376D01*
X191320624Y-34444090D01*
X191424377Y-34503992D01*
X191507332Y-34526220D01*
X190903247Y-35130304D01*
X190967593Y-35175360D01*
X191100514Y-35237342D01*
X191152953Y-35283514D01*
X191172105Y-35350708D01*
X191151889Y-35417589D01*
X191100514Y-35462106D01*
X190967344Y-35524204D01*
X190967342Y-35524205D01*
X190786672Y-35650710D01*
X190755918Y-35681465D01*
X190674200Y-35763182D01*
X190612880Y-35796666D01*
X190586521Y-35799500D01*
X158931692Y-35799500D01*
X158864653Y-35779815D01*
X158830119Y-35746625D01*
X158702390Y-35564207D01*
X158700045Y-35560858D01*
X158539141Y-35399954D01*
X158352734Y-35269432D01*
X158352732Y-35269431D01*
X158146497Y-35173261D01*
X158146488Y-35173258D01*
X157926697Y-35114366D01*
X157926693Y-35114365D01*
X157926692Y-35114365D01*
X157926691Y-35114364D01*
X157926686Y-35114364D01*
X157700002Y-35094532D01*
X157699998Y-35094532D01*
X157473313Y-35114364D01*
X157473302Y-35114366D01*
X157377067Y-35140152D01*
X157307217Y-35138489D01*
X157257293Y-35108058D01*
X156486916Y-34337681D01*
X156453431Y-34276358D01*
X156458415Y-34206666D01*
X156486916Y-34162319D01*
X156829756Y-33819479D01*
X157179719Y-33469515D01*
X157241040Y-33436032D01*
X157310731Y-33441016D01*
X157333365Y-33452202D01*
X157360922Y-33469517D01*
X157450475Y-33525788D01*
X157620745Y-33585368D01*
X157620750Y-33585369D01*
X157799996Y-33605565D01*
X157800000Y-33605565D01*
X157800004Y-33605565D01*
X157979249Y-33585369D01*
X157979252Y-33585368D01*
X157979255Y-33585368D01*
X158149522Y-33525789D01*
X158302262Y-33429816D01*
X158429816Y-33302262D01*
X158525789Y-33149522D01*
X158585368Y-32979255D01*
X158585369Y-32979249D01*
X158605565Y-32800003D01*
X158605565Y-32799996D01*
X158585369Y-32620750D01*
X158585368Y-32620745D01*
X158525788Y-32450476D01*
X158429815Y-32297737D01*
X158302262Y-32170184D01*
X158149523Y-32074211D01*
X157979254Y-32014631D01*
X157979249Y-32014630D01*
X157800004Y-31994435D01*
X157799996Y-31994435D01*
X157620750Y-32014630D01*
X157620745Y-32014631D01*
X157450476Y-32074211D01*
X157297736Y-32170185D01*
X157294903Y-32172445D01*
X157292724Y-32173334D01*
X157291842Y-32173889D01*
X157291744Y-32173734D01*
X157230217Y-32198855D01*
X157217588Y-32199500D01*
X156920940Y-32199500D01*
X156880019Y-32210464D01*
X156880019Y-32210465D01*
X156842751Y-32220451D01*
X156768214Y-32240423D01*
X156768209Y-32240426D01*
X156631290Y-32319475D01*
X156631282Y-32319481D01*
X156519478Y-32431286D01*
X155287584Y-33663181D01*
X155226261Y-33696666D01*
X155199903Y-33699500D01*
X143486669Y-33699500D01*
X143486653Y-33699499D01*
X143479057Y-33699499D01*
X143320943Y-33699499D01*
X143220377Y-33726446D01*
X143168210Y-33740424D01*
X143168209Y-33740425D01*
X143118096Y-33769359D01*
X143118095Y-33769360D01*
X143074689Y-33794420D01*
X143031285Y-33819479D01*
X143031282Y-33819481D01*
X142950398Y-33900366D01*
X142919480Y-33931284D01*
X142919478Y-33931286D01*
X141869599Y-34981166D01*
X140827584Y-36023181D01*
X140766261Y-36056666D01*
X140739903Y-36059500D01*
X139522862Y-36059500D01*
X139455823Y-36039815D01*
X139421287Y-36006623D01*
X139309286Y-35846668D01*
X139153330Y-35690712D01*
X138972662Y-35564207D01*
X138972654Y-35564203D01*
X138839486Y-35502106D01*
X138787046Y-35455934D01*
X138767894Y-35388740D01*
X138788110Y-35321859D01*
X138839486Y-35277342D01*
X138972402Y-35215362D01*
X138972410Y-35215358D01*
X139036751Y-35170305D01*
X139036751Y-35170304D01*
X138432668Y-34566220D01*
X138515623Y-34543992D01*
X138619376Y-34484090D01*
X138704090Y-34399376D01*
X138763992Y-34295623D01*
X138786220Y-34212667D01*
X139390304Y-34816751D01*
X139390305Y-34816751D01*
X139435358Y-34752410D01*
X139435362Y-34752402D01*
X139528532Y-34552598D01*
X139528536Y-34552587D01*
X139585597Y-34339634D01*
X139585598Y-34339626D01*
X139604813Y-34120001D01*
X139604813Y-34119998D01*
X139585598Y-33900373D01*
X139585597Y-33900366D01*
X139528533Y-33687404D01*
X139435360Y-33487595D01*
X139435359Y-33487593D01*
X139390304Y-33423248D01*
X139390304Y-33423247D01*
X138786220Y-34027331D01*
X138763992Y-33944377D01*
X138704090Y-33840624D01*
X138619376Y-33755910D01*
X138515623Y-33696008D01*
X138432667Y-33673779D01*
X139036751Y-33069694D01*
X138972402Y-33024638D01*
X138772593Y-32931466D01*
X138772587Y-32931463D01*
X138559634Y-32874402D01*
X138559626Y-32874401D01*
X138340002Y-32855187D01*
X138339998Y-32855187D01*
X138120373Y-32874401D01*
X138120366Y-32874402D01*
X137907404Y-32931466D01*
X137707594Y-33024640D01*
X137643248Y-33069694D01*
X138247333Y-33673779D01*
X138164377Y-33696008D01*
X138060624Y-33755910D01*
X137975910Y-33840624D01*
X137916008Y-33944377D01*
X137893779Y-34027333D01*
X137289694Y-33423248D01*
X137244640Y-33487594D01*
X137182382Y-33621106D01*
X137136209Y-33673545D01*
X137069016Y-33692697D01*
X137002135Y-33672481D01*
X136957618Y-33621106D01*
X136895360Y-33487595D01*
X136895359Y-33487593D01*
X136850304Y-33423248D01*
X136850304Y-33423247D01*
X136246220Y-34027331D01*
X136223992Y-33944377D01*
X136164090Y-33840624D01*
X136079376Y-33755910D01*
X135975623Y-33696008D01*
X135892667Y-33673779D01*
X136496751Y-33069694D01*
X136432402Y-33024638D01*
X136232593Y-32931466D01*
X136232587Y-32931463D01*
X136019634Y-32874402D01*
X136019626Y-32874401D01*
X135800002Y-32855187D01*
X135799998Y-32855187D01*
X135580373Y-32874401D01*
X135580366Y-32874402D01*
X135367404Y-32931466D01*
X135167594Y-33024640D01*
X135103248Y-33069694D01*
X135707333Y-33673779D01*
X135624377Y-33696008D01*
X135520624Y-33755910D01*
X135435910Y-33840624D01*
X135376008Y-33944377D01*
X135353779Y-34027333D01*
X134749694Y-33423248D01*
X134704640Y-33487594D01*
X134611466Y-33687404D01*
X134554402Y-33900366D01*
X134554401Y-33900373D01*
X134535187Y-34119998D01*
X134535187Y-34120001D01*
X134554401Y-34339626D01*
X134554402Y-34339634D01*
X134611463Y-34552587D01*
X134611466Y-34552593D01*
X134704638Y-34752402D01*
X134749694Y-34816750D01*
X135353779Y-34212666D01*
X135376008Y-34295623D01*
X135435910Y-34399376D01*
X135520624Y-34484090D01*
X135624377Y-34543992D01*
X135707332Y-34566220D01*
X135103247Y-35170304D01*
X135167593Y-35215360D01*
X135300514Y-35277342D01*
X135352953Y-35323514D01*
X135372105Y-35390708D01*
X135351889Y-35457589D01*
X135300514Y-35502106D01*
X135167344Y-35564204D01*
X135167342Y-35564205D01*
X134986668Y-35690713D01*
X134830713Y-35846668D01*
X134704205Y-36027342D01*
X134704204Y-36027344D01*
X134610994Y-36227235D01*
X134610990Y-36227244D01*
X134553909Y-36440275D01*
X134553907Y-36440285D01*
X134534685Y-36659998D01*
X134534685Y-36660001D01*
X134553907Y-36879714D01*
X134553909Y-36879724D01*
X134610990Y-37092755D01*
X134610995Y-37092769D01*
X134704203Y-37292654D01*
X134704207Y-37292662D01*
X134830712Y-37473330D01*
X134986669Y-37629287D01*
X135167337Y-37755792D01*
X135167339Y-37755793D01*
X135167342Y-37755795D01*
X135299923Y-37817618D01*
X135352362Y-37863790D01*
X135371514Y-37930984D01*
X135351298Y-37997865D01*
X135299923Y-38042382D01*
X135167344Y-38104204D01*
X135167342Y-38104205D01*
X134986668Y-38230713D01*
X134830713Y-38386668D01*
X134704205Y-38567342D01*
X134704204Y-38567344D01*
X134610994Y-38767235D01*
X134610990Y-38767244D01*
X134553909Y-38980275D01*
X134553907Y-38980285D01*
X134534685Y-39199998D01*
X134534685Y-39200001D01*
X134553907Y-39419714D01*
X134553909Y-39419725D01*
X134572812Y-39490271D01*
X134571149Y-39560121D01*
X134540718Y-39610045D01*
X131189360Y-42961402D01*
X131128037Y-42994887D01*
X131058345Y-42989903D01*
X131002412Y-42948031D01*
X130977995Y-42882567D01*
X130977679Y-42873621D01*
X130993548Y-27322306D01*
X130999874Y-21123873D01*
X131019627Y-21056854D01*
X131072478Y-21011153D01*
X131123874Y-21000000D01*
X198876000Y-21000000D01*
X198943039Y-21019685D01*
G37*
%TD.AperFunction*%
%TA.AperFunction,Conductor*%
G36*
X194466667Y-69658745D02*
G01*
X195663181Y-70855259D01*
X195696666Y-70916582D01*
X195699500Y-70942940D01*
X195699500Y-98317060D01*
X195679815Y-98384099D01*
X195663181Y-98404741D01*
X194504741Y-99563181D01*
X194443418Y-99596666D01*
X194417060Y-99599500D01*
X188621154Y-99599500D01*
X188466509Y-99630261D01*
X188466497Y-99630264D01*
X188423832Y-99647936D01*
X188423833Y-99647937D01*
X188320823Y-99690604D01*
X188320814Y-99690609D01*
X188189712Y-99778209D01*
X188189711Y-99778211D01*
X188189710Y-99778212D01*
X186309711Y-101658211D01*
X186253960Y-101713962D01*
X186198209Y-101769712D01*
X186110609Y-101900814D01*
X186110602Y-101900827D01*
X186050264Y-102046498D01*
X186050261Y-102046510D01*
X186019500Y-102201153D01*
X186019500Y-102766194D01*
X185999815Y-102833233D01*
X185954927Y-102875026D01*
X185762792Y-102979940D01*
X185762784Y-102979945D01*
X185539439Y-103147138D01*
X185539421Y-103147154D01*
X185342154Y-103344421D01*
X185342138Y-103344439D01*
X185174945Y-103567784D01*
X185174940Y-103567792D01*
X185041233Y-103812657D01*
X185041231Y-103812661D01*
X184950182Y-104056777D01*
X184908311Y-104112711D01*
X184842846Y-104137128D01*
X184774573Y-104122276D01*
X184725168Y-104072871D01*
X184710000Y-104013444D01*
X184710000Y-103475027D01*
X184709999Y-103475014D01*
X184699506Y-103372310D01*
X184699505Y-103372303D01*
X184644358Y-103205881D01*
X184644356Y-103205876D01*
X184552315Y-103056655D01*
X184428344Y-102932684D01*
X184279123Y-102840643D01*
X184279118Y-102840641D01*
X184112696Y-102785494D01*
X184112689Y-102785493D01*
X184009985Y-102775000D01*
X183110000Y-102775000D01*
X183110000Y-103808519D01*
X183107936Y-103807665D01*
X182943718Y-103775000D01*
X182776282Y-103775000D01*
X182612064Y-103807665D01*
X182610000Y-103808519D01*
X182610000Y-102775000D01*
X181710014Y-102775000D01*
X181607310Y-102785493D01*
X181607303Y-102785494D01*
X181440881Y-102840641D01*
X181440876Y-102840643D01*
X181291655Y-102932684D01*
X181167684Y-103056655D01*
X181075643Y-103205876D01*
X181075641Y-103205881D01*
X181020494Y-103372303D01*
X181020493Y-103372310D01*
X181010000Y-103475014D01*
X181010000Y-104375000D01*
X182043520Y-104375000D01*
X182042665Y-104377064D01*
X182010000Y-104541282D01*
X182010000Y-104708718D01*
X182042665Y-104872936D01*
X182043520Y-104875000D01*
X181010000Y-104875000D01*
X181010000Y-105774985D01*
X181020493Y-105877689D01*
X181020494Y-105877696D01*
X181075641Y-106044118D01*
X181075643Y-106044123D01*
X181167684Y-106193344D01*
X181291655Y-106317315D01*
X181440876Y-106409356D01*
X181440881Y-106409358D01*
X181607303Y-106464505D01*
X181607310Y-106464506D01*
X181710014Y-106474999D01*
X181710027Y-106475000D01*
X182610000Y-106475000D01*
X182610000Y-105441480D01*
X182612064Y-105442335D01*
X182776282Y-105475000D01*
X182943718Y-105475000D01*
X183107936Y-105442335D01*
X183110000Y-105441480D01*
X183110000Y-106475000D01*
X184009973Y-106475000D01*
X184009985Y-106474999D01*
X184112689Y-106464506D01*
X184112696Y-106464505D01*
X184279118Y-106409358D01*
X184279123Y-106409356D01*
X184428344Y-106317315D01*
X184552315Y-106193344D01*
X184644356Y-106044123D01*
X184644358Y-106044118D01*
X184699505Y-105877696D01*
X184699506Y-105877689D01*
X184709999Y-105774985D01*
X184710000Y-105774972D01*
X184710000Y-105236555D01*
X184729685Y-105169516D01*
X184782489Y-105123761D01*
X184851647Y-105113817D01*
X184915203Y-105142842D01*
X184950180Y-105193219D01*
X185013043Y-105361763D01*
X185041231Y-105437338D01*
X185041233Y-105437342D01*
X185174940Y-105682207D01*
X185174945Y-105682215D01*
X185342138Y-105905560D01*
X185342154Y-105905578D01*
X185539421Y-106102845D01*
X185539439Y-106102861D01*
X185762784Y-106270054D01*
X185762792Y-106270059D01*
X185954927Y-106374973D01*
X186004332Y-106424378D01*
X186019500Y-106483805D01*
X186019500Y-106797060D01*
X185999815Y-106864099D01*
X185983181Y-106884741D01*
X183304741Y-109563181D01*
X183243418Y-109596666D01*
X183217060Y-109599500D01*
X142282940Y-109599500D01*
X142215901Y-109579815D01*
X142195259Y-109563181D01*
X139756819Y-107124741D01*
X139723334Y-107063418D01*
X139720500Y-107037060D01*
X139720500Y-106483805D01*
X139740185Y-106416766D01*
X139785073Y-106374973D01*
X139890665Y-106317315D01*
X139977213Y-106270056D01*
X140200568Y-106102855D01*
X140397855Y-105905568D01*
X140565056Y-105682213D01*
X140698769Y-105437337D01*
X140783819Y-105209307D01*
X140825689Y-105153375D01*
X140891154Y-105128958D01*
X140959426Y-105143810D01*
X141008832Y-105193215D01*
X141016178Y-105209300D01*
X141072060Y-105359126D01*
X141101231Y-105437338D01*
X141101233Y-105437342D01*
X141234940Y-105682207D01*
X141234945Y-105682215D01*
X141402138Y-105905560D01*
X141402154Y-105905578D01*
X141599421Y-106102845D01*
X141599439Y-106102861D01*
X141822784Y-106270054D01*
X141822792Y-106270059D01*
X142067657Y-106403766D01*
X142067661Y-106403768D01*
X142067663Y-106403769D01*
X142329077Y-106501271D01*
X142465391Y-106530924D01*
X142601700Y-106560577D01*
X142601702Y-106560577D01*
X142601706Y-106560578D01*
X142849014Y-106578265D01*
X142879999Y-106580482D01*
X142880000Y-106580482D01*
X142880001Y-106580482D01*
X142907881Y-106578487D01*
X143158294Y-106560578D01*
X143430923Y-106501271D01*
X143692337Y-106403769D01*
X143937213Y-106270056D01*
X144160568Y-106102855D01*
X144357855Y-105905568D01*
X144525056Y-105682213D01*
X144658769Y-105437337D01*
X144743819Y-105209307D01*
X144785689Y-105153375D01*
X144851154Y-105128958D01*
X144919426Y-105143810D01*
X144968832Y-105193215D01*
X144976178Y-105209300D01*
X145032060Y-105359126D01*
X145061231Y-105437338D01*
X145061233Y-105437342D01*
X145194940Y-105682207D01*
X145194945Y-105682215D01*
X145362138Y-105905560D01*
X145362154Y-105905578D01*
X145559421Y-106102845D01*
X145559439Y-106102861D01*
X145782784Y-106270054D01*
X145782792Y-106270059D01*
X146027657Y-106403766D01*
X146027661Y-106403768D01*
X146027663Y-106403769D01*
X146289077Y-106501271D01*
X146425391Y-106530924D01*
X146561700Y-106560577D01*
X146561702Y-106560577D01*
X146561706Y-106560578D01*
X146809014Y-106578265D01*
X146839999Y-106580482D01*
X146840000Y-106580482D01*
X146840001Y-106580482D01*
X146867881Y-106578487D01*
X147118294Y-106560578D01*
X147390923Y-106501271D01*
X147652337Y-106403769D01*
X147897213Y-106270056D01*
X148120568Y-106102855D01*
X148317855Y-105905568D01*
X148485056Y-105682213D01*
X148618769Y-105437337D01*
X148716271Y-105175923D01*
X148775578Y-104903294D01*
X148795482Y-104625000D01*
X148775578Y-104346706D01*
X148726487Y-104121041D01*
X148716273Y-104074085D01*
X148716272Y-104074083D01*
X148716271Y-104074077D01*
X148691614Y-104007971D01*
X148686631Y-103938283D01*
X148720112Y-103876964D01*
X150560259Y-102036819D01*
X150621582Y-102003334D01*
X150647940Y-102000500D01*
X176578844Y-102000500D01*
X176578845Y-102000499D01*
X176733497Y-101969737D01*
X176879179Y-101909394D01*
X177010289Y-101821789D01*
X182995259Y-95836819D01*
X183056582Y-95803334D01*
X183082940Y-95800500D01*
X186330603Y-95800500D01*
X186397642Y-95820185D01*
X186421831Y-95840515D01*
X186574041Y-96005860D01*
X186574044Y-96005862D01*
X186574047Y-96005865D01*
X186752220Y-96144543D01*
X186752226Y-96144547D01*
X186752229Y-96144549D01*
X186950814Y-96252018D01*
X187164380Y-96325335D01*
X187387100Y-96362500D01*
X187612900Y-96362500D01*
X187835620Y-96325335D01*
X188049186Y-96252018D01*
X188247771Y-96144549D01*
X188425959Y-96005860D01*
X188578167Y-95840516D01*
X188638054Y-95804527D01*
X188669397Y-95800500D01*
X191830603Y-95800500D01*
X191897642Y-95820185D01*
X191921831Y-95840515D01*
X192074041Y-96005860D01*
X192074044Y-96005862D01*
X192074047Y-96005865D01*
X192252220Y-96144543D01*
X192252226Y-96144547D01*
X192252229Y-96144549D01*
X192450814Y-96252018D01*
X192664380Y-96325335D01*
X192887100Y-96362500D01*
X193112900Y-96362500D01*
X193335620Y-96325335D01*
X193549186Y-96252018D01*
X193747771Y-96144549D01*
X193925959Y-96005860D01*
X194078889Y-95839733D01*
X194202390Y-95650701D01*
X194293093Y-95443919D01*
X194348524Y-95225029D01*
X194363233Y-95047517D01*
X194367170Y-95000006D01*
X194367170Y-94999993D01*
X194348525Y-94774978D01*
X194348524Y-94774975D01*
X194348524Y-94774971D01*
X194293093Y-94556081D01*
X194202390Y-94349299D01*
X194078889Y-94160267D01*
X193925959Y-93994140D01*
X193925954Y-93994136D01*
X193925952Y-93994134D01*
X193747779Y-93855456D01*
X193747768Y-93855449D01*
X193717474Y-93839055D01*
X193667883Y-93789836D01*
X193652775Y-93721619D01*
X193676945Y-93656063D01*
X193717474Y-93620945D01*
X193720021Y-93619566D01*
X193747771Y-93604549D01*
X193925959Y-93465860D01*
X194078889Y-93299733D01*
X194202390Y-93110701D01*
X194293093Y-92903919D01*
X194348524Y-92685029D01*
X194348525Y-92685021D01*
X194367170Y-92460006D01*
X194367170Y-92459993D01*
X194348525Y-92234978D01*
X194348524Y-92234975D01*
X194348524Y-92234971D01*
X194293093Y-92016081D01*
X194202390Y-91809299D01*
X194078889Y-91620267D01*
X193925959Y-91454140D01*
X193925954Y-91454136D01*
X193925952Y-91454134D01*
X193747779Y-91315456D01*
X193747773Y-91315452D01*
X193615982Y-91244130D01*
X193566392Y-91194910D01*
X193551284Y-91126693D01*
X193575455Y-91061138D01*
X193622597Y-91022693D01*
X193633662Y-91017534D01*
X193814620Y-90890826D01*
X193970826Y-90734620D01*
X194097534Y-90553662D01*
X194190894Y-90353450D01*
X194248070Y-90140068D01*
X194267323Y-89920000D01*
X194248070Y-89699932D01*
X194190894Y-89486550D01*
X194097534Y-89286339D01*
X194034180Y-89195859D01*
X193970827Y-89105381D01*
X193917562Y-89052116D01*
X193814620Y-88949174D01*
X193814616Y-88949171D01*
X193814615Y-88949170D01*
X193633666Y-88822468D01*
X193633658Y-88822464D01*
X193504811Y-88762382D01*
X193452371Y-88716210D01*
X193433219Y-88649017D01*
X193453435Y-88582135D01*
X193504811Y-88537618D01*
X193546869Y-88518006D01*
X193633662Y-88477534D01*
X193814620Y-88350826D01*
X193970826Y-88194620D01*
X194097534Y-88013662D01*
X194190894Y-87813450D01*
X194248070Y-87600068D01*
X194267323Y-87380000D01*
X194265573Y-87360001D01*
X194259837Y-87294435D01*
X194248070Y-87159932D01*
X194190894Y-86946550D01*
X194097534Y-86746339D01*
X193970826Y-86565380D01*
X193814620Y-86409174D01*
X193814616Y-86409171D01*
X193814615Y-86409170D01*
X193633666Y-86282468D01*
X193633658Y-86282464D01*
X193504811Y-86222382D01*
X193452371Y-86176210D01*
X193433219Y-86109017D01*
X193453435Y-86042135D01*
X193504811Y-85997618D01*
X193547701Y-85977618D01*
X193633662Y-85937534D01*
X193814620Y-85810826D01*
X193970826Y-85654620D01*
X194097534Y-85473662D01*
X194190894Y-85273450D01*
X194248070Y-85060068D01*
X194267323Y-84840000D01*
X194263692Y-84798501D01*
X194256741Y-84719049D01*
X194248070Y-84619932D01*
X194190894Y-84406550D01*
X194097534Y-84206339D01*
X193973932Y-84029816D01*
X193970827Y-84025381D01*
X193918166Y-83972720D01*
X193814620Y-83869174D01*
X193814616Y-83869171D01*
X193814615Y-83869170D01*
X193633666Y-83742468D01*
X193633658Y-83742464D01*
X193504811Y-83682382D01*
X193452371Y-83636210D01*
X193433219Y-83569017D01*
X193453435Y-83502135D01*
X193504811Y-83457618D01*
X193547701Y-83437618D01*
X193633662Y-83397534D01*
X193814620Y-83270826D01*
X193970826Y-83114620D01*
X194097534Y-82933662D01*
X194190894Y-82733450D01*
X194248070Y-82520068D01*
X194267323Y-82300000D01*
X194265573Y-82280001D01*
X194256606Y-82177497D01*
X194248070Y-82079932D01*
X194190894Y-81866550D01*
X194097534Y-81666339D01*
X193970826Y-81485380D01*
X193814620Y-81329174D01*
X193814616Y-81329171D01*
X193814615Y-81329170D01*
X193633666Y-81202468D01*
X193633658Y-81202464D01*
X193504811Y-81142382D01*
X193452371Y-81096210D01*
X193433219Y-81029017D01*
X193453435Y-80962135D01*
X193504811Y-80917618D01*
X193547701Y-80897618D01*
X193633662Y-80857534D01*
X193814620Y-80730826D01*
X193970826Y-80574620D01*
X194097534Y-80393662D01*
X194190894Y-80193450D01*
X194248070Y-79980068D01*
X194267323Y-79760000D01*
X194265573Y-79740001D01*
X194256099Y-79631706D01*
X194248070Y-79539932D01*
X194190894Y-79326550D01*
X194097534Y-79126339D01*
X193970826Y-78945380D01*
X193814620Y-78789174D01*
X193814616Y-78789171D01*
X193814615Y-78789170D01*
X193633666Y-78662468D01*
X193633658Y-78662464D01*
X193504811Y-78602382D01*
X193452371Y-78556210D01*
X193433219Y-78489017D01*
X193453435Y-78422135D01*
X193504811Y-78377618D01*
X193547701Y-78357618D01*
X193633662Y-78317534D01*
X193814620Y-78190826D01*
X193970826Y-78034620D01*
X194097534Y-77853662D01*
X194190894Y-77653450D01*
X194248070Y-77440068D01*
X194267323Y-77220000D01*
X194265573Y-77200001D01*
X194256606Y-77097497D01*
X194248070Y-76999932D01*
X194190894Y-76786550D01*
X194097534Y-76586339D01*
X194009390Y-76460456D01*
X193970827Y-76405381D01*
X193926304Y-76360858D01*
X193814620Y-76249174D01*
X193814616Y-76249171D01*
X193814615Y-76249170D01*
X193633666Y-76122468D01*
X193633658Y-76122464D01*
X193504811Y-76062382D01*
X193452371Y-76016210D01*
X193433219Y-75949017D01*
X193453435Y-75882135D01*
X193504811Y-75837618D01*
X193547701Y-75817618D01*
X193633662Y-75777534D01*
X193814620Y-75650826D01*
X193970826Y-75494620D01*
X194097534Y-75313662D01*
X194190894Y-75113450D01*
X194248070Y-74900068D01*
X194267323Y-74680000D01*
X194265573Y-74660001D01*
X194256510Y-74556408D01*
X194248070Y-74459932D01*
X194190894Y-74246550D01*
X194097534Y-74046339D01*
X193993483Y-73897738D01*
X193970827Y-73865381D01*
X193926304Y-73820858D01*
X193814620Y-73709174D01*
X193814616Y-73709171D01*
X193814615Y-73709170D01*
X193633666Y-73582468D01*
X193633658Y-73582464D01*
X193504811Y-73522382D01*
X193452371Y-73476210D01*
X193433219Y-73409017D01*
X193453435Y-73342135D01*
X193504811Y-73297618D01*
X193547701Y-73277618D01*
X193633662Y-73237534D01*
X193814620Y-73110826D01*
X193970826Y-72954620D01*
X194097534Y-72773662D01*
X194190894Y-72573450D01*
X194248070Y-72360068D01*
X194267323Y-72140000D01*
X194265573Y-72120001D01*
X194254390Y-71992172D01*
X194248070Y-71919932D01*
X194190894Y-71706550D01*
X194097534Y-71506339D01*
X194015472Y-71389142D01*
X193970827Y-71325381D01*
X193911706Y-71266260D01*
X193814620Y-71169174D01*
X193814616Y-71169171D01*
X193814615Y-71169170D01*
X193633666Y-71042468D01*
X193633658Y-71042464D01*
X193504811Y-70982382D01*
X193452371Y-70936210D01*
X193433219Y-70869017D01*
X193453435Y-70802135D01*
X193504811Y-70757618D01*
X193528242Y-70746692D01*
X193633662Y-70697534D01*
X193814620Y-70570826D01*
X193970826Y-70414620D01*
X194097534Y-70233662D01*
X194190894Y-70033450D01*
X194248070Y-69820068D01*
X194255458Y-69735618D01*
X194280910Y-69670550D01*
X194337501Y-69629571D01*
X194407263Y-69625693D01*
X194466667Y-69658745D01*
G37*
%TD.AperFunction*%
%TA.AperFunction,Conductor*%
G36*
X176521586Y-76990161D02*
G01*
X176577519Y-77032033D01*
X176601936Y-77097497D01*
X176601780Y-77117150D01*
X176594532Y-77199997D01*
X176594532Y-77200001D01*
X176614364Y-77426686D01*
X176614366Y-77426697D01*
X176640152Y-77522931D01*
X176638489Y-77592781D01*
X176608058Y-77642705D01*
X170447584Y-83803181D01*
X170386261Y-83836666D01*
X170359903Y-83839500D01*
X167137512Y-83839500D01*
X167070473Y-83819815D01*
X167024718Y-83767011D01*
X167014774Y-83697853D01*
X167028636Y-83657806D01*
X167028280Y-83657640D01*
X167029887Y-83654193D01*
X167030130Y-83653492D01*
X167030559Y-83652746D01*
X167030568Y-83652734D01*
X167126739Y-83446496D01*
X167185635Y-83226692D01*
X167205468Y-83000000D01*
X167185635Y-82773308D01*
X167135645Y-82586743D01*
X167126741Y-82553511D01*
X167126738Y-82553502D01*
X167104907Y-82506686D01*
X167030568Y-82347266D01*
X166900047Y-82160861D01*
X166900045Y-82160858D01*
X166739141Y-81999954D01*
X166552734Y-81869432D01*
X166552732Y-81869431D01*
X166541275Y-81864088D01*
X166494132Y-81842105D01*
X166441694Y-81795934D01*
X166422542Y-81728740D01*
X166442758Y-81661859D01*
X166494134Y-81617341D01*
X166552484Y-81590132D01*
X166738820Y-81459657D01*
X166899657Y-81298820D01*
X167030134Y-81112482D01*
X167126265Y-80906326D01*
X167126269Y-80906317D01*
X167178872Y-80710000D01*
X166215686Y-80710000D01*
X166220080Y-80705606D01*
X166272741Y-80614394D01*
X166300000Y-80512661D01*
X166300000Y-80407339D01*
X166272741Y-80305606D01*
X166220080Y-80214394D01*
X166215686Y-80210000D01*
X167178872Y-80210000D01*
X167178872Y-80209999D01*
X167126269Y-80013682D01*
X167126265Y-80013673D01*
X167030132Y-79807514D01*
X167029544Y-79806495D01*
X167029421Y-79805989D01*
X167027846Y-79802611D01*
X167028525Y-79802294D01*
X167013075Y-79738594D01*
X167035930Y-79672568D01*
X167090853Y-79629380D01*
X167136934Y-79620500D01*
X173453331Y-79620500D01*
X173453347Y-79620501D01*
X173460943Y-79620501D01*
X173619054Y-79620501D01*
X173619057Y-79620501D01*
X173771785Y-79579577D01*
X173821904Y-79550639D01*
X173908716Y-79500520D01*
X174020520Y-79388716D01*
X174020520Y-79388714D01*
X174030728Y-79378507D01*
X174030730Y-79378504D01*
X176390573Y-77018660D01*
X176451894Y-76985177D01*
X176521586Y-76990161D01*
G37*
%TD.AperFunction*%
%TA.AperFunction,Conductor*%
G36*
X156606941Y-62720185D02*
G01*
X156627583Y-62736819D01*
X157258349Y-63367585D01*
X157258355Y-63367590D01*
X159474247Y-65583482D01*
X159507732Y-65644805D01*
X159502748Y-65714497D01*
X159460876Y-65770430D01*
X159400450Y-65794383D01*
X159220749Y-65814630D01*
X159220745Y-65814631D01*
X159050476Y-65874211D01*
X158897739Y-65970183D01*
X158897738Y-65970184D01*
X158872689Y-65995231D01*
X158817107Y-66027321D01*
X158783263Y-66036390D01*
X158768215Y-66040423D01*
X158768209Y-66040426D01*
X158631290Y-66119475D01*
X158631282Y-66119481D01*
X150767584Y-73983181D01*
X150706261Y-74016666D01*
X150679903Y-74019500D01*
X146873619Y-74019500D01*
X146806580Y-73999815D01*
X146760825Y-73947011D01*
X146750881Y-73877853D01*
X146753844Y-73863406D01*
X146778872Y-73770000D01*
X145815686Y-73770000D01*
X145820080Y-73765606D01*
X145872741Y-73674394D01*
X145900000Y-73572661D01*
X145900000Y-73467339D01*
X145872741Y-73365606D01*
X145820080Y-73274394D01*
X145815686Y-73270000D01*
X146778872Y-73270000D01*
X146778872Y-73269999D01*
X146726269Y-73073682D01*
X146726265Y-73073673D01*
X146630134Y-72867517D01*
X146499657Y-72681179D01*
X146338820Y-72520342D01*
X146152482Y-72389865D01*
X145946328Y-72293734D01*
X145750000Y-72241127D01*
X145750000Y-73204314D01*
X145745606Y-73199920D01*
X145654394Y-73147259D01*
X145552661Y-73120000D01*
X145447339Y-73120000D01*
X145345606Y-73147259D01*
X145254394Y-73199920D01*
X145250000Y-73204314D01*
X145250000Y-72241127D01*
X145053671Y-72293734D01*
X144847517Y-72389865D01*
X144661179Y-72520342D01*
X144500342Y-72681179D01*
X144369865Y-72867517D01*
X144273734Y-73073673D01*
X144273730Y-73073682D01*
X144221127Y-73269999D01*
X144221128Y-73270000D01*
X145184314Y-73270000D01*
X145179920Y-73274394D01*
X145127259Y-73365606D01*
X145100000Y-73467339D01*
X145100000Y-73572661D01*
X145127259Y-73674394D01*
X145179920Y-73765606D01*
X145184314Y-73770000D01*
X144221128Y-73770000D01*
X144273730Y-73966317D01*
X144273734Y-73966326D01*
X144369865Y-74172481D01*
X144369866Y-74172483D01*
X144428966Y-74256886D01*
X144451293Y-74323092D01*
X144434283Y-74390859D01*
X144415072Y-74415690D01*
X140731286Y-78099478D01*
X140619481Y-78211282D01*
X140619477Y-78211287D01*
X140603851Y-78238355D01*
X140602657Y-78240423D01*
X140540423Y-78348215D01*
X140499499Y-78500943D01*
X140499499Y-78500945D01*
X140499499Y-78669046D01*
X140499500Y-78669059D01*
X140499500Y-82817587D01*
X140479815Y-82884626D01*
X140472450Y-82894896D01*
X140470181Y-82897740D01*
X140409493Y-82994325D01*
X140357159Y-83040616D01*
X140288105Y-83051264D01*
X140224257Y-83022889D01*
X140185885Y-82964499D01*
X140180500Y-82928353D01*
X140180500Y-71751692D01*
X140200185Y-71684653D01*
X140233374Y-71650119D01*
X140419139Y-71520047D01*
X140580047Y-71359139D01*
X140710568Y-71172734D01*
X140806739Y-70966496D01*
X140865635Y-70746692D01*
X140885468Y-70520000D01*
X140885468Y-70519997D01*
X143275034Y-70519997D01*
X143275034Y-70520002D01*
X143294858Y-70746599D01*
X143294860Y-70746610D01*
X143353730Y-70966317D01*
X143353735Y-70966331D01*
X143449863Y-71172478D01*
X143500974Y-71245472D01*
X144180000Y-70566446D01*
X144180000Y-70572661D01*
X144207259Y-70674394D01*
X144259920Y-70765606D01*
X144334394Y-70840080D01*
X144425606Y-70892741D01*
X144527339Y-70920000D01*
X144533553Y-70920000D01*
X143854526Y-71599025D01*
X143927513Y-71650132D01*
X143927521Y-71650136D01*
X144133668Y-71746264D01*
X144133682Y-71746269D01*
X144353389Y-71805139D01*
X144353400Y-71805141D01*
X144579998Y-71824966D01*
X144580002Y-71824966D01*
X144806599Y-71805141D01*
X144806610Y-71805139D01*
X145026317Y-71746269D01*
X145026331Y-71746264D01*
X145232478Y-71650136D01*
X145305471Y-71599024D01*
X144626447Y-70920000D01*
X144632661Y-70920000D01*
X144734394Y-70892741D01*
X144825606Y-70840080D01*
X144900080Y-70765606D01*
X144952741Y-70674394D01*
X144980000Y-70572661D01*
X144980000Y-70566447D01*
X145659024Y-71245471D01*
X145710136Y-71172478D01*
X145806264Y-70966331D01*
X145806269Y-70966317D01*
X145865139Y-70746610D01*
X145865141Y-70746599D01*
X145884966Y-70520002D01*
X145884966Y-70519997D01*
X145865141Y-70293400D01*
X145865139Y-70293389D01*
X145806269Y-70073682D01*
X145806264Y-70073668D01*
X145710136Y-69867521D01*
X145710132Y-69867513D01*
X145659025Y-69794526D01*
X144980000Y-70473551D01*
X144980000Y-70467339D01*
X144952741Y-70365606D01*
X144900080Y-70274394D01*
X144825606Y-70199920D01*
X144734394Y-70147259D01*
X144632661Y-70120000D01*
X144626448Y-70120000D01*
X145305472Y-69440974D01*
X145232478Y-69389863D01*
X145026331Y-69293735D01*
X145026317Y-69293730D01*
X144806610Y-69234860D01*
X144806599Y-69234858D01*
X144580002Y-69215034D01*
X144579998Y-69215034D01*
X144353400Y-69234858D01*
X144353389Y-69234860D01*
X144133682Y-69293730D01*
X144133673Y-69293734D01*
X143927516Y-69389866D01*
X143927512Y-69389868D01*
X143854526Y-69440973D01*
X143854526Y-69440974D01*
X144533553Y-70120000D01*
X144527339Y-70120000D01*
X144425606Y-70147259D01*
X144334394Y-70199920D01*
X144259920Y-70274394D01*
X144207259Y-70365606D01*
X144180000Y-70467339D01*
X144180000Y-70473552D01*
X143500974Y-69794526D01*
X143500973Y-69794526D01*
X143449868Y-69867512D01*
X143449866Y-69867516D01*
X143353734Y-70073673D01*
X143353730Y-70073682D01*
X143294860Y-70293389D01*
X143294858Y-70293400D01*
X143275034Y-70519997D01*
X140885468Y-70519997D01*
X140865635Y-70293308D01*
X140839847Y-70197066D01*
X140841510Y-70127217D01*
X140871939Y-70077294D01*
X148212416Y-62736819D01*
X148273739Y-62703334D01*
X148300097Y-62700500D01*
X156539902Y-62700500D01*
X156606941Y-62720185D01*
G37*
%TD.AperFunction*%
%TA.AperFunction,Conductor*%
G36*
X160416517Y-66525752D02*
G01*
X163308058Y-69417293D01*
X163341543Y-69478616D01*
X163340152Y-69537067D01*
X163314366Y-69633302D01*
X163314364Y-69633313D01*
X163294532Y-69859998D01*
X163294532Y-69860001D01*
X163314364Y-70086686D01*
X163314366Y-70086697D01*
X163373258Y-70306488D01*
X163373261Y-70306497D01*
X163469431Y-70512732D01*
X163469432Y-70512734D01*
X163599954Y-70699141D01*
X163760858Y-70860045D01*
X163760861Y-70860047D01*
X163946624Y-70990118D01*
X163990248Y-71044693D01*
X163999500Y-71091692D01*
X163999500Y-71453330D01*
X163999499Y-71453348D01*
X163999499Y-71619054D01*
X163999498Y-71619054D01*
X164033585Y-71746269D01*
X164040423Y-71771785D01*
X164057002Y-71800500D01*
X164074748Y-71831237D01*
X164119479Y-71908714D01*
X164119481Y-71908717D01*
X164238349Y-72027585D01*
X164238355Y-72027590D01*
X164608058Y-72397293D01*
X164641543Y-72458616D01*
X164640152Y-72517067D01*
X164614366Y-72613302D01*
X164614364Y-72613313D01*
X164594532Y-72839998D01*
X164594532Y-72840001D01*
X164614364Y-73066686D01*
X164614366Y-73066697D01*
X164645638Y-73183407D01*
X164643975Y-73253257D01*
X164604812Y-73311119D01*
X164540583Y-73338623D01*
X164525863Y-73339500D01*
X159806670Y-73339500D01*
X159806654Y-73339499D01*
X159799058Y-73339499D01*
X159704000Y-73339499D01*
X159636961Y-73319814D01*
X159591206Y-73267010D01*
X159580000Y-73215499D01*
X159580000Y-73090000D01*
X158595686Y-73090000D01*
X158600080Y-73085606D01*
X158652741Y-72994394D01*
X158680000Y-72892661D01*
X158680000Y-72787339D01*
X158652741Y-72685606D01*
X158600080Y-72594394D01*
X158595686Y-72590000D01*
X159580000Y-72590000D01*
X159580000Y-71992172D01*
X159579999Y-71992155D01*
X159573598Y-71932627D01*
X159573596Y-71932620D01*
X159523354Y-71797913D01*
X159523350Y-71797906D01*
X159437190Y-71682812D01*
X159437187Y-71682809D01*
X159322093Y-71596649D01*
X159322086Y-71596645D01*
X159187379Y-71546403D01*
X159187372Y-71546401D01*
X159127844Y-71540000D01*
X158530000Y-71540000D01*
X158530000Y-72524314D01*
X158525606Y-72519920D01*
X158434394Y-72467259D01*
X158332661Y-72440000D01*
X158227339Y-72440000D01*
X158125606Y-72467259D01*
X158034394Y-72519920D01*
X158030000Y-72524314D01*
X158030000Y-71540000D01*
X157432155Y-71540000D01*
X157372627Y-71546401D01*
X157372620Y-71546403D01*
X157237913Y-71596645D01*
X157237906Y-71596649D01*
X157122812Y-71682809D01*
X157122809Y-71682812D01*
X157036649Y-71797906D01*
X157036645Y-71797913D01*
X156986403Y-71932620D01*
X156986401Y-71932627D01*
X156980000Y-71992155D01*
X156980000Y-72590000D01*
X157964314Y-72590000D01*
X157959920Y-72594394D01*
X157907259Y-72685606D01*
X157880000Y-72787339D01*
X157880000Y-72892661D01*
X157907259Y-72994394D01*
X157959920Y-73085606D01*
X157964314Y-73090000D01*
X156980000Y-73090000D01*
X156980000Y-73687844D01*
X156986401Y-73747372D01*
X156986403Y-73747379D01*
X157036645Y-73882086D01*
X157036649Y-73882093D01*
X157122809Y-73997187D01*
X157122812Y-73997190D01*
X157237906Y-74083350D01*
X157237913Y-74083354D01*
X157372620Y-74133596D01*
X157372627Y-74133598D01*
X157408218Y-74137425D01*
X157472769Y-74164163D01*
X157512618Y-74221555D01*
X157515111Y-74291380D01*
X157479459Y-74351469D01*
X157466088Y-74362287D01*
X157440861Y-74379951D01*
X157279954Y-74540858D01*
X157149432Y-74727265D01*
X157149431Y-74727267D01*
X157053261Y-74933502D01*
X157053258Y-74933511D01*
X156994366Y-75153302D01*
X156994364Y-75153313D01*
X156974532Y-75379998D01*
X156974532Y-75380001D01*
X156994364Y-75606686D01*
X156994366Y-75606697D01*
X157053258Y-75826488D01*
X157053261Y-75826497D01*
X157149431Y-76032732D01*
X157149432Y-76032734D01*
X157279954Y-76219141D01*
X157440858Y-76380045D01*
X157440861Y-76380047D01*
X157627266Y-76510568D01*
X157685275Y-76537618D01*
X157737714Y-76583791D01*
X157756866Y-76650984D01*
X157736650Y-76717865D01*
X157685275Y-76762382D01*
X157627267Y-76789431D01*
X157627265Y-76789432D01*
X157440858Y-76919954D01*
X157279954Y-77080858D01*
X157149432Y-77267265D01*
X157149431Y-77267267D01*
X157053261Y-77473502D01*
X157053258Y-77473511D01*
X156994366Y-77693302D01*
X156994364Y-77693313D01*
X156974532Y-77919998D01*
X156974532Y-77920001D01*
X156994364Y-78146686D01*
X156994366Y-78146697D01*
X157053258Y-78366488D01*
X157053261Y-78366497D01*
X157149431Y-78572732D01*
X157149432Y-78572734D01*
X157279954Y-78759141D01*
X157440858Y-78920045D01*
X157440861Y-78920047D01*
X157627266Y-79050568D01*
X157685275Y-79077618D01*
X157737714Y-79123791D01*
X157756866Y-79190984D01*
X157736650Y-79257865D01*
X157685275Y-79302382D01*
X157627267Y-79329431D01*
X157627265Y-79329432D01*
X157440858Y-79459954D01*
X157279954Y-79620858D01*
X157149432Y-79807265D01*
X157149431Y-79807267D01*
X157053261Y-80013502D01*
X157053258Y-80013511D01*
X156994366Y-80233302D01*
X156994364Y-80233313D01*
X156974532Y-80459998D01*
X156974532Y-80460001D01*
X156994364Y-80686686D01*
X156994366Y-80686697D01*
X157053258Y-80906488D01*
X157053261Y-80906497D01*
X157058447Y-80917618D01*
X157149432Y-81112734D01*
X157149435Y-81112738D01*
X157149870Y-81113492D01*
X157149961Y-81113868D01*
X157151720Y-81117640D01*
X157150962Y-81117993D01*
X157166348Y-81181391D01*
X157143501Y-81247419D01*
X157088583Y-81290614D01*
X157042488Y-81299500D01*
X156200098Y-81299500D01*
X156133059Y-81279815D01*
X156112417Y-81263181D01*
X153087590Y-78238355D01*
X153087588Y-78238352D01*
X152968717Y-78119481D01*
X152968716Y-78119480D01*
X152878898Y-78067624D01*
X152878896Y-78067622D01*
X152831788Y-78040424D01*
X152831787Y-78040423D01*
X152770693Y-78024053D01*
X152679057Y-77999499D01*
X152520943Y-77999499D01*
X152513347Y-77999499D01*
X152513331Y-77999500D01*
X146731692Y-77999500D01*
X146664653Y-77979815D01*
X146630119Y-77946625D01*
X146515064Y-77782308D01*
X146500045Y-77760858D01*
X146339141Y-77599954D01*
X146152734Y-77469432D01*
X146152728Y-77469429D01*
X146094725Y-77442382D01*
X146042285Y-77396210D01*
X146023133Y-77329017D01*
X146043348Y-77262135D01*
X146094725Y-77217618D01*
X146152734Y-77190568D01*
X146339139Y-77060047D01*
X146500047Y-76899139D01*
X146630568Y-76712734D01*
X146726739Y-76506496D01*
X146785635Y-76286692D01*
X146805468Y-76060000D01*
X146785635Y-75833308D01*
X146726739Y-75613504D01*
X146630568Y-75407266D01*
X146630562Y-75407257D01*
X146630130Y-75406508D01*
X146630038Y-75406131D01*
X146628280Y-75402360D01*
X146629037Y-75402006D01*
X146613652Y-75338609D01*
X146636499Y-75272581D01*
X146691417Y-75229386D01*
X146737512Y-75220500D01*
X150893331Y-75220500D01*
X150893347Y-75220501D01*
X150900943Y-75220501D01*
X151059054Y-75220501D01*
X151059057Y-75220501D01*
X151211785Y-75179577D01*
X151304948Y-75125789D01*
X151348716Y-75100520D01*
X151460520Y-74988716D01*
X151460520Y-74988714D01*
X151470724Y-74978511D01*
X151470727Y-74978506D01*
X156589237Y-69859997D01*
X158295034Y-69859997D01*
X158295034Y-69860002D01*
X158314858Y-70086599D01*
X158314860Y-70086610D01*
X158373730Y-70306317D01*
X158373735Y-70306331D01*
X158469863Y-70512478D01*
X158520974Y-70585472D01*
X159200000Y-69906446D01*
X159200000Y-69912661D01*
X159227259Y-70014394D01*
X159279920Y-70105606D01*
X159354394Y-70180080D01*
X159445606Y-70232741D01*
X159547339Y-70260000D01*
X159553553Y-70260000D01*
X158874526Y-70939025D01*
X158947513Y-70990132D01*
X158947521Y-70990136D01*
X159153668Y-71086264D01*
X159153682Y-71086269D01*
X159373389Y-71145139D01*
X159373400Y-71145141D01*
X159599998Y-71164966D01*
X159600002Y-71164966D01*
X159826599Y-71145141D01*
X159826610Y-71145139D01*
X160046317Y-71086269D01*
X160046331Y-71086264D01*
X160252478Y-70990136D01*
X160325471Y-70939024D01*
X159646447Y-70260000D01*
X159652661Y-70260000D01*
X159754394Y-70232741D01*
X159845606Y-70180080D01*
X159920080Y-70105606D01*
X159972741Y-70014394D01*
X160000000Y-69912661D01*
X160000000Y-69906447D01*
X160679024Y-70585471D01*
X160730136Y-70512478D01*
X160826264Y-70306331D01*
X160826269Y-70306317D01*
X160885139Y-70086610D01*
X160885141Y-70086599D01*
X160904966Y-69860002D01*
X160904966Y-69859997D01*
X160885141Y-69633400D01*
X160885139Y-69633389D01*
X160826269Y-69413682D01*
X160826264Y-69413668D01*
X160730136Y-69207521D01*
X160730132Y-69207513D01*
X160679025Y-69134526D01*
X160000000Y-69813551D01*
X160000000Y-69807339D01*
X159972741Y-69705606D01*
X159920080Y-69614394D01*
X159845606Y-69539920D01*
X159754394Y-69487259D01*
X159652661Y-69460000D01*
X159646448Y-69460000D01*
X160325472Y-68780974D01*
X160252478Y-68729863D01*
X160046331Y-68633735D01*
X160046317Y-68633730D01*
X159826610Y-68574860D01*
X159826599Y-68574858D01*
X159600002Y-68555034D01*
X159599998Y-68555034D01*
X159373400Y-68574858D01*
X159373389Y-68574860D01*
X159153682Y-68633730D01*
X159153673Y-68633734D01*
X158947516Y-68729866D01*
X158947512Y-68729868D01*
X158874526Y-68780973D01*
X158874526Y-68780974D01*
X159553553Y-69460000D01*
X159547339Y-69460000D01*
X159445606Y-69487259D01*
X159354394Y-69539920D01*
X159279920Y-69614394D01*
X159227259Y-69705606D01*
X159200000Y-69807339D01*
X159200000Y-69813552D01*
X158520974Y-69134526D01*
X158520973Y-69134526D01*
X158469868Y-69207512D01*
X158469866Y-69207516D01*
X158373734Y-69413673D01*
X158373730Y-69413682D01*
X158314860Y-69633389D01*
X158314858Y-69633400D01*
X158295034Y-69859997D01*
X156589237Y-69859997D01*
X159049440Y-67399794D01*
X159110761Y-67366311D01*
X159178071Y-67370435D01*
X159220745Y-67385368D01*
X159220749Y-67385368D01*
X159220753Y-67385369D01*
X159399996Y-67405565D01*
X159400000Y-67405565D01*
X159400004Y-67405565D01*
X159579249Y-67385369D01*
X159579252Y-67385368D01*
X159579255Y-67385368D01*
X159749522Y-67325789D01*
X159902262Y-67229816D01*
X160029816Y-67102262D01*
X160125789Y-66949522D01*
X160185368Y-66779255D01*
X160198674Y-66661166D01*
X160205616Y-66599550D01*
X160232682Y-66535136D01*
X160290277Y-66495581D01*
X160360114Y-66493443D01*
X160416517Y-66525752D01*
G37*
%TD.AperFunction*%
%TA.AperFunction,Conductor*%
G36*
X164730105Y-79640185D02*
G01*
X164775860Y-79692989D01*
X164785804Y-79762147D01*
X164771849Y-79802468D01*
X164772154Y-79802611D01*
X164770781Y-79805553D01*
X164770456Y-79806495D01*
X164769867Y-79807514D01*
X164673734Y-80013673D01*
X164673730Y-80013682D01*
X164621127Y-80209999D01*
X164621128Y-80210000D01*
X165584314Y-80210000D01*
X165579920Y-80214394D01*
X165527259Y-80305606D01*
X165500000Y-80407339D01*
X165500000Y-80512661D01*
X165527259Y-80614394D01*
X165579920Y-80705606D01*
X165584314Y-80710000D01*
X164621128Y-80710000D01*
X164673730Y-80906317D01*
X164673734Y-80906326D01*
X164769867Y-81112485D01*
X164770456Y-81113505D01*
X164770578Y-81114010D01*
X164772154Y-81117389D01*
X164771474Y-81117705D01*
X164786925Y-81181406D01*
X164764070Y-81247432D01*
X164709147Y-81290620D01*
X164663066Y-81299500D01*
X159517512Y-81299500D01*
X159450473Y-81279815D01*
X159404718Y-81227011D01*
X159394774Y-81157853D01*
X159408636Y-81117806D01*
X159408280Y-81117640D01*
X159409887Y-81114193D01*
X159410130Y-81113492D01*
X159410559Y-81112746D01*
X159410568Y-81112734D01*
X159506739Y-80906496D01*
X159565635Y-80686692D01*
X159585468Y-80460000D01*
X159565635Y-80233308D01*
X159539847Y-80137066D01*
X159541510Y-80067218D01*
X159571941Y-80017293D01*
X159651370Y-79937865D01*
X159831617Y-79757618D01*
X159932417Y-79656819D01*
X159993740Y-79623334D01*
X160020098Y-79620500D01*
X164663066Y-79620500D01*
X164730105Y-79640185D01*
G37*
%TD.AperFunction*%
%TA.AperFunction,Conductor*%
G36*
X166093039Y-79640185D02*
G01*
X166138794Y-79692989D01*
X166150000Y-79744500D01*
X166150000Y-80144314D01*
X166145606Y-80139920D01*
X166054394Y-80087259D01*
X165952661Y-80060000D01*
X165847339Y-80060000D01*
X165745606Y-80087259D01*
X165654394Y-80139920D01*
X165650000Y-80144314D01*
X165650000Y-79744500D01*
X165669685Y-79677461D01*
X165722489Y-79631706D01*
X165774000Y-79620500D01*
X166026000Y-79620500D01*
X166093039Y-79640185D01*
G37*
%TD.AperFunction*%
%TA.AperFunction,Conductor*%
G36*
X164729527Y-74560185D02*
G01*
X164775282Y-74612989D01*
X164785226Y-74682147D01*
X164771363Y-74722193D01*
X164771720Y-74722360D01*
X164770112Y-74725806D01*
X164769870Y-74726508D01*
X164769432Y-74727266D01*
X164673261Y-74933502D01*
X164673258Y-74933511D01*
X164614366Y-75153302D01*
X164614364Y-75153313D01*
X164594532Y-75379998D01*
X164594532Y-75380001D01*
X164614364Y-75606686D01*
X164614366Y-75606697D01*
X164673258Y-75826488D01*
X164673261Y-75826497D01*
X164769431Y-76032732D01*
X164769432Y-76032734D01*
X164899954Y-76219141D01*
X165060858Y-76380045D01*
X165060861Y-76380047D01*
X165247266Y-76510568D01*
X165305865Y-76537893D01*
X165358305Y-76584065D01*
X165377457Y-76651258D01*
X165357242Y-76718139D01*
X165305867Y-76762657D01*
X165247515Y-76789867D01*
X165061179Y-76920342D01*
X164900342Y-77081179D01*
X164769865Y-77267517D01*
X164673734Y-77473673D01*
X164673730Y-77473682D01*
X164621127Y-77669999D01*
X164621128Y-77670000D01*
X165584314Y-77670000D01*
X165579920Y-77674394D01*
X165527259Y-77765606D01*
X165500000Y-77867339D01*
X165500000Y-77972661D01*
X165527259Y-78074394D01*
X165579920Y-78165606D01*
X165584314Y-78170000D01*
X164621128Y-78170000D01*
X164646156Y-78263406D01*
X164644493Y-78333256D01*
X164605331Y-78391119D01*
X164541102Y-78418623D01*
X164526381Y-78419500D01*
X159806670Y-78419500D01*
X159806654Y-78419499D01*
X159799058Y-78419499D01*
X159654137Y-78419499D01*
X159587098Y-78399814D01*
X159541343Y-78347010D01*
X159531399Y-78277852D01*
X159534362Y-78263406D01*
X159549230Y-78207916D01*
X159565635Y-78146692D01*
X159585468Y-77920000D01*
X159565635Y-77693308D01*
X159506739Y-77473504D01*
X159410568Y-77267266D01*
X159280047Y-77080861D01*
X159280045Y-77080858D01*
X159119141Y-76919954D01*
X158932734Y-76789432D01*
X158932728Y-76789429D01*
X158874725Y-76762382D01*
X158822285Y-76716210D01*
X158803133Y-76649017D01*
X158823348Y-76582135D01*
X158874725Y-76537618D01*
X158932734Y-76510568D01*
X159119139Y-76380047D01*
X159280047Y-76219139D01*
X159410568Y-76032734D01*
X159506739Y-75826496D01*
X159565635Y-75606692D01*
X159585468Y-75380000D01*
X159565635Y-75153308D01*
X159539847Y-75057066D01*
X159541510Y-74987218D01*
X159571941Y-74937293D01*
X159653025Y-74856210D01*
X159831617Y-74677618D01*
X159932417Y-74576819D01*
X159993740Y-74543334D01*
X160020098Y-74540500D01*
X164662488Y-74540500D01*
X164729527Y-74560185D01*
G37*
%TD.AperFunction*%
%TA.AperFunction,Conductor*%
G36*
X166150000Y-78295500D02*
G01*
X166130315Y-78362539D01*
X166077511Y-78408294D01*
X166026000Y-78419500D01*
X165774000Y-78419500D01*
X165706961Y-78399815D01*
X165661206Y-78347011D01*
X165650000Y-78295500D01*
X165650000Y-78235686D01*
X165654394Y-78240080D01*
X165745606Y-78292741D01*
X165847339Y-78320000D01*
X165952661Y-78320000D01*
X166054394Y-78292741D01*
X166145606Y-78240080D01*
X166150000Y-78235686D01*
X166150000Y-78295500D01*
G37*
%TD.AperFunction*%
%TA.AperFunction,Conductor*%
G36*
X176551995Y-74444594D02*
G01*
X176595185Y-74499516D01*
X176603595Y-74556408D01*
X176594532Y-74659998D01*
X176594532Y-74660001D01*
X176614364Y-74886686D01*
X176614366Y-74886697D01*
X176640152Y-74982931D01*
X176638489Y-75052781D01*
X176608058Y-75102705D01*
X173327584Y-78383181D01*
X173266261Y-78416666D01*
X173239903Y-78419500D01*
X167273619Y-78419500D01*
X167206580Y-78399815D01*
X167160825Y-78347011D01*
X167150881Y-78277853D01*
X167153844Y-78263406D01*
X167178872Y-78170000D01*
X166215686Y-78170000D01*
X166220080Y-78165606D01*
X166272741Y-78074394D01*
X166300000Y-77972661D01*
X166300000Y-77867339D01*
X166272741Y-77765606D01*
X166220080Y-77674394D01*
X166215686Y-77670000D01*
X167178872Y-77670000D01*
X167178872Y-77669999D01*
X167126269Y-77473682D01*
X167126265Y-77473673D01*
X167030134Y-77267517D01*
X166899657Y-77081179D01*
X166738820Y-76920342D01*
X166552482Y-76789865D01*
X166494133Y-76762657D01*
X166441694Y-76716484D01*
X166422542Y-76649291D01*
X166442758Y-76582410D01*
X166494129Y-76537895D01*
X166552734Y-76510568D01*
X166739139Y-76380047D01*
X166900047Y-76219139D01*
X167030568Y-76032734D01*
X167126739Y-75826496D01*
X167185635Y-75606692D01*
X167205468Y-75380000D01*
X167185635Y-75153308D01*
X167126739Y-74933504D01*
X167030568Y-74727266D01*
X167030562Y-74727257D01*
X167030130Y-74726508D01*
X167030038Y-74726131D01*
X167028280Y-74722360D01*
X167029037Y-74722006D01*
X167013652Y-74658609D01*
X167036499Y-74592581D01*
X167091417Y-74549386D01*
X167137512Y-74540500D01*
X175993331Y-74540500D01*
X175993347Y-74540501D01*
X176000943Y-74540501D01*
X176159054Y-74540501D01*
X176159057Y-74540501D01*
X176311785Y-74499577D01*
X176361904Y-74470639D01*
X176418070Y-74438212D01*
X176485969Y-74421742D01*
X176551995Y-74444594D01*
G37*
%TD.AperFunction*%
%TA.AperFunction,Conductor*%
G36*
X152398559Y-34920185D02*
G01*
X152444314Y-34972989D01*
X152454258Y-35042147D01*
X152425233Y-35105703D01*
X152366455Y-35143477D01*
X152363613Y-35144275D01*
X152253682Y-35173730D01*
X152253673Y-35173734D01*
X152047516Y-35269866D01*
X152047512Y-35269868D01*
X151974526Y-35320973D01*
X151974526Y-35320974D01*
X152653553Y-36000000D01*
X152647339Y-36000000D01*
X152545606Y-36027259D01*
X152454394Y-36079920D01*
X152379920Y-36154394D01*
X152327259Y-36245606D01*
X152300000Y-36347339D01*
X152300000Y-36353552D01*
X151620974Y-35674526D01*
X151620973Y-35674526D01*
X151569868Y-35747512D01*
X151569866Y-35747516D01*
X151473734Y-35953673D01*
X151473730Y-35953682D01*
X151414860Y-36173389D01*
X151414858Y-36173400D01*
X151395034Y-36399997D01*
X151395034Y-36400002D01*
X151414858Y-36626599D01*
X151414860Y-36626610D01*
X151473730Y-36846317D01*
X151473735Y-36846331D01*
X151569863Y-37052478D01*
X151620974Y-37125472D01*
X152300000Y-36446446D01*
X152300000Y-36452661D01*
X152327259Y-36554394D01*
X152379920Y-36645606D01*
X152454394Y-36720080D01*
X152545606Y-36772741D01*
X152647339Y-36800000D01*
X152653553Y-36800000D01*
X151974526Y-37479025D01*
X152047513Y-37530132D01*
X152047521Y-37530136D01*
X152253668Y-37626264D01*
X152253682Y-37626269D01*
X152473389Y-37685139D01*
X152473400Y-37685141D01*
X152699998Y-37704966D01*
X152700002Y-37704966D01*
X152926599Y-37685141D01*
X152926610Y-37685139D01*
X153146317Y-37626269D01*
X153146331Y-37626264D01*
X153352478Y-37530136D01*
X153425471Y-37479024D01*
X152746447Y-36800000D01*
X152752661Y-36800000D01*
X152854394Y-36772741D01*
X152945606Y-36720080D01*
X153020080Y-36645606D01*
X153072741Y-36554394D01*
X153100000Y-36452661D01*
X153100000Y-36446447D01*
X153779024Y-37125471D01*
X153830136Y-37052478D01*
X153926264Y-36846331D01*
X153926269Y-36846317D01*
X153985139Y-36626610D01*
X153985141Y-36626599D01*
X154004966Y-36400002D01*
X154004966Y-36399997D01*
X153985141Y-36173400D01*
X153985139Y-36173389D01*
X153926269Y-35953682D01*
X153926264Y-35953668D01*
X153830136Y-35747521D01*
X153830132Y-35747513D01*
X153779025Y-35674526D01*
X153100000Y-36353551D01*
X153100000Y-36347339D01*
X153072741Y-36245606D01*
X153020080Y-36154394D01*
X152945606Y-36079920D01*
X152854394Y-36027259D01*
X152752661Y-36000000D01*
X152746448Y-36000000D01*
X153425472Y-35320974D01*
X153352478Y-35269863D01*
X153146331Y-35173735D01*
X153146317Y-35173730D01*
X153036387Y-35144275D01*
X152976726Y-35107910D01*
X152946197Y-35045063D01*
X152954492Y-34975688D01*
X152998977Y-34921810D01*
X153065529Y-34900535D01*
X153068480Y-34900500D01*
X155299903Y-34900500D01*
X155366942Y-34920185D01*
X155387584Y-34936819D01*
X156408058Y-35957293D01*
X156441543Y-36018616D01*
X156440152Y-36077067D01*
X156414366Y-36173302D01*
X156414364Y-36173313D01*
X156394532Y-36399998D01*
X156394532Y-36400001D01*
X156414364Y-36626686D01*
X156414366Y-36626697D01*
X156440152Y-36722931D01*
X156438489Y-36792781D01*
X156408058Y-36842705D01*
X154331286Y-38919478D01*
X154219481Y-39031282D01*
X154219479Y-39031284D01*
X154201931Y-39061680D01*
X154190810Y-39080943D01*
X154140423Y-39168215D01*
X154099499Y-39320943D01*
X154099499Y-39320945D01*
X154099499Y-39489046D01*
X154099500Y-39489059D01*
X154099500Y-59873330D01*
X154099499Y-59873348D01*
X154099499Y-60039054D01*
X154099498Y-60039054D01*
X154123220Y-60127585D01*
X154140423Y-60191785D01*
X154144917Y-60199568D01*
X154144919Y-60199578D01*
X154144922Y-60199577D01*
X154219477Y-60328712D01*
X154219481Y-60328717D01*
X154338349Y-60447585D01*
X154338355Y-60447590D01*
X155178584Y-61287819D01*
X155212069Y-61349142D01*
X155207085Y-61418834D01*
X155165213Y-61474767D01*
X155099749Y-61499184D01*
X155090903Y-61499500D01*
X148079057Y-61499500D01*
X147920942Y-61499500D01*
X147768215Y-61540423D01*
X147768214Y-61540423D01*
X147768212Y-61540424D01*
X147768209Y-61540425D01*
X147718096Y-61569359D01*
X147718095Y-61569360D01*
X147674689Y-61594420D01*
X147631285Y-61619479D01*
X147631282Y-61619481D01*
X147519478Y-61731286D01*
X140022705Y-69228058D01*
X139961382Y-69261543D01*
X139902931Y-69260152D01*
X139806697Y-69234366D01*
X139806693Y-69234365D01*
X139806692Y-69234365D01*
X139806691Y-69234364D01*
X139806686Y-69234364D01*
X139580002Y-69214532D01*
X139579998Y-69214532D01*
X139353313Y-69234364D01*
X139353302Y-69234366D01*
X139133511Y-69293258D01*
X139133502Y-69293261D01*
X138927267Y-69389431D01*
X138927265Y-69389432D01*
X138740858Y-69519954D01*
X138579954Y-69680858D01*
X138449432Y-69867265D01*
X138449431Y-69867267D01*
X138353261Y-70073502D01*
X138353258Y-70073511D01*
X138294366Y-70293302D01*
X138294364Y-70293313D01*
X138274532Y-70519998D01*
X138274532Y-70520001D01*
X138294364Y-70746686D01*
X138294366Y-70746697D01*
X138353258Y-70966488D01*
X138353261Y-70966497D01*
X138449431Y-71172732D01*
X138449432Y-71172734D01*
X138579954Y-71359141D01*
X138740858Y-71520045D01*
X138755430Y-71530248D01*
X138926624Y-71650118D01*
X138970248Y-71704693D01*
X138979500Y-71751692D01*
X138979500Y-72480951D01*
X138959815Y-72547990D01*
X138907011Y-72593745D01*
X138837853Y-72603689D01*
X138774297Y-72574664D01*
X138767819Y-72568632D01*
X138719141Y-72519954D01*
X138532734Y-72389432D01*
X138532732Y-72389431D01*
X138326497Y-72293261D01*
X138326488Y-72293258D01*
X138106697Y-72234366D01*
X138106693Y-72234365D01*
X138106692Y-72234365D01*
X138106691Y-72234364D01*
X138106686Y-72234364D01*
X137880002Y-72214532D01*
X137879998Y-72214532D01*
X137653313Y-72234364D01*
X137653302Y-72234366D01*
X137433511Y-72293258D01*
X137433502Y-72293261D01*
X137227267Y-72389431D01*
X137227265Y-72389432D01*
X137040858Y-72519954D01*
X136879954Y-72680858D01*
X136814971Y-72773666D01*
X136749881Y-72866624D01*
X136695307Y-72910248D01*
X136648308Y-72919500D01*
X134220097Y-72919500D01*
X134153058Y-72899815D01*
X134132416Y-72883181D01*
X131836819Y-70587584D01*
X131803334Y-70526261D01*
X131800500Y-70499903D01*
X131800500Y-44100096D01*
X131820185Y-44033057D01*
X131836814Y-44012420D01*
X134334574Y-41514659D01*
X134395897Y-41481175D01*
X134465589Y-41486159D01*
X134521522Y-41528031D01*
X134545939Y-41593495D01*
X134545783Y-41613148D01*
X134534685Y-41739998D01*
X134534685Y-41740001D01*
X134553907Y-41959714D01*
X134553909Y-41959725D01*
X134572812Y-42030271D01*
X134571149Y-42100121D01*
X134540718Y-42150045D01*
X133731286Y-42959478D01*
X133619481Y-43071282D01*
X133570097Y-43156818D01*
X133540424Y-43208212D01*
X133540423Y-43208213D01*
X133523677Y-43270712D01*
X133499499Y-43360943D01*
X133499499Y-43360945D01*
X133499499Y-43529046D01*
X133499500Y-43529059D01*
X133499500Y-70617587D01*
X133479815Y-70684626D01*
X133472450Y-70694896D01*
X133470186Y-70697734D01*
X133374211Y-70850476D01*
X133314631Y-71020745D01*
X133314630Y-71020750D01*
X133294435Y-71199996D01*
X133294435Y-71200003D01*
X133314630Y-71379249D01*
X133314631Y-71379254D01*
X133374211Y-71549523D01*
X133466709Y-71696731D01*
X133470184Y-71702262D01*
X133597738Y-71829816D01*
X133665973Y-71872691D01*
X133741164Y-71919937D01*
X133750478Y-71925789D01*
X133920745Y-71985368D01*
X133920750Y-71985369D01*
X134099996Y-72005565D01*
X134100000Y-72005565D01*
X134100004Y-72005565D01*
X134279249Y-71985369D01*
X134279252Y-71985368D01*
X134279255Y-71985368D01*
X134449522Y-71925789D01*
X134458836Y-71919937D01*
X134534027Y-71872691D01*
X134601264Y-71853690D01*
X134665973Y-71872691D01*
X134750475Y-71925788D01*
X134920745Y-71985368D01*
X134920750Y-71985369D01*
X135099996Y-72005565D01*
X135100000Y-72005565D01*
X135100004Y-72005565D01*
X135279249Y-71985369D01*
X135279252Y-71985368D01*
X135279255Y-71985368D01*
X135449522Y-71925789D01*
X135458836Y-71919937D01*
X135501215Y-71893308D01*
X135584029Y-71841272D01*
X135651264Y-71822272D01*
X135715970Y-71841272D01*
X135765973Y-71872691D01*
X135850475Y-71925788D01*
X136020745Y-71985368D01*
X136020750Y-71985369D01*
X136199996Y-72005565D01*
X136200000Y-72005565D01*
X136200004Y-72005565D01*
X136379249Y-71985369D01*
X136379252Y-71985368D01*
X136379255Y-71985368D01*
X136549522Y-71925789D01*
X136702262Y-71829816D01*
X136829816Y-71702262D01*
X136925789Y-71549522D01*
X136985368Y-71379255D01*
X136985369Y-71379249D01*
X137005565Y-71200003D01*
X137005565Y-71199996D01*
X136985369Y-71020750D01*
X136985368Y-71020745D01*
X136956773Y-70939025D01*
X136925789Y-70850478D01*
X136919255Y-70840080D01*
X136860517Y-70746599D01*
X136829816Y-70697738D01*
X136829814Y-70697736D01*
X136829813Y-70697734D01*
X136827550Y-70694896D01*
X136826659Y-70692715D01*
X136826111Y-70691842D01*
X136826264Y-70691745D01*
X136801144Y-70630209D01*
X136800500Y-70617587D01*
X136800500Y-66600096D01*
X136820185Y-66533057D01*
X136836814Y-66512420D01*
X140758506Y-62590727D01*
X140758511Y-62590724D01*
X140768714Y-62580520D01*
X140768716Y-62580520D01*
X140880520Y-62468716D01*
X140932284Y-62379057D01*
X140959577Y-62331785D01*
X141000501Y-62179057D01*
X141000501Y-62020943D01*
X141000501Y-62013348D01*
X141000500Y-62013330D01*
X141000500Y-48849999D01*
X147241127Y-48849999D01*
X147241128Y-48850000D01*
X148204314Y-48850000D01*
X148199920Y-48854394D01*
X148147259Y-48945606D01*
X148120000Y-49047339D01*
X148120000Y-49152661D01*
X148147259Y-49254394D01*
X148199920Y-49345606D01*
X148204314Y-49350000D01*
X147241128Y-49350000D01*
X147293730Y-49546317D01*
X147293734Y-49546326D01*
X147389865Y-49752482D01*
X147520342Y-49938820D01*
X147681179Y-50099657D01*
X147867517Y-50230134D01*
X148073673Y-50326265D01*
X148073682Y-50326269D01*
X148269999Y-50378872D01*
X148270000Y-50378871D01*
X148270000Y-49415686D01*
X148274394Y-49420080D01*
X148365606Y-49472741D01*
X148467339Y-49500000D01*
X148572661Y-49500000D01*
X148674394Y-49472741D01*
X148765606Y-49420080D01*
X148770000Y-49415686D01*
X148770000Y-50378872D01*
X148966317Y-50326269D01*
X148966326Y-50326265D01*
X149172482Y-50230134D01*
X149358820Y-50099657D01*
X149519657Y-49938820D01*
X149650134Y-49752482D01*
X149746265Y-49546326D01*
X149746269Y-49546317D01*
X149798872Y-49350000D01*
X148835686Y-49350000D01*
X148840080Y-49345606D01*
X148892741Y-49254394D01*
X148920000Y-49152661D01*
X148920000Y-49047339D01*
X148892741Y-48945606D01*
X148840080Y-48854394D01*
X148835686Y-48850000D01*
X149798872Y-48850000D01*
X149798872Y-48849999D01*
X149746269Y-48653682D01*
X149746265Y-48653673D01*
X149650134Y-48447517D01*
X149519657Y-48261179D01*
X149358820Y-48100342D01*
X149172482Y-47969865D01*
X148966328Y-47873734D01*
X148770000Y-47821127D01*
X148770000Y-48784314D01*
X148765606Y-48779920D01*
X148674394Y-48727259D01*
X148572661Y-48700000D01*
X148467339Y-48700000D01*
X148365606Y-48727259D01*
X148274394Y-48779920D01*
X148270000Y-48784314D01*
X148270000Y-47821127D01*
X148073671Y-47873734D01*
X147867517Y-47969865D01*
X147681179Y-48100342D01*
X147520342Y-48261179D01*
X147389865Y-48447517D01*
X147293734Y-48653673D01*
X147293730Y-48653682D01*
X147241127Y-48849999D01*
X141000500Y-48849999D01*
X141000500Y-46429059D01*
X141000501Y-46429046D01*
X141000501Y-46260945D01*
X141000501Y-46260943D01*
X140959577Y-46108215D01*
X140908357Y-46019500D01*
X140880520Y-45971284D01*
X140768716Y-45859480D01*
X140768715Y-45859479D01*
X140764385Y-45855149D01*
X140764374Y-45855139D01*
X140001416Y-45092181D01*
X139967931Y-45030858D01*
X139972915Y-44961166D01*
X140014787Y-44905233D01*
X140080251Y-44880816D01*
X140089097Y-44880500D01*
X151997060Y-44880500D01*
X152064099Y-44900185D01*
X152084741Y-44916819D01*
X152097738Y-44929816D01*
X152250478Y-45025789D01*
X152329183Y-45053329D01*
X152420745Y-45085368D01*
X152420750Y-45085369D01*
X152599996Y-45105565D01*
X152600000Y-45105565D01*
X152600004Y-45105565D01*
X152779249Y-45085369D01*
X152779252Y-45085368D01*
X152779255Y-45085368D01*
X152949522Y-45025789D01*
X153102262Y-44929816D01*
X153229816Y-44802262D01*
X153325789Y-44649522D01*
X153385368Y-44479255D01*
X153392103Y-44419480D01*
X153405565Y-44300003D01*
X153405565Y-44299996D01*
X153385369Y-44120750D01*
X153385368Y-44120745D01*
X153378143Y-44100096D01*
X153325789Y-43950478D01*
X153229816Y-43797738D01*
X153169759Y-43737681D01*
X153136274Y-43676358D01*
X153141258Y-43606666D01*
X153169759Y-43562319D01*
X153195259Y-43536819D01*
X153229816Y-43502262D01*
X153325789Y-43349522D01*
X153385368Y-43179255D01*
X153387896Y-43156818D01*
X153405565Y-43000003D01*
X153405565Y-42999996D01*
X153385369Y-42820750D01*
X153385368Y-42820745D01*
X153351831Y-42724902D01*
X153325789Y-42650478D01*
X153229816Y-42497738D01*
X153169759Y-42437681D01*
X153136274Y-42376358D01*
X153141258Y-42306666D01*
X153169759Y-42262319D01*
X153197944Y-42234134D01*
X153229816Y-42202262D01*
X153325789Y-42049522D01*
X153385368Y-41879255D01*
X153385369Y-41879249D01*
X153405565Y-41700003D01*
X153405565Y-41699996D01*
X153385369Y-41520750D01*
X153385368Y-41520745D01*
X153325788Y-41350475D01*
X153272691Y-41265973D01*
X153253690Y-41198736D01*
X153272691Y-41134027D01*
X153325788Y-41049524D01*
X153385368Y-40879254D01*
X153385369Y-40879249D01*
X153405565Y-40700003D01*
X153405565Y-40699996D01*
X153385369Y-40520750D01*
X153385368Y-40520745D01*
X153353271Y-40429017D01*
X153325789Y-40350478D01*
X153229816Y-40197738D01*
X153102262Y-40070184D01*
X152949523Y-39974211D01*
X152779254Y-39914631D01*
X152779249Y-39914630D01*
X152600004Y-39894435D01*
X152599996Y-39894435D01*
X152420750Y-39914630D01*
X152420745Y-39914631D01*
X152250477Y-39974211D01*
X152198277Y-40007011D01*
X152114241Y-40059815D01*
X152113160Y-40060494D01*
X152047188Y-40079500D01*
X139501156Y-40079500D01*
X139434117Y-40059815D01*
X139388362Y-40007011D01*
X139378418Y-39937853D01*
X139399578Y-39884380D01*
X139421289Y-39853374D01*
X139475863Y-39809752D01*
X139522862Y-39800500D01*
X144513331Y-39800500D01*
X144513347Y-39800501D01*
X144520943Y-39800501D01*
X144679054Y-39800501D01*
X144679057Y-39800501D01*
X144831785Y-39759577D01*
X144881904Y-39730639D01*
X144968716Y-39680520D01*
X145080520Y-39568716D01*
X145080520Y-39568714D01*
X145090728Y-39558507D01*
X145090730Y-39558504D01*
X148118535Y-36530698D01*
X148179856Y-36497215D01*
X148192311Y-36495163D01*
X148279255Y-36485368D01*
X148449522Y-36425789D01*
X148602262Y-36329816D01*
X148729816Y-36202262D01*
X148825789Y-36049522D01*
X148885368Y-35879255D01*
X148885369Y-35879249D01*
X148905565Y-35700003D01*
X148905565Y-35699996D01*
X148885369Y-35520750D01*
X148885368Y-35520745D01*
X148843101Y-35399953D01*
X148825789Y-35350478D01*
X148808846Y-35323514D01*
X148740890Y-35215362D01*
X148729816Y-35197738D01*
X148644259Y-35112181D01*
X148610774Y-35050858D01*
X148615758Y-34981166D01*
X148657630Y-34925233D01*
X148723094Y-34900816D01*
X148731940Y-34900500D01*
X152331520Y-34900500D01*
X152398559Y-34920185D01*
G37*
%TD.AperFunction*%
%TA.AperFunction,Conductor*%
G36*
X137916008Y-34295623D02*
G01*
X137975910Y-34399376D01*
X138060624Y-34484090D01*
X138164377Y-34543992D01*
X138247332Y-34566220D01*
X137643247Y-35170304D01*
X137707593Y-35215360D01*
X137840514Y-35277342D01*
X137892953Y-35323514D01*
X137912105Y-35390708D01*
X137891889Y-35457589D01*
X137840514Y-35502106D01*
X137707344Y-35564204D01*
X137707342Y-35564205D01*
X137526668Y-35690713D01*
X137370713Y-35846668D01*
X137258713Y-36006623D01*
X137204136Y-36050248D01*
X137157138Y-36059500D01*
X136982862Y-36059500D01*
X136915823Y-36039815D01*
X136881287Y-36006623D01*
X136769286Y-35846668D01*
X136613330Y-35690712D01*
X136432662Y-35564207D01*
X136432654Y-35564203D01*
X136299486Y-35502106D01*
X136247046Y-35455934D01*
X136227894Y-35388740D01*
X136248110Y-35321859D01*
X136299486Y-35277342D01*
X136432402Y-35215362D01*
X136432410Y-35215358D01*
X136496751Y-35170305D01*
X136496751Y-35170304D01*
X135892668Y-34566220D01*
X135975623Y-34543992D01*
X136079376Y-34484090D01*
X136164090Y-34399376D01*
X136223992Y-34295623D01*
X136246220Y-34212667D01*
X136850304Y-34816751D01*
X136850305Y-34816751D01*
X136895358Y-34752410D01*
X136895362Y-34752402D01*
X136957618Y-34618894D01*
X137003790Y-34566454D01*
X137070983Y-34547302D01*
X137137864Y-34567517D01*
X137182382Y-34618894D01*
X137244636Y-34752400D01*
X137289694Y-34816750D01*
X137893779Y-34212666D01*
X137916008Y-34295623D01*
G37*
%TD.AperFunction*%
%TA.AperFunction,Conductor*%
G36*
X193716008Y-34255623D02*
G01*
X193775910Y-34359376D01*
X193860624Y-34444090D01*
X193964377Y-34503992D01*
X194047332Y-34526220D01*
X193443247Y-35130304D01*
X193507593Y-35175360D01*
X193640514Y-35237342D01*
X193692953Y-35283514D01*
X193712105Y-35350708D01*
X193691889Y-35417589D01*
X193640514Y-35462106D01*
X193507344Y-35524204D01*
X193507342Y-35524205D01*
X193326668Y-35650713D01*
X193170713Y-35806668D01*
X193058713Y-35966623D01*
X193004136Y-36010248D01*
X192957138Y-36019500D01*
X192782862Y-36019500D01*
X192715823Y-35999815D01*
X192681287Y-35966623D01*
X192569286Y-35806668D01*
X192413330Y-35650712D01*
X192232662Y-35524207D01*
X192232654Y-35524203D01*
X192099486Y-35462106D01*
X192047046Y-35415934D01*
X192027894Y-35348740D01*
X192048110Y-35281859D01*
X192099486Y-35237342D01*
X192232402Y-35175362D01*
X192232410Y-35175358D01*
X192296751Y-35130305D01*
X192296751Y-35130304D01*
X191692668Y-34526220D01*
X191775623Y-34503992D01*
X191879376Y-34444090D01*
X191964090Y-34359376D01*
X192023992Y-34255623D01*
X192046220Y-34172667D01*
X192650304Y-34776751D01*
X192650305Y-34776751D01*
X192695358Y-34712410D01*
X192695362Y-34712402D01*
X192757618Y-34578894D01*
X192803790Y-34526454D01*
X192870983Y-34507302D01*
X192937864Y-34527517D01*
X192982382Y-34578894D01*
X193044636Y-34712400D01*
X193089694Y-34776750D01*
X193693779Y-34172666D01*
X193716008Y-34255623D01*
G37*
%TD.AperFunction*%
%TD*%
M02*
