%TF.GenerationSoftware,KiCad,Pcbnew,8.0.5*%
%TF.CreationDate,2024-10-11T22:45:12+02:00*%
%TF.ProjectId,plug-module,706c7567-2d6d-46f6-9475-6c652e6b6963,rev?*%
%TF.SameCoordinates,Original*%
%TF.FileFunction,Drillmap*%
%TF.FilePolarity,Positive*%
%FSLAX45Y45*%
G04 Gerber Fmt 4.5, Leading zero omitted, Abs format (unit mm)*
G04 Created by KiCad (PCBNEW 8.0.5) date 2024-10-11 22:45:12*
%MOMM*%
%LPD*%
G01*
G04 APERTURE LIST*
%ADD10C,0.050000*%
%ADD11C,0.200000*%
%ADD12C,0.100000*%
%ADD13C,0.120000*%
%ADD14C,0.170000*%
G04 APERTURE END LIST*
D10*
X13000000Y-2000000D02*
X20000000Y-2000000D01*
X20000000Y-12000000D01*
X13000000Y-12000000D01*
X13000000Y-2000000D01*
D11*
D12*
X13285000Y-7425000D02*
X13315000Y-7455000D01*
X13315000Y-7425000D02*
X13285000Y-7455000D01*
X13395000Y-7105000D02*
X13425000Y-7135000D01*
X13425000Y-7105000D02*
X13395000Y-7135000D01*
X13395000Y-7425000D02*
X13425000Y-7455000D01*
X13425000Y-7425000D02*
X13395000Y-7455000D01*
X13495000Y-7105000D02*
X13525000Y-7135000D01*
X13525000Y-7105000D02*
X13495000Y-7135000D01*
X13495000Y-7425000D02*
X13525000Y-7455000D01*
X13525000Y-7425000D02*
X13495000Y-7455000D01*
X13605000Y-6095000D02*
X13635000Y-6125000D01*
X13635000Y-6095000D02*
X13605000Y-6125000D01*
X13605000Y-7105000D02*
X13635000Y-7135000D01*
X13635000Y-7105000D02*
X13605000Y-7135000D01*
X13605000Y-7425000D02*
X13635000Y-7455000D01*
X13635000Y-7425000D02*
X13605000Y-7455000D01*
X14095000Y-8325000D02*
X14125000Y-8355000D01*
X14125000Y-8325000D02*
X14095000Y-8355000D01*
X14325000Y-4285000D02*
X14355000Y-4315000D01*
X14355000Y-4285000D02*
X14325000Y-4315000D01*
X14795000Y-3555000D02*
X14825000Y-3585000D01*
X14825000Y-3555000D02*
X14795000Y-3585000D01*
X14935000Y-8925000D02*
X14965000Y-8955000D01*
X14965000Y-8925000D02*
X14935000Y-8955000D01*
X15075000Y-8865000D02*
X15105000Y-8895000D01*
X15105000Y-8865000D02*
X15075000Y-8895000D01*
X15245000Y-4055000D02*
X15275000Y-4085000D01*
X15275000Y-4055000D02*
X15245000Y-4085000D01*
X15245000Y-4155000D02*
X15275000Y-4185000D01*
X15275000Y-4155000D02*
X15245000Y-4185000D01*
X15245000Y-4285000D02*
X15275000Y-4315000D01*
X15275000Y-4285000D02*
X15245000Y-4315000D01*
X15245000Y-4415000D02*
X15275000Y-4445000D01*
X15275000Y-4415000D02*
X15245000Y-4445000D01*
X15515000Y-8795000D02*
X15545000Y-8825000D01*
X15545000Y-8795000D02*
X15515000Y-8825000D01*
X15765000Y-3265000D02*
X15795000Y-3295000D01*
X15795000Y-3265000D02*
X15765000Y-3295000D01*
X15925000Y-6645000D02*
X15955000Y-6675000D01*
X15955000Y-6645000D02*
X15925000Y-6675000D01*
X16005000Y-10305000D02*
X16035000Y-10335000D01*
X16035000Y-10305000D02*
X16005000Y-10335000D01*
X16005000Y-10405000D02*
X16035000Y-10435000D01*
X16035000Y-10405000D02*
X16005000Y-10435000D01*
X16005000Y-10505000D02*
X16035000Y-10535000D01*
X16035000Y-10505000D02*
X16005000Y-10535000D01*
X16005000Y-10605000D02*
X16035000Y-10635000D01*
X16035000Y-10605000D02*
X16005000Y-10635000D01*
X16005000Y-10705000D02*
X16035000Y-10735000D01*
X16035000Y-10705000D02*
X16005000Y-10735000D01*
X16005000Y-10805000D02*
X16035000Y-10835000D01*
X16035000Y-10805000D02*
X16005000Y-10835000D01*
X16105000Y-10305000D02*
X16135000Y-10335000D01*
X16135000Y-10305000D02*
X16105000Y-10335000D01*
X16105000Y-10405000D02*
X16135000Y-10435000D01*
X16135000Y-10405000D02*
X16105000Y-10435000D01*
X16105000Y-10505000D02*
X16135000Y-10535000D01*
X16135000Y-10505000D02*
X16105000Y-10535000D01*
X16105000Y-10605000D02*
X16135000Y-10635000D01*
X16135000Y-10605000D02*
X16105000Y-10635000D01*
X16105000Y-10705000D02*
X16135000Y-10735000D01*
X16135000Y-10705000D02*
X16105000Y-10735000D01*
X16105000Y-10805000D02*
X16135000Y-10835000D01*
X16135000Y-10805000D02*
X16105000Y-10835000D01*
X16205000Y-2305000D02*
X16235000Y-2335000D01*
X16235000Y-2305000D02*
X16205000Y-2335000D01*
X16205000Y-2405000D02*
X16235000Y-2435000D01*
X16235000Y-2405000D02*
X16205000Y-2435000D01*
X16205000Y-2505000D02*
X16235000Y-2535000D01*
X16235000Y-2505000D02*
X16205000Y-2535000D01*
X16205000Y-2605000D02*
X16235000Y-2635000D01*
X16235000Y-2605000D02*
X16205000Y-2635000D01*
X16205000Y-2705000D02*
X16235000Y-2735000D01*
X16235000Y-2705000D02*
X16205000Y-2735000D01*
X16205000Y-2805000D02*
X16235000Y-2835000D01*
X16235000Y-2805000D02*
X16205000Y-2835000D01*
X16205000Y-2905000D02*
X16235000Y-2935000D01*
X16235000Y-2905000D02*
X16205000Y-2935000D01*
X16205000Y-3005000D02*
X16235000Y-3035000D01*
X16235000Y-3005000D02*
X16205000Y-3035000D01*
X16205000Y-3105000D02*
X16235000Y-3135000D01*
X16235000Y-3105000D02*
X16205000Y-3135000D01*
X16205000Y-3205000D02*
X16235000Y-3235000D01*
X16235000Y-3205000D02*
X16205000Y-3235000D01*
X16205000Y-10305000D02*
X16235000Y-10335000D01*
X16235000Y-10305000D02*
X16205000Y-10335000D01*
X16205000Y-10405000D02*
X16235000Y-10435000D01*
X16235000Y-10405000D02*
X16205000Y-10435000D01*
X16205000Y-10505000D02*
X16235000Y-10535000D01*
X16235000Y-10505000D02*
X16205000Y-10535000D01*
X16205000Y-10605000D02*
X16235000Y-10635000D01*
X16235000Y-10605000D02*
X16205000Y-10635000D01*
X16205000Y-10705000D02*
X16235000Y-10735000D01*
X16235000Y-10705000D02*
X16205000Y-10735000D01*
X16205000Y-10805000D02*
X16235000Y-10835000D01*
X16235000Y-10805000D02*
X16205000Y-10835000D01*
X16245000Y-3725000D02*
X16275000Y-3755000D01*
X16275000Y-3725000D02*
X16245000Y-3755000D01*
X16305000Y-2305000D02*
X16335000Y-2335000D01*
X16335000Y-2305000D02*
X16305000Y-2335000D01*
X16305000Y-2405000D02*
X16335000Y-2435000D01*
X16335000Y-2405000D02*
X16305000Y-2435000D01*
X16305000Y-2505000D02*
X16335000Y-2535000D01*
X16335000Y-2505000D02*
X16305000Y-2535000D01*
X16305000Y-2605000D02*
X16335000Y-2635000D01*
X16335000Y-2605000D02*
X16305000Y-2635000D01*
X16305000Y-2705000D02*
X16335000Y-2735000D01*
X16335000Y-2705000D02*
X16305000Y-2735000D01*
X16305000Y-2805000D02*
X16335000Y-2835000D01*
X16335000Y-2805000D02*
X16305000Y-2835000D01*
X16305000Y-2905000D02*
X16335000Y-2935000D01*
X16335000Y-2905000D02*
X16305000Y-2935000D01*
X16305000Y-3005000D02*
X16335000Y-3035000D01*
X16335000Y-3005000D02*
X16305000Y-3035000D01*
X16305000Y-3105000D02*
X16335000Y-3135000D01*
X16335000Y-3105000D02*
X16305000Y-3135000D01*
X16305000Y-3205000D02*
X16335000Y-3235000D01*
X16335000Y-3205000D02*
X16305000Y-3235000D01*
X16305000Y-10305000D02*
X16335000Y-10335000D01*
X16335000Y-10305000D02*
X16305000Y-10335000D01*
X16305000Y-10405000D02*
X16335000Y-10435000D01*
X16335000Y-10405000D02*
X16305000Y-10435000D01*
X16305000Y-10505000D02*
X16335000Y-10535000D01*
X16335000Y-10505000D02*
X16305000Y-10535000D01*
X16305000Y-10605000D02*
X16335000Y-10635000D01*
X16335000Y-10605000D02*
X16305000Y-10635000D01*
X16305000Y-10705000D02*
X16335000Y-10735000D01*
X16335000Y-10705000D02*
X16305000Y-10735000D01*
X16305000Y-10805000D02*
X16335000Y-10835000D01*
X16335000Y-10805000D02*
X16305000Y-10835000D01*
X16405000Y-2305000D02*
X16435000Y-2335000D01*
X16435000Y-2305000D02*
X16405000Y-2335000D01*
X16405000Y-2405000D02*
X16435000Y-2435000D01*
X16435000Y-2405000D02*
X16405000Y-2435000D01*
X16405000Y-2505000D02*
X16435000Y-2535000D01*
X16435000Y-2505000D02*
X16405000Y-2535000D01*
X16405000Y-2605000D02*
X16435000Y-2635000D01*
X16435000Y-2605000D02*
X16405000Y-2635000D01*
X16405000Y-2705000D02*
X16435000Y-2735000D01*
X16435000Y-2705000D02*
X16405000Y-2735000D01*
X16405000Y-2805000D02*
X16435000Y-2835000D01*
X16435000Y-2805000D02*
X16405000Y-2835000D01*
X16405000Y-2905000D02*
X16435000Y-2935000D01*
X16435000Y-2905000D02*
X16405000Y-2935000D01*
X16405000Y-3005000D02*
X16435000Y-3035000D01*
X16435000Y-3005000D02*
X16405000Y-3035000D01*
X16405000Y-3105000D02*
X16435000Y-3135000D01*
X16435000Y-3105000D02*
X16405000Y-3135000D01*
X16405000Y-3205000D02*
X16435000Y-3235000D01*
X16435000Y-3205000D02*
X16405000Y-3235000D01*
X16405000Y-10305000D02*
X16435000Y-10335000D01*
X16435000Y-10305000D02*
X16405000Y-10335000D01*
X16405000Y-10405000D02*
X16435000Y-10435000D01*
X16435000Y-10405000D02*
X16405000Y-10435000D01*
X16405000Y-10505000D02*
X16435000Y-10535000D01*
X16435000Y-10505000D02*
X16405000Y-10535000D01*
X16405000Y-10605000D02*
X16435000Y-10635000D01*
X16435000Y-10605000D02*
X16405000Y-10635000D01*
X16405000Y-10705000D02*
X16435000Y-10735000D01*
X16435000Y-10705000D02*
X16405000Y-10735000D01*
X16405000Y-10805000D02*
X16435000Y-10835000D01*
X16435000Y-10805000D02*
X16405000Y-10835000D01*
X16505000Y-2305000D02*
X16535000Y-2335000D01*
X16535000Y-2305000D02*
X16505000Y-2335000D01*
X16505000Y-2405000D02*
X16535000Y-2435000D01*
X16535000Y-2405000D02*
X16505000Y-2435000D01*
X16505000Y-2505000D02*
X16535000Y-2535000D01*
X16535000Y-2505000D02*
X16505000Y-2535000D01*
X16505000Y-2605000D02*
X16535000Y-2635000D01*
X16535000Y-2605000D02*
X16505000Y-2635000D01*
X16505000Y-2705000D02*
X16535000Y-2735000D01*
X16535000Y-2705000D02*
X16505000Y-2735000D01*
X16505000Y-2805000D02*
X16535000Y-2835000D01*
X16535000Y-2805000D02*
X16505000Y-2835000D01*
X16505000Y-2905000D02*
X16535000Y-2935000D01*
X16535000Y-2905000D02*
X16505000Y-2935000D01*
X16505000Y-3005000D02*
X16535000Y-3035000D01*
X16535000Y-3005000D02*
X16505000Y-3035000D01*
X16505000Y-3105000D02*
X16535000Y-3135000D01*
X16535000Y-3105000D02*
X16505000Y-3135000D01*
X16505000Y-3205000D02*
X16535000Y-3235000D01*
X16535000Y-3205000D02*
X16505000Y-3235000D01*
X16505000Y-10305000D02*
X16535000Y-10335000D01*
X16535000Y-10305000D02*
X16505000Y-10335000D01*
X16505000Y-10405000D02*
X16535000Y-10435000D01*
X16535000Y-10405000D02*
X16505000Y-10435000D01*
X16505000Y-10505000D02*
X16535000Y-10535000D01*
X16535000Y-10505000D02*
X16505000Y-10535000D01*
X16505000Y-10605000D02*
X16535000Y-10635000D01*
X16535000Y-10605000D02*
X16505000Y-10635000D01*
X16505000Y-10705000D02*
X16535000Y-10735000D01*
X16535000Y-10705000D02*
X16505000Y-10735000D01*
X16505000Y-10805000D02*
X16535000Y-10835000D01*
X16535000Y-10805000D02*
X16505000Y-10835000D01*
X16535000Y-3795000D02*
X16565000Y-3825000D01*
X16565000Y-3795000D02*
X16535000Y-3825000D01*
X16605000Y-2305000D02*
X16635000Y-2335000D01*
X16635000Y-2305000D02*
X16605000Y-2335000D01*
X16605000Y-2405000D02*
X16635000Y-2435000D01*
X16635000Y-2405000D02*
X16605000Y-2435000D01*
X16605000Y-2505000D02*
X16635000Y-2535000D01*
X16635000Y-2505000D02*
X16605000Y-2535000D01*
X16605000Y-2605000D02*
X16635000Y-2635000D01*
X16635000Y-2605000D02*
X16605000Y-2635000D01*
X16605000Y-2705000D02*
X16635000Y-2735000D01*
X16635000Y-2705000D02*
X16605000Y-2735000D01*
X16605000Y-2805000D02*
X16635000Y-2835000D01*
X16635000Y-2805000D02*
X16605000Y-2835000D01*
X16605000Y-2905000D02*
X16635000Y-2935000D01*
X16635000Y-2905000D02*
X16605000Y-2935000D01*
X16605000Y-3005000D02*
X16635000Y-3035000D01*
X16635000Y-3005000D02*
X16605000Y-3035000D01*
X16605000Y-3105000D02*
X16635000Y-3135000D01*
X16635000Y-3105000D02*
X16605000Y-3135000D01*
X16605000Y-3205000D02*
X16635000Y-3235000D01*
X16635000Y-3205000D02*
X16605000Y-3235000D01*
X16605000Y-10305000D02*
X16635000Y-10335000D01*
X16635000Y-10305000D02*
X16605000Y-10335000D01*
X16605000Y-10405000D02*
X16635000Y-10435000D01*
X16635000Y-10405000D02*
X16605000Y-10435000D01*
X16605000Y-10505000D02*
X16635000Y-10535000D01*
X16635000Y-10505000D02*
X16605000Y-10535000D01*
X16605000Y-10605000D02*
X16635000Y-10635000D01*
X16635000Y-10605000D02*
X16605000Y-10635000D01*
X16605000Y-10705000D02*
X16635000Y-10735000D01*
X16635000Y-10705000D02*
X16605000Y-10735000D01*
X16605000Y-10805000D02*
X16635000Y-10835000D01*
X16635000Y-10805000D02*
X16605000Y-10835000D01*
X16705000Y-2305000D02*
X16735000Y-2335000D01*
X16735000Y-2305000D02*
X16705000Y-2335000D01*
X16705000Y-2405000D02*
X16735000Y-2435000D01*
X16735000Y-2405000D02*
X16705000Y-2435000D01*
X16705000Y-2505000D02*
X16735000Y-2535000D01*
X16735000Y-2505000D02*
X16705000Y-2535000D01*
X16705000Y-2605000D02*
X16735000Y-2635000D01*
X16735000Y-2605000D02*
X16705000Y-2635000D01*
X16705000Y-2705000D02*
X16735000Y-2735000D01*
X16735000Y-2705000D02*
X16705000Y-2735000D01*
X16705000Y-2805000D02*
X16735000Y-2835000D01*
X16735000Y-2805000D02*
X16705000Y-2835000D01*
X16705000Y-2905000D02*
X16735000Y-2935000D01*
X16735000Y-2905000D02*
X16705000Y-2935000D01*
X16705000Y-3005000D02*
X16735000Y-3035000D01*
X16735000Y-3005000D02*
X16705000Y-3035000D01*
X16705000Y-3105000D02*
X16735000Y-3135000D01*
X16735000Y-3105000D02*
X16705000Y-3135000D01*
X16705000Y-3205000D02*
X16735000Y-3235000D01*
X16735000Y-3205000D02*
X16705000Y-3235000D01*
X16705000Y-10305000D02*
X16735000Y-10335000D01*
X16735000Y-10305000D02*
X16705000Y-10335000D01*
X16705000Y-10405000D02*
X16735000Y-10435000D01*
X16735000Y-10405000D02*
X16705000Y-10435000D01*
X16705000Y-10505000D02*
X16735000Y-10535000D01*
X16735000Y-10505000D02*
X16705000Y-10535000D01*
X16705000Y-10605000D02*
X16735000Y-10635000D01*
X16735000Y-10605000D02*
X16705000Y-10635000D01*
X16705000Y-10705000D02*
X16735000Y-10735000D01*
X16735000Y-10705000D02*
X16705000Y-10735000D01*
X16705000Y-10805000D02*
X16735000Y-10835000D01*
X16735000Y-10805000D02*
X16705000Y-10835000D01*
X16805000Y-2305000D02*
X16835000Y-2335000D01*
X16835000Y-2305000D02*
X16805000Y-2335000D01*
X16805000Y-2405000D02*
X16835000Y-2435000D01*
X16835000Y-2405000D02*
X16805000Y-2435000D01*
X16805000Y-2505000D02*
X16835000Y-2535000D01*
X16835000Y-2505000D02*
X16805000Y-2535000D01*
X16805000Y-2605000D02*
X16835000Y-2635000D01*
X16835000Y-2605000D02*
X16805000Y-2635000D01*
X16805000Y-2705000D02*
X16835000Y-2735000D01*
X16835000Y-2705000D02*
X16805000Y-2735000D01*
X16805000Y-2805000D02*
X16835000Y-2835000D01*
X16835000Y-2805000D02*
X16805000Y-2835000D01*
X16805000Y-2905000D02*
X16835000Y-2935000D01*
X16835000Y-2905000D02*
X16805000Y-2935000D01*
X16805000Y-3005000D02*
X16835000Y-3035000D01*
X16835000Y-3005000D02*
X16805000Y-3035000D01*
X16805000Y-3105000D02*
X16835000Y-3135000D01*
X16835000Y-3105000D02*
X16805000Y-3135000D01*
X16805000Y-3205000D02*
X16835000Y-3235000D01*
X16835000Y-3205000D02*
X16805000Y-3235000D01*
X16805000Y-10305000D02*
X16835000Y-10335000D01*
X16835000Y-10305000D02*
X16805000Y-10335000D01*
X16805000Y-10405000D02*
X16835000Y-10435000D01*
X16835000Y-10405000D02*
X16805000Y-10435000D01*
X16805000Y-10505000D02*
X16835000Y-10535000D01*
X16835000Y-10505000D02*
X16805000Y-10535000D01*
X16805000Y-10605000D02*
X16835000Y-10635000D01*
X16835000Y-10605000D02*
X16805000Y-10635000D01*
X16805000Y-10705000D02*
X16835000Y-10735000D01*
X16835000Y-10705000D02*
X16805000Y-10735000D01*
X16805000Y-10805000D02*
X16835000Y-10835000D01*
X16835000Y-10805000D02*
X16805000Y-10835000D01*
X16905000Y-2305000D02*
X16935000Y-2335000D01*
X16935000Y-2305000D02*
X16905000Y-2335000D01*
X16905000Y-2405000D02*
X16935000Y-2435000D01*
X16935000Y-2405000D02*
X16905000Y-2435000D01*
X16905000Y-2505000D02*
X16935000Y-2535000D01*
X16935000Y-2505000D02*
X16905000Y-2535000D01*
X16905000Y-2605000D02*
X16935000Y-2635000D01*
X16935000Y-2605000D02*
X16905000Y-2635000D01*
X16905000Y-2705000D02*
X16935000Y-2735000D01*
X16935000Y-2705000D02*
X16905000Y-2735000D01*
X16905000Y-2805000D02*
X16935000Y-2835000D01*
X16935000Y-2805000D02*
X16905000Y-2835000D01*
X16905000Y-2905000D02*
X16935000Y-2935000D01*
X16935000Y-2905000D02*
X16905000Y-2935000D01*
X16905000Y-3005000D02*
X16935000Y-3035000D01*
X16935000Y-3005000D02*
X16905000Y-3035000D01*
X16905000Y-3105000D02*
X16935000Y-3135000D01*
X16935000Y-3105000D02*
X16905000Y-3135000D01*
X16905000Y-3205000D02*
X16935000Y-3235000D01*
X16935000Y-3205000D02*
X16905000Y-3235000D01*
X16905000Y-10305000D02*
X16935000Y-10335000D01*
X16935000Y-10305000D02*
X16905000Y-10335000D01*
X16905000Y-10405000D02*
X16935000Y-10435000D01*
X16935000Y-10405000D02*
X16905000Y-10435000D01*
X16905000Y-10505000D02*
X16935000Y-10535000D01*
X16935000Y-10505000D02*
X16905000Y-10535000D01*
X16905000Y-10605000D02*
X16935000Y-10635000D01*
X16935000Y-10605000D02*
X16905000Y-10635000D01*
X16905000Y-10705000D02*
X16935000Y-10735000D01*
X16935000Y-10705000D02*
X16905000Y-10735000D01*
X16905000Y-10805000D02*
X16935000Y-10835000D01*
X16935000Y-10805000D02*
X16905000Y-10835000D01*
X17005000Y-2305000D02*
X17035000Y-2335000D01*
X17035000Y-2305000D02*
X17005000Y-2335000D01*
X17005000Y-2405000D02*
X17035000Y-2435000D01*
X17035000Y-2405000D02*
X17005000Y-2435000D01*
X17005000Y-2505000D02*
X17035000Y-2535000D01*
X17035000Y-2505000D02*
X17005000Y-2535000D01*
X17005000Y-2605000D02*
X17035000Y-2635000D01*
X17035000Y-2605000D02*
X17005000Y-2635000D01*
X17005000Y-2705000D02*
X17035000Y-2735000D01*
X17035000Y-2705000D02*
X17005000Y-2735000D01*
X17005000Y-2805000D02*
X17035000Y-2835000D01*
X17035000Y-2805000D02*
X17005000Y-2835000D01*
X17005000Y-2905000D02*
X17035000Y-2935000D01*
X17035000Y-2905000D02*
X17005000Y-2935000D01*
X17005000Y-3005000D02*
X17035000Y-3035000D01*
X17035000Y-3005000D02*
X17005000Y-3035000D01*
X17005000Y-3105000D02*
X17035000Y-3135000D01*
X17035000Y-3105000D02*
X17005000Y-3135000D01*
X17005000Y-3205000D02*
X17035000Y-3235000D01*
X17035000Y-3205000D02*
X17005000Y-3235000D01*
X17025000Y-9045000D02*
X17055000Y-9075000D01*
X17055000Y-9045000D02*
X17025000Y-9075000D01*
X17105000Y-2305000D02*
X17135000Y-2335000D01*
X17135000Y-2305000D02*
X17105000Y-2335000D01*
X17105000Y-2405000D02*
X17135000Y-2435000D01*
X17135000Y-2405000D02*
X17105000Y-2435000D01*
X17105000Y-2505000D02*
X17135000Y-2535000D01*
X17135000Y-2505000D02*
X17105000Y-2535000D01*
X17105000Y-2605000D02*
X17135000Y-2635000D01*
X17135000Y-2605000D02*
X17105000Y-2635000D01*
X17105000Y-2705000D02*
X17135000Y-2735000D01*
X17135000Y-2705000D02*
X17105000Y-2735000D01*
X17105000Y-2805000D02*
X17135000Y-2835000D01*
X17135000Y-2805000D02*
X17105000Y-2835000D01*
X17105000Y-2905000D02*
X17135000Y-2935000D01*
X17135000Y-2905000D02*
X17105000Y-2935000D01*
X17105000Y-3005000D02*
X17135000Y-3035000D01*
X17135000Y-3005000D02*
X17105000Y-3035000D01*
X17105000Y-3105000D02*
X17135000Y-3135000D01*
X17135000Y-3105000D02*
X17105000Y-3135000D01*
X17105000Y-3205000D02*
X17135000Y-3235000D01*
X17135000Y-3205000D02*
X17105000Y-3235000D01*
X17635000Y-6025000D02*
X17665000Y-6055000D01*
X17665000Y-6025000D02*
X17635000Y-6055000D01*
X18145000Y-7005000D02*
X18175000Y-7035000D01*
X18175000Y-7005000D02*
X18145000Y-7035000D01*
X18205000Y-4575000D02*
X18235000Y-4605000D01*
X18235000Y-4575000D02*
X18205000Y-4605000D01*
X18205000Y-4665000D02*
X18235000Y-4695000D01*
X18235000Y-4665000D02*
X18205000Y-4695000D01*
X18205000Y-4755000D02*
X18235000Y-4785000D01*
X18235000Y-4755000D02*
X18205000Y-4785000D01*
X18205000Y-4855000D02*
X18235000Y-4885000D01*
X18235000Y-4855000D02*
X18205000Y-4885000D01*
X18385000Y-7065000D02*
X18415000Y-7095000D01*
X18415000Y-7065000D02*
X18385000Y-7095000D01*
X18385000Y-8885000D02*
X18415000Y-8915000D01*
X18415000Y-8885000D02*
X18385000Y-8915000D01*
X17303500Y-4260000D02*
G75*
G02*
X17228500Y-4260000I-37500J0D01*
G01*
X17228500Y-4260000D02*
G75*
G02*
X17303500Y-4260000I37500J0D01*
G01*
X17430500Y-4260000D02*
G75*
G02*
X17355500Y-4260000I-37500J0D01*
G01*
X17355500Y-4260000D02*
G75*
G02*
X17430500Y-4260000I37500J0D01*
G01*
X17557500Y-4260000D02*
G75*
G02*
X17482500Y-4260000I-37500J0D01*
G01*
X17482500Y-4260000D02*
G75*
G02*
X17557500Y-4260000I37500J0D01*
G01*
X18750000Y-5905900D02*
X18750000Y-5982100D01*
X18711900Y-5944000D02*
X18788100Y-5944000D01*
X18750000Y-6159900D02*
X18750000Y-6236100D01*
X18711900Y-6198000D02*
X18788100Y-6198000D01*
X18750000Y-6413900D02*
X18750000Y-6490100D01*
X18711900Y-6452000D02*
X18788100Y-6452000D01*
X18750000Y-6667900D02*
X18750000Y-6744100D01*
X18711900Y-6706000D02*
X18788100Y-6706000D01*
X18750000Y-6921900D02*
X18750000Y-6998100D01*
X18711900Y-6960000D02*
X18788100Y-6960000D01*
X18750000Y-7175900D02*
X18750000Y-7252100D01*
X18711900Y-7214000D02*
X18788100Y-7214000D01*
X18750000Y-7429900D02*
X18750000Y-7506100D01*
X18711900Y-7468000D02*
X18788100Y-7468000D01*
X18750000Y-7683900D02*
X18750000Y-7760100D01*
X18711900Y-7722000D02*
X18788100Y-7722000D01*
X18750000Y-7937900D02*
X18750000Y-8014100D01*
X18711900Y-7976000D02*
X18788100Y-7976000D01*
X18750000Y-8191900D02*
X18750000Y-8268100D01*
X18711900Y-8230000D02*
X18788100Y-8230000D01*
X18750000Y-8445900D02*
X18750000Y-8522100D01*
X18711900Y-8484000D02*
X18788100Y-8484000D01*
X18750000Y-8699900D02*
X18750000Y-8776100D01*
X18711900Y-8738000D02*
X18788100Y-8738000D01*
X18750000Y-8953900D02*
X18750000Y-9030100D01*
X18711900Y-8992000D02*
X18788100Y-8992000D01*
X18750000Y-9207900D02*
X18750000Y-9284100D01*
X18711900Y-9246000D02*
X18788100Y-9246000D01*
X18750000Y-9461900D02*
X18750000Y-9538100D01*
X18711900Y-9500000D02*
X18788100Y-9500000D01*
X19300000Y-5905900D02*
X19300000Y-5982100D01*
X19261900Y-5944000D02*
X19338100Y-5944000D01*
X19300000Y-6159900D02*
X19300000Y-6236100D01*
X19261900Y-6198000D02*
X19338100Y-6198000D01*
X19300000Y-6413900D02*
X19300000Y-6490100D01*
X19261900Y-6452000D02*
X19338100Y-6452000D01*
X19300000Y-6667900D02*
X19300000Y-6744100D01*
X19261900Y-6706000D02*
X19338100Y-6706000D01*
X19300000Y-6921900D02*
X19300000Y-6998100D01*
X19261900Y-6960000D02*
X19338100Y-6960000D01*
X19300000Y-7175900D02*
X19300000Y-7252100D01*
X19261900Y-7214000D02*
X19338100Y-7214000D01*
X19300000Y-7429900D02*
X19300000Y-7506100D01*
X19261900Y-7468000D02*
X19338100Y-7468000D01*
X19300000Y-7683900D02*
X19300000Y-7760100D01*
X19261900Y-7722000D02*
X19338100Y-7722000D01*
X19300000Y-7937900D02*
X19300000Y-8014100D01*
X19261900Y-7976000D02*
X19338100Y-7976000D01*
X19300000Y-8191900D02*
X19300000Y-8268100D01*
X19261900Y-8230000D02*
X19338100Y-8230000D01*
X19300000Y-8445900D02*
X19300000Y-8522100D01*
X19261900Y-8484000D02*
X19338100Y-8484000D01*
X19300000Y-8699900D02*
X19300000Y-8776100D01*
X19261900Y-8738000D02*
X19338100Y-8738000D01*
X19300000Y-8953900D02*
X19300000Y-9030100D01*
X19261900Y-8992000D02*
X19338100Y-8992000D01*
X19300000Y-9207900D02*
X19300000Y-9284100D01*
X19261900Y-9246000D02*
X19338100Y-9246000D01*
X19300000Y-9461900D02*
X19300000Y-9538100D01*
X19261900Y-9500000D02*
X19338100Y-9500000D01*
X13816284Y-7380284D02*
X13816284Y-7323715D01*
X13759715Y-7323715D01*
X13759715Y-7380284D01*
X13816284Y-7380284D01*
X13816284Y-7634284D02*
X13816284Y-7577715D01*
X13759715Y-7577715D01*
X13759715Y-7634284D01*
X13816284Y-7634284D01*
X13816284Y-7888284D02*
X13816284Y-7831715D01*
X13759715Y-7831715D01*
X13759715Y-7888284D01*
X13816284Y-7888284D01*
X13816284Y-8142284D02*
X13816284Y-8085715D01*
X13759715Y-8085715D01*
X13759715Y-8142284D01*
X13816284Y-8142284D01*
X13816284Y-8396285D02*
X13816284Y-8339715D01*
X13759715Y-8339715D01*
X13759715Y-8396285D01*
X13816284Y-8396285D01*
X13816284Y-8650285D02*
X13816284Y-8593716D01*
X13759715Y-8593716D01*
X13759715Y-8650285D01*
X13816284Y-8650285D01*
X13816284Y-8904285D02*
X13816284Y-8847716D01*
X13759715Y-8847716D01*
X13759715Y-8904285D01*
X13816284Y-8904285D01*
X13816284Y-9158285D02*
X13816284Y-9101716D01*
X13759715Y-9101716D01*
X13759715Y-9158285D01*
X13816284Y-9158285D01*
X13986284Y-7080284D02*
X13986284Y-7023715D01*
X13929715Y-7023715D01*
X13929715Y-7080284D01*
X13986284Y-7080284D01*
X14486284Y-7080284D02*
X14486284Y-7023715D01*
X14429715Y-7023715D01*
X14429715Y-7080284D01*
X14486284Y-7080284D01*
X14578284Y-7380284D02*
X14578284Y-7323715D01*
X14521715Y-7323715D01*
X14521715Y-7380284D01*
X14578284Y-7380284D01*
X14578284Y-7634284D02*
X14578284Y-7577715D01*
X14521715Y-7577715D01*
X14521715Y-7634284D01*
X14578284Y-7634284D01*
X14578284Y-7888284D02*
X14578284Y-7831715D01*
X14521715Y-7831715D01*
X14521715Y-7888284D01*
X14578284Y-7888284D01*
X14578284Y-8142284D02*
X14578284Y-8085715D01*
X14521715Y-8085715D01*
X14521715Y-8142284D01*
X14578284Y-8142284D01*
X14578284Y-8396285D02*
X14578284Y-8339715D01*
X14521715Y-8339715D01*
X14521715Y-8396285D01*
X14578284Y-8396285D01*
X14578284Y-8650285D02*
X14578284Y-8593716D01*
X14521715Y-8593716D01*
X14521715Y-8650285D01*
X14578284Y-8650285D01*
X14578284Y-8904285D02*
X14578284Y-8847716D01*
X14521715Y-8847716D01*
X14521715Y-8904285D01*
X14578284Y-8904285D01*
X14578284Y-9158285D02*
X14578284Y-9101716D01*
X14521715Y-9101716D01*
X14521715Y-9158285D01*
X14578284Y-9158285D01*
X14880284Y-4938285D02*
X14880284Y-4881716D01*
X14823715Y-4881716D01*
X14823715Y-4938285D01*
X14880284Y-4938285D01*
X15298284Y-3668284D02*
X15298284Y-3611715D01*
X15241715Y-3611715D01*
X15241715Y-3668284D01*
X15298284Y-3668284D01*
X15798284Y-3668284D02*
X15798284Y-3611715D01*
X15741715Y-3611715D01*
X15741715Y-3668284D01*
X15798284Y-3668284D01*
X15856284Y-7312284D02*
X15856284Y-7255715D01*
X15799715Y-7255715D01*
X15799715Y-7312284D01*
X15856284Y-7312284D01*
X15856284Y-7566284D02*
X15856284Y-7509715D01*
X15799715Y-7509715D01*
X15799715Y-7566284D01*
X15856284Y-7566284D01*
X15856284Y-7820284D02*
X15856284Y-7763715D01*
X15799715Y-7763715D01*
X15799715Y-7820284D01*
X15856284Y-7820284D01*
X15856284Y-8074284D02*
X15856284Y-8017715D01*
X15799715Y-8017715D01*
X15799715Y-8074284D01*
X15856284Y-8074284D01*
X15856284Y-8328284D02*
X15856284Y-8271715D01*
X15799715Y-8271715D01*
X15799715Y-8328284D01*
X15856284Y-8328284D01*
X15856284Y-8582285D02*
X15856284Y-8525716D01*
X15799715Y-8525716D01*
X15799715Y-8582285D01*
X15856284Y-8582285D01*
X15856284Y-8836285D02*
X15856284Y-8779716D01*
X15799715Y-8779716D01*
X15799715Y-8836285D01*
X15856284Y-8836285D01*
X15856284Y-9090285D02*
X15856284Y-9033716D01*
X15799715Y-9033716D01*
X15799715Y-9090285D01*
X15856284Y-9090285D01*
X15856284Y-9344285D02*
X15856284Y-9287716D01*
X15799715Y-9287716D01*
X15799715Y-9344285D01*
X15856284Y-9344285D01*
X15856284Y-9598285D02*
X15856284Y-9541716D01*
X15799715Y-9541716D01*
X15799715Y-9598285D01*
X15856284Y-9598285D01*
X15896284Y-4938285D02*
X15896284Y-4881716D01*
X15839715Y-4881716D01*
X15839715Y-4938285D01*
X15896284Y-4938285D01*
X15988284Y-7014284D02*
X15988284Y-6957715D01*
X15931715Y-6957715D01*
X15931715Y-7014284D01*
X15988284Y-7014284D01*
X16488284Y-7014284D02*
X16488284Y-6957715D01*
X16431715Y-6957715D01*
X16431715Y-7014284D01*
X16488284Y-7014284D01*
X16618284Y-7312284D02*
X16618284Y-7255715D01*
X16561715Y-7255715D01*
X16561715Y-7312284D01*
X16618284Y-7312284D01*
X16618284Y-7566284D02*
X16618284Y-7509715D01*
X16561715Y-7509715D01*
X16561715Y-7566284D01*
X16618284Y-7566284D01*
X16618284Y-7820284D02*
X16618284Y-7763715D01*
X16561715Y-7763715D01*
X16561715Y-7820284D01*
X16618284Y-7820284D01*
X16618284Y-8074284D02*
X16618284Y-8017715D01*
X16561715Y-8017715D01*
X16561715Y-8074284D01*
X16618284Y-8074284D01*
X16618284Y-8328284D02*
X16618284Y-8271715D01*
X16561715Y-8271715D01*
X16561715Y-8328284D01*
X16618284Y-8328284D01*
X16618284Y-8582285D02*
X16618284Y-8525716D01*
X16561715Y-8525716D01*
X16561715Y-8582285D01*
X16618284Y-8582285D01*
X16618284Y-8836285D02*
X16618284Y-8779716D01*
X16561715Y-8779716D01*
X16561715Y-8836285D01*
X16618284Y-8836285D01*
X16618284Y-9090285D02*
X16618284Y-9033716D01*
X16561715Y-9033716D01*
X16561715Y-9090285D01*
X16618284Y-9090285D01*
X16618284Y-9344285D02*
X16618284Y-9287716D01*
X16561715Y-9287716D01*
X16561715Y-9344285D01*
X16618284Y-9344285D01*
X16618284Y-9598285D02*
X16618284Y-9541716D01*
X16561715Y-9541716D01*
X16561715Y-9598285D01*
X16618284Y-9598285D01*
X17818285Y-7240284D02*
X17818285Y-7183715D01*
X17761716Y-7183715D01*
X17761716Y-7240284D01*
X17818285Y-7240284D01*
X17818285Y-7494284D02*
X17818285Y-7437715D01*
X17761716Y-7437715D01*
X17761716Y-7494284D01*
X17818285Y-7494284D01*
X17818285Y-7748284D02*
X17818285Y-7691715D01*
X17761716Y-7691715D01*
X17761716Y-7748284D01*
X17818285Y-7748284D01*
X17818285Y-8002284D02*
X17818285Y-7945715D01*
X17761716Y-7945715D01*
X17761716Y-8002284D01*
X17818285Y-8002284D01*
X17818285Y-8256284D02*
X17818285Y-8199715D01*
X17761716Y-8199715D01*
X17761716Y-8256284D01*
X17818285Y-8256284D01*
X17818285Y-8510285D02*
X17818285Y-8453716D01*
X17761716Y-8453716D01*
X17761716Y-8510285D01*
X17818285Y-8510285D01*
X17818285Y-8764285D02*
X17818285Y-8707716D01*
X17761716Y-8707716D01*
X17761716Y-8764285D01*
X17818285Y-8764285D01*
X17818285Y-9018285D02*
X17818285Y-8961716D01*
X17761716Y-8961716D01*
X17761716Y-9018285D01*
X17818285Y-9018285D01*
X13580000Y-3457500D02*
X13625500Y-3412000D01*
X13580000Y-3366500D01*
X13534500Y-3412000D01*
X13580000Y-3457500D01*
X13580000Y-3711500D02*
X13625500Y-3666000D01*
X13580000Y-3620500D01*
X13534500Y-3666000D01*
X13580000Y-3711500D01*
X13580000Y-3965500D02*
X13625500Y-3920000D01*
X13580000Y-3874500D01*
X13534500Y-3920000D01*
X13580000Y-3965500D01*
X13580000Y-4219500D02*
X13625500Y-4174000D01*
X13580000Y-4128500D01*
X13534500Y-4174000D01*
X13580000Y-4219500D01*
X13580000Y-4473500D02*
X13625500Y-4428000D01*
X13580000Y-4382500D01*
X13534500Y-4428000D01*
X13580000Y-4473500D01*
X13834000Y-3457500D02*
X13879500Y-3412000D01*
X13834000Y-3366500D01*
X13788500Y-3412000D01*
X13834000Y-3457500D01*
X13834000Y-3711500D02*
X13879500Y-3666000D01*
X13834000Y-3620500D01*
X13788500Y-3666000D01*
X13834000Y-3711500D01*
X13834000Y-3965500D02*
X13879500Y-3920000D01*
X13834000Y-3874500D01*
X13788500Y-3920000D01*
X13834000Y-3965500D01*
X13834000Y-4219500D02*
X13879500Y-4174000D01*
X13834000Y-4128500D01*
X13788500Y-4174000D01*
X13834000Y-4219500D01*
X13834000Y-4473500D02*
X13879500Y-4428000D01*
X13834000Y-4382500D01*
X13788500Y-4428000D01*
X13834000Y-4473500D01*
X19160000Y-3453500D02*
X19205500Y-3408000D01*
X19160000Y-3362500D01*
X19114500Y-3408000D01*
X19160000Y-3453500D01*
X19160000Y-3707500D02*
X19205500Y-3662000D01*
X19160000Y-3616500D01*
X19114500Y-3662000D01*
X19160000Y-3707500D01*
X19160000Y-3961500D02*
X19205500Y-3916000D01*
X19160000Y-3870500D01*
X19114500Y-3916000D01*
X19160000Y-3961500D01*
X19160000Y-4215500D02*
X19205500Y-4170000D01*
X19160000Y-4124500D01*
X19114500Y-4170000D01*
X19160000Y-4215500D01*
X19160000Y-4469500D02*
X19205500Y-4424000D01*
X19160000Y-4378500D01*
X19114500Y-4424000D01*
X19160000Y-4469500D01*
X19414000Y-3453500D02*
X19459500Y-3408000D01*
X19414000Y-3362500D01*
X19368500Y-3408000D01*
X19414000Y-3453500D01*
X19414000Y-3707500D02*
X19459500Y-3662000D01*
X19414000Y-3616500D01*
X19368500Y-3662000D01*
X19414000Y-3707500D01*
X19414000Y-3961500D02*
X19459500Y-3916000D01*
X19414000Y-3870500D01*
X19368500Y-3916000D01*
X19414000Y-3961500D01*
X19414000Y-4215500D02*
X19459500Y-4170000D01*
X19414000Y-4124500D01*
X19368500Y-4170000D01*
X19414000Y-4215500D01*
X19414000Y-4469500D02*
X19459500Y-4424000D01*
X19414000Y-4378500D01*
X19368500Y-4424000D01*
X19414000Y-4469500D01*
D13*
X16364000Y-5600000D02*
X16484000Y-5720000D01*
X16484000Y-5600000D02*
X16364000Y-5720000D01*
X16484000Y-5660000D02*
G75*
G02*
X16364000Y-5660000I-60000J0D01*
G01*
X16364000Y-5660000D02*
G75*
G02*
X16484000Y-5660000I60000J0D01*
G01*
X17380000Y-5600000D02*
X17500000Y-5720000D01*
X17500000Y-5600000D02*
X17380000Y-5720000D01*
X17500000Y-5660000D02*
G75*
G02*
X17380000Y-5660000I-60000J0D01*
G01*
X17380000Y-5660000D02*
G75*
G02*
X17500000Y-5660000I60000J0D01*
G01*
D14*
X13411000Y-10377500D02*
X13581000Y-10547500D01*
X13581000Y-10377500D02*
X13411000Y-10547500D01*
X13496000Y-10377500D02*
X13496000Y-10547500D01*
X13411000Y-10462500D02*
X13581000Y-10462500D01*
X13807000Y-10377500D02*
X13977000Y-10547500D01*
X13977000Y-10377500D02*
X13807000Y-10547500D01*
X13892000Y-10377500D02*
X13892000Y-10547500D01*
X13807000Y-10462500D02*
X13977000Y-10462500D01*
X14203000Y-10377500D02*
X14373000Y-10547500D01*
X14373000Y-10377500D02*
X14203000Y-10547500D01*
X14288000Y-10377500D02*
X14288000Y-10547500D01*
X14203000Y-10462500D02*
X14373000Y-10462500D01*
X14599000Y-10377500D02*
X14769000Y-10547500D01*
X14769000Y-10377500D02*
X14599000Y-10547500D01*
X14684000Y-10377500D02*
X14684000Y-10547500D01*
X14599000Y-10462500D02*
X14769000Y-10462500D01*
X18201000Y-10377500D02*
X18371000Y-10547500D01*
X18371000Y-10377500D02*
X18201000Y-10547500D01*
X18286000Y-10377500D02*
X18286000Y-10547500D01*
X18201000Y-10462500D02*
X18371000Y-10462500D01*
X18597000Y-10377500D02*
X18767000Y-10547500D01*
X18767000Y-10377500D02*
X18597000Y-10547500D01*
X18682000Y-10377500D02*
X18682000Y-10547500D01*
X18597000Y-10462500D02*
X18767000Y-10462500D01*
X18993000Y-10377500D02*
X19163000Y-10547500D01*
X19163000Y-10377500D02*
X18993000Y-10547500D01*
X19078000Y-10377500D02*
X19078000Y-10547500D01*
X18993000Y-10462500D02*
X19163000Y-10462500D01*
X19389000Y-10377500D02*
X19559000Y-10547500D01*
X19559000Y-10377500D02*
X19389000Y-10547500D01*
X19474000Y-10377500D02*
X19474000Y-10547500D01*
X19389000Y-10462500D02*
X19559000Y-10462500D01*
D11*
X13258277Y-12313984D02*
X13258277Y-12113984D01*
X13258277Y-12113984D02*
X13305896Y-12113984D01*
X13305896Y-12113984D02*
X13334467Y-12123508D01*
X13334467Y-12123508D02*
X13353515Y-12142555D01*
X13353515Y-12142555D02*
X13363039Y-12161603D01*
X13363039Y-12161603D02*
X13372562Y-12199698D01*
X13372562Y-12199698D02*
X13372562Y-12228269D01*
X13372562Y-12228269D02*
X13363039Y-12266365D01*
X13363039Y-12266365D02*
X13353515Y-12285412D01*
X13353515Y-12285412D02*
X13334467Y-12304460D01*
X13334467Y-12304460D02*
X13305896Y-12313984D01*
X13305896Y-12313984D02*
X13258277Y-12313984D01*
X13458277Y-12313984D02*
X13458277Y-12180650D01*
X13458277Y-12218746D02*
X13467801Y-12199698D01*
X13467801Y-12199698D02*
X13477324Y-12190174D01*
X13477324Y-12190174D02*
X13496372Y-12180650D01*
X13496372Y-12180650D02*
X13515420Y-12180650D01*
X13582086Y-12313984D02*
X13582086Y-12180650D01*
X13582086Y-12113984D02*
X13572562Y-12123508D01*
X13572562Y-12123508D02*
X13582086Y-12133031D01*
X13582086Y-12133031D02*
X13591610Y-12123508D01*
X13591610Y-12123508D02*
X13582086Y-12113984D01*
X13582086Y-12113984D02*
X13582086Y-12133031D01*
X13705896Y-12313984D02*
X13686848Y-12304460D01*
X13686848Y-12304460D02*
X13677324Y-12285412D01*
X13677324Y-12285412D02*
X13677324Y-12113984D01*
X13810658Y-12313984D02*
X13791610Y-12304460D01*
X13791610Y-12304460D02*
X13782086Y-12285412D01*
X13782086Y-12285412D02*
X13782086Y-12113984D01*
X14039229Y-12313984D02*
X14039229Y-12113984D01*
X14039229Y-12113984D02*
X14105896Y-12256841D01*
X14105896Y-12256841D02*
X14172562Y-12113984D01*
X14172562Y-12113984D02*
X14172562Y-12313984D01*
X14353515Y-12313984D02*
X14353515Y-12209222D01*
X14353515Y-12209222D02*
X14343991Y-12190174D01*
X14343991Y-12190174D02*
X14324943Y-12180650D01*
X14324943Y-12180650D02*
X14286848Y-12180650D01*
X14286848Y-12180650D02*
X14267801Y-12190174D01*
X14353515Y-12304460D02*
X14334467Y-12313984D01*
X14334467Y-12313984D02*
X14286848Y-12313984D01*
X14286848Y-12313984D02*
X14267801Y-12304460D01*
X14267801Y-12304460D02*
X14258277Y-12285412D01*
X14258277Y-12285412D02*
X14258277Y-12266365D01*
X14258277Y-12266365D02*
X14267801Y-12247317D01*
X14267801Y-12247317D02*
X14286848Y-12237793D01*
X14286848Y-12237793D02*
X14334467Y-12237793D01*
X14334467Y-12237793D02*
X14353515Y-12228269D01*
X14448753Y-12180650D02*
X14448753Y-12380650D01*
X14448753Y-12190174D02*
X14467801Y-12180650D01*
X14467801Y-12180650D02*
X14505896Y-12180650D01*
X14505896Y-12180650D02*
X14524943Y-12190174D01*
X14524943Y-12190174D02*
X14534467Y-12199698D01*
X14534467Y-12199698D02*
X14543991Y-12218746D01*
X14543991Y-12218746D02*
X14543991Y-12275888D01*
X14543991Y-12275888D02*
X14534467Y-12294936D01*
X14534467Y-12294936D02*
X14524943Y-12304460D01*
X14524943Y-12304460D02*
X14505896Y-12313984D01*
X14505896Y-12313984D02*
X14467801Y-12313984D01*
X14467801Y-12313984D02*
X14448753Y-12304460D01*
X14629705Y-12294936D02*
X14639229Y-12304460D01*
X14639229Y-12304460D02*
X14629705Y-12313984D01*
X14629705Y-12313984D02*
X14620182Y-12304460D01*
X14620182Y-12304460D02*
X14629705Y-12294936D01*
X14629705Y-12294936D02*
X14629705Y-12313984D01*
X14629705Y-12190174D02*
X14639229Y-12199698D01*
X14639229Y-12199698D02*
X14629705Y-12209222D01*
X14629705Y-12209222D02*
X14620182Y-12199698D01*
X14620182Y-12199698D02*
X14629705Y-12190174D01*
X14629705Y-12190174D02*
X14629705Y-12209222D01*
D12*
X12967500Y-12627500D02*
X12997500Y-12657500D01*
X12997500Y-12627500D02*
X12967500Y-12657500D01*
D11*
X13296372Y-12533984D02*
X13315420Y-12533984D01*
X13315420Y-12533984D02*
X13334467Y-12543508D01*
X13334467Y-12543508D02*
X13343991Y-12553031D01*
X13343991Y-12553031D02*
X13353515Y-12572079D01*
X13353515Y-12572079D02*
X13363039Y-12610174D01*
X13363039Y-12610174D02*
X13363039Y-12657793D01*
X13363039Y-12657793D02*
X13353515Y-12695888D01*
X13353515Y-12695888D02*
X13343991Y-12714936D01*
X13343991Y-12714936D02*
X13334467Y-12724460D01*
X13334467Y-12724460D02*
X13315420Y-12733984D01*
X13315420Y-12733984D02*
X13296372Y-12733984D01*
X13296372Y-12733984D02*
X13277324Y-12724460D01*
X13277324Y-12724460D02*
X13267801Y-12714936D01*
X13267801Y-12714936D02*
X13258277Y-12695888D01*
X13258277Y-12695888D02*
X13248753Y-12657793D01*
X13248753Y-12657793D02*
X13248753Y-12610174D01*
X13248753Y-12610174D02*
X13258277Y-12572079D01*
X13258277Y-12572079D02*
X13267801Y-12553031D01*
X13267801Y-12553031D02*
X13277324Y-12543508D01*
X13277324Y-12543508D02*
X13296372Y-12533984D01*
X13448753Y-12714936D02*
X13458277Y-12724460D01*
X13458277Y-12724460D02*
X13448753Y-12733984D01*
X13448753Y-12733984D02*
X13439229Y-12724460D01*
X13439229Y-12724460D02*
X13448753Y-12714936D01*
X13448753Y-12714936D02*
X13448753Y-12733984D01*
X13524943Y-12533984D02*
X13648753Y-12533984D01*
X13648753Y-12533984D02*
X13582086Y-12610174D01*
X13582086Y-12610174D02*
X13610658Y-12610174D01*
X13610658Y-12610174D02*
X13629705Y-12619698D01*
X13629705Y-12619698D02*
X13639229Y-12629222D01*
X13639229Y-12629222D02*
X13648753Y-12648269D01*
X13648753Y-12648269D02*
X13648753Y-12695888D01*
X13648753Y-12695888D02*
X13639229Y-12714936D01*
X13639229Y-12714936D02*
X13629705Y-12724460D01*
X13629705Y-12724460D02*
X13610658Y-12733984D01*
X13610658Y-12733984D02*
X13553515Y-12733984D01*
X13553515Y-12733984D02*
X13534467Y-12724460D01*
X13534467Y-12724460D02*
X13524943Y-12714936D01*
X13772562Y-12533984D02*
X13791610Y-12533984D01*
X13791610Y-12533984D02*
X13810658Y-12543508D01*
X13810658Y-12543508D02*
X13820182Y-12553031D01*
X13820182Y-12553031D02*
X13829705Y-12572079D01*
X13829705Y-12572079D02*
X13839229Y-12610174D01*
X13839229Y-12610174D02*
X13839229Y-12657793D01*
X13839229Y-12657793D02*
X13829705Y-12695888D01*
X13829705Y-12695888D02*
X13820182Y-12714936D01*
X13820182Y-12714936D02*
X13810658Y-12724460D01*
X13810658Y-12724460D02*
X13791610Y-12733984D01*
X13791610Y-12733984D02*
X13772562Y-12733984D01*
X13772562Y-12733984D02*
X13753515Y-12724460D01*
X13753515Y-12724460D02*
X13743991Y-12714936D01*
X13743991Y-12714936D02*
X13734467Y-12695888D01*
X13734467Y-12695888D02*
X13724943Y-12657793D01*
X13724943Y-12657793D02*
X13724943Y-12610174D01*
X13724943Y-12610174D02*
X13734467Y-12572079D01*
X13734467Y-12572079D02*
X13743991Y-12553031D01*
X13743991Y-12553031D02*
X13753515Y-12543508D01*
X13753515Y-12543508D02*
X13772562Y-12533984D01*
X13963039Y-12533984D02*
X13982086Y-12533984D01*
X13982086Y-12533984D02*
X14001134Y-12543508D01*
X14001134Y-12543508D02*
X14010658Y-12553031D01*
X14010658Y-12553031D02*
X14020182Y-12572079D01*
X14020182Y-12572079D02*
X14029705Y-12610174D01*
X14029705Y-12610174D02*
X14029705Y-12657793D01*
X14029705Y-12657793D02*
X14020182Y-12695888D01*
X14020182Y-12695888D02*
X14010658Y-12714936D01*
X14010658Y-12714936D02*
X14001134Y-12724460D01*
X14001134Y-12724460D02*
X13982086Y-12733984D01*
X13982086Y-12733984D02*
X13963039Y-12733984D01*
X13963039Y-12733984D02*
X13943991Y-12724460D01*
X13943991Y-12724460D02*
X13934467Y-12714936D01*
X13934467Y-12714936D02*
X13924943Y-12695888D01*
X13924943Y-12695888D02*
X13915420Y-12657793D01*
X13915420Y-12657793D02*
X13915420Y-12610174D01*
X13915420Y-12610174D02*
X13924943Y-12572079D01*
X13924943Y-12572079D02*
X13934467Y-12553031D01*
X13934467Y-12553031D02*
X13943991Y-12543508D01*
X13943991Y-12543508D02*
X13963039Y-12533984D01*
X14115420Y-12733984D02*
X14115420Y-12600650D01*
X14115420Y-12619698D02*
X14124943Y-12610174D01*
X14124943Y-12610174D02*
X14143991Y-12600650D01*
X14143991Y-12600650D02*
X14172563Y-12600650D01*
X14172563Y-12600650D02*
X14191610Y-12610174D01*
X14191610Y-12610174D02*
X14201134Y-12629222D01*
X14201134Y-12629222D02*
X14201134Y-12733984D01*
X14201134Y-12629222D02*
X14210658Y-12610174D01*
X14210658Y-12610174D02*
X14229705Y-12600650D01*
X14229705Y-12600650D02*
X14258277Y-12600650D01*
X14258277Y-12600650D02*
X14277324Y-12610174D01*
X14277324Y-12610174D02*
X14286848Y-12629222D01*
X14286848Y-12629222D02*
X14286848Y-12733984D01*
X14382086Y-12733984D02*
X14382086Y-12600650D01*
X14382086Y-12619698D02*
X14391610Y-12610174D01*
X14391610Y-12610174D02*
X14410658Y-12600650D01*
X14410658Y-12600650D02*
X14439229Y-12600650D01*
X14439229Y-12600650D02*
X14458277Y-12610174D01*
X14458277Y-12610174D02*
X14467801Y-12629222D01*
X14467801Y-12629222D02*
X14467801Y-12733984D01*
X14467801Y-12629222D02*
X14477324Y-12610174D01*
X14477324Y-12610174D02*
X14496372Y-12600650D01*
X14496372Y-12600650D02*
X14524943Y-12600650D01*
X14524943Y-12600650D02*
X14543991Y-12610174D01*
X14543991Y-12610174D02*
X14553515Y-12629222D01*
X14553515Y-12629222D02*
X14553515Y-12733984D01*
X14943991Y-12524460D02*
X14772563Y-12781603D01*
X15201134Y-12533984D02*
X15220182Y-12533984D01*
X15220182Y-12533984D02*
X15239229Y-12543508D01*
X15239229Y-12543508D02*
X15248753Y-12553031D01*
X15248753Y-12553031D02*
X15258277Y-12572079D01*
X15258277Y-12572079D02*
X15267801Y-12610174D01*
X15267801Y-12610174D02*
X15267801Y-12657793D01*
X15267801Y-12657793D02*
X15258277Y-12695888D01*
X15258277Y-12695888D02*
X15248753Y-12714936D01*
X15248753Y-12714936D02*
X15239229Y-12724460D01*
X15239229Y-12724460D02*
X15220182Y-12733984D01*
X15220182Y-12733984D02*
X15201134Y-12733984D01*
X15201134Y-12733984D02*
X15182086Y-12724460D01*
X15182086Y-12724460D02*
X15172563Y-12714936D01*
X15172563Y-12714936D02*
X15163039Y-12695888D01*
X15163039Y-12695888D02*
X15153515Y-12657793D01*
X15153515Y-12657793D02*
X15153515Y-12610174D01*
X15153515Y-12610174D02*
X15163039Y-12572079D01*
X15163039Y-12572079D02*
X15172563Y-12553031D01*
X15172563Y-12553031D02*
X15182086Y-12543508D01*
X15182086Y-12543508D02*
X15201134Y-12533984D01*
X15353515Y-12714936D02*
X15363039Y-12724460D01*
X15363039Y-12724460D02*
X15353515Y-12733984D01*
X15353515Y-12733984D02*
X15343991Y-12724460D01*
X15343991Y-12724460D02*
X15353515Y-12714936D01*
X15353515Y-12714936D02*
X15353515Y-12733984D01*
X15486848Y-12533984D02*
X15505896Y-12533984D01*
X15505896Y-12533984D02*
X15524944Y-12543508D01*
X15524944Y-12543508D02*
X15534467Y-12553031D01*
X15534467Y-12553031D02*
X15543991Y-12572079D01*
X15543991Y-12572079D02*
X15553515Y-12610174D01*
X15553515Y-12610174D02*
X15553515Y-12657793D01*
X15553515Y-12657793D02*
X15543991Y-12695888D01*
X15543991Y-12695888D02*
X15534467Y-12714936D01*
X15534467Y-12714936D02*
X15524944Y-12724460D01*
X15524944Y-12724460D02*
X15505896Y-12733984D01*
X15505896Y-12733984D02*
X15486848Y-12733984D01*
X15486848Y-12733984D02*
X15467801Y-12724460D01*
X15467801Y-12724460D02*
X15458277Y-12714936D01*
X15458277Y-12714936D02*
X15448753Y-12695888D01*
X15448753Y-12695888D02*
X15439229Y-12657793D01*
X15439229Y-12657793D02*
X15439229Y-12610174D01*
X15439229Y-12610174D02*
X15448753Y-12572079D01*
X15448753Y-12572079D02*
X15458277Y-12553031D01*
X15458277Y-12553031D02*
X15467801Y-12543508D01*
X15467801Y-12543508D02*
X15486848Y-12533984D01*
X15743991Y-12733984D02*
X15629706Y-12733984D01*
X15686848Y-12733984D02*
X15686848Y-12533984D01*
X15686848Y-12533984D02*
X15667801Y-12562555D01*
X15667801Y-12562555D02*
X15648753Y-12581603D01*
X15648753Y-12581603D02*
X15629706Y-12591127D01*
X15934467Y-12733984D02*
X15820182Y-12733984D01*
X15877325Y-12733984D02*
X15877325Y-12533984D01*
X15877325Y-12533984D02*
X15858277Y-12562555D01*
X15858277Y-12562555D02*
X15839229Y-12581603D01*
X15839229Y-12581603D02*
X15820182Y-12591127D01*
X16048753Y-12619698D02*
X16029706Y-12610174D01*
X16029706Y-12610174D02*
X16020182Y-12600650D01*
X16020182Y-12600650D02*
X16010658Y-12581603D01*
X16010658Y-12581603D02*
X16010658Y-12572079D01*
X16010658Y-12572079D02*
X16020182Y-12553031D01*
X16020182Y-12553031D02*
X16029706Y-12543508D01*
X16029706Y-12543508D02*
X16048753Y-12533984D01*
X16048753Y-12533984D02*
X16086848Y-12533984D01*
X16086848Y-12533984D02*
X16105896Y-12543508D01*
X16105896Y-12543508D02*
X16115420Y-12553031D01*
X16115420Y-12553031D02*
X16124944Y-12572079D01*
X16124944Y-12572079D02*
X16124944Y-12581603D01*
X16124944Y-12581603D02*
X16115420Y-12600650D01*
X16115420Y-12600650D02*
X16105896Y-12610174D01*
X16105896Y-12610174D02*
X16086848Y-12619698D01*
X16086848Y-12619698D02*
X16048753Y-12619698D01*
X16048753Y-12619698D02*
X16029706Y-12629222D01*
X16029706Y-12629222D02*
X16020182Y-12638746D01*
X16020182Y-12638746D02*
X16010658Y-12657793D01*
X16010658Y-12657793D02*
X16010658Y-12695888D01*
X16010658Y-12695888D02*
X16020182Y-12714936D01*
X16020182Y-12714936D02*
X16029706Y-12724460D01*
X16029706Y-12724460D02*
X16048753Y-12733984D01*
X16048753Y-12733984D02*
X16086848Y-12733984D01*
X16086848Y-12733984D02*
X16105896Y-12724460D01*
X16105896Y-12724460D02*
X16115420Y-12714936D01*
X16115420Y-12714936D02*
X16124944Y-12695888D01*
X16124944Y-12695888D02*
X16124944Y-12657793D01*
X16124944Y-12657793D02*
X16115420Y-12638746D01*
X16115420Y-12638746D02*
X16105896Y-12629222D01*
X16105896Y-12629222D02*
X16086848Y-12619698D01*
X16201134Y-12533984D02*
X16201134Y-12572079D01*
X16277325Y-12533984D02*
X16277325Y-12572079D01*
X16572563Y-12810174D02*
X16563039Y-12800650D01*
X16563039Y-12800650D02*
X16543991Y-12772079D01*
X16543991Y-12772079D02*
X16534468Y-12753031D01*
X16534468Y-12753031D02*
X16524944Y-12724460D01*
X16524944Y-12724460D02*
X16515420Y-12676841D01*
X16515420Y-12676841D02*
X16515420Y-12638746D01*
X16515420Y-12638746D02*
X16524944Y-12591127D01*
X16524944Y-12591127D02*
X16534468Y-12562555D01*
X16534468Y-12562555D02*
X16543991Y-12543508D01*
X16543991Y-12543508D02*
X16563039Y-12514936D01*
X16563039Y-12514936D02*
X16572563Y-12505412D01*
X16753515Y-12733984D02*
X16639229Y-12733984D01*
X16696372Y-12733984D02*
X16696372Y-12533984D01*
X16696372Y-12533984D02*
X16677325Y-12562555D01*
X16677325Y-12562555D02*
X16658277Y-12581603D01*
X16658277Y-12581603D02*
X16639229Y-12591127D01*
X16848753Y-12733984D02*
X16886849Y-12733984D01*
X16886849Y-12733984D02*
X16905896Y-12724460D01*
X16905896Y-12724460D02*
X16915420Y-12714936D01*
X16915420Y-12714936D02*
X16934468Y-12686365D01*
X16934468Y-12686365D02*
X16943991Y-12648269D01*
X16943991Y-12648269D02*
X16943991Y-12572079D01*
X16943991Y-12572079D02*
X16934468Y-12553031D01*
X16934468Y-12553031D02*
X16924944Y-12543508D01*
X16924944Y-12543508D02*
X16905896Y-12533984D01*
X16905896Y-12533984D02*
X16867801Y-12533984D01*
X16867801Y-12533984D02*
X16848753Y-12543508D01*
X16848753Y-12543508D02*
X16839230Y-12553031D01*
X16839230Y-12553031D02*
X16829706Y-12572079D01*
X16829706Y-12572079D02*
X16829706Y-12619698D01*
X16829706Y-12619698D02*
X16839230Y-12638746D01*
X16839230Y-12638746D02*
X16848753Y-12648269D01*
X16848753Y-12648269D02*
X16867801Y-12657793D01*
X16867801Y-12657793D02*
X16905896Y-12657793D01*
X16905896Y-12657793D02*
X16924944Y-12648269D01*
X16924944Y-12648269D02*
X16934468Y-12638746D01*
X16934468Y-12638746D02*
X16943991Y-12619698D01*
X17134468Y-12733984D02*
X17020182Y-12733984D01*
X17077325Y-12733984D02*
X17077325Y-12533984D01*
X17077325Y-12533984D02*
X17058277Y-12562555D01*
X17058277Y-12562555D02*
X17039230Y-12581603D01*
X17039230Y-12581603D02*
X17020182Y-12591127D01*
X17372563Y-12733984D02*
X17372563Y-12533984D01*
X17458277Y-12733984D02*
X17458277Y-12629222D01*
X17458277Y-12629222D02*
X17448753Y-12610174D01*
X17448753Y-12610174D02*
X17429706Y-12600650D01*
X17429706Y-12600650D02*
X17401134Y-12600650D01*
X17401134Y-12600650D02*
X17382087Y-12610174D01*
X17382087Y-12610174D02*
X17372563Y-12619698D01*
X17582087Y-12733984D02*
X17563039Y-12724460D01*
X17563039Y-12724460D02*
X17553515Y-12714936D01*
X17553515Y-12714936D02*
X17543992Y-12695888D01*
X17543992Y-12695888D02*
X17543992Y-12638746D01*
X17543992Y-12638746D02*
X17553515Y-12619698D01*
X17553515Y-12619698D02*
X17563039Y-12610174D01*
X17563039Y-12610174D02*
X17582087Y-12600650D01*
X17582087Y-12600650D02*
X17610658Y-12600650D01*
X17610658Y-12600650D02*
X17629706Y-12610174D01*
X17629706Y-12610174D02*
X17639230Y-12619698D01*
X17639230Y-12619698D02*
X17648753Y-12638746D01*
X17648753Y-12638746D02*
X17648753Y-12695888D01*
X17648753Y-12695888D02*
X17639230Y-12714936D01*
X17639230Y-12714936D02*
X17629706Y-12724460D01*
X17629706Y-12724460D02*
X17610658Y-12733984D01*
X17610658Y-12733984D02*
X17582087Y-12733984D01*
X17763039Y-12733984D02*
X17743992Y-12724460D01*
X17743992Y-12724460D02*
X17734468Y-12705412D01*
X17734468Y-12705412D02*
X17734468Y-12533984D01*
X17915420Y-12724460D02*
X17896373Y-12733984D01*
X17896373Y-12733984D02*
X17858277Y-12733984D01*
X17858277Y-12733984D02*
X17839230Y-12724460D01*
X17839230Y-12724460D02*
X17829706Y-12705412D01*
X17829706Y-12705412D02*
X17829706Y-12629222D01*
X17829706Y-12629222D02*
X17839230Y-12610174D01*
X17839230Y-12610174D02*
X17858277Y-12600650D01*
X17858277Y-12600650D02*
X17896373Y-12600650D01*
X17896373Y-12600650D02*
X17915420Y-12610174D01*
X17915420Y-12610174D02*
X17924944Y-12629222D01*
X17924944Y-12629222D02*
X17924944Y-12648269D01*
X17924944Y-12648269D02*
X17829706Y-12667317D01*
X18001134Y-12724460D02*
X18020182Y-12733984D01*
X18020182Y-12733984D02*
X18058277Y-12733984D01*
X18058277Y-12733984D02*
X18077325Y-12724460D01*
X18077325Y-12724460D02*
X18086849Y-12705412D01*
X18086849Y-12705412D02*
X18086849Y-12695888D01*
X18086849Y-12695888D02*
X18077325Y-12676841D01*
X18077325Y-12676841D02*
X18058277Y-12667317D01*
X18058277Y-12667317D02*
X18029706Y-12667317D01*
X18029706Y-12667317D02*
X18010658Y-12657793D01*
X18010658Y-12657793D02*
X18001134Y-12638746D01*
X18001134Y-12638746D02*
X18001134Y-12629222D01*
X18001134Y-12629222D02*
X18010658Y-12610174D01*
X18010658Y-12610174D02*
X18029706Y-12600650D01*
X18029706Y-12600650D02*
X18058277Y-12600650D01*
X18058277Y-12600650D02*
X18077325Y-12610174D01*
X18153515Y-12810174D02*
X18163039Y-12800650D01*
X18163039Y-12800650D02*
X18182087Y-12772079D01*
X18182087Y-12772079D02*
X18191611Y-12753031D01*
X18191611Y-12753031D02*
X18201134Y-12724460D01*
X18201134Y-12724460D02*
X18210658Y-12676841D01*
X18210658Y-12676841D02*
X18210658Y-12638746D01*
X18210658Y-12638746D02*
X18201134Y-12591127D01*
X18201134Y-12591127D02*
X18191611Y-12562555D01*
X18191611Y-12562555D02*
X18182087Y-12543508D01*
X18182087Y-12543508D02*
X18163039Y-12514936D01*
X18163039Y-12514936D02*
X18153515Y-12505412D01*
D12*
X12997500Y-12906500D02*
G75*
G02*
X12922500Y-12906500I-37500J0D01*
G01*
X12922500Y-12906500D02*
G75*
G02*
X12997500Y-12906500I37500J0D01*
G01*
D11*
X13296372Y-12797984D02*
X13315420Y-12797984D01*
X13315420Y-12797984D02*
X13334467Y-12807508D01*
X13334467Y-12807508D02*
X13343991Y-12817031D01*
X13343991Y-12817031D02*
X13353515Y-12836079D01*
X13353515Y-12836079D02*
X13363039Y-12874174D01*
X13363039Y-12874174D02*
X13363039Y-12921793D01*
X13363039Y-12921793D02*
X13353515Y-12959888D01*
X13353515Y-12959888D02*
X13343991Y-12978936D01*
X13343991Y-12978936D02*
X13334467Y-12988460D01*
X13334467Y-12988460D02*
X13315420Y-12997984D01*
X13315420Y-12997984D02*
X13296372Y-12997984D01*
X13296372Y-12997984D02*
X13277324Y-12988460D01*
X13277324Y-12988460D02*
X13267801Y-12978936D01*
X13267801Y-12978936D02*
X13258277Y-12959888D01*
X13258277Y-12959888D02*
X13248753Y-12921793D01*
X13248753Y-12921793D02*
X13248753Y-12874174D01*
X13248753Y-12874174D02*
X13258277Y-12836079D01*
X13258277Y-12836079D02*
X13267801Y-12817031D01*
X13267801Y-12817031D02*
X13277324Y-12807508D01*
X13277324Y-12807508D02*
X13296372Y-12797984D01*
X13448753Y-12978936D02*
X13458277Y-12988460D01*
X13458277Y-12988460D02*
X13448753Y-12997984D01*
X13448753Y-12997984D02*
X13439229Y-12988460D01*
X13439229Y-12988460D02*
X13448753Y-12978936D01*
X13448753Y-12978936D02*
X13448753Y-12997984D01*
X13524943Y-12797984D02*
X13658277Y-12797984D01*
X13658277Y-12797984D02*
X13572562Y-12997984D01*
X13829705Y-12797984D02*
X13734467Y-12797984D01*
X13734467Y-12797984D02*
X13724943Y-12893222D01*
X13724943Y-12893222D02*
X13734467Y-12883698D01*
X13734467Y-12883698D02*
X13753515Y-12874174D01*
X13753515Y-12874174D02*
X13801134Y-12874174D01*
X13801134Y-12874174D02*
X13820182Y-12883698D01*
X13820182Y-12883698D02*
X13829705Y-12893222D01*
X13829705Y-12893222D02*
X13839229Y-12912269D01*
X13839229Y-12912269D02*
X13839229Y-12959888D01*
X13839229Y-12959888D02*
X13829705Y-12978936D01*
X13829705Y-12978936D02*
X13820182Y-12988460D01*
X13820182Y-12988460D02*
X13801134Y-12997984D01*
X13801134Y-12997984D02*
X13753515Y-12997984D01*
X13753515Y-12997984D02*
X13734467Y-12988460D01*
X13734467Y-12988460D02*
X13724943Y-12978936D01*
X13963039Y-12797984D02*
X13982086Y-12797984D01*
X13982086Y-12797984D02*
X14001134Y-12807508D01*
X14001134Y-12807508D02*
X14010658Y-12817031D01*
X14010658Y-12817031D02*
X14020182Y-12836079D01*
X14020182Y-12836079D02*
X14029705Y-12874174D01*
X14029705Y-12874174D02*
X14029705Y-12921793D01*
X14029705Y-12921793D02*
X14020182Y-12959888D01*
X14020182Y-12959888D02*
X14010658Y-12978936D01*
X14010658Y-12978936D02*
X14001134Y-12988460D01*
X14001134Y-12988460D02*
X13982086Y-12997984D01*
X13982086Y-12997984D02*
X13963039Y-12997984D01*
X13963039Y-12997984D02*
X13943991Y-12988460D01*
X13943991Y-12988460D02*
X13934467Y-12978936D01*
X13934467Y-12978936D02*
X13924943Y-12959888D01*
X13924943Y-12959888D02*
X13915420Y-12921793D01*
X13915420Y-12921793D02*
X13915420Y-12874174D01*
X13915420Y-12874174D02*
X13924943Y-12836079D01*
X13924943Y-12836079D02*
X13934467Y-12817031D01*
X13934467Y-12817031D02*
X13943991Y-12807508D01*
X13943991Y-12807508D02*
X13963039Y-12797984D01*
X14115420Y-12997984D02*
X14115420Y-12864650D01*
X14115420Y-12883698D02*
X14124943Y-12874174D01*
X14124943Y-12874174D02*
X14143991Y-12864650D01*
X14143991Y-12864650D02*
X14172563Y-12864650D01*
X14172563Y-12864650D02*
X14191610Y-12874174D01*
X14191610Y-12874174D02*
X14201134Y-12893222D01*
X14201134Y-12893222D02*
X14201134Y-12997984D01*
X14201134Y-12893222D02*
X14210658Y-12874174D01*
X14210658Y-12874174D02*
X14229705Y-12864650D01*
X14229705Y-12864650D02*
X14258277Y-12864650D01*
X14258277Y-12864650D02*
X14277324Y-12874174D01*
X14277324Y-12874174D02*
X14286848Y-12893222D01*
X14286848Y-12893222D02*
X14286848Y-12997984D01*
X14382086Y-12997984D02*
X14382086Y-12864650D01*
X14382086Y-12883698D02*
X14391610Y-12874174D01*
X14391610Y-12874174D02*
X14410658Y-12864650D01*
X14410658Y-12864650D02*
X14439229Y-12864650D01*
X14439229Y-12864650D02*
X14458277Y-12874174D01*
X14458277Y-12874174D02*
X14467801Y-12893222D01*
X14467801Y-12893222D02*
X14467801Y-12997984D01*
X14467801Y-12893222D02*
X14477324Y-12874174D01*
X14477324Y-12874174D02*
X14496372Y-12864650D01*
X14496372Y-12864650D02*
X14524943Y-12864650D01*
X14524943Y-12864650D02*
X14543991Y-12874174D01*
X14543991Y-12874174D02*
X14553515Y-12893222D01*
X14553515Y-12893222D02*
X14553515Y-12997984D01*
X14943991Y-12788460D02*
X14772563Y-13045603D01*
X15201134Y-12797984D02*
X15220182Y-12797984D01*
X15220182Y-12797984D02*
X15239229Y-12807508D01*
X15239229Y-12807508D02*
X15248753Y-12817031D01*
X15248753Y-12817031D02*
X15258277Y-12836079D01*
X15258277Y-12836079D02*
X15267801Y-12874174D01*
X15267801Y-12874174D02*
X15267801Y-12921793D01*
X15267801Y-12921793D02*
X15258277Y-12959888D01*
X15258277Y-12959888D02*
X15248753Y-12978936D01*
X15248753Y-12978936D02*
X15239229Y-12988460D01*
X15239229Y-12988460D02*
X15220182Y-12997984D01*
X15220182Y-12997984D02*
X15201134Y-12997984D01*
X15201134Y-12997984D02*
X15182086Y-12988460D01*
X15182086Y-12988460D02*
X15172563Y-12978936D01*
X15172563Y-12978936D02*
X15163039Y-12959888D01*
X15163039Y-12959888D02*
X15153515Y-12921793D01*
X15153515Y-12921793D02*
X15153515Y-12874174D01*
X15153515Y-12874174D02*
X15163039Y-12836079D01*
X15163039Y-12836079D02*
X15172563Y-12817031D01*
X15172563Y-12817031D02*
X15182086Y-12807508D01*
X15182086Y-12807508D02*
X15201134Y-12797984D01*
X15353515Y-12978936D02*
X15363039Y-12988460D01*
X15363039Y-12988460D02*
X15353515Y-12997984D01*
X15353515Y-12997984D02*
X15343991Y-12988460D01*
X15343991Y-12988460D02*
X15353515Y-12978936D01*
X15353515Y-12978936D02*
X15353515Y-12997984D01*
X15486848Y-12797984D02*
X15505896Y-12797984D01*
X15505896Y-12797984D02*
X15524944Y-12807508D01*
X15524944Y-12807508D02*
X15534467Y-12817031D01*
X15534467Y-12817031D02*
X15543991Y-12836079D01*
X15543991Y-12836079D02*
X15553515Y-12874174D01*
X15553515Y-12874174D02*
X15553515Y-12921793D01*
X15553515Y-12921793D02*
X15543991Y-12959888D01*
X15543991Y-12959888D02*
X15534467Y-12978936D01*
X15534467Y-12978936D02*
X15524944Y-12988460D01*
X15524944Y-12988460D02*
X15505896Y-12997984D01*
X15505896Y-12997984D02*
X15486848Y-12997984D01*
X15486848Y-12997984D02*
X15467801Y-12988460D01*
X15467801Y-12988460D02*
X15458277Y-12978936D01*
X15458277Y-12978936D02*
X15448753Y-12959888D01*
X15448753Y-12959888D02*
X15439229Y-12921793D01*
X15439229Y-12921793D02*
X15439229Y-12874174D01*
X15439229Y-12874174D02*
X15448753Y-12836079D01*
X15448753Y-12836079D02*
X15458277Y-12817031D01*
X15458277Y-12817031D02*
X15467801Y-12807508D01*
X15467801Y-12807508D02*
X15486848Y-12797984D01*
X15629706Y-12817031D02*
X15639229Y-12807508D01*
X15639229Y-12807508D02*
X15658277Y-12797984D01*
X15658277Y-12797984D02*
X15705896Y-12797984D01*
X15705896Y-12797984D02*
X15724944Y-12807508D01*
X15724944Y-12807508D02*
X15734467Y-12817031D01*
X15734467Y-12817031D02*
X15743991Y-12836079D01*
X15743991Y-12836079D02*
X15743991Y-12855127D01*
X15743991Y-12855127D02*
X15734467Y-12883698D01*
X15734467Y-12883698D02*
X15620182Y-12997984D01*
X15620182Y-12997984D02*
X15743991Y-12997984D01*
X15839229Y-12997984D02*
X15877325Y-12997984D01*
X15877325Y-12997984D02*
X15896372Y-12988460D01*
X15896372Y-12988460D02*
X15905896Y-12978936D01*
X15905896Y-12978936D02*
X15924944Y-12950365D01*
X15924944Y-12950365D02*
X15934467Y-12912269D01*
X15934467Y-12912269D02*
X15934467Y-12836079D01*
X15934467Y-12836079D02*
X15924944Y-12817031D01*
X15924944Y-12817031D02*
X15915420Y-12807508D01*
X15915420Y-12807508D02*
X15896372Y-12797984D01*
X15896372Y-12797984D02*
X15858277Y-12797984D01*
X15858277Y-12797984D02*
X15839229Y-12807508D01*
X15839229Y-12807508D02*
X15829706Y-12817031D01*
X15829706Y-12817031D02*
X15820182Y-12836079D01*
X15820182Y-12836079D02*
X15820182Y-12883698D01*
X15820182Y-12883698D02*
X15829706Y-12902746D01*
X15829706Y-12902746D02*
X15839229Y-12912269D01*
X15839229Y-12912269D02*
X15858277Y-12921793D01*
X15858277Y-12921793D02*
X15896372Y-12921793D01*
X15896372Y-12921793D02*
X15915420Y-12912269D01*
X15915420Y-12912269D02*
X15924944Y-12902746D01*
X15924944Y-12902746D02*
X15934467Y-12883698D01*
X16115420Y-12797984D02*
X16020182Y-12797984D01*
X16020182Y-12797984D02*
X16010658Y-12893222D01*
X16010658Y-12893222D02*
X16020182Y-12883698D01*
X16020182Y-12883698D02*
X16039229Y-12874174D01*
X16039229Y-12874174D02*
X16086848Y-12874174D01*
X16086848Y-12874174D02*
X16105896Y-12883698D01*
X16105896Y-12883698D02*
X16115420Y-12893222D01*
X16115420Y-12893222D02*
X16124944Y-12912269D01*
X16124944Y-12912269D02*
X16124944Y-12959888D01*
X16124944Y-12959888D02*
X16115420Y-12978936D01*
X16115420Y-12978936D02*
X16105896Y-12988460D01*
X16105896Y-12988460D02*
X16086848Y-12997984D01*
X16086848Y-12997984D02*
X16039229Y-12997984D01*
X16039229Y-12997984D02*
X16020182Y-12988460D01*
X16020182Y-12988460D02*
X16010658Y-12978936D01*
X16201134Y-12797984D02*
X16201134Y-12836079D01*
X16277325Y-12797984D02*
X16277325Y-12836079D01*
X16572563Y-13074174D02*
X16563039Y-13064650D01*
X16563039Y-13064650D02*
X16543991Y-13036079D01*
X16543991Y-13036079D02*
X16534468Y-13017031D01*
X16534468Y-13017031D02*
X16524944Y-12988460D01*
X16524944Y-12988460D02*
X16515420Y-12940841D01*
X16515420Y-12940841D02*
X16515420Y-12902746D01*
X16515420Y-12902746D02*
X16524944Y-12855127D01*
X16524944Y-12855127D02*
X16534468Y-12826555D01*
X16534468Y-12826555D02*
X16543991Y-12807508D01*
X16543991Y-12807508D02*
X16563039Y-12778936D01*
X16563039Y-12778936D02*
X16572563Y-12769412D01*
X16629706Y-12797984D02*
X16753515Y-12797984D01*
X16753515Y-12797984D02*
X16686848Y-12874174D01*
X16686848Y-12874174D02*
X16715420Y-12874174D01*
X16715420Y-12874174D02*
X16734468Y-12883698D01*
X16734468Y-12883698D02*
X16743991Y-12893222D01*
X16743991Y-12893222D02*
X16753515Y-12912269D01*
X16753515Y-12912269D02*
X16753515Y-12959888D01*
X16753515Y-12959888D02*
X16743991Y-12978936D01*
X16743991Y-12978936D02*
X16734468Y-12988460D01*
X16734468Y-12988460D02*
X16715420Y-12997984D01*
X16715420Y-12997984D02*
X16658277Y-12997984D01*
X16658277Y-12997984D02*
X16639229Y-12988460D01*
X16639229Y-12988460D02*
X16629706Y-12978936D01*
X16991611Y-12997984D02*
X16991611Y-12797984D01*
X17077325Y-12997984D02*
X17077325Y-12893222D01*
X17077325Y-12893222D02*
X17067801Y-12874174D01*
X17067801Y-12874174D02*
X17048753Y-12864650D01*
X17048753Y-12864650D02*
X17020182Y-12864650D01*
X17020182Y-12864650D02*
X17001134Y-12874174D01*
X17001134Y-12874174D02*
X16991611Y-12883698D01*
X17201134Y-12997984D02*
X17182087Y-12988460D01*
X17182087Y-12988460D02*
X17172563Y-12978936D01*
X17172563Y-12978936D02*
X17163039Y-12959888D01*
X17163039Y-12959888D02*
X17163039Y-12902746D01*
X17163039Y-12902746D02*
X17172563Y-12883698D01*
X17172563Y-12883698D02*
X17182087Y-12874174D01*
X17182087Y-12874174D02*
X17201134Y-12864650D01*
X17201134Y-12864650D02*
X17229706Y-12864650D01*
X17229706Y-12864650D02*
X17248753Y-12874174D01*
X17248753Y-12874174D02*
X17258277Y-12883698D01*
X17258277Y-12883698D02*
X17267801Y-12902746D01*
X17267801Y-12902746D02*
X17267801Y-12959888D01*
X17267801Y-12959888D02*
X17258277Y-12978936D01*
X17258277Y-12978936D02*
X17248753Y-12988460D01*
X17248753Y-12988460D02*
X17229706Y-12997984D01*
X17229706Y-12997984D02*
X17201134Y-12997984D01*
X17382087Y-12997984D02*
X17363039Y-12988460D01*
X17363039Y-12988460D02*
X17353515Y-12969412D01*
X17353515Y-12969412D02*
X17353515Y-12797984D01*
X17534468Y-12988460D02*
X17515420Y-12997984D01*
X17515420Y-12997984D02*
X17477325Y-12997984D01*
X17477325Y-12997984D02*
X17458277Y-12988460D01*
X17458277Y-12988460D02*
X17448753Y-12969412D01*
X17448753Y-12969412D02*
X17448753Y-12893222D01*
X17448753Y-12893222D02*
X17458277Y-12874174D01*
X17458277Y-12874174D02*
X17477325Y-12864650D01*
X17477325Y-12864650D02*
X17515420Y-12864650D01*
X17515420Y-12864650D02*
X17534468Y-12874174D01*
X17534468Y-12874174D02*
X17543992Y-12893222D01*
X17543992Y-12893222D02*
X17543992Y-12912269D01*
X17543992Y-12912269D02*
X17448753Y-12931317D01*
X17620182Y-12988460D02*
X17639230Y-12997984D01*
X17639230Y-12997984D02*
X17677325Y-12997984D01*
X17677325Y-12997984D02*
X17696373Y-12988460D01*
X17696373Y-12988460D02*
X17705896Y-12969412D01*
X17705896Y-12969412D02*
X17705896Y-12959888D01*
X17705896Y-12959888D02*
X17696373Y-12940841D01*
X17696373Y-12940841D02*
X17677325Y-12931317D01*
X17677325Y-12931317D02*
X17648753Y-12931317D01*
X17648753Y-12931317D02*
X17629706Y-12921793D01*
X17629706Y-12921793D02*
X17620182Y-12902746D01*
X17620182Y-12902746D02*
X17620182Y-12893222D01*
X17620182Y-12893222D02*
X17629706Y-12874174D01*
X17629706Y-12874174D02*
X17648753Y-12864650D01*
X17648753Y-12864650D02*
X17677325Y-12864650D01*
X17677325Y-12864650D02*
X17696373Y-12874174D01*
X17772563Y-13074174D02*
X17782087Y-13064650D01*
X17782087Y-13064650D02*
X17801134Y-13036079D01*
X17801134Y-13036079D02*
X17810658Y-13017031D01*
X17810658Y-13017031D02*
X17820182Y-12988460D01*
X17820182Y-12988460D02*
X17829706Y-12940841D01*
X17829706Y-12940841D02*
X17829706Y-12902746D01*
X17829706Y-12902746D02*
X17820182Y-12855127D01*
X17820182Y-12855127D02*
X17810658Y-12826555D01*
X17810658Y-12826555D02*
X17801134Y-12807508D01*
X17801134Y-12807508D02*
X17782087Y-12778936D01*
X17782087Y-12778936D02*
X17772563Y-12769412D01*
D12*
X12959400Y-13132400D02*
X12959400Y-13208600D01*
X12921300Y-13170500D02*
X12997500Y-13170500D01*
D11*
X13296372Y-13061984D02*
X13315420Y-13061984D01*
X13315420Y-13061984D02*
X13334467Y-13071508D01*
X13334467Y-13071508D02*
X13343991Y-13081031D01*
X13343991Y-13081031D02*
X13353515Y-13100079D01*
X13353515Y-13100079D02*
X13363039Y-13138174D01*
X13363039Y-13138174D02*
X13363039Y-13185793D01*
X13363039Y-13185793D02*
X13353515Y-13223888D01*
X13353515Y-13223888D02*
X13343991Y-13242936D01*
X13343991Y-13242936D02*
X13334467Y-13252460D01*
X13334467Y-13252460D02*
X13315420Y-13261984D01*
X13315420Y-13261984D02*
X13296372Y-13261984D01*
X13296372Y-13261984D02*
X13277324Y-13252460D01*
X13277324Y-13252460D02*
X13267801Y-13242936D01*
X13267801Y-13242936D02*
X13258277Y-13223888D01*
X13258277Y-13223888D02*
X13248753Y-13185793D01*
X13248753Y-13185793D02*
X13248753Y-13138174D01*
X13248753Y-13138174D02*
X13258277Y-13100079D01*
X13258277Y-13100079D02*
X13267801Y-13081031D01*
X13267801Y-13081031D02*
X13277324Y-13071508D01*
X13277324Y-13071508D02*
X13296372Y-13061984D01*
X13448753Y-13242936D02*
X13458277Y-13252460D01*
X13458277Y-13252460D02*
X13448753Y-13261984D01*
X13448753Y-13261984D02*
X13439229Y-13252460D01*
X13439229Y-13252460D02*
X13448753Y-13242936D01*
X13448753Y-13242936D02*
X13448753Y-13261984D01*
X13524943Y-13061984D02*
X13658277Y-13061984D01*
X13658277Y-13061984D02*
X13572562Y-13261984D01*
X13820182Y-13061984D02*
X13782086Y-13061984D01*
X13782086Y-13061984D02*
X13763039Y-13071508D01*
X13763039Y-13071508D02*
X13753515Y-13081031D01*
X13753515Y-13081031D02*
X13734467Y-13109603D01*
X13734467Y-13109603D02*
X13724943Y-13147698D01*
X13724943Y-13147698D02*
X13724943Y-13223888D01*
X13724943Y-13223888D02*
X13734467Y-13242936D01*
X13734467Y-13242936D02*
X13743991Y-13252460D01*
X13743991Y-13252460D02*
X13763039Y-13261984D01*
X13763039Y-13261984D02*
X13801134Y-13261984D01*
X13801134Y-13261984D02*
X13820182Y-13252460D01*
X13820182Y-13252460D02*
X13829705Y-13242936D01*
X13829705Y-13242936D02*
X13839229Y-13223888D01*
X13839229Y-13223888D02*
X13839229Y-13176269D01*
X13839229Y-13176269D02*
X13829705Y-13157222D01*
X13829705Y-13157222D02*
X13820182Y-13147698D01*
X13820182Y-13147698D02*
X13801134Y-13138174D01*
X13801134Y-13138174D02*
X13763039Y-13138174D01*
X13763039Y-13138174D02*
X13743991Y-13147698D01*
X13743991Y-13147698D02*
X13734467Y-13157222D01*
X13734467Y-13157222D02*
X13724943Y-13176269D01*
X13915420Y-13081031D02*
X13924943Y-13071508D01*
X13924943Y-13071508D02*
X13943991Y-13061984D01*
X13943991Y-13061984D02*
X13991610Y-13061984D01*
X13991610Y-13061984D02*
X14010658Y-13071508D01*
X14010658Y-13071508D02*
X14020182Y-13081031D01*
X14020182Y-13081031D02*
X14029705Y-13100079D01*
X14029705Y-13100079D02*
X14029705Y-13119127D01*
X14029705Y-13119127D02*
X14020182Y-13147698D01*
X14020182Y-13147698D02*
X13905896Y-13261984D01*
X13905896Y-13261984D02*
X14029705Y-13261984D01*
X14115420Y-13261984D02*
X14115420Y-13128650D01*
X14115420Y-13147698D02*
X14124943Y-13138174D01*
X14124943Y-13138174D02*
X14143991Y-13128650D01*
X14143991Y-13128650D02*
X14172563Y-13128650D01*
X14172563Y-13128650D02*
X14191610Y-13138174D01*
X14191610Y-13138174D02*
X14201134Y-13157222D01*
X14201134Y-13157222D02*
X14201134Y-13261984D01*
X14201134Y-13157222D02*
X14210658Y-13138174D01*
X14210658Y-13138174D02*
X14229705Y-13128650D01*
X14229705Y-13128650D02*
X14258277Y-13128650D01*
X14258277Y-13128650D02*
X14277324Y-13138174D01*
X14277324Y-13138174D02*
X14286848Y-13157222D01*
X14286848Y-13157222D02*
X14286848Y-13261984D01*
X14382086Y-13261984D02*
X14382086Y-13128650D01*
X14382086Y-13147698D02*
X14391610Y-13138174D01*
X14391610Y-13138174D02*
X14410658Y-13128650D01*
X14410658Y-13128650D02*
X14439229Y-13128650D01*
X14439229Y-13128650D02*
X14458277Y-13138174D01*
X14458277Y-13138174D02*
X14467801Y-13157222D01*
X14467801Y-13157222D02*
X14467801Y-13261984D01*
X14467801Y-13157222D02*
X14477324Y-13138174D01*
X14477324Y-13138174D02*
X14496372Y-13128650D01*
X14496372Y-13128650D02*
X14524943Y-13128650D01*
X14524943Y-13128650D02*
X14543991Y-13138174D01*
X14543991Y-13138174D02*
X14553515Y-13157222D01*
X14553515Y-13157222D02*
X14553515Y-13261984D01*
X14943991Y-13052460D02*
X14772563Y-13309603D01*
X15201134Y-13061984D02*
X15220182Y-13061984D01*
X15220182Y-13061984D02*
X15239229Y-13071508D01*
X15239229Y-13071508D02*
X15248753Y-13081031D01*
X15248753Y-13081031D02*
X15258277Y-13100079D01*
X15258277Y-13100079D02*
X15267801Y-13138174D01*
X15267801Y-13138174D02*
X15267801Y-13185793D01*
X15267801Y-13185793D02*
X15258277Y-13223888D01*
X15258277Y-13223888D02*
X15248753Y-13242936D01*
X15248753Y-13242936D02*
X15239229Y-13252460D01*
X15239229Y-13252460D02*
X15220182Y-13261984D01*
X15220182Y-13261984D02*
X15201134Y-13261984D01*
X15201134Y-13261984D02*
X15182086Y-13252460D01*
X15182086Y-13252460D02*
X15172563Y-13242936D01*
X15172563Y-13242936D02*
X15163039Y-13223888D01*
X15163039Y-13223888D02*
X15153515Y-13185793D01*
X15153515Y-13185793D02*
X15153515Y-13138174D01*
X15153515Y-13138174D02*
X15163039Y-13100079D01*
X15163039Y-13100079D02*
X15172563Y-13081031D01*
X15172563Y-13081031D02*
X15182086Y-13071508D01*
X15182086Y-13071508D02*
X15201134Y-13061984D01*
X15353515Y-13242936D02*
X15363039Y-13252460D01*
X15363039Y-13252460D02*
X15353515Y-13261984D01*
X15353515Y-13261984D02*
X15343991Y-13252460D01*
X15343991Y-13252460D02*
X15353515Y-13242936D01*
X15353515Y-13242936D02*
X15353515Y-13261984D01*
X15486848Y-13061984D02*
X15505896Y-13061984D01*
X15505896Y-13061984D02*
X15524944Y-13071508D01*
X15524944Y-13071508D02*
X15534467Y-13081031D01*
X15534467Y-13081031D02*
X15543991Y-13100079D01*
X15543991Y-13100079D02*
X15553515Y-13138174D01*
X15553515Y-13138174D02*
X15553515Y-13185793D01*
X15553515Y-13185793D02*
X15543991Y-13223888D01*
X15543991Y-13223888D02*
X15534467Y-13242936D01*
X15534467Y-13242936D02*
X15524944Y-13252460D01*
X15524944Y-13252460D02*
X15505896Y-13261984D01*
X15505896Y-13261984D02*
X15486848Y-13261984D01*
X15486848Y-13261984D02*
X15467801Y-13252460D01*
X15467801Y-13252460D02*
X15458277Y-13242936D01*
X15458277Y-13242936D02*
X15448753Y-13223888D01*
X15448753Y-13223888D02*
X15439229Y-13185793D01*
X15439229Y-13185793D02*
X15439229Y-13138174D01*
X15439229Y-13138174D02*
X15448753Y-13100079D01*
X15448753Y-13100079D02*
X15458277Y-13081031D01*
X15458277Y-13081031D02*
X15467801Y-13071508D01*
X15467801Y-13071508D02*
X15486848Y-13061984D01*
X15620182Y-13061984D02*
X15743991Y-13061984D01*
X15743991Y-13061984D02*
X15677325Y-13138174D01*
X15677325Y-13138174D02*
X15705896Y-13138174D01*
X15705896Y-13138174D02*
X15724944Y-13147698D01*
X15724944Y-13147698D02*
X15734467Y-13157222D01*
X15734467Y-13157222D02*
X15743991Y-13176269D01*
X15743991Y-13176269D02*
X15743991Y-13223888D01*
X15743991Y-13223888D02*
X15734467Y-13242936D01*
X15734467Y-13242936D02*
X15724944Y-13252460D01*
X15724944Y-13252460D02*
X15705896Y-13261984D01*
X15705896Y-13261984D02*
X15648753Y-13261984D01*
X15648753Y-13261984D02*
X15629706Y-13252460D01*
X15629706Y-13252460D02*
X15620182Y-13242936D01*
X15867801Y-13061984D02*
X15886848Y-13061984D01*
X15886848Y-13061984D02*
X15905896Y-13071508D01*
X15905896Y-13071508D02*
X15915420Y-13081031D01*
X15915420Y-13081031D02*
X15924944Y-13100079D01*
X15924944Y-13100079D02*
X15934467Y-13138174D01*
X15934467Y-13138174D02*
X15934467Y-13185793D01*
X15934467Y-13185793D02*
X15924944Y-13223888D01*
X15924944Y-13223888D02*
X15915420Y-13242936D01*
X15915420Y-13242936D02*
X15905896Y-13252460D01*
X15905896Y-13252460D02*
X15886848Y-13261984D01*
X15886848Y-13261984D02*
X15867801Y-13261984D01*
X15867801Y-13261984D02*
X15848753Y-13252460D01*
X15848753Y-13252460D02*
X15839229Y-13242936D01*
X15839229Y-13242936D02*
X15829706Y-13223888D01*
X15829706Y-13223888D02*
X15820182Y-13185793D01*
X15820182Y-13185793D02*
X15820182Y-13138174D01*
X15820182Y-13138174D02*
X15829706Y-13100079D01*
X15829706Y-13100079D02*
X15839229Y-13081031D01*
X15839229Y-13081031D02*
X15848753Y-13071508D01*
X15848753Y-13071508D02*
X15867801Y-13061984D01*
X16058277Y-13061984D02*
X16077325Y-13061984D01*
X16077325Y-13061984D02*
X16096372Y-13071508D01*
X16096372Y-13071508D02*
X16105896Y-13081031D01*
X16105896Y-13081031D02*
X16115420Y-13100079D01*
X16115420Y-13100079D02*
X16124944Y-13138174D01*
X16124944Y-13138174D02*
X16124944Y-13185793D01*
X16124944Y-13185793D02*
X16115420Y-13223888D01*
X16115420Y-13223888D02*
X16105896Y-13242936D01*
X16105896Y-13242936D02*
X16096372Y-13252460D01*
X16096372Y-13252460D02*
X16077325Y-13261984D01*
X16077325Y-13261984D02*
X16058277Y-13261984D01*
X16058277Y-13261984D02*
X16039229Y-13252460D01*
X16039229Y-13252460D02*
X16029706Y-13242936D01*
X16029706Y-13242936D02*
X16020182Y-13223888D01*
X16020182Y-13223888D02*
X16010658Y-13185793D01*
X16010658Y-13185793D02*
X16010658Y-13138174D01*
X16010658Y-13138174D02*
X16020182Y-13100079D01*
X16020182Y-13100079D02*
X16029706Y-13081031D01*
X16029706Y-13081031D02*
X16039229Y-13071508D01*
X16039229Y-13071508D02*
X16058277Y-13061984D01*
X16201134Y-13061984D02*
X16201134Y-13100079D01*
X16277325Y-13061984D02*
X16277325Y-13100079D01*
X16572563Y-13338174D02*
X16563039Y-13328650D01*
X16563039Y-13328650D02*
X16543991Y-13300079D01*
X16543991Y-13300079D02*
X16534468Y-13281031D01*
X16534468Y-13281031D02*
X16524944Y-13252460D01*
X16524944Y-13252460D02*
X16515420Y-13204841D01*
X16515420Y-13204841D02*
X16515420Y-13166746D01*
X16515420Y-13166746D02*
X16524944Y-13119127D01*
X16524944Y-13119127D02*
X16534468Y-13090555D01*
X16534468Y-13090555D02*
X16543991Y-13071508D01*
X16543991Y-13071508D02*
X16563039Y-13042936D01*
X16563039Y-13042936D02*
X16572563Y-13033412D01*
X16629706Y-13061984D02*
X16753515Y-13061984D01*
X16753515Y-13061984D02*
X16686848Y-13138174D01*
X16686848Y-13138174D02*
X16715420Y-13138174D01*
X16715420Y-13138174D02*
X16734468Y-13147698D01*
X16734468Y-13147698D02*
X16743991Y-13157222D01*
X16743991Y-13157222D02*
X16753515Y-13176269D01*
X16753515Y-13176269D02*
X16753515Y-13223888D01*
X16753515Y-13223888D02*
X16743991Y-13242936D01*
X16743991Y-13242936D02*
X16734468Y-13252460D01*
X16734468Y-13252460D02*
X16715420Y-13261984D01*
X16715420Y-13261984D02*
X16658277Y-13261984D01*
X16658277Y-13261984D02*
X16639229Y-13252460D01*
X16639229Y-13252460D02*
X16629706Y-13242936D01*
X16877325Y-13061984D02*
X16896372Y-13061984D01*
X16896372Y-13061984D02*
X16915420Y-13071508D01*
X16915420Y-13071508D02*
X16924944Y-13081031D01*
X16924944Y-13081031D02*
X16934468Y-13100079D01*
X16934468Y-13100079D02*
X16943991Y-13138174D01*
X16943991Y-13138174D02*
X16943991Y-13185793D01*
X16943991Y-13185793D02*
X16934468Y-13223888D01*
X16934468Y-13223888D02*
X16924944Y-13242936D01*
X16924944Y-13242936D02*
X16915420Y-13252460D01*
X16915420Y-13252460D02*
X16896372Y-13261984D01*
X16896372Y-13261984D02*
X16877325Y-13261984D01*
X16877325Y-13261984D02*
X16858277Y-13252460D01*
X16858277Y-13252460D02*
X16848753Y-13242936D01*
X16848753Y-13242936D02*
X16839230Y-13223888D01*
X16839230Y-13223888D02*
X16829706Y-13185793D01*
X16829706Y-13185793D02*
X16829706Y-13138174D01*
X16829706Y-13138174D02*
X16839230Y-13100079D01*
X16839230Y-13100079D02*
X16848753Y-13081031D01*
X16848753Y-13081031D02*
X16858277Y-13071508D01*
X16858277Y-13071508D02*
X16877325Y-13061984D01*
X17182087Y-13261984D02*
X17182087Y-13061984D01*
X17267801Y-13261984D02*
X17267801Y-13157222D01*
X17267801Y-13157222D02*
X17258277Y-13138174D01*
X17258277Y-13138174D02*
X17239230Y-13128650D01*
X17239230Y-13128650D02*
X17210658Y-13128650D01*
X17210658Y-13128650D02*
X17191611Y-13138174D01*
X17191611Y-13138174D02*
X17182087Y-13147698D01*
X17391611Y-13261984D02*
X17372563Y-13252460D01*
X17372563Y-13252460D02*
X17363039Y-13242936D01*
X17363039Y-13242936D02*
X17353515Y-13223888D01*
X17353515Y-13223888D02*
X17353515Y-13166746D01*
X17353515Y-13166746D02*
X17363039Y-13147698D01*
X17363039Y-13147698D02*
X17372563Y-13138174D01*
X17372563Y-13138174D02*
X17391611Y-13128650D01*
X17391611Y-13128650D02*
X17420182Y-13128650D01*
X17420182Y-13128650D02*
X17439230Y-13138174D01*
X17439230Y-13138174D02*
X17448753Y-13147698D01*
X17448753Y-13147698D02*
X17458277Y-13166746D01*
X17458277Y-13166746D02*
X17458277Y-13223888D01*
X17458277Y-13223888D02*
X17448753Y-13242936D01*
X17448753Y-13242936D02*
X17439230Y-13252460D01*
X17439230Y-13252460D02*
X17420182Y-13261984D01*
X17420182Y-13261984D02*
X17391611Y-13261984D01*
X17572563Y-13261984D02*
X17553515Y-13252460D01*
X17553515Y-13252460D02*
X17543992Y-13233412D01*
X17543992Y-13233412D02*
X17543992Y-13061984D01*
X17724944Y-13252460D02*
X17705896Y-13261984D01*
X17705896Y-13261984D02*
X17667801Y-13261984D01*
X17667801Y-13261984D02*
X17648753Y-13252460D01*
X17648753Y-13252460D02*
X17639230Y-13233412D01*
X17639230Y-13233412D02*
X17639230Y-13157222D01*
X17639230Y-13157222D02*
X17648753Y-13138174D01*
X17648753Y-13138174D02*
X17667801Y-13128650D01*
X17667801Y-13128650D02*
X17705896Y-13128650D01*
X17705896Y-13128650D02*
X17724944Y-13138174D01*
X17724944Y-13138174D02*
X17734468Y-13157222D01*
X17734468Y-13157222D02*
X17734468Y-13176269D01*
X17734468Y-13176269D02*
X17639230Y-13195317D01*
X17810658Y-13252460D02*
X17829706Y-13261984D01*
X17829706Y-13261984D02*
X17867801Y-13261984D01*
X17867801Y-13261984D02*
X17886849Y-13252460D01*
X17886849Y-13252460D02*
X17896373Y-13233412D01*
X17896373Y-13233412D02*
X17896373Y-13223888D01*
X17896373Y-13223888D02*
X17886849Y-13204841D01*
X17886849Y-13204841D02*
X17867801Y-13195317D01*
X17867801Y-13195317D02*
X17839230Y-13195317D01*
X17839230Y-13195317D02*
X17820182Y-13185793D01*
X17820182Y-13185793D02*
X17810658Y-13166746D01*
X17810658Y-13166746D02*
X17810658Y-13157222D01*
X17810658Y-13157222D02*
X17820182Y-13138174D01*
X17820182Y-13138174D02*
X17839230Y-13128650D01*
X17839230Y-13128650D02*
X17867801Y-13128650D01*
X17867801Y-13128650D02*
X17886849Y-13138174D01*
X17963039Y-13338174D02*
X17972563Y-13328650D01*
X17972563Y-13328650D02*
X17991611Y-13300079D01*
X17991611Y-13300079D02*
X18001134Y-13281031D01*
X18001134Y-13281031D02*
X18010658Y-13252460D01*
X18010658Y-13252460D02*
X18020182Y-13204841D01*
X18020182Y-13204841D02*
X18020182Y-13166746D01*
X18020182Y-13166746D02*
X18010658Y-13119127D01*
X18010658Y-13119127D02*
X18001134Y-13090555D01*
X18001134Y-13090555D02*
X17991611Y-13071508D01*
X17991611Y-13071508D02*
X17972563Y-13042936D01*
X17972563Y-13042936D02*
X17963039Y-13033412D01*
D12*
X12985784Y-13462784D02*
X12985784Y-13406215D01*
X12929215Y-13406215D01*
X12929215Y-13462784D01*
X12985784Y-13462784D01*
D11*
X13296372Y-13325984D02*
X13315420Y-13325984D01*
X13315420Y-13325984D02*
X13334467Y-13335508D01*
X13334467Y-13335508D02*
X13343991Y-13345031D01*
X13343991Y-13345031D02*
X13353515Y-13364079D01*
X13353515Y-13364079D02*
X13363039Y-13402174D01*
X13363039Y-13402174D02*
X13363039Y-13449793D01*
X13363039Y-13449793D02*
X13353515Y-13487888D01*
X13353515Y-13487888D02*
X13343991Y-13506936D01*
X13343991Y-13506936D02*
X13334467Y-13516460D01*
X13334467Y-13516460D02*
X13315420Y-13525984D01*
X13315420Y-13525984D02*
X13296372Y-13525984D01*
X13296372Y-13525984D02*
X13277324Y-13516460D01*
X13277324Y-13516460D02*
X13267801Y-13506936D01*
X13267801Y-13506936D02*
X13258277Y-13487888D01*
X13258277Y-13487888D02*
X13248753Y-13449793D01*
X13248753Y-13449793D02*
X13248753Y-13402174D01*
X13248753Y-13402174D02*
X13258277Y-13364079D01*
X13258277Y-13364079D02*
X13267801Y-13345031D01*
X13267801Y-13345031D02*
X13277324Y-13335508D01*
X13277324Y-13335508D02*
X13296372Y-13325984D01*
X13448753Y-13506936D02*
X13458277Y-13516460D01*
X13458277Y-13516460D02*
X13448753Y-13525984D01*
X13448753Y-13525984D02*
X13439229Y-13516460D01*
X13439229Y-13516460D02*
X13448753Y-13506936D01*
X13448753Y-13506936D02*
X13448753Y-13525984D01*
X13572562Y-13411698D02*
X13553515Y-13402174D01*
X13553515Y-13402174D02*
X13543991Y-13392650D01*
X13543991Y-13392650D02*
X13534467Y-13373603D01*
X13534467Y-13373603D02*
X13534467Y-13364079D01*
X13534467Y-13364079D02*
X13543991Y-13345031D01*
X13543991Y-13345031D02*
X13553515Y-13335508D01*
X13553515Y-13335508D02*
X13572562Y-13325984D01*
X13572562Y-13325984D02*
X13610658Y-13325984D01*
X13610658Y-13325984D02*
X13629705Y-13335508D01*
X13629705Y-13335508D02*
X13639229Y-13345031D01*
X13639229Y-13345031D02*
X13648753Y-13364079D01*
X13648753Y-13364079D02*
X13648753Y-13373603D01*
X13648753Y-13373603D02*
X13639229Y-13392650D01*
X13639229Y-13392650D02*
X13629705Y-13402174D01*
X13629705Y-13402174D02*
X13610658Y-13411698D01*
X13610658Y-13411698D02*
X13572562Y-13411698D01*
X13572562Y-13411698D02*
X13553515Y-13421222D01*
X13553515Y-13421222D02*
X13543991Y-13430746D01*
X13543991Y-13430746D02*
X13534467Y-13449793D01*
X13534467Y-13449793D02*
X13534467Y-13487888D01*
X13534467Y-13487888D02*
X13543991Y-13506936D01*
X13543991Y-13506936D02*
X13553515Y-13516460D01*
X13553515Y-13516460D02*
X13572562Y-13525984D01*
X13572562Y-13525984D02*
X13610658Y-13525984D01*
X13610658Y-13525984D02*
X13629705Y-13516460D01*
X13629705Y-13516460D02*
X13639229Y-13506936D01*
X13639229Y-13506936D02*
X13648753Y-13487888D01*
X13648753Y-13487888D02*
X13648753Y-13449793D01*
X13648753Y-13449793D02*
X13639229Y-13430746D01*
X13639229Y-13430746D02*
X13629705Y-13421222D01*
X13629705Y-13421222D02*
X13610658Y-13411698D01*
X13772562Y-13325984D02*
X13791610Y-13325984D01*
X13791610Y-13325984D02*
X13810658Y-13335508D01*
X13810658Y-13335508D02*
X13820182Y-13345031D01*
X13820182Y-13345031D02*
X13829705Y-13364079D01*
X13829705Y-13364079D02*
X13839229Y-13402174D01*
X13839229Y-13402174D02*
X13839229Y-13449793D01*
X13839229Y-13449793D02*
X13829705Y-13487888D01*
X13829705Y-13487888D02*
X13820182Y-13506936D01*
X13820182Y-13506936D02*
X13810658Y-13516460D01*
X13810658Y-13516460D02*
X13791610Y-13525984D01*
X13791610Y-13525984D02*
X13772562Y-13525984D01*
X13772562Y-13525984D02*
X13753515Y-13516460D01*
X13753515Y-13516460D02*
X13743991Y-13506936D01*
X13743991Y-13506936D02*
X13734467Y-13487888D01*
X13734467Y-13487888D02*
X13724943Y-13449793D01*
X13724943Y-13449793D02*
X13724943Y-13402174D01*
X13724943Y-13402174D02*
X13734467Y-13364079D01*
X13734467Y-13364079D02*
X13743991Y-13345031D01*
X13743991Y-13345031D02*
X13753515Y-13335508D01*
X13753515Y-13335508D02*
X13772562Y-13325984D01*
X13963039Y-13325984D02*
X13982086Y-13325984D01*
X13982086Y-13325984D02*
X14001134Y-13335508D01*
X14001134Y-13335508D02*
X14010658Y-13345031D01*
X14010658Y-13345031D02*
X14020182Y-13364079D01*
X14020182Y-13364079D02*
X14029705Y-13402174D01*
X14029705Y-13402174D02*
X14029705Y-13449793D01*
X14029705Y-13449793D02*
X14020182Y-13487888D01*
X14020182Y-13487888D02*
X14010658Y-13506936D01*
X14010658Y-13506936D02*
X14001134Y-13516460D01*
X14001134Y-13516460D02*
X13982086Y-13525984D01*
X13982086Y-13525984D02*
X13963039Y-13525984D01*
X13963039Y-13525984D02*
X13943991Y-13516460D01*
X13943991Y-13516460D02*
X13934467Y-13506936D01*
X13934467Y-13506936D02*
X13924943Y-13487888D01*
X13924943Y-13487888D02*
X13915420Y-13449793D01*
X13915420Y-13449793D02*
X13915420Y-13402174D01*
X13915420Y-13402174D02*
X13924943Y-13364079D01*
X13924943Y-13364079D02*
X13934467Y-13345031D01*
X13934467Y-13345031D02*
X13943991Y-13335508D01*
X13943991Y-13335508D02*
X13963039Y-13325984D01*
X14115420Y-13525984D02*
X14115420Y-13392650D01*
X14115420Y-13411698D02*
X14124943Y-13402174D01*
X14124943Y-13402174D02*
X14143991Y-13392650D01*
X14143991Y-13392650D02*
X14172563Y-13392650D01*
X14172563Y-13392650D02*
X14191610Y-13402174D01*
X14191610Y-13402174D02*
X14201134Y-13421222D01*
X14201134Y-13421222D02*
X14201134Y-13525984D01*
X14201134Y-13421222D02*
X14210658Y-13402174D01*
X14210658Y-13402174D02*
X14229705Y-13392650D01*
X14229705Y-13392650D02*
X14258277Y-13392650D01*
X14258277Y-13392650D02*
X14277324Y-13402174D01*
X14277324Y-13402174D02*
X14286848Y-13421222D01*
X14286848Y-13421222D02*
X14286848Y-13525984D01*
X14382086Y-13525984D02*
X14382086Y-13392650D01*
X14382086Y-13411698D02*
X14391610Y-13402174D01*
X14391610Y-13402174D02*
X14410658Y-13392650D01*
X14410658Y-13392650D02*
X14439229Y-13392650D01*
X14439229Y-13392650D02*
X14458277Y-13402174D01*
X14458277Y-13402174D02*
X14467801Y-13421222D01*
X14467801Y-13421222D02*
X14467801Y-13525984D01*
X14467801Y-13421222D02*
X14477324Y-13402174D01*
X14477324Y-13402174D02*
X14496372Y-13392650D01*
X14496372Y-13392650D02*
X14524943Y-13392650D01*
X14524943Y-13392650D02*
X14543991Y-13402174D01*
X14543991Y-13402174D02*
X14553515Y-13421222D01*
X14553515Y-13421222D02*
X14553515Y-13525984D01*
X14943991Y-13316460D02*
X14772563Y-13573603D01*
X15201134Y-13325984D02*
X15220182Y-13325984D01*
X15220182Y-13325984D02*
X15239229Y-13335508D01*
X15239229Y-13335508D02*
X15248753Y-13345031D01*
X15248753Y-13345031D02*
X15258277Y-13364079D01*
X15258277Y-13364079D02*
X15267801Y-13402174D01*
X15267801Y-13402174D02*
X15267801Y-13449793D01*
X15267801Y-13449793D02*
X15258277Y-13487888D01*
X15258277Y-13487888D02*
X15248753Y-13506936D01*
X15248753Y-13506936D02*
X15239229Y-13516460D01*
X15239229Y-13516460D02*
X15220182Y-13525984D01*
X15220182Y-13525984D02*
X15201134Y-13525984D01*
X15201134Y-13525984D02*
X15182086Y-13516460D01*
X15182086Y-13516460D02*
X15172563Y-13506936D01*
X15172563Y-13506936D02*
X15163039Y-13487888D01*
X15163039Y-13487888D02*
X15153515Y-13449793D01*
X15153515Y-13449793D02*
X15153515Y-13402174D01*
X15153515Y-13402174D02*
X15163039Y-13364079D01*
X15163039Y-13364079D02*
X15172563Y-13345031D01*
X15172563Y-13345031D02*
X15182086Y-13335508D01*
X15182086Y-13335508D02*
X15201134Y-13325984D01*
X15353515Y-13506936D02*
X15363039Y-13516460D01*
X15363039Y-13516460D02*
X15353515Y-13525984D01*
X15353515Y-13525984D02*
X15343991Y-13516460D01*
X15343991Y-13516460D02*
X15353515Y-13506936D01*
X15353515Y-13506936D02*
X15353515Y-13525984D01*
X15486848Y-13325984D02*
X15505896Y-13325984D01*
X15505896Y-13325984D02*
X15524944Y-13335508D01*
X15524944Y-13335508D02*
X15534467Y-13345031D01*
X15534467Y-13345031D02*
X15543991Y-13364079D01*
X15543991Y-13364079D02*
X15553515Y-13402174D01*
X15553515Y-13402174D02*
X15553515Y-13449793D01*
X15553515Y-13449793D02*
X15543991Y-13487888D01*
X15543991Y-13487888D02*
X15534467Y-13506936D01*
X15534467Y-13506936D02*
X15524944Y-13516460D01*
X15524944Y-13516460D02*
X15505896Y-13525984D01*
X15505896Y-13525984D02*
X15486848Y-13525984D01*
X15486848Y-13525984D02*
X15467801Y-13516460D01*
X15467801Y-13516460D02*
X15458277Y-13506936D01*
X15458277Y-13506936D02*
X15448753Y-13487888D01*
X15448753Y-13487888D02*
X15439229Y-13449793D01*
X15439229Y-13449793D02*
X15439229Y-13402174D01*
X15439229Y-13402174D02*
X15448753Y-13364079D01*
X15448753Y-13364079D02*
X15458277Y-13345031D01*
X15458277Y-13345031D02*
X15467801Y-13335508D01*
X15467801Y-13335508D02*
X15486848Y-13325984D01*
X15620182Y-13325984D02*
X15743991Y-13325984D01*
X15743991Y-13325984D02*
X15677325Y-13402174D01*
X15677325Y-13402174D02*
X15705896Y-13402174D01*
X15705896Y-13402174D02*
X15724944Y-13411698D01*
X15724944Y-13411698D02*
X15734467Y-13421222D01*
X15734467Y-13421222D02*
X15743991Y-13440269D01*
X15743991Y-13440269D02*
X15743991Y-13487888D01*
X15743991Y-13487888D02*
X15734467Y-13506936D01*
X15734467Y-13506936D02*
X15724944Y-13516460D01*
X15724944Y-13516460D02*
X15705896Y-13525984D01*
X15705896Y-13525984D02*
X15648753Y-13525984D01*
X15648753Y-13525984D02*
X15629706Y-13516460D01*
X15629706Y-13516460D02*
X15620182Y-13506936D01*
X15934467Y-13525984D02*
X15820182Y-13525984D01*
X15877325Y-13525984D02*
X15877325Y-13325984D01*
X15877325Y-13325984D02*
X15858277Y-13354555D01*
X15858277Y-13354555D02*
X15839229Y-13373603D01*
X15839229Y-13373603D02*
X15820182Y-13383127D01*
X16115420Y-13325984D02*
X16020182Y-13325984D01*
X16020182Y-13325984D02*
X16010658Y-13421222D01*
X16010658Y-13421222D02*
X16020182Y-13411698D01*
X16020182Y-13411698D02*
X16039229Y-13402174D01*
X16039229Y-13402174D02*
X16086848Y-13402174D01*
X16086848Y-13402174D02*
X16105896Y-13411698D01*
X16105896Y-13411698D02*
X16115420Y-13421222D01*
X16115420Y-13421222D02*
X16124944Y-13440269D01*
X16124944Y-13440269D02*
X16124944Y-13487888D01*
X16124944Y-13487888D02*
X16115420Y-13506936D01*
X16115420Y-13506936D02*
X16105896Y-13516460D01*
X16105896Y-13516460D02*
X16086848Y-13525984D01*
X16086848Y-13525984D02*
X16039229Y-13525984D01*
X16039229Y-13525984D02*
X16020182Y-13516460D01*
X16020182Y-13516460D02*
X16010658Y-13506936D01*
X16201134Y-13325984D02*
X16201134Y-13364079D01*
X16277325Y-13325984D02*
X16277325Y-13364079D01*
X16572563Y-13602174D02*
X16563039Y-13592650D01*
X16563039Y-13592650D02*
X16543991Y-13564079D01*
X16543991Y-13564079D02*
X16534468Y-13545031D01*
X16534468Y-13545031D02*
X16524944Y-13516460D01*
X16524944Y-13516460D02*
X16515420Y-13468841D01*
X16515420Y-13468841D02*
X16515420Y-13430746D01*
X16515420Y-13430746D02*
X16524944Y-13383127D01*
X16524944Y-13383127D02*
X16534468Y-13354555D01*
X16534468Y-13354555D02*
X16543991Y-13335508D01*
X16543991Y-13335508D02*
X16563039Y-13306936D01*
X16563039Y-13306936D02*
X16572563Y-13297412D01*
X16743991Y-13325984D02*
X16648753Y-13325984D01*
X16648753Y-13325984D02*
X16639229Y-13421222D01*
X16639229Y-13421222D02*
X16648753Y-13411698D01*
X16648753Y-13411698D02*
X16667801Y-13402174D01*
X16667801Y-13402174D02*
X16715420Y-13402174D01*
X16715420Y-13402174D02*
X16734468Y-13411698D01*
X16734468Y-13411698D02*
X16743991Y-13421222D01*
X16743991Y-13421222D02*
X16753515Y-13440269D01*
X16753515Y-13440269D02*
X16753515Y-13487888D01*
X16753515Y-13487888D02*
X16743991Y-13506936D01*
X16743991Y-13506936D02*
X16734468Y-13516460D01*
X16734468Y-13516460D02*
X16715420Y-13525984D01*
X16715420Y-13525984D02*
X16667801Y-13525984D01*
X16667801Y-13525984D02*
X16648753Y-13516460D01*
X16648753Y-13516460D02*
X16639229Y-13506936D01*
X16829706Y-13345031D02*
X16839230Y-13335508D01*
X16839230Y-13335508D02*
X16858277Y-13325984D01*
X16858277Y-13325984D02*
X16905896Y-13325984D01*
X16905896Y-13325984D02*
X16924944Y-13335508D01*
X16924944Y-13335508D02*
X16934468Y-13345031D01*
X16934468Y-13345031D02*
X16943991Y-13364079D01*
X16943991Y-13364079D02*
X16943991Y-13383127D01*
X16943991Y-13383127D02*
X16934468Y-13411698D01*
X16934468Y-13411698D02*
X16820182Y-13525984D01*
X16820182Y-13525984D02*
X16943991Y-13525984D01*
X17182087Y-13525984D02*
X17182087Y-13325984D01*
X17267801Y-13525984D02*
X17267801Y-13421222D01*
X17267801Y-13421222D02*
X17258277Y-13402174D01*
X17258277Y-13402174D02*
X17239230Y-13392650D01*
X17239230Y-13392650D02*
X17210658Y-13392650D01*
X17210658Y-13392650D02*
X17191611Y-13402174D01*
X17191611Y-13402174D02*
X17182087Y-13411698D01*
X17391611Y-13525984D02*
X17372563Y-13516460D01*
X17372563Y-13516460D02*
X17363039Y-13506936D01*
X17363039Y-13506936D02*
X17353515Y-13487888D01*
X17353515Y-13487888D02*
X17353515Y-13430746D01*
X17353515Y-13430746D02*
X17363039Y-13411698D01*
X17363039Y-13411698D02*
X17372563Y-13402174D01*
X17372563Y-13402174D02*
X17391611Y-13392650D01*
X17391611Y-13392650D02*
X17420182Y-13392650D01*
X17420182Y-13392650D02*
X17439230Y-13402174D01*
X17439230Y-13402174D02*
X17448753Y-13411698D01*
X17448753Y-13411698D02*
X17458277Y-13430746D01*
X17458277Y-13430746D02*
X17458277Y-13487888D01*
X17458277Y-13487888D02*
X17448753Y-13506936D01*
X17448753Y-13506936D02*
X17439230Y-13516460D01*
X17439230Y-13516460D02*
X17420182Y-13525984D01*
X17420182Y-13525984D02*
X17391611Y-13525984D01*
X17572563Y-13525984D02*
X17553515Y-13516460D01*
X17553515Y-13516460D02*
X17543992Y-13497412D01*
X17543992Y-13497412D02*
X17543992Y-13325984D01*
X17724944Y-13516460D02*
X17705896Y-13525984D01*
X17705896Y-13525984D02*
X17667801Y-13525984D01*
X17667801Y-13525984D02*
X17648753Y-13516460D01*
X17648753Y-13516460D02*
X17639230Y-13497412D01*
X17639230Y-13497412D02*
X17639230Y-13421222D01*
X17639230Y-13421222D02*
X17648753Y-13402174D01*
X17648753Y-13402174D02*
X17667801Y-13392650D01*
X17667801Y-13392650D02*
X17705896Y-13392650D01*
X17705896Y-13392650D02*
X17724944Y-13402174D01*
X17724944Y-13402174D02*
X17734468Y-13421222D01*
X17734468Y-13421222D02*
X17734468Y-13440269D01*
X17734468Y-13440269D02*
X17639230Y-13459317D01*
X17810658Y-13516460D02*
X17829706Y-13525984D01*
X17829706Y-13525984D02*
X17867801Y-13525984D01*
X17867801Y-13525984D02*
X17886849Y-13516460D01*
X17886849Y-13516460D02*
X17896373Y-13497412D01*
X17896373Y-13497412D02*
X17896373Y-13487888D01*
X17896373Y-13487888D02*
X17886849Y-13468841D01*
X17886849Y-13468841D02*
X17867801Y-13459317D01*
X17867801Y-13459317D02*
X17839230Y-13459317D01*
X17839230Y-13459317D02*
X17820182Y-13449793D01*
X17820182Y-13449793D02*
X17810658Y-13430746D01*
X17810658Y-13430746D02*
X17810658Y-13421222D01*
X17810658Y-13421222D02*
X17820182Y-13402174D01*
X17820182Y-13402174D02*
X17839230Y-13392650D01*
X17839230Y-13392650D02*
X17867801Y-13392650D01*
X17867801Y-13392650D02*
X17886849Y-13402174D01*
X17963039Y-13602174D02*
X17972563Y-13592650D01*
X17972563Y-13592650D02*
X17991611Y-13564079D01*
X17991611Y-13564079D02*
X18001134Y-13545031D01*
X18001134Y-13545031D02*
X18010658Y-13516460D01*
X18010658Y-13516460D02*
X18020182Y-13468841D01*
X18020182Y-13468841D02*
X18020182Y-13430746D01*
X18020182Y-13430746D02*
X18010658Y-13383127D01*
X18010658Y-13383127D02*
X18001134Y-13354555D01*
X18001134Y-13354555D02*
X17991611Y-13335508D01*
X17991611Y-13335508D02*
X17972563Y-13306936D01*
X17972563Y-13306936D02*
X17963039Y-13297412D01*
D12*
X12952000Y-13744000D02*
X12997500Y-13698500D01*
X12952000Y-13653000D01*
X12906500Y-13698500D01*
X12952000Y-13744000D01*
D11*
X13296372Y-13589984D02*
X13315420Y-13589984D01*
X13315420Y-13589984D02*
X13334467Y-13599508D01*
X13334467Y-13599508D02*
X13343991Y-13609031D01*
X13343991Y-13609031D02*
X13353515Y-13628079D01*
X13353515Y-13628079D02*
X13363039Y-13666174D01*
X13363039Y-13666174D02*
X13363039Y-13713793D01*
X13363039Y-13713793D02*
X13353515Y-13751888D01*
X13353515Y-13751888D02*
X13343991Y-13770936D01*
X13343991Y-13770936D02*
X13334467Y-13780460D01*
X13334467Y-13780460D02*
X13315420Y-13789984D01*
X13315420Y-13789984D02*
X13296372Y-13789984D01*
X13296372Y-13789984D02*
X13277324Y-13780460D01*
X13277324Y-13780460D02*
X13267801Y-13770936D01*
X13267801Y-13770936D02*
X13258277Y-13751888D01*
X13258277Y-13751888D02*
X13248753Y-13713793D01*
X13248753Y-13713793D02*
X13248753Y-13666174D01*
X13248753Y-13666174D02*
X13258277Y-13628079D01*
X13258277Y-13628079D02*
X13267801Y-13609031D01*
X13267801Y-13609031D02*
X13277324Y-13599508D01*
X13277324Y-13599508D02*
X13296372Y-13589984D01*
X13448753Y-13770936D02*
X13458277Y-13780460D01*
X13458277Y-13780460D02*
X13448753Y-13789984D01*
X13448753Y-13789984D02*
X13439229Y-13780460D01*
X13439229Y-13780460D02*
X13448753Y-13770936D01*
X13448753Y-13770936D02*
X13448753Y-13789984D01*
X13553515Y-13789984D02*
X13591610Y-13789984D01*
X13591610Y-13789984D02*
X13610658Y-13780460D01*
X13610658Y-13780460D02*
X13620182Y-13770936D01*
X13620182Y-13770936D02*
X13639229Y-13742365D01*
X13639229Y-13742365D02*
X13648753Y-13704269D01*
X13648753Y-13704269D02*
X13648753Y-13628079D01*
X13648753Y-13628079D02*
X13639229Y-13609031D01*
X13639229Y-13609031D02*
X13629705Y-13599508D01*
X13629705Y-13599508D02*
X13610658Y-13589984D01*
X13610658Y-13589984D02*
X13572562Y-13589984D01*
X13572562Y-13589984D02*
X13553515Y-13599508D01*
X13553515Y-13599508D02*
X13543991Y-13609031D01*
X13543991Y-13609031D02*
X13534467Y-13628079D01*
X13534467Y-13628079D02*
X13534467Y-13675698D01*
X13534467Y-13675698D02*
X13543991Y-13694746D01*
X13543991Y-13694746D02*
X13553515Y-13704269D01*
X13553515Y-13704269D02*
X13572562Y-13713793D01*
X13572562Y-13713793D02*
X13610658Y-13713793D01*
X13610658Y-13713793D02*
X13629705Y-13704269D01*
X13629705Y-13704269D02*
X13639229Y-13694746D01*
X13639229Y-13694746D02*
X13648753Y-13675698D01*
X13839229Y-13789984D02*
X13724943Y-13789984D01*
X13782086Y-13789984D02*
X13782086Y-13589984D01*
X13782086Y-13589984D02*
X13763039Y-13618555D01*
X13763039Y-13618555D02*
X13743991Y-13637603D01*
X13743991Y-13637603D02*
X13724943Y-13647127D01*
X13963039Y-13589984D02*
X13982086Y-13589984D01*
X13982086Y-13589984D02*
X14001134Y-13599508D01*
X14001134Y-13599508D02*
X14010658Y-13609031D01*
X14010658Y-13609031D02*
X14020182Y-13628079D01*
X14020182Y-13628079D02*
X14029705Y-13666174D01*
X14029705Y-13666174D02*
X14029705Y-13713793D01*
X14029705Y-13713793D02*
X14020182Y-13751888D01*
X14020182Y-13751888D02*
X14010658Y-13770936D01*
X14010658Y-13770936D02*
X14001134Y-13780460D01*
X14001134Y-13780460D02*
X13982086Y-13789984D01*
X13982086Y-13789984D02*
X13963039Y-13789984D01*
X13963039Y-13789984D02*
X13943991Y-13780460D01*
X13943991Y-13780460D02*
X13934467Y-13770936D01*
X13934467Y-13770936D02*
X13924943Y-13751888D01*
X13924943Y-13751888D02*
X13915420Y-13713793D01*
X13915420Y-13713793D02*
X13915420Y-13666174D01*
X13915420Y-13666174D02*
X13924943Y-13628079D01*
X13924943Y-13628079D02*
X13934467Y-13609031D01*
X13934467Y-13609031D02*
X13943991Y-13599508D01*
X13943991Y-13599508D02*
X13963039Y-13589984D01*
X14115420Y-13789984D02*
X14115420Y-13656650D01*
X14115420Y-13675698D02*
X14124943Y-13666174D01*
X14124943Y-13666174D02*
X14143991Y-13656650D01*
X14143991Y-13656650D02*
X14172563Y-13656650D01*
X14172563Y-13656650D02*
X14191610Y-13666174D01*
X14191610Y-13666174D02*
X14201134Y-13685222D01*
X14201134Y-13685222D02*
X14201134Y-13789984D01*
X14201134Y-13685222D02*
X14210658Y-13666174D01*
X14210658Y-13666174D02*
X14229705Y-13656650D01*
X14229705Y-13656650D02*
X14258277Y-13656650D01*
X14258277Y-13656650D02*
X14277324Y-13666174D01*
X14277324Y-13666174D02*
X14286848Y-13685222D01*
X14286848Y-13685222D02*
X14286848Y-13789984D01*
X14382086Y-13789984D02*
X14382086Y-13656650D01*
X14382086Y-13675698D02*
X14391610Y-13666174D01*
X14391610Y-13666174D02*
X14410658Y-13656650D01*
X14410658Y-13656650D02*
X14439229Y-13656650D01*
X14439229Y-13656650D02*
X14458277Y-13666174D01*
X14458277Y-13666174D02*
X14467801Y-13685222D01*
X14467801Y-13685222D02*
X14467801Y-13789984D01*
X14467801Y-13685222D02*
X14477324Y-13666174D01*
X14477324Y-13666174D02*
X14496372Y-13656650D01*
X14496372Y-13656650D02*
X14524943Y-13656650D01*
X14524943Y-13656650D02*
X14543991Y-13666174D01*
X14543991Y-13666174D02*
X14553515Y-13685222D01*
X14553515Y-13685222D02*
X14553515Y-13789984D01*
X14943991Y-13580460D02*
X14772563Y-13837603D01*
X15201134Y-13589984D02*
X15220182Y-13589984D01*
X15220182Y-13589984D02*
X15239229Y-13599508D01*
X15239229Y-13599508D02*
X15248753Y-13609031D01*
X15248753Y-13609031D02*
X15258277Y-13628079D01*
X15258277Y-13628079D02*
X15267801Y-13666174D01*
X15267801Y-13666174D02*
X15267801Y-13713793D01*
X15267801Y-13713793D02*
X15258277Y-13751888D01*
X15258277Y-13751888D02*
X15248753Y-13770936D01*
X15248753Y-13770936D02*
X15239229Y-13780460D01*
X15239229Y-13780460D02*
X15220182Y-13789984D01*
X15220182Y-13789984D02*
X15201134Y-13789984D01*
X15201134Y-13789984D02*
X15182086Y-13780460D01*
X15182086Y-13780460D02*
X15172563Y-13770936D01*
X15172563Y-13770936D02*
X15163039Y-13751888D01*
X15163039Y-13751888D02*
X15153515Y-13713793D01*
X15153515Y-13713793D02*
X15153515Y-13666174D01*
X15153515Y-13666174D02*
X15163039Y-13628079D01*
X15163039Y-13628079D02*
X15172563Y-13609031D01*
X15172563Y-13609031D02*
X15182086Y-13599508D01*
X15182086Y-13599508D02*
X15201134Y-13589984D01*
X15353515Y-13770936D02*
X15363039Y-13780460D01*
X15363039Y-13780460D02*
X15353515Y-13789984D01*
X15353515Y-13789984D02*
X15343991Y-13780460D01*
X15343991Y-13780460D02*
X15353515Y-13770936D01*
X15353515Y-13770936D02*
X15353515Y-13789984D01*
X15486848Y-13589984D02*
X15505896Y-13589984D01*
X15505896Y-13589984D02*
X15524944Y-13599508D01*
X15524944Y-13599508D02*
X15534467Y-13609031D01*
X15534467Y-13609031D02*
X15543991Y-13628079D01*
X15543991Y-13628079D02*
X15553515Y-13666174D01*
X15553515Y-13666174D02*
X15553515Y-13713793D01*
X15553515Y-13713793D02*
X15543991Y-13751888D01*
X15543991Y-13751888D02*
X15534467Y-13770936D01*
X15534467Y-13770936D02*
X15524944Y-13780460D01*
X15524944Y-13780460D02*
X15505896Y-13789984D01*
X15505896Y-13789984D02*
X15486848Y-13789984D01*
X15486848Y-13789984D02*
X15467801Y-13780460D01*
X15467801Y-13780460D02*
X15458277Y-13770936D01*
X15458277Y-13770936D02*
X15448753Y-13751888D01*
X15448753Y-13751888D02*
X15439229Y-13713793D01*
X15439229Y-13713793D02*
X15439229Y-13666174D01*
X15439229Y-13666174D02*
X15448753Y-13628079D01*
X15448753Y-13628079D02*
X15458277Y-13609031D01*
X15458277Y-13609031D02*
X15467801Y-13599508D01*
X15467801Y-13599508D02*
X15486848Y-13589984D01*
X15620182Y-13589984D02*
X15743991Y-13589984D01*
X15743991Y-13589984D02*
X15677325Y-13666174D01*
X15677325Y-13666174D02*
X15705896Y-13666174D01*
X15705896Y-13666174D02*
X15724944Y-13675698D01*
X15724944Y-13675698D02*
X15734467Y-13685222D01*
X15734467Y-13685222D02*
X15743991Y-13704269D01*
X15743991Y-13704269D02*
X15743991Y-13751888D01*
X15743991Y-13751888D02*
X15734467Y-13770936D01*
X15734467Y-13770936D02*
X15724944Y-13780460D01*
X15724944Y-13780460D02*
X15705896Y-13789984D01*
X15705896Y-13789984D02*
X15648753Y-13789984D01*
X15648753Y-13789984D02*
X15629706Y-13780460D01*
X15629706Y-13780460D02*
X15620182Y-13770936D01*
X15924944Y-13589984D02*
X15829706Y-13589984D01*
X15829706Y-13589984D02*
X15820182Y-13685222D01*
X15820182Y-13685222D02*
X15829706Y-13675698D01*
X15829706Y-13675698D02*
X15848753Y-13666174D01*
X15848753Y-13666174D02*
X15896372Y-13666174D01*
X15896372Y-13666174D02*
X15915420Y-13675698D01*
X15915420Y-13675698D02*
X15924944Y-13685222D01*
X15924944Y-13685222D02*
X15934467Y-13704269D01*
X15934467Y-13704269D02*
X15934467Y-13751888D01*
X15934467Y-13751888D02*
X15924944Y-13770936D01*
X15924944Y-13770936D02*
X15915420Y-13780460D01*
X15915420Y-13780460D02*
X15896372Y-13789984D01*
X15896372Y-13789984D02*
X15848753Y-13789984D01*
X15848753Y-13789984D02*
X15829706Y-13780460D01*
X15829706Y-13780460D02*
X15820182Y-13770936D01*
X16048753Y-13675698D02*
X16029706Y-13666174D01*
X16029706Y-13666174D02*
X16020182Y-13656650D01*
X16020182Y-13656650D02*
X16010658Y-13637603D01*
X16010658Y-13637603D02*
X16010658Y-13628079D01*
X16010658Y-13628079D02*
X16020182Y-13609031D01*
X16020182Y-13609031D02*
X16029706Y-13599508D01*
X16029706Y-13599508D02*
X16048753Y-13589984D01*
X16048753Y-13589984D02*
X16086848Y-13589984D01*
X16086848Y-13589984D02*
X16105896Y-13599508D01*
X16105896Y-13599508D02*
X16115420Y-13609031D01*
X16115420Y-13609031D02*
X16124944Y-13628079D01*
X16124944Y-13628079D02*
X16124944Y-13637603D01*
X16124944Y-13637603D02*
X16115420Y-13656650D01*
X16115420Y-13656650D02*
X16105896Y-13666174D01*
X16105896Y-13666174D02*
X16086848Y-13675698D01*
X16086848Y-13675698D02*
X16048753Y-13675698D01*
X16048753Y-13675698D02*
X16029706Y-13685222D01*
X16029706Y-13685222D02*
X16020182Y-13694746D01*
X16020182Y-13694746D02*
X16010658Y-13713793D01*
X16010658Y-13713793D02*
X16010658Y-13751888D01*
X16010658Y-13751888D02*
X16020182Y-13770936D01*
X16020182Y-13770936D02*
X16029706Y-13780460D01*
X16029706Y-13780460D02*
X16048753Y-13789984D01*
X16048753Y-13789984D02*
X16086848Y-13789984D01*
X16086848Y-13789984D02*
X16105896Y-13780460D01*
X16105896Y-13780460D02*
X16115420Y-13770936D01*
X16115420Y-13770936D02*
X16124944Y-13751888D01*
X16124944Y-13751888D02*
X16124944Y-13713793D01*
X16124944Y-13713793D02*
X16115420Y-13694746D01*
X16115420Y-13694746D02*
X16105896Y-13685222D01*
X16105896Y-13685222D02*
X16086848Y-13675698D01*
X16201134Y-13589984D02*
X16201134Y-13628079D01*
X16277325Y-13589984D02*
X16277325Y-13628079D01*
X16572563Y-13866174D02*
X16563039Y-13856650D01*
X16563039Y-13856650D02*
X16543991Y-13828079D01*
X16543991Y-13828079D02*
X16534468Y-13809031D01*
X16534468Y-13809031D02*
X16524944Y-13780460D01*
X16524944Y-13780460D02*
X16515420Y-13732841D01*
X16515420Y-13732841D02*
X16515420Y-13694746D01*
X16515420Y-13694746D02*
X16524944Y-13647127D01*
X16524944Y-13647127D02*
X16534468Y-13618555D01*
X16534468Y-13618555D02*
X16543991Y-13599508D01*
X16543991Y-13599508D02*
X16563039Y-13570936D01*
X16563039Y-13570936D02*
X16572563Y-13561412D01*
X16639229Y-13609031D02*
X16648753Y-13599508D01*
X16648753Y-13599508D02*
X16667801Y-13589984D01*
X16667801Y-13589984D02*
X16715420Y-13589984D01*
X16715420Y-13589984D02*
X16734468Y-13599508D01*
X16734468Y-13599508D02*
X16743991Y-13609031D01*
X16743991Y-13609031D02*
X16753515Y-13628079D01*
X16753515Y-13628079D02*
X16753515Y-13647127D01*
X16753515Y-13647127D02*
X16743991Y-13675698D01*
X16743991Y-13675698D02*
X16629706Y-13789984D01*
X16629706Y-13789984D02*
X16753515Y-13789984D01*
X16877325Y-13589984D02*
X16896372Y-13589984D01*
X16896372Y-13589984D02*
X16915420Y-13599508D01*
X16915420Y-13599508D02*
X16924944Y-13609031D01*
X16924944Y-13609031D02*
X16934468Y-13628079D01*
X16934468Y-13628079D02*
X16943991Y-13666174D01*
X16943991Y-13666174D02*
X16943991Y-13713793D01*
X16943991Y-13713793D02*
X16934468Y-13751888D01*
X16934468Y-13751888D02*
X16924944Y-13770936D01*
X16924944Y-13770936D02*
X16915420Y-13780460D01*
X16915420Y-13780460D02*
X16896372Y-13789984D01*
X16896372Y-13789984D02*
X16877325Y-13789984D01*
X16877325Y-13789984D02*
X16858277Y-13780460D01*
X16858277Y-13780460D02*
X16848753Y-13770936D01*
X16848753Y-13770936D02*
X16839230Y-13751888D01*
X16839230Y-13751888D02*
X16829706Y-13713793D01*
X16829706Y-13713793D02*
X16829706Y-13666174D01*
X16829706Y-13666174D02*
X16839230Y-13628079D01*
X16839230Y-13628079D02*
X16848753Y-13609031D01*
X16848753Y-13609031D02*
X16858277Y-13599508D01*
X16858277Y-13599508D02*
X16877325Y-13589984D01*
X17182087Y-13789984D02*
X17182087Y-13589984D01*
X17267801Y-13789984D02*
X17267801Y-13685222D01*
X17267801Y-13685222D02*
X17258277Y-13666174D01*
X17258277Y-13666174D02*
X17239230Y-13656650D01*
X17239230Y-13656650D02*
X17210658Y-13656650D01*
X17210658Y-13656650D02*
X17191611Y-13666174D01*
X17191611Y-13666174D02*
X17182087Y-13675698D01*
X17391611Y-13789984D02*
X17372563Y-13780460D01*
X17372563Y-13780460D02*
X17363039Y-13770936D01*
X17363039Y-13770936D02*
X17353515Y-13751888D01*
X17353515Y-13751888D02*
X17353515Y-13694746D01*
X17353515Y-13694746D02*
X17363039Y-13675698D01*
X17363039Y-13675698D02*
X17372563Y-13666174D01*
X17372563Y-13666174D02*
X17391611Y-13656650D01*
X17391611Y-13656650D02*
X17420182Y-13656650D01*
X17420182Y-13656650D02*
X17439230Y-13666174D01*
X17439230Y-13666174D02*
X17448753Y-13675698D01*
X17448753Y-13675698D02*
X17458277Y-13694746D01*
X17458277Y-13694746D02*
X17458277Y-13751888D01*
X17458277Y-13751888D02*
X17448753Y-13770936D01*
X17448753Y-13770936D02*
X17439230Y-13780460D01*
X17439230Y-13780460D02*
X17420182Y-13789984D01*
X17420182Y-13789984D02*
X17391611Y-13789984D01*
X17572563Y-13789984D02*
X17553515Y-13780460D01*
X17553515Y-13780460D02*
X17543992Y-13761412D01*
X17543992Y-13761412D02*
X17543992Y-13589984D01*
X17724944Y-13780460D02*
X17705896Y-13789984D01*
X17705896Y-13789984D02*
X17667801Y-13789984D01*
X17667801Y-13789984D02*
X17648753Y-13780460D01*
X17648753Y-13780460D02*
X17639230Y-13761412D01*
X17639230Y-13761412D02*
X17639230Y-13685222D01*
X17639230Y-13685222D02*
X17648753Y-13666174D01*
X17648753Y-13666174D02*
X17667801Y-13656650D01*
X17667801Y-13656650D02*
X17705896Y-13656650D01*
X17705896Y-13656650D02*
X17724944Y-13666174D01*
X17724944Y-13666174D02*
X17734468Y-13685222D01*
X17734468Y-13685222D02*
X17734468Y-13704269D01*
X17734468Y-13704269D02*
X17639230Y-13723317D01*
X17810658Y-13780460D02*
X17829706Y-13789984D01*
X17829706Y-13789984D02*
X17867801Y-13789984D01*
X17867801Y-13789984D02*
X17886849Y-13780460D01*
X17886849Y-13780460D02*
X17896373Y-13761412D01*
X17896373Y-13761412D02*
X17896373Y-13751888D01*
X17896373Y-13751888D02*
X17886849Y-13732841D01*
X17886849Y-13732841D02*
X17867801Y-13723317D01*
X17867801Y-13723317D02*
X17839230Y-13723317D01*
X17839230Y-13723317D02*
X17820182Y-13713793D01*
X17820182Y-13713793D02*
X17810658Y-13694746D01*
X17810658Y-13694746D02*
X17810658Y-13685222D01*
X17810658Y-13685222D02*
X17820182Y-13666174D01*
X17820182Y-13666174D02*
X17839230Y-13656650D01*
X17839230Y-13656650D02*
X17867801Y-13656650D01*
X17867801Y-13656650D02*
X17886849Y-13666174D01*
X17963039Y-13866174D02*
X17972563Y-13856650D01*
X17972563Y-13856650D02*
X17991611Y-13828079D01*
X17991611Y-13828079D02*
X18001134Y-13809031D01*
X18001134Y-13809031D02*
X18010658Y-13780460D01*
X18010658Y-13780460D02*
X18020182Y-13732841D01*
X18020182Y-13732841D02*
X18020182Y-13694746D01*
X18020182Y-13694746D02*
X18010658Y-13647127D01*
X18010658Y-13647127D02*
X18001134Y-13618555D01*
X18001134Y-13618555D02*
X17991611Y-13599508D01*
X17991611Y-13599508D02*
X17972563Y-13570936D01*
X17972563Y-13570936D02*
X17963039Y-13561412D01*
D13*
X12877500Y-13902500D02*
X12997500Y-14022500D01*
X12997500Y-13902500D02*
X12877500Y-14022500D01*
X12997500Y-13962500D02*
G75*
G02*
X12877500Y-13962500I-60000J0D01*
G01*
X12877500Y-13962500D02*
G75*
G02*
X12997500Y-13962500I60000J0D01*
G01*
D11*
X13363039Y-14053984D02*
X13248753Y-14053984D01*
X13305896Y-14053984D02*
X13305896Y-13853984D01*
X13305896Y-13853984D02*
X13286848Y-13882555D01*
X13286848Y-13882555D02*
X13267801Y-13901603D01*
X13267801Y-13901603D02*
X13248753Y-13911127D01*
X13448753Y-14034936D02*
X13458277Y-14044460D01*
X13458277Y-14044460D02*
X13448753Y-14053984D01*
X13448753Y-14053984D02*
X13439229Y-14044460D01*
X13439229Y-14044460D02*
X13448753Y-14034936D01*
X13448753Y-14034936D02*
X13448753Y-14053984D01*
X13534467Y-13873031D02*
X13543991Y-13863508D01*
X13543991Y-13863508D02*
X13563039Y-13853984D01*
X13563039Y-13853984D02*
X13610658Y-13853984D01*
X13610658Y-13853984D02*
X13629705Y-13863508D01*
X13629705Y-13863508D02*
X13639229Y-13873031D01*
X13639229Y-13873031D02*
X13648753Y-13892079D01*
X13648753Y-13892079D02*
X13648753Y-13911127D01*
X13648753Y-13911127D02*
X13639229Y-13939698D01*
X13639229Y-13939698D02*
X13524943Y-14053984D01*
X13524943Y-14053984D02*
X13648753Y-14053984D01*
X13772562Y-13853984D02*
X13791610Y-13853984D01*
X13791610Y-13853984D02*
X13810658Y-13863508D01*
X13810658Y-13863508D02*
X13820182Y-13873031D01*
X13820182Y-13873031D02*
X13829705Y-13892079D01*
X13829705Y-13892079D02*
X13839229Y-13930174D01*
X13839229Y-13930174D02*
X13839229Y-13977793D01*
X13839229Y-13977793D02*
X13829705Y-14015888D01*
X13829705Y-14015888D02*
X13820182Y-14034936D01*
X13820182Y-14034936D02*
X13810658Y-14044460D01*
X13810658Y-14044460D02*
X13791610Y-14053984D01*
X13791610Y-14053984D02*
X13772562Y-14053984D01*
X13772562Y-14053984D02*
X13753515Y-14044460D01*
X13753515Y-14044460D02*
X13743991Y-14034936D01*
X13743991Y-14034936D02*
X13734467Y-14015888D01*
X13734467Y-14015888D02*
X13724943Y-13977793D01*
X13724943Y-13977793D02*
X13724943Y-13930174D01*
X13724943Y-13930174D02*
X13734467Y-13892079D01*
X13734467Y-13892079D02*
X13743991Y-13873031D01*
X13743991Y-13873031D02*
X13753515Y-13863508D01*
X13753515Y-13863508D02*
X13772562Y-13853984D01*
X13963039Y-13853984D02*
X13982086Y-13853984D01*
X13982086Y-13853984D02*
X14001134Y-13863508D01*
X14001134Y-13863508D02*
X14010658Y-13873031D01*
X14010658Y-13873031D02*
X14020182Y-13892079D01*
X14020182Y-13892079D02*
X14029705Y-13930174D01*
X14029705Y-13930174D02*
X14029705Y-13977793D01*
X14029705Y-13977793D02*
X14020182Y-14015888D01*
X14020182Y-14015888D02*
X14010658Y-14034936D01*
X14010658Y-14034936D02*
X14001134Y-14044460D01*
X14001134Y-14044460D02*
X13982086Y-14053984D01*
X13982086Y-14053984D02*
X13963039Y-14053984D01*
X13963039Y-14053984D02*
X13943991Y-14044460D01*
X13943991Y-14044460D02*
X13934467Y-14034936D01*
X13934467Y-14034936D02*
X13924943Y-14015888D01*
X13924943Y-14015888D02*
X13915420Y-13977793D01*
X13915420Y-13977793D02*
X13915420Y-13930174D01*
X13915420Y-13930174D02*
X13924943Y-13892079D01*
X13924943Y-13892079D02*
X13934467Y-13873031D01*
X13934467Y-13873031D02*
X13943991Y-13863508D01*
X13943991Y-13863508D02*
X13963039Y-13853984D01*
X14115420Y-14053984D02*
X14115420Y-13920650D01*
X14115420Y-13939698D02*
X14124943Y-13930174D01*
X14124943Y-13930174D02*
X14143991Y-13920650D01*
X14143991Y-13920650D02*
X14172563Y-13920650D01*
X14172563Y-13920650D02*
X14191610Y-13930174D01*
X14191610Y-13930174D02*
X14201134Y-13949222D01*
X14201134Y-13949222D02*
X14201134Y-14053984D01*
X14201134Y-13949222D02*
X14210658Y-13930174D01*
X14210658Y-13930174D02*
X14229705Y-13920650D01*
X14229705Y-13920650D02*
X14258277Y-13920650D01*
X14258277Y-13920650D02*
X14277324Y-13930174D01*
X14277324Y-13930174D02*
X14286848Y-13949222D01*
X14286848Y-13949222D02*
X14286848Y-14053984D01*
X14382086Y-14053984D02*
X14382086Y-13920650D01*
X14382086Y-13939698D02*
X14391610Y-13930174D01*
X14391610Y-13930174D02*
X14410658Y-13920650D01*
X14410658Y-13920650D02*
X14439229Y-13920650D01*
X14439229Y-13920650D02*
X14458277Y-13930174D01*
X14458277Y-13930174D02*
X14467801Y-13949222D01*
X14467801Y-13949222D02*
X14467801Y-14053984D01*
X14467801Y-13949222D02*
X14477324Y-13930174D01*
X14477324Y-13930174D02*
X14496372Y-13920650D01*
X14496372Y-13920650D02*
X14524943Y-13920650D01*
X14524943Y-13920650D02*
X14543991Y-13930174D01*
X14543991Y-13930174D02*
X14553515Y-13949222D01*
X14553515Y-13949222D02*
X14553515Y-14053984D01*
X14943991Y-13844460D02*
X14772563Y-14101603D01*
X15201134Y-13853984D02*
X15220182Y-13853984D01*
X15220182Y-13853984D02*
X15239229Y-13863508D01*
X15239229Y-13863508D02*
X15248753Y-13873031D01*
X15248753Y-13873031D02*
X15258277Y-13892079D01*
X15258277Y-13892079D02*
X15267801Y-13930174D01*
X15267801Y-13930174D02*
X15267801Y-13977793D01*
X15267801Y-13977793D02*
X15258277Y-14015888D01*
X15258277Y-14015888D02*
X15248753Y-14034936D01*
X15248753Y-14034936D02*
X15239229Y-14044460D01*
X15239229Y-14044460D02*
X15220182Y-14053984D01*
X15220182Y-14053984D02*
X15201134Y-14053984D01*
X15201134Y-14053984D02*
X15182086Y-14044460D01*
X15182086Y-14044460D02*
X15172563Y-14034936D01*
X15172563Y-14034936D02*
X15163039Y-14015888D01*
X15163039Y-14015888D02*
X15153515Y-13977793D01*
X15153515Y-13977793D02*
X15153515Y-13930174D01*
X15153515Y-13930174D02*
X15163039Y-13892079D01*
X15163039Y-13892079D02*
X15172563Y-13873031D01*
X15172563Y-13873031D02*
X15182086Y-13863508D01*
X15182086Y-13863508D02*
X15201134Y-13853984D01*
X15353515Y-14034936D02*
X15363039Y-14044460D01*
X15363039Y-14044460D02*
X15353515Y-14053984D01*
X15353515Y-14053984D02*
X15343991Y-14044460D01*
X15343991Y-14044460D02*
X15353515Y-14034936D01*
X15353515Y-14034936D02*
X15353515Y-14053984D01*
X15486848Y-13853984D02*
X15505896Y-13853984D01*
X15505896Y-13853984D02*
X15524944Y-13863508D01*
X15524944Y-13863508D02*
X15534467Y-13873031D01*
X15534467Y-13873031D02*
X15543991Y-13892079D01*
X15543991Y-13892079D02*
X15553515Y-13930174D01*
X15553515Y-13930174D02*
X15553515Y-13977793D01*
X15553515Y-13977793D02*
X15543991Y-14015888D01*
X15543991Y-14015888D02*
X15534467Y-14034936D01*
X15534467Y-14034936D02*
X15524944Y-14044460D01*
X15524944Y-14044460D02*
X15505896Y-14053984D01*
X15505896Y-14053984D02*
X15486848Y-14053984D01*
X15486848Y-14053984D02*
X15467801Y-14044460D01*
X15467801Y-14044460D02*
X15458277Y-14034936D01*
X15458277Y-14034936D02*
X15448753Y-14015888D01*
X15448753Y-14015888D02*
X15439229Y-13977793D01*
X15439229Y-13977793D02*
X15439229Y-13930174D01*
X15439229Y-13930174D02*
X15448753Y-13892079D01*
X15448753Y-13892079D02*
X15458277Y-13873031D01*
X15458277Y-13873031D02*
X15467801Y-13863508D01*
X15467801Y-13863508D02*
X15486848Y-13853984D01*
X15724944Y-13920650D02*
X15724944Y-14053984D01*
X15677325Y-13844460D02*
X15629706Y-13987317D01*
X15629706Y-13987317D02*
X15753515Y-13987317D01*
X15810658Y-13853984D02*
X15943991Y-13853984D01*
X15943991Y-13853984D02*
X15858277Y-14053984D01*
X16010658Y-13873031D02*
X16020182Y-13863508D01*
X16020182Y-13863508D02*
X16039229Y-13853984D01*
X16039229Y-13853984D02*
X16086848Y-13853984D01*
X16086848Y-13853984D02*
X16105896Y-13863508D01*
X16105896Y-13863508D02*
X16115420Y-13873031D01*
X16115420Y-13873031D02*
X16124944Y-13892079D01*
X16124944Y-13892079D02*
X16124944Y-13911127D01*
X16124944Y-13911127D02*
X16115420Y-13939698D01*
X16115420Y-13939698D02*
X16001134Y-14053984D01*
X16001134Y-14053984D02*
X16124944Y-14053984D01*
X16201134Y-13853984D02*
X16201134Y-13892079D01*
X16277325Y-13853984D02*
X16277325Y-13892079D01*
X16572563Y-14130174D02*
X16563039Y-14120650D01*
X16563039Y-14120650D02*
X16543991Y-14092079D01*
X16543991Y-14092079D02*
X16534468Y-14073031D01*
X16534468Y-14073031D02*
X16524944Y-14044460D01*
X16524944Y-14044460D02*
X16515420Y-13996841D01*
X16515420Y-13996841D02*
X16515420Y-13958746D01*
X16515420Y-13958746D02*
X16524944Y-13911127D01*
X16524944Y-13911127D02*
X16534468Y-13882555D01*
X16534468Y-13882555D02*
X16543991Y-13863508D01*
X16543991Y-13863508D02*
X16563039Y-13834936D01*
X16563039Y-13834936D02*
X16572563Y-13825412D01*
X16639229Y-13873031D02*
X16648753Y-13863508D01*
X16648753Y-13863508D02*
X16667801Y-13853984D01*
X16667801Y-13853984D02*
X16715420Y-13853984D01*
X16715420Y-13853984D02*
X16734468Y-13863508D01*
X16734468Y-13863508D02*
X16743991Y-13873031D01*
X16743991Y-13873031D02*
X16753515Y-13892079D01*
X16753515Y-13892079D02*
X16753515Y-13911127D01*
X16753515Y-13911127D02*
X16743991Y-13939698D01*
X16743991Y-13939698D02*
X16629706Y-14053984D01*
X16629706Y-14053984D02*
X16753515Y-14053984D01*
X16991611Y-14053984D02*
X16991611Y-13853984D01*
X17077325Y-14053984D02*
X17077325Y-13949222D01*
X17077325Y-13949222D02*
X17067801Y-13930174D01*
X17067801Y-13930174D02*
X17048753Y-13920650D01*
X17048753Y-13920650D02*
X17020182Y-13920650D01*
X17020182Y-13920650D02*
X17001134Y-13930174D01*
X17001134Y-13930174D02*
X16991611Y-13939698D01*
X17201134Y-14053984D02*
X17182087Y-14044460D01*
X17182087Y-14044460D02*
X17172563Y-14034936D01*
X17172563Y-14034936D02*
X17163039Y-14015888D01*
X17163039Y-14015888D02*
X17163039Y-13958746D01*
X17163039Y-13958746D02*
X17172563Y-13939698D01*
X17172563Y-13939698D02*
X17182087Y-13930174D01*
X17182087Y-13930174D02*
X17201134Y-13920650D01*
X17201134Y-13920650D02*
X17229706Y-13920650D01*
X17229706Y-13920650D02*
X17248753Y-13930174D01*
X17248753Y-13930174D02*
X17258277Y-13939698D01*
X17258277Y-13939698D02*
X17267801Y-13958746D01*
X17267801Y-13958746D02*
X17267801Y-14015888D01*
X17267801Y-14015888D02*
X17258277Y-14034936D01*
X17258277Y-14034936D02*
X17248753Y-14044460D01*
X17248753Y-14044460D02*
X17229706Y-14053984D01*
X17229706Y-14053984D02*
X17201134Y-14053984D01*
X17382087Y-14053984D02*
X17363039Y-14044460D01*
X17363039Y-14044460D02*
X17353515Y-14025412D01*
X17353515Y-14025412D02*
X17353515Y-13853984D01*
X17534468Y-14044460D02*
X17515420Y-14053984D01*
X17515420Y-14053984D02*
X17477325Y-14053984D01*
X17477325Y-14053984D02*
X17458277Y-14044460D01*
X17458277Y-14044460D02*
X17448753Y-14025412D01*
X17448753Y-14025412D02*
X17448753Y-13949222D01*
X17448753Y-13949222D02*
X17458277Y-13930174D01*
X17458277Y-13930174D02*
X17477325Y-13920650D01*
X17477325Y-13920650D02*
X17515420Y-13920650D01*
X17515420Y-13920650D02*
X17534468Y-13930174D01*
X17534468Y-13930174D02*
X17543992Y-13949222D01*
X17543992Y-13949222D02*
X17543992Y-13968269D01*
X17543992Y-13968269D02*
X17448753Y-13987317D01*
X17620182Y-14044460D02*
X17639230Y-14053984D01*
X17639230Y-14053984D02*
X17677325Y-14053984D01*
X17677325Y-14053984D02*
X17696373Y-14044460D01*
X17696373Y-14044460D02*
X17705896Y-14025412D01*
X17705896Y-14025412D02*
X17705896Y-14015888D01*
X17705896Y-14015888D02*
X17696373Y-13996841D01*
X17696373Y-13996841D02*
X17677325Y-13987317D01*
X17677325Y-13987317D02*
X17648753Y-13987317D01*
X17648753Y-13987317D02*
X17629706Y-13977793D01*
X17629706Y-13977793D02*
X17620182Y-13958746D01*
X17620182Y-13958746D02*
X17620182Y-13949222D01*
X17620182Y-13949222D02*
X17629706Y-13930174D01*
X17629706Y-13930174D02*
X17648753Y-13920650D01*
X17648753Y-13920650D02*
X17677325Y-13920650D01*
X17677325Y-13920650D02*
X17696373Y-13930174D01*
X17772563Y-14130174D02*
X17782087Y-14120650D01*
X17782087Y-14120650D02*
X17801134Y-14092079D01*
X17801134Y-14092079D02*
X17810658Y-14073031D01*
X17810658Y-14073031D02*
X17820182Y-14044460D01*
X17820182Y-14044460D02*
X17829706Y-13996841D01*
X17829706Y-13996841D02*
X17829706Y-13958746D01*
X17829706Y-13958746D02*
X17820182Y-13911127D01*
X17820182Y-13911127D02*
X17810658Y-13882555D01*
X17810658Y-13882555D02*
X17801134Y-13863508D01*
X17801134Y-13863508D02*
X17782087Y-13834936D01*
X17782087Y-13834936D02*
X17772563Y-13825412D01*
D14*
X12827500Y-14141500D02*
X12997500Y-14311500D01*
X12997500Y-14141500D02*
X12827500Y-14311500D01*
X12912500Y-14141500D02*
X12912500Y-14311500D01*
X12827500Y-14226500D02*
X12997500Y-14226500D01*
D11*
X13363039Y-14317984D02*
X13248753Y-14317984D01*
X13305896Y-14317984D02*
X13305896Y-14117984D01*
X13305896Y-14117984D02*
X13286848Y-14146555D01*
X13286848Y-14146555D02*
X13267801Y-14165603D01*
X13267801Y-14165603D02*
X13248753Y-14175127D01*
X13448753Y-14298936D02*
X13458277Y-14308460D01*
X13458277Y-14308460D02*
X13448753Y-14317984D01*
X13448753Y-14317984D02*
X13439229Y-14308460D01*
X13439229Y-14308460D02*
X13448753Y-14298936D01*
X13448753Y-14298936D02*
X13448753Y-14317984D01*
X13524943Y-14117984D02*
X13658277Y-14117984D01*
X13658277Y-14117984D02*
X13572562Y-14317984D01*
X13772562Y-14117984D02*
X13791610Y-14117984D01*
X13791610Y-14117984D02*
X13810658Y-14127508D01*
X13810658Y-14127508D02*
X13820182Y-14137031D01*
X13820182Y-14137031D02*
X13829705Y-14156079D01*
X13829705Y-14156079D02*
X13839229Y-14194174D01*
X13839229Y-14194174D02*
X13839229Y-14241793D01*
X13839229Y-14241793D02*
X13829705Y-14279888D01*
X13829705Y-14279888D02*
X13820182Y-14298936D01*
X13820182Y-14298936D02*
X13810658Y-14308460D01*
X13810658Y-14308460D02*
X13791610Y-14317984D01*
X13791610Y-14317984D02*
X13772562Y-14317984D01*
X13772562Y-14317984D02*
X13753515Y-14308460D01*
X13753515Y-14308460D02*
X13743991Y-14298936D01*
X13743991Y-14298936D02*
X13734467Y-14279888D01*
X13734467Y-14279888D02*
X13724943Y-14241793D01*
X13724943Y-14241793D02*
X13724943Y-14194174D01*
X13724943Y-14194174D02*
X13734467Y-14156079D01*
X13734467Y-14156079D02*
X13743991Y-14137031D01*
X13743991Y-14137031D02*
X13753515Y-14127508D01*
X13753515Y-14127508D02*
X13772562Y-14117984D01*
X13963039Y-14117984D02*
X13982086Y-14117984D01*
X13982086Y-14117984D02*
X14001134Y-14127508D01*
X14001134Y-14127508D02*
X14010658Y-14137031D01*
X14010658Y-14137031D02*
X14020182Y-14156079D01*
X14020182Y-14156079D02*
X14029705Y-14194174D01*
X14029705Y-14194174D02*
X14029705Y-14241793D01*
X14029705Y-14241793D02*
X14020182Y-14279888D01*
X14020182Y-14279888D02*
X14010658Y-14298936D01*
X14010658Y-14298936D02*
X14001134Y-14308460D01*
X14001134Y-14308460D02*
X13982086Y-14317984D01*
X13982086Y-14317984D02*
X13963039Y-14317984D01*
X13963039Y-14317984D02*
X13943991Y-14308460D01*
X13943991Y-14308460D02*
X13934467Y-14298936D01*
X13934467Y-14298936D02*
X13924943Y-14279888D01*
X13924943Y-14279888D02*
X13915420Y-14241793D01*
X13915420Y-14241793D02*
X13915420Y-14194174D01*
X13915420Y-14194174D02*
X13924943Y-14156079D01*
X13924943Y-14156079D02*
X13934467Y-14137031D01*
X13934467Y-14137031D02*
X13943991Y-14127508D01*
X13943991Y-14127508D02*
X13963039Y-14117984D01*
X14115420Y-14317984D02*
X14115420Y-14184650D01*
X14115420Y-14203698D02*
X14124943Y-14194174D01*
X14124943Y-14194174D02*
X14143991Y-14184650D01*
X14143991Y-14184650D02*
X14172563Y-14184650D01*
X14172563Y-14184650D02*
X14191610Y-14194174D01*
X14191610Y-14194174D02*
X14201134Y-14213222D01*
X14201134Y-14213222D02*
X14201134Y-14317984D01*
X14201134Y-14213222D02*
X14210658Y-14194174D01*
X14210658Y-14194174D02*
X14229705Y-14184650D01*
X14229705Y-14184650D02*
X14258277Y-14184650D01*
X14258277Y-14184650D02*
X14277324Y-14194174D01*
X14277324Y-14194174D02*
X14286848Y-14213222D01*
X14286848Y-14213222D02*
X14286848Y-14317984D01*
X14382086Y-14317984D02*
X14382086Y-14184650D01*
X14382086Y-14203698D02*
X14391610Y-14194174D01*
X14391610Y-14194174D02*
X14410658Y-14184650D01*
X14410658Y-14184650D02*
X14439229Y-14184650D01*
X14439229Y-14184650D02*
X14458277Y-14194174D01*
X14458277Y-14194174D02*
X14467801Y-14213222D01*
X14467801Y-14213222D02*
X14467801Y-14317984D01*
X14467801Y-14213222D02*
X14477324Y-14194174D01*
X14477324Y-14194174D02*
X14496372Y-14184650D01*
X14496372Y-14184650D02*
X14524943Y-14184650D01*
X14524943Y-14184650D02*
X14543991Y-14194174D01*
X14543991Y-14194174D02*
X14553515Y-14213222D01*
X14553515Y-14213222D02*
X14553515Y-14317984D01*
X14943991Y-14108460D02*
X14772563Y-14365603D01*
X15201134Y-14117984D02*
X15220182Y-14117984D01*
X15220182Y-14117984D02*
X15239229Y-14127508D01*
X15239229Y-14127508D02*
X15248753Y-14137031D01*
X15248753Y-14137031D02*
X15258277Y-14156079D01*
X15258277Y-14156079D02*
X15267801Y-14194174D01*
X15267801Y-14194174D02*
X15267801Y-14241793D01*
X15267801Y-14241793D02*
X15258277Y-14279888D01*
X15258277Y-14279888D02*
X15248753Y-14298936D01*
X15248753Y-14298936D02*
X15239229Y-14308460D01*
X15239229Y-14308460D02*
X15220182Y-14317984D01*
X15220182Y-14317984D02*
X15201134Y-14317984D01*
X15201134Y-14317984D02*
X15182086Y-14308460D01*
X15182086Y-14308460D02*
X15172563Y-14298936D01*
X15172563Y-14298936D02*
X15163039Y-14279888D01*
X15163039Y-14279888D02*
X15153515Y-14241793D01*
X15153515Y-14241793D02*
X15153515Y-14194174D01*
X15153515Y-14194174D02*
X15163039Y-14156079D01*
X15163039Y-14156079D02*
X15172563Y-14137031D01*
X15172563Y-14137031D02*
X15182086Y-14127508D01*
X15182086Y-14127508D02*
X15201134Y-14117984D01*
X15353515Y-14298936D02*
X15363039Y-14308460D01*
X15363039Y-14308460D02*
X15353515Y-14317984D01*
X15353515Y-14317984D02*
X15343991Y-14308460D01*
X15343991Y-14308460D02*
X15353515Y-14298936D01*
X15353515Y-14298936D02*
X15353515Y-14317984D01*
X15486848Y-14117984D02*
X15505896Y-14117984D01*
X15505896Y-14117984D02*
X15524944Y-14127508D01*
X15524944Y-14127508D02*
X15534467Y-14137031D01*
X15534467Y-14137031D02*
X15543991Y-14156079D01*
X15543991Y-14156079D02*
X15553515Y-14194174D01*
X15553515Y-14194174D02*
X15553515Y-14241793D01*
X15553515Y-14241793D02*
X15543991Y-14279888D01*
X15543991Y-14279888D02*
X15534467Y-14298936D01*
X15534467Y-14298936D02*
X15524944Y-14308460D01*
X15524944Y-14308460D02*
X15505896Y-14317984D01*
X15505896Y-14317984D02*
X15486848Y-14317984D01*
X15486848Y-14317984D02*
X15467801Y-14308460D01*
X15467801Y-14308460D02*
X15458277Y-14298936D01*
X15458277Y-14298936D02*
X15448753Y-14279888D01*
X15448753Y-14279888D02*
X15439229Y-14241793D01*
X15439229Y-14241793D02*
X15439229Y-14194174D01*
X15439229Y-14194174D02*
X15448753Y-14156079D01*
X15448753Y-14156079D02*
X15458277Y-14137031D01*
X15458277Y-14137031D02*
X15467801Y-14127508D01*
X15467801Y-14127508D02*
X15486848Y-14117984D01*
X15724944Y-14117984D02*
X15686848Y-14117984D01*
X15686848Y-14117984D02*
X15667801Y-14127508D01*
X15667801Y-14127508D02*
X15658277Y-14137031D01*
X15658277Y-14137031D02*
X15639229Y-14165603D01*
X15639229Y-14165603D02*
X15629706Y-14203698D01*
X15629706Y-14203698D02*
X15629706Y-14279888D01*
X15629706Y-14279888D02*
X15639229Y-14298936D01*
X15639229Y-14298936D02*
X15648753Y-14308460D01*
X15648753Y-14308460D02*
X15667801Y-14317984D01*
X15667801Y-14317984D02*
X15705896Y-14317984D01*
X15705896Y-14317984D02*
X15724944Y-14308460D01*
X15724944Y-14308460D02*
X15734467Y-14298936D01*
X15734467Y-14298936D02*
X15743991Y-14279888D01*
X15743991Y-14279888D02*
X15743991Y-14232269D01*
X15743991Y-14232269D02*
X15734467Y-14213222D01*
X15734467Y-14213222D02*
X15724944Y-14203698D01*
X15724944Y-14203698D02*
X15705896Y-14194174D01*
X15705896Y-14194174D02*
X15667801Y-14194174D01*
X15667801Y-14194174D02*
X15648753Y-14203698D01*
X15648753Y-14203698D02*
X15639229Y-14213222D01*
X15639229Y-14213222D02*
X15629706Y-14232269D01*
X15915420Y-14117984D02*
X15877325Y-14117984D01*
X15877325Y-14117984D02*
X15858277Y-14127508D01*
X15858277Y-14127508D02*
X15848753Y-14137031D01*
X15848753Y-14137031D02*
X15829706Y-14165603D01*
X15829706Y-14165603D02*
X15820182Y-14203698D01*
X15820182Y-14203698D02*
X15820182Y-14279888D01*
X15820182Y-14279888D02*
X15829706Y-14298936D01*
X15829706Y-14298936D02*
X15839229Y-14308460D01*
X15839229Y-14308460D02*
X15858277Y-14317984D01*
X15858277Y-14317984D02*
X15896372Y-14317984D01*
X15896372Y-14317984D02*
X15915420Y-14308460D01*
X15915420Y-14308460D02*
X15924944Y-14298936D01*
X15924944Y-14298936D02*
X15934467Y-14279888D01*
X15934467Y-14279888D02*
X15934467Y-14232269D01*
X15934467Y-14232269D02*
X15924944Y-14213222D01*
X15924944Y-14213222D02*
X15915420Y-14203698D01*
X15915420Y-14203698D02*
X15896372Y-14194174D01*
X15896372Y-14194174D02*
X15858277Y-14194174D01*
X15858277Y-14194174D02*
X15839229Y-14203698D01*
X15839229Y-14203698D02*
X15829706Y-14213222D01*
X15829706Y-14213222D02*
X15820182Y-14232269D01*
X16029706Y-14317984D02*
X16067801Y-14317984D01*
X16067801Y-14317984D02*
X16086848Y-14308460D01*
X16086848Y-14308460D02*
X16096372Y-14298936D01*
X16096372Y-14298936D02*
X16115420Y-14270365D01*
X16115420Y-14270365D02*
X16124944Y-14232269D01*
X16124944Y-14232269D02*
X16124944Y-14156079D01*
X16124944Y-14156079D02*
X16115420Y-14137031D01*
X16115420Y-14137031D02*
X16105896Y-14127508D01*
X16105896Y-14127508D02*
X16086848Y-14117984D01*
X16086848Y-14117984D02*
X16048753Y-14117984D01*
X16048753Y-14117984D02*
X16029706Y-14127508D01*
X16029706Y-14127508D02*
X16020182Y-14137031D01*
X16020182Y-14137031D02*
X16010658Y-14156079D01*
X16010658Y-14156079D02*
X16010658Y-14203698D01*
X16010658Y-14203698D02*
X16020182Y-14222746D01*
X16020182Y-14222746D02*
X16029706Y-14232269D01*
X16029706Y-14232269D02*
X16048753Y-14241793D01*
X16048753Y-14241793D02*
X16086848Y-14241793D01*
X16086848Y-14241793D02*
X16105896Y-14232269D01*
X16105896Y-14232269D02*
X16115420Y-14222746D01*
X16115420Y-14222746D02*
X16124944Y-14203698D01*
X16201134Y-14117984D02*
X16201134Y-14156079D01*
X16277325Y-14117984D02*
X16277325Y-14156079D01*
X16572563Y-14394174D02*
X16563039Y-14384650D01*
X16563039Y-14384650D02*
X16543991Y-14356079D01*
X16543991Y-14356079D02*
X16534468Y-14337031D01*
X16534468Y-14337031D02*
X16524944Y-14308460D01*
X16524944Y-14308460D02*
X16515420Y-14260841D01*
X16515420Y-14260841D02*
X16515420Y-14222746D01*
X16515420Y-14222746D02*
X16524944Y-14175127D01*
X16524944Y-14175127D02*
X16534468Y-14146555D01*
X16534468Y-14146555D02*
X16543991Y-14127508D01*
X16543991Y-14127508D02*
X16563039Y-14098936D01*
X16563039Y-14098936D02*
X16572563Y-14089412D01*
X16677325Y-14203698D02*
X16658277Y-14194174D01*
X16658277Y-14194174D02*
X16648753Y-14184650D01*
X16648753Y-14184650D02*
X16639229Y-14165603D01*
X16639229Y-14165603D02*
X16639229Y-14156079D01*
X16639229Y-14156079D02*
X16648753Y-14137031D01*
X16648753Y-14137031D02*
X16658277Y-14127508D01*
X16658277Y-14127508D02*
X16677325Y-14117984D01*
X16677325Y-14117984D02*
X16715420Y-14117984D01*
X16715420Y-14117984D02*
X16734468Y-14127508D01*
X16734468Y-14127508D02*
X16743991Y-14137031D01*
X16743991Y-14137031D02*
X16753515Y-14156079D01*
X16753515Y-14156079D02*
X16753515Y-14165603D01*
X16753515Y-14165603D02*
X16743991Y-14184650D01*
X16743991Y-14184650D02*
X16734468Y-14194174D01*
X16734468Y-14194174D02*
X16715420Y-14203698D01*
X16715420Y-14203698D02*
X16677325Y-14203698D01*
X16677325Y-14203698D02*
X16658277Y-14213222D01*
X16658277Y-14213222D02*
X16648753Y-14222746D01*
X16648753Y-14222746D02*
X16639229Y-14241793D01*
X16639229Y-14241793D02*
X16639229Y-14279888D01*
X16639229Y-14279888D02*
X16648753Y-14298936D01*
X16648753Y-14298936D02*
X16658277Y-14308460D01*
X16658277Y-14308460D02*
X16677325Y-14317984D01*
X16677325Y-14317984D02*
X16715420Y-14317984D01*
X16715420Y-14317984D02*
X16734468Y-14308460D01*
X16734468Y-14308460D02*
X16743991Y-14298936D01*
X16743991Y-14298936D02*
X16753515Y-14279888D01*
X16753515Y-14279888D02*
X16753515Y-14241793D01*
X16753515Y-14241793D02*
X16743991Y-14222746D01*
X16743991Y-14222746D02*
X16734468Y-14213222D01*
X16734468Y-14213222D02*
X16715420Y-14203698D01*
X16991611Y-14317984D02*
X16991611Y-14117984D01*
X17077325Y-14317984D02*
X17077325Y-14213222D01*
X17077325Y-14213222D02*
X17067801Y-14194174D01*
X17067801Y-14194174D02*
X17048753Y-14184650D01*
X17048753Y-14184650D02*
X17020182Y-14184650D01*
X17020182Y-14184650D02*
X17001134Y-14194174D01*
X17001134Y-14194174D02*
X16991611Y-14203698D01*
X17201134Y-14317984D02*
X17182087Y-14308460D01*
X17182087Y-14308460D02*
X17172563Y-14298936D01*
X17172563Y-14298936D02*
X17163039Y-14279888D01*
X17163039Y-14279888D02*
X17163039Y-14222746D01*
X17163039Y-14222746D02*
X17172563Y-14203698D01*
X17172563Y-14203698D02*
X17182087Y-14194174D01*
X17182087Y-14194174D02*
X17201134Y-14184650D01*
X17201134Y-14184650D02*
X17229706Y-14184650D01*
X17229706Y-14184650D02*
X17248753Y-14194174D01*
X17248753Y-14194174D02*
X17258277Y-14203698D01*
X17258277Y-14203698D02*
X17267801Y-14222746D01*
X17267801Y-14222746D02*
X17267801Y-14279888D01*
X17267801Y-14279888D02*
X17258277Y-14298936D01*
X17258277Y-14298936D02*
X17248753Y-14308460D01*
X17248753Y-14308460D02*
X17229706Y-14317984D01*
X17229706Y-14317984D02*
X17201134Y-14317984D01*
X17382087Y-14317984D02*
X17363039Y-14308460D01*
X17363039Y-14308460D02*
X17353515Y-14289412D01*
X17353515Y-14289412D02*
X17353515Y-14117984D01*
X17534468Y-14308460D02*
X17515420Y-14317984D01*
X17515420Y-14317984D02*
X17477325Y-14317984D01*
X17477325Y-14317984D02*
X17458277Y-14308460D01*
X17458277Y-14308460D02*
X17448753Y-14289412D01*
X17448753Y-14289412D02*
X17448753Y-14213222D01*
X17448753Y-14213222D02*
X17458277Y-14194174D01*
X17458277Y-14194174D02*
X17477325Y-14184650D01*
X17477325Y-14184650D02*
X17515420Y-14184650D01*
X17515420Y-14184650D02*
X17534468Y-14194174D01*
X17534468Y-14194174D02*
X17543992Y-14213222D01*
X17543992Y-14213222D02*
X17543992Y-14232269D01*
X17543992Y-14232269D02*
X17448753Y-14251317D01*
X17620182Y-14308460D02*
X17639230Y-14317984D01*
X17639230Y-14317984D02*
X17677325Y-14317984D01*
X17677325Y-14317984D02*
X17696373Y-14308460D01*
X17696373Y-14308460D02*
X17705896Y-14289412D01*
X17705896Y-14289412D02*
X17705896Y-14279888D01*
X17705896Y-14279888D02*
X17696373Y-14260841D01*
X17696373Y-14260841D02*
X17677325Y-14251317D01*
X17677325Y-14251317D02*
X17648753Y-14251317D01*
X17648753Y-14251317D02*
X17629706Y-14241793D01*
X17629706Y-14241793D02*
X17620182Y-14222746D01*
X17620182Y-14222746D02*
X17620182Y-14213222D01*
X17620182Y-14213222D02*
X17629706Y-14194174D01*
X17629706Y-14194174D02*
X17648753Y-14184650D01*
X17648753Y-14184650D02*
X17677325Y-14184650D01*
X17677325Y-14184650D02*
X17696373Y-14194174D01*
X17772563Y-14394174D02*
X17782087Y-14384650D01*
X17782087Y-14384650D02*
X17801134Y-14356079D01*
X17801134Y-14356079D02*
X17810658Y-14337031D01*
X17810658Y-14337031D02*
X17820182Y-14308460D01*
X17820182Y-14308460D02*
X17829706Y-14260841D01*
X17829706Y-14260841D02*
X17829706Y-14222746D01*
X17829706Y-14222746D02*
X17820182Y-14175127D01*
X17820182Y-14175127D02*
X17810658Y-14146555D01*
X17810658Y-14146555D02*
X17801134Y-14127508D01*
X17801134Y-14127508D02*
X17782087Y-14098936D01*
X17782087Y-14098936D02*
X17772563Y-14089412D01*
M02*
