M48
; DRILL file {KiCad 8.0.5} date 2024-10-11T22:45:10+0200
; FORMAT={-:-/ absolute / metric / decimal}
; #@! TF.CreationDate,2024-10-11T22:45:10+02:00
; #@! TF.GenerationSoftware,Kicad,Pcbnew,8.0.5
; #@! TF.FileFunction,MixedPlating,1,2
FMAT,2
METRIC
; #@! TA.AperFunction,Plated,PTH,ViaDrill
T1C0.300
; #@! TA.AperFunction,Plated,PTH,ComponentDrill
T2C0.750
; #@! TA.AperFunction,Plated,PTH,ComponentDrill
T3C0.762
; #@! TA.AperFunction,Plated,PTH,ComponentDrill
T4C0.800
; #@! TA.AperFunction,Plated,PTH,ComponentDrill
T5C0.910
; #@! TA.AperFunction,Plated,PTH,ComponentDrill
T6C1.200
; #@! TA.AperFunction,Plated,PTH,ComponentDrill
T7C1.700
%
G90
G05
T1
X133.0Y-74.4
X134.1Y-71.2
X134.1Y-74.4
X135.1Y-71.2
X135.1Y-74.4
X136.2Y-61.1
X136.2Y-71.2
X136.2Y-74.4
X141.1Y-83.4
X143.4Y-43.0
X148.1Y-35.7
X149.5Y-89.4
X150.9Y-88.8
X152.6Y-40.7
X152.6Y-41.7
X152.6Y-43.0
X152.6Y-44.3
X155.3Y-88.1
X157.8Y-32.8
X159.4Y-66.6
X160.2Y-103.2
X160.2Y-104.2
X160.2Y-105.2
X160.2Y-106.2
X160.2Y-107.2
X160.2Y-108.2
X161.2Y-103.2
X161.2Y-104.2
X161.2Y-105.2
X161.2Y-106.2
X161.2Y-107.2
X161.2Y-108.2
X162.2Y-23.2
X162.2Y-24.2
X162.2Y-25.2
X162.2Y-26.2
X162.2Y-27.2
X162.2Y-28.2
X162.2Y-29.2
X162.2Y-30.2
X162.2Y-31.2
X162.2Y-32.2
X162.2Y-103.2
X162.2Y-104.2
X162.2Y-105.2
X162.2Y-106.2
X162.2Y-107.2
X162.2Y-108.2
X162.6Y-37.4
X163.2Y-23.2
X163.2Y-24.2
X163.2Y-25.2
X163.2Y-26.2
X163.2Y-27.2
X163.2Y-28.2
X163.2Y-29.2
X163.2Y-30.2
X163.2Y-31.2
X163.2Y-32.2
X163.2Y-103.2
X163.2Y-104.2
X163.2Y-105.2
X163.2Y-106.2
X163.2Y-107.2
X163.2Y-108.2
X164.2Y-23.2
X164.2Y-24.2
X164.2Y-25.2
X164.2Y-26.2
X164.2Y-27.2
X164.2Y-28.2
X164.2Y-29.2
X164.2Y-30.2
X164.2Y-31.2
X164.2Y-32.2
X164.2Y-103.2
X164.2Y-104.2
X164.2Y-105.2
X164.2Y-106.2
X164.2Y-107.2
X164.2Y-108.2
X165.2Y-23.2
X165.2Y-24.2
X165.2Y-25.2
X165.2Y-26.2
X165.2Y-27.2
X165.2Y-28.2
X165.2Y-29.2
X165.2Y-30.2
X165.2Y-31.2
X165.2Y-32.2
X165.2Y-103.2
X165.2Y-104.2
X165.2Y-105.2
X165.2Y-106.2
X165.2Y-107.2
X165.2Y-108.2
X165.5Y-38.1
X166.2Y-23.2
X166.2Y-24.2
X166.2Y-25.2
X166.2Y-26.2
X166.2Y-27.2
X166.2Y-28.2
X166.2Y-29.2
X166.2Y-30.2
X166.2Y-31.2
X166.2Y-32.2
X166.2Y-103.2
X166.2Y-104.2
X166.2Y-105.2
X166.2Y-106.2
X166.2Y-107.2
X166.2Y-108.2
X167.2Y-23.2
X167.2Y-24.2
X167.2Y-25.2
X167.2Y-26.2
X167.2Y-27.2
X167.2Y-28.2
X167.2Y-29.2
X167.2Y-30.2
X167.2Y-31.2
X167.2Y-32.2
X167.2Y-103.2
X167.2Y-104.2
X167.2Y-105.2
X167.2Y-106.2
X167.2Y-107.2
X167.2Y-108.2
X168.2Y-23.2
X168.2Y-24.2
X168.2Y-25.2
X168.2Y-26.2
X168.2Y-27.2
X168.2Y-28.2
X168.2Y-29.2
X168.2Y-30.2
X168.2Y-31.2
X168.2Y-32.2
X168.2Y-103.2
X168.2Y-104.2
X168.2Y-105.2
X168.2Y-106.2
X168.2Y-107.2
X168.2Y-108.2
X169.2Y-23.2
X169.2Y-24.2
X169.2Y-25.2
X169.2Y-26.2
X169.2Y-27.2
X169.2Y-28.2
X169.2Y-29.2
X169.2Y-30.2
X169.2Y-31.2
X169.2Y-32.2
X169.2Y-103.2
X169.2Y-104.2
X169.2Y-105.2
X169.2Y-106.2
X169.2Y-107.2
X169.2Y-108.2
X170.2Y-23.2
X170.2Y-24.2
X170.2Y-25.2
X170.2Y-26.2
X170.2Y-27.2
X170.2Y-28.2
X170.2Y-29.2
X170.2Y-30.2
X170.2Y-31.2
X170.2Y-32.2
X170.4Y-90.6
X171.2Y-23.2
X171.2Y-24.2
X171.2Y-25.2
X171.2Y-26.2
X171.2Y-27.2
X171.2Y-28.2
X171.2Y-29.2
X171.2Y-30.2
X171.2Y-31.2
X171.2Y-32.2
X176.5Y-60.4
X181.6Y-70.2
X182.2Y-45.9
X182.2Y-46.8
X182.2Y-47.7
X182.2Y-48.7
X184.0Y-70.8
X184.0Y-89.0
T2
X172.66Y-42.6
X173.93Y-42.6
X175.2Y-42.6
T3
X187.5Y-59.44
X187.5Y-61.98
X187.5Y-64.52
X187.5Y-67.06
X187.5Y-69.6
X187.5Y-72.14
X187.5Y-74.68
X187.5Y-77.22
X187.5Y-79.76
X187.5Y-82.3
X187.5Y-84.84
X187.5Y-87.38
X187.5Y-89.92
X187.5Y-92.46
X187.5Y-95.0
X193.0Y-59.44
X193.0Y-61.98
X193.0Y-64.52
X193.0Y-67.06
X193.0Y-69.6
X193.0Y-72.14
X193.0Y-74.68
X193.0Y-77.22
X193.0Y-79.76
X193.0Y-82.3
X193.0Y-84.84
X193.0Y-87.38
X193.0Y-89.92
X193.0Y-92.46
X193.0Y-95.0
T4
X137.88Y-73.52
X137.88Y-76.06
X137.88Y-78.6
X137.88Y-81.14
X137.88Y-83.68
X137.88Y-86.22
X137.88Y-88.76
X137.88Y-91.3
X139.58Y-70.52
X144.58Y-70.52
X145.5Y-73.52
X145.5Y-76.06
X145.5Y-78.6
X145.5Y-81.14
X145.5Y-83.68
X145.5Y-86.22
X145.5Y-88.76
X145.5Y-91.3
X148.52Y-49.1
X152.7Y-36.4
X157.7Y-36.4
X158.28Y-72.84
X158.28Y-75.38
X158.28Y-77.92
X158.28Y-80.46
X158.28Y-83.0
X158.28Y-85.54
X158.28Y-88.08
X158.28Y-90.62
X158.28Y-93.16
X158.28Y-95.7
X158.68Y-49.1
X159.6Y-69.86
X164.6Y-69.86
X165.9Y-72.84
X165.9Y-75.38
X165.9Y-77.92
X165.9Y-80.46
X165.9Y-83.0
X165.9Y-85.54
X165.9Y-88.08
X165.9Y-90.62
X165.9Y-93.16
X165.9Y-95.7
X177.9Y-72.12
X177.9Y-74.66
X177.9Y-77.2
X177.9Y-79.74
X177.9Y-82.28
X177.9Y-84.82
X177.9Y-87.36
X177.9Y-89.9
T5
X135.8Y-34.12
X135.8Y-36.66
X135.8Y-39.2
X135.8Y-41.74
X135.8Y-44.28
X138.34Y-34.12
X138.34Y-36.66
X138.34Y-39.2
X138.34Y-41.74
X138.34Y-44.28
X191.6Y-34.08
X191.6Y-36.62
X191.6Y-39.16
X191.6Y-41.7
X191.6Y-44.24
X194.14Y-34.08
X194.14Y-36.62
X194.14Y-39.16
X194.14Y-41.7
X194.14Y-44.24
T6
X164.24Y-56.6
X174.4Y-56.6
T7
X134.96Y-104.625
X138.92Y-104.625
X142.88Y-104.625
X146.84Y-104.625
X182.86Y-104.625
X186.82Y-104.625
X190.78Y-104.625
X194.74Y-104.625
M30
