M48
; DRILL file {KiCad 8.0.5} date 2024-10-11T22:45:43+0200
; FORMAT={-:-/ absolute / metric / decimal}
; #@! TF.CreationDate,2024-10-11T22:45:43+02:00
; #@! TF.GenerationSoftware,Kicad,Pcbnew,8.0.5
; #@! TF.FileFunction,MixedPlating,1,2
FMAT,2
METRIC
; #@! TA.AperFunction,Plated,PTH,ViaDrill
T1C0.300
; #@! TA.AperFunction,Plated,PTH,ViaDrill
T2C0.400
; #@! TA.AperFunction,Plated,PTH,ComponentDrill
T3C0.600
; #@! TA.AperFunction,Plated,PTH,ComponentDrill
T4C0.800
; #@! TA.AperFunction,Plated,PTH,ComponentDrill
T5C0.910
; #@! TA.AperFunction,Plated,PTH,ComponentDrill
T6C1.000
; #@! TA.AperFunction,Plated,PTH,ComponentDrill
T7C1.300
; #@! TA.AperFunction,Plated,PTH,ComponentDrill
T8C1.400
; #@! TA.AperFunction,Plated,PTH,ComponentDrill
T9C1.700
; #@! TA.AperFunction,Plated,PTH,ComponentDrill
T10C3.000
; #@! TA.AperFunction,NonPlated,NPTH,ComponentDrill
T11C3.200
%
G90
G05
T1
X103.38Y-105.28
X103.38Y-106.55
X103.38Y-107.82
X103.38Y-109.09
X103.38Y-110.36
X103.38Y-111.63
X103.38Y-112.9
X104.65Y-105.28
X104.65Y-106.55
X104.65Y-107.82
X104.65Y-109.09
X104.65Y-110.36
X104.65Y-111.63
X104.65Y-112.9
X105.92Y-105.28
X105.92Y-106.55
X105.92Y-107.82
X105.92Y-109.09
X105.92Y-110.36
X105.92Y-111.63
X105.92Y-112.9
X107.19Y-105.28
X107.19Y-106.55
X107.19Y-107.82
X107.19Y-109.09
X107.19Y-110.36
X107.19Y-111.63
X107.19Y-112.9
X108.46Y-105.28
X108.46Y-106.55
X108.46Y-107.82
X108.46Y-109.09
X108.46Y-110.36
X108.46Y-111.63
X108.46Y-112.9
X109.73Y-105.28
X109.73Y-106.55
X109.73Y-107.82
X109.73Y-109.09
X109.73Y-110.36
X109.73Y-111.63
X109.73Y-112.9
X111.0Y-105.28
X111.0Y-106.55
X111.0Y-107.82
X111.0Y-109.09
X111.0Y-110.36
X111.0Y-111.63
X111.0Y-112.9
X149.5Y-120.0
X155.1Y-123.2
X155.12Y-126.9
X156.4Y-116.8
X172.3Y-116.1
X173.3Y-104.4
X173.3Y-105.67
X174.57Y-104.4
X174.57Y-105.67
X174.58Y-132.18
X174.58Y-133.45
X174.58Y-134.72
X174.58Y-135.99
X174.58Y-137.26
X174.58Y-138.53
X174.58Y-139.8
X175.6Y-116.7
X175.8Y-115.7
X175.85Y-132.18
X175.85Y-133.45
X175.85Y-134.72
X175.85Y-135.99
X175.85Y-137.26
X175.85Y-138.53
X175.85Y-139.8
X176.2Y-91.9
X176.2Y-93.17
X176.2Y-94.44
X176.2Y-95.71
X176.2Y-96.98
X176.2Y-98.25
X176.2Y-99.52
X176.4Y-117.8
X177.1Y-108.1
X177.1Y-109.37
X177.12Y-132.18
X177.12Y-133.45
X177.12Y-134.72
X177.12Y-135.99
X177.12Y-137.26
X177.12Y-138.53
X177.12Y-139.8
X177.47Y-91.9
X177.47Y-93.17
X177.47Y-94.44
X177.47Y-95.71
X177.47Y-96.98
X177.47Y-98.25
X177.47Y-99.52
X178.37Y-108.1
X178.37Y-109.37
X178.39Y-132.18
X178.39Y-133.45
X178.39Y-134.72
X178.39Y-135.99
X178.39Y-137.26
X178.39Y-138.53
X178.39Y-139.8
X178.74Y-91.9
X178.74Y-93.17
X178.74Y-94.44
X178.74Y-95.71
X178.74Y-96.98
X178.74Y-98.25
X178.74Y-99.52
X179.1Y-117.8
X179.2Y-118.7
X179.66Y-132.18
X179.66Y-133.45
X179.66Y-134.72
X179.66Y-135.99
X179.66Y-137.26
X179.66Y-138.53
X179.66Y-139.8
X180.01Y-91.9
X180.01Y-93.17
X180.01Y-94.44
X180.01Y-95.71
X180.01Y-96.98
X180.01Y-98.25
X180.01Y-99.52
X180.93Y-132.18
X180.93Y-133.45
X180.93Y-134.72
X180.93Y-135.99
X180.93Y-137.26
X180.93Y-138.53
X180.93Y-139.8
X181.2Y-113.7
X181.2Y-114.97
X181.28Y-91.9
X181.28Y-93.17
X181.28Y-94.44
X181.28Y-95.71
X181.28Y-96.98
X181.28Y-98.25
X181.28Y-99.52
X182.2Y-132.18
X182.2Y-133.45
X182.2Y-134.72
X182.2Y-135.99
X182.2Y-137.26
X182.2Y-138.53
X182.2Y-139.8
X182.47Y-113.7
X182.47Y-114.97
X182.55Y-91.9
X182.55Y-93.17
X182.55Y-94.44
X182.55Y-95.71
X182.55Y-96.98
X182.55Y-98.25
X182.55Y-99.52
X183.6Y-121.3
X183.82Y-91.9
X183.82Y-93.17
X183.82Y-94.44
X183.82Y-95.71
X183.82Y-96.98
X183.82Y-98.25
X183.82Y-99.52
X184.3Y-120.7
T2
X175.162Y-77.696
X176.0Y-83.0
X178.6Y-74.5
X182.0Y-77.1
T3
X154.8Y-67.6
X159.8Y-68.8
T4
X118.2Y-136.3
X118.2Y-141.3
X157.04Y-134.85
X157.04Y-138.9
X161.5Y-98.98
X161.5Y-101.52
X161.5Y-104.06
X161.5Y-106.6
X161.5Y-109.14
X161.5Y-111.68
X161.5Y-114.22
X161.5Y-116.76
X161.5Y-119.3
X161.5Y-121.84
X162.8Y-95.9
X167.2Y-134.85
X167.2Y-138.9
X167.8Y-95.9
X169.12Y-98.98
X169.12Y-101.52
X169.12Y-104.06
X169.12Y-106.6
X169.12Y-109.14
X169.12Y-111.68
X169.12Y-114.22
X169.12Y-116.76
X169.12Y-119.3
X169.12Y-121.84
X186.1Y-108.5
X186.1Y-113.5
T5
X192.16Y-114.5
X192.16Y-117.04
X192.16Y-119.58
X192.16Y-122.12
X192.16Y-124.66
X194.7Y-114.5
X194.7Y-117.04
X194.7Y-119.58
X194.7Y-122.12
X194.7Y-124.66
T6
X121.9Y-103.6
X121.9Y-106.14
X121.9Y-108.68
X121.9Y-111.22
X121.9Y-113.76
X121.9Y-116.3
X121.9Y-118.84
X121.9Y-121.38
X121.9Y-123.92
X121.9Y-126.46
X121.9Y-129.0
X121.9Y-131.54
X121.9Y-134.08
X121.9Y-136.62
X121.9Y-139.16
X147.3Y-103.6
X147.3Y-106.14
X147.3Y-108.68
X147.3Y-111.22
X147.3Y-113.76
X147.3Y-116.3
X147.3Y-118.84
X147.3Y-121.38
X147.3Y-123.92
X147.3Y-126.46
X147.3Y-129.0
X147.3Y-131.54
X147.3Y-134.08
X147.3Y-136.62
X147.3Y-139.16
T7
X109.7Y-75.4
X109.7Y-82.15
X109.7Y-88.9
X114.9Y-75.4
X114.9Y-82.15
X114.9Y-88.9
X125.0Y-75.4
X125.0Y-82.15
X125.0Y-88.9
X130.2Y-75.4
X130.2Y-82.15
X130.2Y-88.9
X144.95Y-76.0
X150.15Y-76.0
X160.25Y-76.0
X165.45Y-76.0
T8
X115.5Y-57.45
X120.5Y-57.45
X125.5Y-57.45
X145.9Y-57.4
X150.9Y-57.4
X155.9Y-57.4
X160.9Y-57.4
X170.8Y-57.45
X175.8Y-57.45
X180.8Y-57.45
X185.8Y-57.45
T9
X184.625Y-75.46
X184.625Y-79.42
X184.625Y-83.38
X184.625Y-87.34
T10
X122.63Y-99.6
X122.63Y-147.16
X146.57Y-99.6
X146.57Y-147.16
T11
X105.0Y-55.0
X105.0Y-145.0
X195.0Y-55.0
X195.0Y-145.0
M30
