%TF.GenerationSoftware,KiCad,Pcbnew,8.0.5*%
%TF.CreationDate,2024-10-11T17:18:58+02:00*%
%TF.ProjectId,central-module,63656e74-7261-46c2-9d6d-6f64756c652e,rev?*%
%TF.SameCoordinates,Original*%
%TF.FileFunction,Copper,L2,Bot*%
%TF.FilePolarity,Positive*%
%FSLAX46Y46*%
G04 Gerber Fmt 4.6, Leading zero omitted, Abs format (unit mm)*
G04 Created by KiCad (PCBNEW 8.0.5) date 2024-10-11 17:18:58*
%MOMM*%
%LPD*%
G01*
G04 APERTURE LIST*
G04 Aperture macros list*
%AMRoundRect*
0 Rectangle with rounded corners*
0 $1 Rounding radius*
0 $2 $3 $4 $5 $6 $7 $8 $9 X,Y pos of 4 corners*
0 Add a 4 corners polygon primitive as box body*
4,1,4,$2,$3,$4,$5,$6,$7,$8,$9,$2,$3,0*
0 Add four circle primitives for the rounded corners*
1,1,$1+$1,$2,$3*
1,1,$1+$1,$4,$5*
1,1,$1+$1,$6,$7*
1,1,$1+$1,$8,$9*
0 Add four rect primitives between the rounded corners*
20,1,$1+$1,$2,$3,$4,$5,0*
20,1,$1+$1,$4,$5,$6,$7,0*
20,1,$1+$1,$6,$7,$8,$9,0*
20,1,$1+$1,$8,$9,$2,$3,0*%
G04 Aperture macros list end*
%TA.AperFunction,ComponentPad*%
%ADD10C,2.300000*%
%TD*%
%TA.AperFunction,ComponentPad*%
%ADD11C,1.600000*%
%TD*%
%TA.AperFunction,ComponentPad*%
%ADD12R,2.800000X2.800000*%
%TD*%
%TA.AperFunction,ComponentPad*%
%ADD13C,2.800000*%
%TD*%
%TA.AperFunction,ComponentPad*%
%ADD14R,1.520000X1.520000*%
%TD*%
%TA.AperFunction,ComponentPad*%
%ADD15C,1.520000*%
%TD*%
%TA.AperFunction,ComponentPad*%
%ADD16O,1.600000X1.600000*%
%TD*%
%TA.AperFunction,ComponentPad*%
%ADD17RoundRect,0.250001X1.099999X-1.099999X1.099999X1.099999X-1.099999X1.099999X-1.099999X-1.099999X0*%
%TD*%
%TA.AperFunction,ComponentPad*%
%ADD18C,2.700000*%
%TD*%
%TA.AperFunction,ComponentPad*%
%ADD19R,1.600000X1.600000*%
%TD*%
%TA.AperFunction,ComponentPad*%
%ADD20C,3.000000*%
%TD*%
%TA.AperFunction,ComponentPad*%
%ADD21C,1.700000*%
%TD*%
%TA.AperFunction,ViaPad*%
%ADD22C,0.600000*%
%TD*%
%TA.AperFunction,ViaPad*%
%ADD23C,1.000000*%
%TD*%
%TA.AperFunction,Conductor*%
%ADD24C,0.400000*%
%TD*%
%TA.AperFunction,Conductor*%
%ADD25C,0.200000*%
%TD*%
%TA.AperFunction,Conductor*%
%ADD26C,0.500000*%
%TD*%
G04 APERTURE END LIST*
D10*
%TO.P,F3,1*%
%TO.N,Net-(J4-Pin_3)*%
X109700000Y-82150000D03*
X114900000Y-82150000D03*
%TO.P,F3,2*%
%TO.N,+24V*%
X125000000Y-82150000D03*
X130200000Y-82150000D03*
%TD*%
D11*
%TO.P,C1,1*%
%TO.N,GND*%
X118200000Y-136300000D03*
%TO.P,C1,2*%
%TO.N,+5V*%
X118200000Y-141300000D03*
%TD*%
D10*
%TO.P,F4,1*%
%TO.N,Net-(J4-Pin_2)*%
X109700000Y-88900000D03*
X114900000Y-88900000D03*
%TO.P,F4,2*%
%TO.N,+5V*%
X125000000Y-88900000D03*
X130200000Y-88900000D03*
%TD*%
D12*
%TO.P,J5,1,Pin_1*%
%TO.N,/P*%
X145900000Y-57400000D03*
D13*
%TO.P,J5,2,Pin_2*%
%TO.N,/N*%
X150900000Y-57400000D03*
%TO.P,J5,3,Pin_3*%
%TO.N,/P_FUSED*%
X155900000Y-57400000D03*
%TO.P,J5,4,Pin_4*%
%TO.N,/N*%
X160900000Y-57400000D03*
%TD*%
D12*
%TO.P,J2,1,Pin_1*%
%TO.N,/24VAC_N*%
X170800000Y-57450000D03*
D13*
%TO.P,J2,2,Pin_2*%
%TO.N,Net-(J2-Pin_2)*%
X175800000Y-57450000D03*
%TO.P,J2,3,Pin_3*%
X180800000Y-57450000D03*
%TO.P,J2,4,Pin_4*%
%TO.N,Net-(J2-Pin_4)*%
X185800000Y-57450000D03*
%TD*%
D11*
%TO.P,C2,1*%
%TO.N,GND*%
X186100000Y-108500000D03*
%TO.P,C2,2*%
%TO.N,+5V*%
X186100000Y-113500000D03*
%TD*%
D14*
%TO.P,J1,1,Pin_1*%
%TO.N,SHIFT_CLOCK*%
X192160000Y-124660000D03*
D15*
%TO.P,J1,2,Pin_2*%
%TO.N,SHIFT_CLEAR*%
X194700000Y-124660000D03*
%TO.P,J1,3,Pin_3*%
%TO.N,SHIFT_LATCH*%
X192160000Y-122120000D03*
%TO.P,J1,4,Pin_4*%
%TO.N,SHIFT_OUTPUT_ENABLE*%
X194700000Y-122120000D03*
%TO.P,J1,5,Pin_5*%
%TO.N,DATA_OUT*%
X192160000Y-119580000D03*
%TO.P,J1,6,Pin_6*%
%TO.N,SPIN_ENABLE*%
X194700000Y-119580000D03*
%TO.P,J1,7,Pin_7*%
%TO.N,+5V*%
X192160000Y-117040000D03*
%TO.P,J1,8,Pin_8*%
X194700000Y-117040000D03*
%TO.P,J1,9,Pin_9*%
%TO.N,GND*%
X192160000Y-114500000D03*
%TO.P,J1,10,Pin_10*%
X194700000Y-114500000D03*
%TD*%
D10*
%TO.P,F1,1*%
%TO.N,/P_FUSED*%
X165450000Y-76000000D03*
X160250000Y-76000000D03*
%TO.P,F1,2*%
%TO.N,/P*%
X150150000Y-76000000D03*
X144950000Y-76000000D03*
%TD*%
D11*
%TO.P,C3,1*%
%TO.N,+5V*%
X162800000Y-95900000D03*
%TO.P,C3,2*%
%TO.N,GND*%
X167800000Y-95900000D03*
%TD*%
D10*
%TO.P,F2,1*%
%TO.N,Net-(J2-Pin_4)*%
X109700000Y-75400000D03*
X114900000Y-75400000D03*
%TO.P,F2,2*%
%TO.N,/24VAC_P*%
X125000000Y-75400000D03*
X130200000Y-75400000D03*
%TD*%
D11*
%TO.P,R2,1*%
%TO.N,SHIFT_OUTPUT_ENABLE_3*%
X157040000Y-138900000D03*
D16*
%TO.P,R2,2*%
%TO.N,+3.3V*%
X167200000Y-138900000D03*
%TD*%
D17*
%TO.P,J3,1,Pin_1*%
%TO.N,GND*%
X184625000Y-87340000D03*
D18*
%TO.P,J3,2,Pin_2*%
%TO.N,+24V*%
X184625000Y-83380000D03*
%TO.P,J3,3,Pin_3*%
%TO.N,/24VAC_N*%
X184625000Y-79420000D03*
%TO.P,J3,4,Pin_4*%
%TO.N,/24VAC_P*%
X184625000Y-75460000D03*
%TD*%
D11*
%TO.P,R1,1*%
%TO.N,SPIN_ENABLE_3*%
X157040000Y-134850000D03*
D16*
%TO.P,R1,2*%
%TO.N,GND*%
X167200000Y-134850000D03*
%TD*%
D12*
%TO.P,J4,1,Pin_1*%
%TO.N,GND*%
X115500000Y-57450000D03*
D13*
%TO.P,J4,2,Pin_2*%
%TO.N,Net-(J4-Pin_2)*%
X120500000Y-57450000D03*
%TO.P,J4,3,Pin_3*%
%TO.N,Net-(J4-Pin_3)*%
X125500000Y-57450000D03*
%TD*%
D11*
%TO.P,RV1,1*%
%TO.N,/N*%
X159800000Y-68800000D03*
%TO.P,RV1,2*%
%TO.N,/P*%
X154800000Y-67600000D03*
%TD*%
D19*
%TO.P,U2,1,A->B*%
%TO.N,+5V*%
X161500000Y-98980000D03*
D16*
%TO.P,U2,2,A0*%
%TO.N,SHIFT_CLOCK_3*%
X161500000Y-101520000D03*
%TO.P,U2,3,A1*%
%TO.N,SHIFT_CLEAR_3*%
X161500000Y-104060000D03*
%TO.P,U2,4,A2*%
%TO.N,SHIFT_LATCH_3*%
X161500000Y-106600000D03*
%TO.P,U2,5,A3*%
%TO.N,SHIFT_OUTPUT_ENABLE_3*%
X161500000Y-109140000D03*
%TO.P,U2,6,A4*%
%TO.N,DATA_OUT_3*%
X161500000Y-111680000D03*
%TO.P,U2,7,A5*%
%TO.N,SPIN_ENABLE_3*%
X161500000Y-114220000D03*
%TO.P,U2,8,A6*%
%TO.N,unconnected-(U2-A6-Pad8)*%
X161500000Y-116760000D03*
%TO.P,U2,9,A7*%
%TO.N,unconnected-(U2-A7-Pad9)*%
X161500000Y-119300000D03*
%TO.P,U2,10,GND*%
%TO.N,GND*%
X161500000Y-121840000D03*
%TO.P,U2,11,B7*%
%TO.N,unconnected-(U2-B7-Pad11)*%
X169120000Y-121840000D03*
%TO.P,U2,12,B6*%
%TO.N,unconnected-(U2-B6-Pad12)*%
X169120000Y-119300000D03*
%TO.P,U2,13,B5*%
%TO.N,SPIN_ENABLE*%
X169120000Y-116760000D03*
%TO.P,U2,14,B4*%
%TO.N,DATA_OUT*%
X169120000Y-114220000D03*
%TO.P,U2,15,B3*%
%TO.N,SHIFT_OUTPUT_ENABLE*%
X169120000Y-111680000D03*
%TO.P,U2,16,B2*%
%TO.N,SHIFT_LATCH*%
X169120000Y-109140000D03*
%TO.P,U2,17,B1*%
%TO.N,SHIFT_CLEAR*%
X169120000Y-106600000D03*
%TO.P,U2,18,B0*%
%TO.N,SHIFT_CLOCK*%
X169120000Y-104060000D03*
%TO.P,U2,19,CE*%
%TO.N,GND*%
X169120000Y-101520000D03*
%TO.P,U2,20,VCC*%
%TO.N,+5V*%
X169120000Y-98980000D03*
%TD*%
D20*
%TO.P,U1,*%
%TO.N,*%
X122630000Y-99600000D03*
X122630000Y-147160000D03*
X146570000Y-99600000D03*
X146570000Y-147160000D03*
D21*
%TO.P,U1,1,EN*%
%TO.N,unconnected-(U1-EN-Pad1)*%
X121900000Y-103600000D03*
%TO.P,U1,2,VP*%
%TO.N,unconnected-(U1-VP-Pad2)*%
X121900000Y-106140000D03*
%TO.P,U1,3,VN*%
%TO.N,unconnected-(U1-VN-Pad3)*%
X121900000Y-108680000D03*
%TO.P,U1,4,D34*%
%TO.N,unconnected-(U1-D34-Pad4)*%
X121900000Y-111220000D03*
%TO.P,U1,5,D35*%
%TO.N,unconnected-(U1-D35-Pad5)*%
X121900000Y-113760000D03*
%TO.P,U1,6,D32*%
%TO.N,unconnected-(U1-D32-Pad6)*%
X121900000Y-116300000D03*
%TO.P,U1,7,D33*%
%TO.N,unconnected-(U1-D33-Pad7)*%
X121900000Y-118840000D03*
%TO.P,U1,8,D25*%
%TO.N,unconnected-(U1-D25-Pad8)*%
X121900000Y-121380000D03*
%TO.P,U1,9,D26*%
%TO.N,unconnected-(U1-D26-Pad9)*%
X121900000Y-123920000D03*
%TO.P,U1,10,D27*%
%TO.N,unconnected-(U1-D27-Pad10)*%
X121900000Y-126460000D03*
%TO.P,U1,11,D14*%
%TO.N,SHIFT_CLOCK_3*%
X121900000Y-129000000D03*
%TO.P,U1,12,D12*%
%TO.N,unconnected-(U1-D12-Pad12)*%
X121900000Y-131540000D03*
%TO.P,U1,13,D13*%
%TO.N,DATA_OUT_3*%
X121900000Y-134080000D03*
%TO.P,U1,14,GND*%
%TO.N,GND*%
X121900000Y-136620000D03*
%TO.P,U1,15,VIN*%
%TO.N,+5V*%
X121900000Y-139160000D03*
%TO.P,U1,16,D23*%
%TO.N,unconnected-(U1-D23-Pad16)*%
X147300000Y-103600000D03*
%TO.P,U1,17,D22*%
%TO.N,unconnected-(U1-D22-Pad17)*%
X147300000Y-106140000D03*
%TO.P,U1,18,TX0*%
%TO.N,unconnected-(U1-TX0-Pad18)*%
X147300000Y-108680000D03*
%TO.P,U1,19,RX0*%
%TO.N,unconnected-(U1-RX0-Pad19)*%
X147300000Y-111220000D03*
%TO.P,U1,20,D21*%
%TO.N,unconnected-(U1-D21-Pad20)*%
X147300000Y-113760000D03*
%TO.P,U1,21,D19*%
%TO.N,SHIFT_CLEAR_3*%
X147300000Y-116300000D03*
%TO.P,U1,22,D18*%
%TO.N,SHIFT_LATCH_3*%
X147300000Y-118840000D03*
%TO.P,U1,23,D5*%
%TO.N,unconnected-(U1-D5-Pad23)*%
X147300000Y-121380000D03*
%TO.P,U1,24,TX2*%
%TO.N,unconnected-(U1-TX2-Pad24)*%
X147300000Y-123920000D03*
%TO.P,U1,25,RX2*%
%TO.N,unconnected-(U1-RX2-Pad25)*%
X147300000Y-126460000D03*
%TO.P,U1,26,D4*%
%TO.N,SPIN_ENABLE_3*%
X147300000Y-129000000D03*
%TO.P,U1,27,D2*%
%TO.N,unconnected-(U1-D2-Pad27)*%
X147300000Y-131540000D03*
%TO.P,U1,28,D15*%
%TO.N,SHIFT_OUTPUT_ENABLE_3*%
X147300000Y-134080000D03*
%TO.P,U1,29,GND*%
%TO.N,GND*%
X147300000Y-136620000D03*
%TO.P,U1,30,3V3*%
%TO.N,+3.3V*%
X147300000Y-139160000D03*
%TD*%
D22*
%TO.N,GND*%
X181200000Y-113700000D03*
X182470000Y-114970000D03*
X181200000Y-114970000D03*
X182470000Y-113700000D03*
X177100000Y-108100000D03*
X178370000Y-109370000D03*
X177100000Y-109370000D03*
X178370000Y-108100000D03*
X173300000Y-104400000D03*
X174570000Y-105670000D03*
X173300000Y-105670000D03*
X174570000Y-104400000D03*
D23*
%TO.N,/24VAC_P*%
X182000000Y-77100000D03*
X176000000Y-83000000D03*
D22*
%TO.N,GND*%
X175850000Y-132180000D03*
X178390000Y-134720000D03*
X179660000Y-132180000D03*
X175850000Y-135990000D03*
X180930000Y-132180000D03*
X180930000Y-134720000D03*
X180930000Y-138530000D03*
X179660000Y-138530000D03*
X178390000Y-138530000D03*
X177120000Y-138530000D03*
X175850000Y-138530000D03*
X174580000Y-138530000D03*
X179660000Y-137260000D03*
X178390000Y-137260000D03*
X177120000Y-137260000D03*
X175850000Y-137260000D03*
X174580000Y-137260000D03*
X182200000Y-135990000D03*
X180930000Y-135990000D03*
X182200000Y-137260000D03*
X180930000Y-137260000D03*
X177120000Y-133450000D03*
X175850000Y-133450000D03*
X177120000Y-134720000D03*
X175850000Y-134720000D03*
X174580000Y-134720000D03*
X182200000Y-133450000D03*
X180930000Y-133450000D03*
X179660000Y-133450000D03*
X178390000Y-133450000D03*
X178390000Y-135990000D03*
X177120000Y-132180000D03*
X182200000Y-139800000D03*
X180930000Y-139800000D03*
X179660000Y-139800000D03*
X178390000Y-139800000D03*
X177120000Y-139800000D03*
X175850000Y-139800000D03*
X174580000Y-139800000D03*
X182200000Y-138530000D03*
X182200000Y-132180000D03*
X177120000Y-135990000D03*
X174580000Y-135990000D03*
X179660000Y-134720000D03*
X178390000Y-132180000D03*
X179660000Y-135990000D03*
X174580000Y-133450000D03*
X182200000Y-134720000D03*
X174580000Y-132180000D03*
X104650000Y-105280000D03*
X107190000Y-107820000D03*
X108460000Y-105280000D03*
X104650000Y-109090000D03*
X109730000Y-105280000D03*
X109730000Y-107820000D03*
X109730000Y-111630000D03*
X108460000Y-111630000D03*
X107190000Y-111630000D03*
X105920000Y-111630000D03*
X104650000Y-111630000D03*
X103380000Y-111630000D03*
X108460000Y-110360000D03*
X107190000Y-110360000D03*
X105920000Y-110360000D03*
X104650000Y-110360000D03*
X103380000Y-110360000D03*
X111000000Y-109090000D03*
X109730000Y-109090000D03*
X111000000Y-110360000D03*
X109730000Y-110360000D03*
X105920000Y-106550000D03*
X104650000Y-106550000D03*
X105920000Y-107820000D03*
X104650000Y-107820000D03*
X103380000Y-107820000D03*
X111000000Y-106550000D03*
X109730000Y-106550000D03*
X108460000Y-106550000D03*
X107190000Y-106550000D03*
X107190000Y-109090000D03*
X105920000Y-105280000D03*
X111000000Y-112900000D03*
X109730000Y-112900000D03*
X108460000Y-112900000D03*
X107190000Y-112900000D03*
X105920000Y-112900000D03*
X104650000Y-112900000D03*
X103380000Y-112900000D03*
X111000000Y-111630000D03*
X111000000Y-105280000D03*
X105920000Y-109090000D03*
X103380000Y-109090000D03*
X108460000Y-107820000D03*
X107190000Y-105280000D03*
X108460000Y-109090000D03*
X103380000Y-106550000D03*
X111000000Y-107820000D03*
X103380000Y-105280000D03*
X183820000Y-99520000D03*
X182550000Y-99520000D03*
X181280000Y-99520000D03*
X180010000Y-99520000D03*
X178740000Y-99520000D03*
X177470000Y-99520000D03*
X176200000Y-99520000D03*
X183820000Y-98250000D03*
X182550000Y-98250000D03*
X181280000Y-98250000D03*
X180010000Y-98250000D03*
X178740000Y-98250000D03*
X177470000Y-98250000D03*
X176200000Y-98250000D03*
X183820000Y-96980000D03*
X182550000Y-96980000D03*
X181280000Y-96980000D03*
X180010000Y-96980000D03*
X178740000Y-96980000D03*
X177470000Y-96980000D03*
X176200000Y-96980000D03*
X183820000Y-95710000D03*
X182550000Y-95710000D03*
X181280000Y-95710000D03*
X180010000Y-95710000D03*
X178740000Y-95710000D03*
X177470000Y-95710000D03*
X176200000Y-95710000D03*
X183820000Y-94440000D03*
X182550000Y-94440000D03*
X181280000Y-94440000D03*
X180010000Y-94440000D03*
X178740000Y-94440000D03*
X177470000Y-94440000D03*
X176200000Y-94440000D03*
X183820000Y-93170000D03*
X182550000Y-93170000D03*
X181280000Y-93170000D03*
X180010000Y-93170000D03*
X178740000Y-93170000D03*
X177470000Y-93170000D03*
X176200000Y-93170000D03*
X183820000Y-91900000D03*
X182550000Y-91900000D03*
X181280000Y-91900000D03*
X180010000Y-91900000D03*
X178740000Y-91900000D03*
X177470000Y-91900000D03*
X176200000Y-91900000D03*
%TO.N,DATA_OUT_3*%
X149500000Y-120000000D03*
X156400000Y-116800000D03*
D23*
%TO.N,Net-(J2-Pin_4)*%
X175162069Y-77695862D03*
X178600000Y-74500000D03*
D22*
%TO.N,SPIN_ENABLE*%
X176400000Y-117800000D03*
X179100000Y-117800000D03*
%TO.N,DATA_OUT*%
X179200000Y-118700000D03*
X172300000Y-116100000D03*
%TO.N,SHIFT_OUTPUT_ENABLE*%
X175600000Y-116700000D03*
X183600000Y-121300000D03*
%TO.N,SHIFT_LATCH*%
X184300000Y-120700000D03*
X175800000Y-115700000D03*
%TO.N,SHIFT_OUTPUT_ENABLE_3*%
X155120000Y-126900000D03*
X155100000Y-123200000D03*
%TD*%
D24*
%TO.N,/24VAC_N*%
X177100000Y-76200000D02*
X175300000Y-74400000D01*
X175300000Y-74400000D02*
X175300000Y-67800000D01*
X175100000Y-67600000D02*
X170800000Y-63300000D01*
X175300000Y-67800000D02*
X175100000Y-67600000D01*
%TO.N,/24VAC_P*%
X182985000Y-77100000D02*
X184625000Y-75460000D01*
X172300000Y-83100000D02*
X175900000Y-83100000D01*
X175900000Y-83100000D02*
X176000000Y-83000000D01*
X182000000Y-77100000D02*
X182985000Y-77100000D01*
D25*
%TO.N,SHIFT_CLOCK_3*%
X121900000Y-129000000D02*
X126600000Y-124300000D01*
X126600000Y-124300000D02*
X126600000Y-114500000D01*
X126600000Y-114500000D02*
X138650000Y-102450000D01*
X138650000Y-102450000D02*
X151650000Y-102450000D01*
X151650000Y-102450000D02*
X152580000Y-101520000D01*
X152580000Y-101520000D02*
X161500000Y-101520000D01*
%TO.N,DATA_OUT_3*%
X161500000Y-111680000D02*
X156400000Y-116780000D01*
X156400000Y-116780000D02*
X156400000Y-116800000D01*
X149500000Y-120000000D02*
X135980000Y-120000000D01*
X135980000Y-120000000D02*
X121900000Y-134080000D01*
%TO.N,+5V*%
X194700000Y-117040000D02*
X192160000Y-117040000D01*
X169120000Y-98980000D02*
X171580000Y-98980000D01*
X118200000Y-141300000D02*
X119760000Y-141300000D01*
X171580000Y-98980000D02*
X186100000Y-113500000D01*
X189640000Y-117040000D02*
X192160000Y-117040000D01*
X114600000Y-137700000D02*
X114600000Y-99300000D01*
X130200000Y-88900000D02*
X151420000Y-88900000D01*
X162800000Y-97680000D02*
X161500000Y-98980000D01*
X114600000Y-99300000D02*
X125000000Y-88900000D01*
X186100000Y-113500000D02*
X189640000Y-117040000D01*
X118200000Y-141300000D02*
X114600000Y-137700000D01*
X162800000Y-95900000D02*
X162800000Y-97680000D01*
X125000000Y-88900000D02*
X130200000Y-88900000D01*
X119760000Y-141300000D02*
X121900000Y-139160000D01*
X161500000Y-98980000D02*
X169120000Y-98980000D01*
X151420000Y-88900000D02*
X161500000Y-98980000D01*
D26*
%TO.N,/P_FUSED*%
X158820102Y-52500000D02*
X155900000Y-55420102D01*
X160250000Y-76000000D02*
X165450000Y-76000000D01*
X155900000Y-55420102D02*
X155900000Y-57400000D01*
X165450000Y-56788120D02*
X165500000Y-56738120D01*
X165450000Y-76000000D02*
X165450000Y-56788120D01*
X163200000Y-52500000D02*
X158820102Y-52500000D01*
X165500000Y-54800000D02*
X163200000Y-52500000D01*
X165500000Y-56738120D02*
X165500000Y-54800000D01*
%TO.N,/P*%
X144950000Y-70550000D02*
X144950000Y-76000000D01*
X145900000Y-64900000D02*
X148600000Y-67600000D01*
X148600000Y-67600000D02*
X154800000Y-67600000D01*
X145900000Y-57400000D02*
X145900000Y-64900000D01*
X145900000Y-69600000D02*
X144950000Y-70550000D01*
X145900000Y-64900000D02*
X145900000Y-69600000D01*
X144950000Y-76000000D02*
X150150000Y-76000000D01*
D24*
%TO.N,/24VAC_P*%
X172300000Y-83100000D02*
X137900000Y-83100000D01*
X130200000Y-75400000D02*
X125000000Y-75400000D01*
X137900000Y-83100000D02*
X130200000Y-75400000D01*
%TO.N,Net-(J2-Pin_4)*%
X143200000Y-81600000D02*
X131000000Y-69400000D01*
X175162069Y-77695862D02*
X171257931Y-81600000D01*
X114900000Y-72500000D02*
X114900000Y-75400000D01*
X171257931Y-81600000D02*
X143200000Y-81600000D01*
X118000000Y-69400000D02*
X114900000Y-72500000D01*
X114900000Y-75400000D02*
X109700000Y-75400000D01*
X185800000Y-67300000D02*
X185800000Y-57450000D01*
X178600000Y-74500000D02*
X185800000Y-67300000D01*
X131000000Y-69400000D02*
X118000000Y-69400000D01*
%TO.N,+24V*%
X183305000Y-84700000D02*
X132750000Y-84700000D01*
X125000000Y-82150000D02*
X130200000Y-82150000D01*
X132750000Y-84700000D02*
X130200000Y-82150000D01*
X184625000Y-83380000D02*
X183305000Y-84700000D01*
%TO.N,Net-(J4-Pin_3)*%
X105200000Y-72100000D02*
X111900000Y-65400000D01*
X106050000Y-82150000D02*
X105200000Y-81300000D01*
X114900000Y-82150000D02*
X109700000Y-82150000D01*
X105200000Y-81300000D02*
X105200000Y-72100000D01*
X109700000Y-82150000D02*
X106050000Y-82150000D01*
X117550000Y-65400000D02*
X125500000Y-57450000D01*
X111900000Y-65400000D02*
X117550000Y-65400000D01*
D25*
%TO.N,Net-(J4-Pin_2)*%
X109700000Y-88900000D02*
X103700000Y-82900000D01*
X115450000Y-62500000D02*
X120500000Y-57450000D01*
X114900000Y-88900000D02*
X109700000Y-88900000D01*
X103700000Y-65900000D02*
X107100000Y-62500000D01*
X107100000Y-62500000D02*
X115450000Y-62500000D01*
X103700000Y-82900000D02*
X103700000Y-65900000D01*
%TO.N,SPIN_ENABLE*%
X175000000Y-117800000D02*
X176400000Y-117800000D01*
X173960000Y-116760000D02*
X175000000Y-117800000D01*
X185400000Y-118100000D02*
X193220000Y-118100000D01*
X185100000Y-117800000D02*
X185400000Y-118100000D01*
X179100000Y-117800000D02*
X185100000Y-117800000D01*
X193220000Y-118100000D02*
X194700000Y-119580000D01*
X169120000Y-116760000D02*
X173960000Y-116760000D01*
%TO.N,DATA_OUT*%
X170420000Y-114220000D02*
X172300000Y-116100000D01*
X191280000Y-118700000D02*
X192160000Y-119580000D01*
X169120000Y-114220000D02*
X170420000Y-114220000D01*
X179200000Y-118700000D02*
X191280000Y-118700000D01*
%TO.N,SHIFT_OUTPUT_ENABLE*%
X183600000Y-121300000D02*
X185480000Y-123180000D01*
X193640000Y-123180000D02*
X194700000Y-122120000D01*
X170580000Y-111680000D02*
X175600000Y-116700000D01*
X185480000Y-123180000D02*
X193640000Y-123180000D01*
X169120000Y-111680000D02*
X170580000Y-111680000D01*
%TO.N,SHIFT_CLEAR*%
X193640000Y-125720000D02*
X182220000Y-125720000D01*
X177100000Y-120600000D02*
X177100000Y-114580000D01*
X194700000Y-124660000D02*
X193640000Y-125720000D01*
X177100000Y-114580000D02*
X169120000Y-106600000D01*
X182220000Y-125720000D02*
X177100000Y-120600000D01*
%TO.N,SHIFT_LATCH*%
X184300000Y-120700000D02*
X185720000Y-122120000D01*
X175680000Y-115700000D02*
X175800000Y-115700000D01*
X169120000Y-109140000D02*
X175680000Y-115700000D01*
X185720000Y-122120000D02*
X192160000Y-122120000D01*
%TO.N,SHIFT_CLOCK*%
X178100000Y-113040000D02*
X178100000Y-120100000D01*
X169120000Y-104060000D02*
X178100000Y-113040000D01*
X182660000Y-124660000D02*
X192160000Y-124660000D01*
X178100000Y-120100000D02*
X182660000Y-124660000D01*
D24*
%TO.N,Net-(J2-Pin_2)*%
X175800000Y-57450000D02*
X180800000Y-57450000D01*
%TO.N,/24VAC_N*%
X184625000Y-79420000D02*
X180320000Y-79420000D01*
X180320000Y-79420000D02*
X177100000Y-76200000D01*
X170800000Y-63300000D02*
X170800000Y-57450000D01*
D26*
%TO.N,/N*%
X159200000Y-63400000D02*
X160900000Y-65100000D01*
X154920102Y-63400000D02*
X150900000Y-59379898D01*
X160900000Y-63400000D02*
X160900000Y-65100000D01*
X160900000Y-65100000D02*
X160900000Y-67700000D01*
X150900000Y-59379898D02*
X150900000Y-57400000D01*
X160900000Y-57400000D02*
X160900000Y-63400000D01*
X160900000Y-67700000D02*
X159800000Y-68800000D01*
X159200000Y-63400000D02*
X154920102Y-63400000D01*
D25*
%TO.N,SPIN_ENABLE_3*%
X147300000Y-129000000D02*
X148140000Y-129840000D01*
X157040000Y-130040000D02*
X156000000Y-129000000D01*
X148140000Y-129840000D02*
X150760000Y-129840000D01*
X156500000Y-119220000D02*
X161500000Y-114220000D01*
X150760000Y-129840000D02*
X156000000Y-124600000D01*
X157040000Y-134850000D02*
X157040000Y-130040000D01*
X156000000Y-124600000D02*
X156500000Y-124100000D01*
X156500000Y-124100000D02*
X156500000Y-119220000D01*
X156000000Y-129000000D02*
X156000000Y-124600000D01*
%TO.N,+3.3V*%
X165100000Y-143300000D02*
X150400000Y-143300000D01*
X167200000Y-138900000D02*
X167200000Y-141200000D01*
X147300000Y-140200000D02*
X147300000Y-139160000D01*
X167200000Y-141200000D02*
X165100000Y-143300000D01*
X150400000Y-143300000D02*
X147300000Y-140200000D01*
%TO.N,SHIFT_OUTPUT_ENABLE_3*%
X155100000Y-115540000D02*
X161500000Y-109140000D01*
X147940000Y-134080000D02*
X153660000Y-128360000D01*
X153660000Y-128360000D02*
X155120000Y-126900000D01*
X157040000Y-138900000D02*
X153660000Y-135520000D01*
X147300000Y-134080000D02*
X147940000Y-134080000D01*
X155100000Y-123200000D02*
X155100000Y-115540000D01*
X153660000Y-135520000D02*
X153660000Y-128360000D01*
%TO.N,SHIFT_LATCH_3*%
X147300000Y-118840000D02*
X149260000Y-118840000D01*
X149260000Y-118840000D02*
X161500000Y-106600000D01*
%TO.N,SHIFT_CLEAR_3*%
X147300000Y-116300000D02*
X149260000Y-116300000D01*
X149260000Y-116300000D02*
X161500000Y-104060000D01*
%TD*%
%TA.AperFunction,Conductor*%
%TO.N,GND*%
G36*
X128646431Y-89520185D02*
G01*
X128692186Y-89572989D01*
X128693953Y-89577047D01*
X128724843Y-89651623D01*
X128724845Y-89651627D01*
X128724846Y-89651628D01*
X128860588Y-89873140D01*
X129029311Y-90070689D01*
X129226860Y-90239412D01*
X129448372Y-90375154D01*
X129448374Y-90375154D01*
X129448376Y-90375156D01*
X129509693Y-90400554D01*
X129688390Y-90474573D01*
X129941006Y-90535221D01*
X130200000Y-90555604D01*
X130458994Y-90535221D01*
X130711610Y-90474573D01*
X130951628Y-90375154D01*
X131173140Y-90239412D01*
X131370689Y-90070689D01*
X131539412Y-89873140D01*
X131675154Y-89651628D01*
X131678117Y-89644473D01*
X131706047Y-89577047D01*
X131749888Y-89522644D01*
X131816182Y-89500579D01*
X131820608Y-89500500D01*
X151119903Y-89500500D01*
X151186942Y-89520185D01*
X151207584Y-89536819D01*
X160163181Y-98492417D01*
X160196666Y-98553740D01*
X160199500Y-98580098D01*
X160199500Y-99827870D01*
X160199501Y-99827876D01*
X160205908Y-99887483D01*
X160256202Y-100022328D01*
X160256206Y-100022335D01*
X160342452Y-100137544D01*
X160342455Y-100137547D01*
X160457664Y-100223793D01*
X160457671Y-100223797D01*
X160502618Y-100240561D01*
X160592517Y-100274091D01*
X160627596Y-100277862D01*
X160692144Y-100304599D01*
X160731993Y-100361991D01*
X160734488Y-100431816D01*
X160698836Y-100491905D01*
X160685464Y-100502725D01*
X160660858Y-100519954D01*
X160499954Y-100680858D01*
X160423450Y-100790118D01*
X160369881Y-100866624D01*
X160315307Y-100910248D01*
X160268308Y-100919500D01*
X152666670Y-100919500D01*
X152666654Y-100919499D01*
X152659058Y-100919499D01*
X152500943Y-100919499D01*
X152424579Y-100939961D01*
X152348214Y-100960423D01*
X152348209Y-100960426D01*
X152211290Y-101039475D01*
X152211282Y-101039481D01*
X151437584Y-101813181D01*
X151376261Y-101846666D01*
X151349903Y-101849500D01*
X146631894Y-101849500D01*
X146565160Y-101829904D01*
X146534464Y-101846666D01*
X146508106Y-101849500D01*
X138570940Y-101849500D01*
X138530019Y-101860464D01*
X138530019Y-101860465D01*
X138492751Y-101870451D01*
X138418214Y-101890423D01*
X138418209Y-101890426D01*
X138281290Y-101969475D01*
X138281282Y-101969481D01*
X126119481Y-114131282D01*
X126119475Y-114131290D01*
X126080117Y-114199462D01*
X126080117Y-114199464D01*
X126040423Y-114268214D01*
X126040423Y-114268215D01*
X125999499Y-114420943D01*
X125999499Y-114420945D01*
X125999499Y-114589046D01*
X125999500Y-114589059D01*
X125999500Y-123999902D01*
X125979815Y-124066941D01*
X125963181Y-124087583D01*
X123464432Y-126586331D01*
X123403109Y-126619816D01*
X123333417Y-126614832D01*
X123277484Y-126572960D01*
X123253067Y-126507496D01*
X123253223Y-126487842D01*
X123255659Y-126460000D01*
X123255659Y-126459999D01*
X123243454Y-126320500D01*
X123235063Y-126224592D01*
X123173903Y-125996337D01*
X123074035Y-125782171D01*
X123055568Y-125755796D01*
X122938494Y-125588597D01*
X122771402Y-125421506D01*
X122771396Y-125421501D01*
X122585842Y-125291575D01*
X122542217Y-125236998D01*
X122535023Y-125167500D01*
X122566546Y-125105145D01*
X122585842Y-125088425D01*
X122684387Y-125019423D01*
X122771401Y-124958495D01*
X122938495Y-124791401D01*
X123074035Y-124597830D01*
X123173903Y-124383663D01*
X123235063Y-124155408D01*
X123255659Y-123920000D01*
X123235063Y-123684592D01*
X123173903Y-123456337D01*
X123074035Y-123242171D01*
X123055568Y-123215796D01*
X122938494Y-123048597D01*
X122771402Y-122881506D01*
X122771396Y-122881501D01*
X122585842Y-122751575D01*
X122542217Y-122696998D01*
X122535023Y-122627500D01*
X122566546Y-122565145D01*
X122585842Y-122548425D01*
X122665377Y-122492734D01*
X122771401Y-122418495D01*
X122938495Y-122251401D01*
X123074035Y-122057830D01*
X123173903Y-121843663D01*
X123235063Y-121615408D01*
X123255659Y-121380000D01*
X123235063Y-121144592D01*
X123177830Y-120930993D01*
X123173905Y-120916344D01*
X123173904Y-120916343D01*
X123173903Y-120916337D01*
X123074035Y-120702171D01*
X123060372Y-120682657D01*
X122938494Y-120508597D01*
X122771402Y-120341506D01*
X122771396Y-120341501D01*
X122585842Y-120211575D01*
X122542217Y-120156998D01*
X122535023Y-120087500D01*
X122566546Y-120025145D01*
X122585842Y-120008425D01*
X122608026Y-119992891D01*
X122771401Y-119878495D01*
X122938495Y-119711401D01*
X123074035Y-119517830D01*
X123173903Y-119303663D01*
X123235063Y-119075408D01*
X123255659Y-118840000D01*
X123235063Y-118604592D01*
X123173903Y-118376337D01*
X123074035Y-118162171D01*
X123074034Y-118162169D01*
X122938494Y-117968597D01*
X122771402Y-117801506D01*
X122771396Y-117801501D01*
X122585842Y-117671575D01*
X122542217Y-117616998D01*
X122535023Y-117547500D01*
X122566546Y-117485145D01*
X122585842Y-117468425D01*
X122628786Y-117438355D01*
X122771401Y-117338495D01*
X122938495Y-117171401D01*
X123074035Y-116977830D01*
X123173903Y-116763663D01*
X123235063Y-116535408D01*
X123255659Y-116300000D01*
X123235063Y-116064592D01*
X123177830Y-115850993D01*
X123173905Y-115836344D01*
X123173904Y-115836343D01*
X123173903Y-115836337D01*
X123074035Y-115622171D01*
X123074034Y-115622169D01*
X122938494Y-115428597D01*
X122771402Y-115261506D01*
X122771396Y-115261501D01*
X122585842Y-115131575D01*
X122542217Y-115076998D01*
X122535023Y-115007500D01*
X122566546Y-114945145D01*
X122585842Y-114928425D01*
X122632894Y-114895479D01*
X122771401Y-114798495D01*
X122938495Y-114631401D01*
X123074035Y-114437830D01*
X123173903Y-114223663D01*
X123235063Y-113995408D01*
X123255659Y-113760000D01*
X123235063Y-113524592D01*
X123173903Y-113296337D01*
X123074035Y-113082171D01*
X123056616Y-113057293D01*
X122938494Y-112888597D01*
X122771402Y-112721506D01*
X122771396Y-112721501D01*
X122585842Y-112591575D01*
X122542217Y-112536998D01*
X122535023Y-112467500D01*
X122566546Y-112405145D01*
X122585842Y-112388425D01*
X122665377Y-112332734D01*
X122771401Y-112258495D01*
X122938495Y-112091401D01*
X123074035Y-111897830D01*
X123173903Y-111683663D01*
X123235063Y-111455408D01*
X123255659Y-111220000D01*
X123235063Y-110984592D01*
X123173903Y-110756337D01*
X123074035Y-110542171D01*
X123022505Y-110468577D01*
X122938494Y-110348597D01*
X122771402Y-110181506D01*
X122771396Y-110181501D01*
X122585842Y-110051575D01*
X122542217Y-109996998D01*
X122535023Y-109927500D01*
X122566546Y-109865145D01*
X122585842Y-109848425D01*
X122665377Y-109792734D01*
X122771401Y-109718495D01*
X122938495Y-109551401D01*
X123074035Y-109357830D01*
X123173903Y-109143663D01*
X123235063Y-108915408D01*
X123255659Y-108680000D01*
X123235063Y-108444592D01*
X123173903Y-108216337D01*
X123074035Y-108002171D01*
X123022505Y-107928577D01*
X122938494Y-107808597D01*
X122771402Y-107641506D01*
X122771396Y-107641501D01*
X122585842Y-107511575D01*
X122542217Y-107456998D01*
X122535023Y-107387500D01*
X122566546Y-107325145D01*
X122585842Y-107308425D01*
X122665377Y-107252734D01*
X122771401Y-107178495D01*
X122938495Y-107011401D01*
X123074035Y-106817830D01*
X123173903Y-106603663D01*
X123235063Y-106375408D01*
X123255659Y-106140000D01*
X123235063Y-105904592D01*
X123173903Y-105676337D01*
X123074035Y-105462171D01*
X123022505Y-105388577D01*
X122938494Y-105268597D01*
X122771402Y-105101506D01*
X122771396Y-105101501D01*
X122585842Y-104971575D01*
X122542217Y-104916998D01*
X122535023Y-104847500D01*
X122566546Y-104785145D01*
X122585842Y-104768425D01*
X122665377Y-104712734D01*
X122771401Y-104638495D01*
X122938495Y-104471401D01*
X123074035Y-104277830D01*
X123173903Y-104063663D01*
X123235063Y-103835408D01*
X123255659Y-103600000D01*
X123235063Y-103364592D01*
X123173903Y-103136337D01*
X123074035Y-102922171D01*
X123059986Y-102902106D01*
X122938494Y-102728597D01*
X122771402Y-102561506D01*
X122771395Y-102561501D01*
X122577834Y-102425967D01*
X122577830Y-102425965D01*
X122577828Y-102425964D01*
X122363663Y-102326097D01*
X122363659Y-102326096D01*
X122363655Y-102326094D01*
X122135413Y-102264938D01*
X122135403Y-102264936D01*
X121900001Y-102244341D01*
X121899999Y-102244341D01*
X121664596Y-102264936D01*
X121664586Y-102264938D01*
X121436344Y-102326094D01*
X121436335Y-102326098D01*
X121222171Y-102425964D01*
X121222169Y-102425965D01*
X121028597Y-102561505D01*
X120861505Y-102728597D01*
X120725965Y-102922169D01*
X120725964Y-102922171D01*
X120626098Y-103136335D01*
X120626094Y-103136344D01*
X120564938Y-103364586D01*
X120564936Y-103364596D01*
X120544341Y-103599999D01*
X120544341Y-103600000D01*
X120564936Y-103835403D01*
X120564938Y-103835413D01*
X120626094Y-104063655D01*
X120626096Y-104063659D01*
X120626097Y-104063663D01*
X120725965Y-104277830D01*
X120725967Y-104277834D01*
X120861501Y-104471395D01*
X120861506Y-104471402D01*
X121028597Y-104638493D01*
X121028603Y-104638498D01*
X121214158Y-104768425D01*
X121257783Y-104823002D01*
X121264977Y-104892500D01*
X121233454Y-104954855D01*
X121214158Y-104971575D01*
X121028597Y-105101505D01*
X120861505Y-105268597D01*
X120725965Y-105462169D01*
X120725964Y-105462171D01*
X120626098Y-105676335D01*
X120626094Y-105676344D01*
X120564938Y-105904586D01*
X120564936Y-105904596D01*
X120544341Y-106139999D01*
X120544341Y-106140000D01*
X120564936Y-106375403D01*
X120564938Y-106375413D01*
X120626094Y-106603655D01*
X120626096Y-106603659D01*
X120626097Y-106603663D01*
X120725965Y-106817830D01*
X120725967Y-106817834D01*
X120861501Y-107011395D01*
X120861506Y-107011402D01*
X121028597Y-107178493D01*
X121028603Y-107178498D01*
X121214158Y-107308425D01*
X121257783Y-107363002D01*
X121264977Y-107432500D01*
X121233454Y-107494855D01*
X121214158Y-107511575D01*
X121028597Y-107641505D01*
X120861505Y-107808597D01*
X120725965Y-108002169D01*
X120725964Y-108002171D01*
X120626098Y-108216335D01*
X120626094Y-108216344D01*
X120564938Y-108444586D01*
X120564936Y-108444596D01*
X120544341Y-108679999D01*
X120544341Y-108680000D01*
X120564936Y-108915403D01*
X120564938Y-108915413D01*
X120626094Y-109143655D01*
X120626096Y-109143659D01*
X120626097Y-109143663D01*
X120725965Y-109357830D01*
X120725967Y-109357834D01*
X120861501Y-109551395D01*
X120861506Y-109551402D01*
X121028597Y-109718493D01*
X121028603Y-109718498D01*
X121214158Y-109848425D01*
X121257783Y-109903002D01*
X121264977Y-109972500D01*
X121233454Y-110034855D01*
X121214158Y-110051575D01*
X121028597Y-110181505D01*
X120861505Y-110348597D01*
X120725965Y-110542169D01*
X120725964Y-110542171D01*
X120626098Y-110756335D01*
X120626094Y-110756344D01*
X120564938Y-110984586D01*
X120564936Y-110984596D01*
X120544341Y-111219999D01*
X120544341Y-111220000D01*
X120564936Y-111455403D01*
X120564938Y-111455413D01*
X120626094Y-111683655D01*
X120626096Y-111683659D01*
X120626097Y-111683663D01*
X120725965Y-111897830D01*
X120725967Y-111897834D01*
X120861501Y-112091395D01*
X120861506Y-112091402D01*
X121028597Y-112258493D01*
X121028603Y-112258498D01*
X121214158Y-112388425D01*
X121257783Y-112443002D01*
X121264977Y-112512500D01*
X121233454Y-112574855D01*
X121214158Y-112591575D01*
X121028597Y-112721505D01*
X120861505Y-112888597D01*
X120725965Y-113082169D01*
X120725964Y-113082171D01*
X120626098Y-113296335D01*
X120626094Y-113296344D01*
X120564938Y-113524586D01*
X120564936Y-113524596D01*
X120544341Y-113759999D01*
X120544341Y-113760000D01*
X120564936Y-113995403D01*
X120564938Y-113995413D01*
X120626094Y-114223655D01*
X120626096Y-114223659D01*
X120626097Y-114223663D01*
X120718090Y-114420943D01*
X120725965Y-114437830D01*
X120725967Y-114437834D01*
X120861501Y-114631395D01*
X120861506Y-114631402D01*
X121028597Y-114798493D01*
X121028603Y-114798498D01*
X121214158Y-114928425D01*
X121257783Y-114983002D01*
X121264977Y-115052500D01*
X121233454Y-115114855D01*
X121214158Y-115131575D01*
X121028597Y-115261505D01*
X120861505Y-115428597D01*
X120725965Y-115622169D01*
X120725964Y-115622171D01*
X120626098Y-115836335D01*
X120626094Y-115836344D01*
X120564938Y-116064586D01*
X120564936Y-116064596D01*
X120544341Y-116299999D01*
X120544341Y-116300000D01*
X120564936Y-116535403D01*
X120564938Y-116535413D01*
X120626094Y-116763655D01*
X120626096Y-116763659D01*
X120626097Y-116763663D01*
X120689906Y-116900501D01*
X120725965Y-116977830D01*
X120725967Y-116977834D01*
X120861501Y-117171395D01*
X120861506Y-117171402D01*
X121028597Y-117338493D01*
X121028603Y-117338498D01*
X121214158Y-117468425D01*
X121257783Y-117523002D01*
X121264977Y-117592500D01*
X121233454Y-117654855D01*
X121214158Y-117671575D01*
X121028597Y-117801505D01*
X120861505Y-117968597D01*
X120725965Y-118162169D01*
X120725964Y-118162171D01*
X120626098Y-118376335D01*
X120626094Y-118376344D01*
X120564938Y-118604586D01*
X120564936Y-118604596D01*
X120544341Y-118839999D01*
X120544341Y-118840000D01*
X120564936Y-119075403D01*
X120564938Y-119075413D01*
X120626094Y-119303655D01*
X120626096Y-119303659D01*
X120626097Y-119303663D01*
X120716596Y-119497738D01*
X120725965Y-119517830D01*
X120725967Y-119517834D01*
X120861501Y-119711395D01*
X120861506Y-119711402D01*
X121028597Y-119878493D01*
X121028603Y-119878498D01*
X121214158Y-120008425D01*
X121257783Y-120063002D01*
X121264977Y-120132500D01*
X121233454Y-120194855D01*
X121214158Y-120211575D01*
X121028597Y-120341505D01*
X120861505Y-120508597D01*
X120725965Y-120702169D01*
X120725964Y-120702171D01*
X120626098Y-120916335D01*
X120626094Y-120916344D01*
X120564938Y-121144586D01*
X120564936Y-121144596D01*
X120544341Y-121379999D01*
X120544341Y-121380000D01*
X120564936Y-121615403D01*
X120564938Y-121615413D01*
X120626094Y-121843655D01*
X120626096Y-121843659D01*
X120626097Y-121843663D01*
X120666271Y-121929816D01*
X120725965Y-122057830D01*
X120725967Y-122057834D01*
X120861501Y-122251395D01*
X120861506Y-122251402D01*
X121028597Y-122418493D01*
X121028603Y-122418498D01*
X121214158Y-122548425D01*
X121257783Y-122603002D01*
X121264977Y-122672500D01*
X121233454Y-122734855D01*
X121214158Y-122751575D01*
X121028597Y-122881505D01*
X120861505Y-123048597D01*
X120725965Y-123242169D01*
X120725964Y-123242171D01*
X120626098Y-123456335D01*
X120626094Y-123456344D01*
X120564938Y-123684586D01*
X120564936Y-123684596D01*
X120544341Y-123919999D01*
X120544341Y-123920000D01*
X120564936Y-124155403D01*
X120564938Y-124155413D01*
X120626094Y-124383655D01*
X120626096Y-124383659D01*
X120626097Y-124383663D01*
X120695167Y-124531784D01*
X120725965Y-124597830D01*
X120725967Y-124597834D01*
X120861501Y-124791395D01*
X120861506Y-124791402D01*
X121028597Y-124958493D01*
X121028603Y-124958498D01*
X121214158Y-125088425D01*
X121257783Y-125143002D01*
X121264977Y-125212500D01*
X121233454Y-125274855D01*
X121214158Y-125291575D01*
X121028597Y-125421505D01*
X120861505Y-125588597D01*
X120725965Y-125782169D01*
X120725964Y-125782171D01*
X120626098Y-125996335D01*
X120626094Y-125996344D01*
X120564938Y-126224586D01*
X120564936Y-126224596D01*
X120544341Y-126459999D01*
X120544341Y-126460000D01*
X120564936Y-126695403D01*
X120564938Y-126695413D01*
X120626094Y-126923655D01*
X120626096Y-126923659D01*
X120626097Y-126923663D01*
X120725965Y-127137830D01*
X120725967Y-127137834D01*
X120861501Y-127331395D01*
X120861506Y-127331402D01*
X121028597Y-127498493D01*
X121028603Y-127498498D01*
X121214158Y-127628425D01*
X121257783Y-127683002D01*
X121264977Y-127752500D01*
X121233454Y-127814855D01*
X121214158Y-127831575D01*
X121028597Y-127961505D01*
X120861505Y-128128597D01*
X120725965Y-128322169D01*
X120725964Y-128322171D01*
X120626098Y-128536335D01*
X120626094Y-128536344D01*
X120564938Y-128764586D01*
X120564936Y-128764596D01*
X120544341Y-128999999D01*
X120544341Y-129000000D01*
X120564936Y-129235403D01*
X120564938Y-129235413D01*
X120626094Y-129463655D01*
X120626096Y-129463659D01*
X120626097Y-129463663D01*
X120722913Y-129671284D01*
X120725965Y-129677830D01*
X120725967Y-129677834D01*
X120861501Y-129871395D01*
X120861506Y-129871402D01*
X121028597Y-130038493D01*
X121028603Y-130038498D01*
X121214158Y-130168425D01*
X121257783Y-130223002D01*
X121264977Y-130292500D01*
X121233454Y-130354855D01*
X121214158Y-130371575D01*
X121028597Y-130501505D01*
X120861505Y-130668597D01*
X120725965Y-130862169D01*
X120725964Y-130862171D01*
X120626098Y-131076335D01*
X120626094Y-131076344D01*
X120564938Y-131304586D01*
X120564936Y-131304596D01*
X120544341Y-131539999D01*
X120544341Y-131540000D01*
X120564936Y-131775403D01*
X120564938Y-131775413D01*
X120626094Y-132003655D01*
X120626096Y-132003659D01*
X120626097Y-132003663D01*
X120725965Y-132217830D01*
X120725967Y-132217834D01*
X120861501Y-132411395D01*
X120861506Y-132411402D01*
X121028597Y-132578493D01*
X121028603Y-132578498D01*
X121214158Y-132708425D01*
X121257783Y-132763002D01*
X121264977Y-132832500D01*
X121233454Y-132894855D01*
X121214158Y-132911575D01*
X121028597Y-133041505D01*
X120861505Y-133208597D01*
X120725965Y-133402169D01*
X120725964Y-133402171D01*
X120626098Y-133616335D01*
X120626094Y-133616344D01*
X120564938Y-133844586D01*
X120564936Y-133844596D01*
X120544341Y-134079999D01*
X120544341Y-134080000D01*
X120564936Y-134315403D01*
X120564938Y-134315413D01*
X120626094Y-134543655D01*
X120626096Y-134543659D01*
X120626097Y-134543663D01*
X120725965Y-134757830D01*
X120725967Y-134757834D01*
X120790503Y-134850000D01*
X120861505Y-134951401D01*
X121028599Y-135118495D01*
X121177478Y-135222741D01*
X121214594Y-135248730D01*
X121258218Y-135303307D01*
X121265411Y-135372806D01*
X121233889Y-135435160D01*
X121214593Y-135451880D01*
X121138626Y-135505072D01*
X121138625Y-135505072D01*
X121770590Y-136137037D01*
X121707007Y-136154075D01*
X121592993Y-136219901D01*
X121499901Y-136312993D01*
X121434075Y-136427007D01*
X121417037Y-136490590D01*
X120785072Y-135858625D01*
X120726401Y-135942419D01*
X120626570Y-136156507D01*
X120626566Y-136156516D01*
X120565432Y-136384673D01*
X120565430Y-136384684D01*
X120544843Y-136619998D01*
X120544843Y-136620001D01*
X120565430Y-136855315D01*
X120565432Y-136855326D01*
X120626566Y-137083483D01*
X120626570Y-137083492D01*
X120726400Y-137297579D01*
X120726402Y-137297583D01*
X120785072Y-137381373D01*
X120785073Y-137381373D01*
X121417037Y-136749409D01*
X121434075Y-136812993D01*
X121499901Y-136927007D01*
X121592993Y-137020099D01*
X121707007Y-137085925D01*
X121770590Y-137102962D01*
X121138625Y-137734925D01*
X121214594Y-137788119D01*
X121258219Y-137842696D01*
X121265413Y-137912194D01*
X121233890Y-137974549D01*
X121214595Y-137991269D01*
X121028594Y-138121508D01*
X120861505Y-138288597D01*
X120725965Y-138482169D01*
X120725964Y-138482171D01*
X120626098Y-138696335D01*
X120626094Y-138696344D01*
X120564938Y-138924586D01*
X120564936Y-138924596D01*
X120544341Y-139159999D01*
X120544341Y-139160000D01*
X120564936Y-139395403D01*
X120564938Y-139395413D01*
X120599327Y-139523756D01*
X120597664Y-139593606D01*
X120567233Y-139643530D01*
X119547584Y-140663181D01*
X119486261Y-140696666D01*
X119459903Y-140699500D01*
X119431692Y-140699500D01*
X119364653Y-140679815D01*
X119330119Y-140646625D01*
X119200047Y-140460861D01*
X119200046Y-140460860D01*
X119200045Y-140460858D01*
X119039141Y-140299954D01*
X118852734Y-140169432D01*
X118852732Y-140169431D01*
X118646497Y-140073261D01*
X118646488Y-140073258D01*
X118426697Y-140014366D01*
X118426693Y-140014365D01*
X118426692Y-140014365D01*
X118426691Y-140014364D01*
X118426686Y-140014364D01*
X118200002Y-139994532D01*
X118199998Y-139994532D01*
X117973313Y-140014364D01*
X117973302Y-140014366D01*
X117877067Y-140040152D01*
X117807217Y-140038489D01*
X117757293Y-140008058D01*
X115236819Y-137487584D01*
X115203334Y-137426261D01*
X115200500Y-137399903D01*
X115200500Y-136299997D01*
X116895034Y-136299997D01*
X116895034Y-136300002D01*
X116914858Y-136526599D01*
X116914860Y-136526610D01*
X116973730Y-136746317D01*
X116973735Y-136746331D01*
X117069863Y-136952478D01*
X117120974Y-137025472D01*
X117800000Y-136346446D01*
X117800000Y-136352661D01*
X117827259Y-136454394D01*
X117879920Y-136545606D01*
X117954394Y-136620080D01*
X118045606Y-136672741D01*
X118147339Y-136700000D01*
X118153553Y-136700000D01*
X117474526Y-137379025D01*
X117547513Y-137430132D01*
X117547521Y-137430136D01*
X117753668Y-137526264D01*
X117753682Y-137526269D01*
X117973389Y-137585139D01*
X117973400Y-137585141D01*
X118199998Y-137604966D01*
X118200002Y-137604966D01*
X118426599Y-137585141D01*
X118426610Y-137585139D01*
X118646317Y-137526269D01*
X118646331Y-137526264D01*
X118852478Y-137430136D01*
X118925471Y-137379024D01*
X118246447Y-136700000D01*
X118252661Y-136700000D01*
X118354394Y-136672741D01*
X118445606Y-136620080D01*
X118520080Y-136545606D01*
X118572741Y-136454394D01*
X118600000Y-136352661D01*
X118600000Y-136346447D01*
X119279024Y-137025471D01*
X119330136Y-136952478D01*
X119426264Y-136746331D01*
X119426269Y-136746317D01*
X119485139Y-136526610D01*
X119485141Y-136526599D01*
X119504966Y-136300002D01*
X119504966Y-136299997D01*
X119485141Y-136073400D01*
X119485139Y-136073389D01*
X119426269Y-135853682D01*
X119426264Y-135853668D01*
X119330136Y-135647521D01*
X119330132Y-135647513D01*
X119279025Y-135574526D01*
X118600000Y-136253551D01*
X118600000Y-136247339D01*
X118572741Y-136145606D01*
X118520080Y-136054394D01*
X118445606Y-135979920D01*
X118354394Y-135927259D01*
X118252661Y-135900000D01*
X118246448Y-135900000D01*
X118925472Y-135220974D01*
X118852478Y-135169863D01*
X118646331Y-135073735D01*
X118646317Y-135073730D01*
X118426610Y-135014860D01*
X118426599Y-135014858D01*
X118200002Y-134995034D01*
X118199998Y-134995034D01*
X117973400Y-135014858D01*
X117973389Y-135014860D01*
X117753682Y-135073730D01*
X117753673Y-135073734D01*
X117547516Y-135169866D01*
X117547512Y-135169868D01*
X117474526Y-135220973D01*
X117474526Y-135220974D01*
X118153553Y-135900000D01*
X118147339Y-135900000D01*
X118045606Y-135927259D01*
X117954394Y-135979920D01*
X117879920Y-136054394D01*
X117827259Y-136145606D01*
X117800000Y-136247339D01*
X117800000Y-136253552D01*
X117120974Y-135574526D01*
X117120973Y-135574526D01*
X117069868Y-135647512D01*
X117069866Y-135647516D01*
X116973734Y-135853673D01*
X116973730Y-135853682D01*
X116914860Y-136073389D01*
X116914858Y-136073400D01*
X116895034Y-136299997D01*
X115200500Y-136299997D01*
X115200500Y-99600096D01*
X115200529Y-99599998D01*
X120624390Y-99599998D01*
X120624390Y-99600001D01*
X120629184Y-99667028D01*
X120629500Y-99675874D01*
X120629500Y-99731123D01*
X120638360Y-99798429D01*
X120639105Y-99805764D01*
X120644803Y-99885425D01*
X120644805Y-99885438D01*
X120656398Y-99938728D01*
X120658171Y-99948897D01*
X120662272Y-99980045D01*
X120663731Y-99991121D01*
X120684570Y-100068895D01*
X120685961Y-100074629D01*
X120705629Y-100165042D01*
X120720268Y-100204292D01*
X120723859Y-100215525D01*
X120731601Y-100244417D01*
X120767254Y-100330491D01*
X120768871Y-100334601D01*
X120805131Y-100431816D01*
X120805633Y-100433160D01*
X120805637Y-100433170D01*
X120819633Y-100458803D01*
X120825358Y-100470769D01*
X120831952Y-100486688D01*
X120831960Y-100486704D01*
X120884869Y-100578345D01*
X120886314Y-100580918D01*
X120942773Y-100684315D01*
X120952671Y-100697536D01*
X120960789Y-100709843D01*
X120963076Y-100713803D01*
X121035284Y-100807906D01*
X121035978Y-100808821D01*
X121111905Y-100910248D01*
X121114262Y-100913396D01*
X121114270Y-100913405D01*
X121316591Y-101115726D01*
X121316599Y-101115733D01*
X121316605Y-101115739D01*
X121316608Y-101115741D01*
X121316609Y-101115742D01*
X121421034Y-101193913D01*
X121422211Y-101194805D01*
X121516194Y-101266922D01*
X121520156Y-101269210D01*
X121532460Y-101277326D01*
X121545685Y-101287226D01*
X121556833Y-101293313D01*
X121649080Y-101343684D01*
X121651653Y-101345129D01*
X121743299Y-101398041D01*
X121743314Y-101398048D01*
X121759228Y-101404640D01*
X121771201Y-101410367D01*
X121796839Y-101424367D01*
X121895412Y-101461132D01*
X121899499Y-101462741D01*
X121985567Y-101498393D01*
X121985590Y-101498401D01*
X122004248Y-101503399D01*
X122014469Y-101506137D01*
X122025701Y-101509727D01*
X122064954Y-101524369D01*
X122064955Y-101524369D01*
X122064960Y-101524371D01*
X122143580Y-101541473D01*
X122155348Y-101544033D01*
X122155358Y-101544035D01*
X122161072Y-101545420D01*
X122238884Y-101566270D01*
X122281124Y-101571830D01*
X122291237Y-101573593D01*
X122344572Y-101585196D01*
X122424243Y-101590893D01*
X122431547Y-101591634D01*
X122498880Y-101600500D01*
X122554124Y-101600500D01*
X122562970Y-101600816D01*
X122629999Y-101605610D01*
X122630000Y-101605610D01*
X122630001Y-101605610D01*
X122697030Y-101600816D01*
X122705876Y-101600500D01*
X122761114Y-101600500D01*
X122761120Y-101600500D01*
X122828448Y-101591635D01*
X122835758Y-101590893D01*
X122915428Y-101585196D01*
X122968770Y-101573591D01*
X122978869Y-101571831D01*
X123021116Y-101566270D01*
X123098918Y-101545422D01*
X123104595Y-101544044D01*
X123195046Y-101524369D01*
X123234303Y-101509725D01*
X123245510Y-101506143D01*
X123274419Y-101498398D01*
X123349400Y-101467339D01*
X123360508Y-101462738D01*
X123364612Y-101461122D01*
X123463161Y-101424367D01*
X123488804Y-101410363D01*
X123500763Y-101404642D01*
X123516697Y-101398043D01*
X123608435Y-101345076D01*
X123610868Y-101343711D01*
X123714315Y-101287226D01*
X123727546Y-101277319D01*
X123739850Y-101269205D01*
X123743803Y-101266924D01*
X123837810Y-101194787D01*
X123838892Y-101193967D01*
X123943395Y-101115739D01*
X124145739Y-100913395D01*
X124223967Y-100808892D01*
X124224816Y-100807773D01*
X124296924Y-100713803D01*
X124299205Y-100709850D01*
X124307319Y-100697546D01*
X124317226Y-100684315D01*
X124373711Y-100580868D01*
X124375076Y-100578435D01*
X124428043Y-100486697D01*
X124434642Y-100470763D01*
X124440365Y-100458803D01*
X124454367Y-100433161D01*
X124491124Y-100334609D01*
X124492738Y-100330508D01*
X124528395Y-100244426D01*
X124528394Y-100244426D01*
X124528398Y-100244419D01*
X124536143Y-100215510D01*
X124539725Y-100204303D01*
X124554369Y-100165046D01*
X124574044Y-100074595D01*
X124575425Y-100068909D01*
X124575429Y-100068895D01*
X124596270Y-99991116D01*
X124601831Y-99948869D01*
X124603591Y-99938770D01*
X124615196Y-99885428D01*
X124620893Y-99805758D01*
X124621637Y-99798432D01*
X124621638Y-99798429D01*
X124630500Y-99731120D01*
X124630500Y-99675874D01*
X124630816Y-99667028D01*
X124635610Y-99600001D01*
X124635610Y-99599998D01*
X144564390Y-99599998D01*
X144564390Y-99600001D01*
X144569184Y-99667028D01*
X144569500Y-99675874D01*
X144569500Y-99731123D01*
X144578360Y-99798429D01*
X144579105Y-99805764D01*
X144584803Y-99885425D01*
X144584805Y-99885438D01*
X144596398Y-99938728D01*
X144598171Y-99948897D01*
X144602272Y-99980045D01*
X144603731Y-99991121D01*
X144624570Y-100068895D01*
X144625961Y-100074629D01*
X144645629Y-100165042D01*
X144660268Y-100204292D01*
X144663859Y-100215525D01*
X144671601Y-100244417D01*
X144707254Y-100330491D01*
X144708871Y-100334601D01*
X144745131Y-100431816D01*
X144745633Y-100433160D01*
X144745637Y-100433170D01*
X144759633Y-100458803D01*
X144765358Y-100470769D01*
X144771952Y-100486688D01*
X144771960Y-100486704D01*
X144824869Y-100578345D01*
X144826314Y-100580918D01*
X144882773Y-100684315D01*
X144892671Y-100697536D01*
X144900789Y-100709843D01*
X144903076Y-100713803D01*
X144975284Y-100807906D01*
X144975978Y-100808821D01*
X145051905Y-100910248D01*
X145054262Y-100913396D01*
X145054270Y-100913405D01*
X145256591Y-101115726D01*
X145256599Y-101115733D01*
X145256605Y-101115739D01*
X145256608Y-101115741D01*
X145256609Y-101115742D01*
X145361034Y-101193913D01*
X145362211Y-101194805D01*
X145456194Y-101266922D01*
X145460156Y-101269210D01*
X145472460Y-101277326D01*
X145485685Y-101287226D01*
X145496833Y-101293313D01*
X145589080Y-101343684D01*
X145591653Y-101345129D01*
X145683299Y-101398041D01*
X145683314Y-101398048D01*
X145699228Y-101404640D01*
X145711201Y-101410367D01*
X145736839Y-101424367D01*
X145835412Y-101461132D01*
X145839499Y-101462741D01*
X145925567Y-101498393D01*
X145925590Y-101498401D01*
X145944248Y-101503399D01*
X145954469Y-101506137D01*
X145965701Y-101509727D01*
X146004954Y-101524369D01*
X146004955Y-101524369D01*
X146004960Y-101524371D01*
X146083580Y-101541473D01*
X146095348Y-101544033D01*
X146095358Y-101544035D01*
X146101072Y-101545420D01*
X146178884Y-101566270D01*
X146221124Y-101571830D01*
X146231237Y-101573593D01*
X146284572Y-101585196D01*
X146364243Y-101590893D01*
X146371547Y-101591634D01*
X146438880Y-101600500D01*
X146494124Y-101600500D01*
X146502970Y-101600816D01*
X146516952Y-101601816D01*
X146572211Y-101622426D01*
X146596959Y-101606523D01*
X146623048Y-101601816D01*
X146637030Y-101600816D01*
X146645876Y-101600500D01*
X146701114Y-101600500D01*
X146701120Y-101600500D01*
X146768448Y-101591635D01*
X146775758Y-101590893D01*
X146855428Y-101585196D01*
X146908770Y-101573591D01*
X146918869Y-101571831D01*
X146961116Y-101566270D01*
X147038918Y-101545422D01*
X147044595Y-101544044D01*
X147135046Y-101524369D01*
X147174303Y-101509725D01*
X147185510Y-101506143D01*
X147214419Y-101498398D01*
X147289400Y-101467339D01*
X147300508Y-101462738D01*
X147304612Y-101461122D01*
X147403161Y-101424367D01*
X147428804Y-101410363D01*
X147440763Y-101404642D01*
X147456697Y-101398043D01*
X147548435Y-101345076D01*
X147550868Y-101343711D01*
X147654315Y-101287226D01*
X147667546Y-101277319D01*
X147679850Y-101269205D01*
X147683803Y-101266924D01*
X147777810Y-101194787D01*
X147778892Y-101193967D01*
X147883395Y-101115739D01*
X148085739Y-100913395D01*
X148163967Y-100808892D01*
X148164816Y-100807773D01*
X148236924Y-100713803D01*
X148239205Y-100709850D01*
X148247319Y-100697546D01*
X148257226Y-100684315D01*
X148313711Y-100580868D01*
X148315076Y-100578435D01*
X148368043Y-100486697D01*
X148374642Y-100470763D01*
X148380365Y-100458803D01*
X148394367Y-100433161D01*
X148431124Y-100334609D01*
X148432738Y-100330508D01*
X148468395Y-100244426D01*
X148468394Y-100244426D01*
X148468398Y-100244419D01*
X148476143Y-100215510D01*
X148479725Y-100204303D01*
X148494369Y-100165046D01*
X148514044Y-100074595D01*
X148515425Y-100068909D01*
X148515429Y-100068895D01*
X148536270Y-99991116D01*
X148541831Y-99948869D01*
X148543591Y-99938770D01*
X148555196Y-99885428D01*
X148560893Y-99805758D01*
X148561637Y-99798432D01*
X148561638Y-99798429D01*
X148570500Y-99731120D01*
X148570500Y-99675874D01*
X148570816Y-99667028D01*
X148575610Y-99600001D01*
X148575610Y-99599998D01*
X148570816Y-99532970D01*
X148570500Y-99524124D01*
X148570500Y-99468880D01*
X148570499Y-99468876D01*
X148561634Y-99401547D01*
X148560893Y-99394234D01*
X148555196Y-99314572D01*
X148543593Y-99261237D01*
X148541830Y-99251124D01*
X148536270Y-99208884D01*
X148515420Y-99131072D01*
X148514035Y-99125358D01*
X148494371Y-99034960D01*
X148494369Y-99034954D01*
X148479727Y-98995701D01*
X148476136Y-98984463D01*
X148468401Y-98955590D01*
X148468393Y-98955567D01*
X148432741Y-98869499D01*
X148431132Y-98865412D01*
X148394367Y-98766839D01*
X148380362Y-98741190D01*
X148374640Y-98729228D01*
X148368048Y-98713314D01*
X148368041Y-98713299D01*
X148315129Y-98621653D01*
X148313684Y-98619080D01*
X148292398Y-98580098D01*
X148257226Y-98515685D01*
X148247326Y-98502460D01*
X148239210Y-98490156D01*
X148237730Y-98487594D01*
X148236924Y-98486197D01*
X148236922Y-98486195D01*
X148236922Y-98486194D01*
X148164805Y-98392211D01*
X148163913Y-98391034D01*
X148085742Y-98286609D01*
X148085741Y-98286608D01*
X148085739Y-98286605D01*
X148085734Y-98286600D01*
X148085726Y-98286591D01*
X147883405Y-98084270D01*
X147883396Y-98084262D01*
X147883383Y-98084252D01*
X147778821Y-98005978D01*
X147777906Y-98005284D01*
X147683803Y-97933076D01*
X147679843Y-97930789D01*
X147667536Y-97922671D01*
X147654315Y-97912773D01*
X147550918Y-97856314D01*
X147548345Y-97854869D01*
X147456704Y-97801960D01*
X147456688Y-97801952D01*
X147440769Y-97795358D01*
X147428803Y-97789633D01*
X147403170Y-97775637D01*
X147403163Y-97775634D01*
X147403161Y-97775633D01*
X147304596Y-97738870D01*
X147300491Y-97737254D01*
X147214417Y-97701601D01*
X147185525Y-97693859D01*
X147174292Y-97690268D01*
X147135042Y-97675629D01*
X147044629Y-97655961D01*
X147038895Y-97654570D01*
X146961121Y-97633731D01*
X146961118Y-97633730D01*
X146961116Y-97633730D01*
X146939450Y-97630877D01*
X146918897Y-97628171D01*
X146908728Y-97626398D01*
X146855438Y-97614805D01*
X146855425Y-97614803D01*
X146775764Y-97609105D01*
X146768429Y-97608360D01*
X146701123Y-97599500D01*
X146701120Y-97599500D01*
X146645876Y-97599500D01*
X146637030Y-97599184D01*
X146570001Y-97594390D01*
X146569999Y-97594390D01*
X146502970Y-97599184D01*
X146494124Y-97599500D01*
X146438877Y-97599500D01*
X146371569Y-97608360D01*
X146364234Y-97609105D01*
X146284574Y-97614803D01*
X146284557Y-97614806D01*
X146231269Y-97626398D01*
X146221101Y-97628171D01*
X146178876Y-97633731D01*
X146101102Y-97654570D01*
X146095369Y-97655961D01*
X146004953Y-97675630D01*
X146004946Y-97675632D01*
X145965712Y-97690266D01*
X145954479Y-97693857D01*
X145925582Y-97701601D01*
X145925576Y-97701603D01*
X145839516Y-97737250D01*
X145835399Y-97738870D01*
X145736841Y-97775631D01*
X145736837Y-97775633D01*
X145711190Y-97789636D01*
X145699233Y-97795357D01*
X145683302Y-97801957D01*
X145591656Y-97854868D01*
X145589085Y-97856312D01*
X145485681Y-97912776D01*
X145472454Y-97922677D01*
X145460156Y-97930789D01*
X145456210Y-97933067D01*
X145456195Y-97933077D01*
X145362196Y-98005204D01*
X145361022Y-98006093D01*
X145256615Y-98084252D01*
X145256594Y-98084270D01*
X145054270Y-98286594D01*
X145054252Y-98286615D01*
X144976093Y-98391022D01*
X144975204Y-98392196D01*
X144903077Y-98486195D01*
X144903067Y-98486210D01*
X144900789Y-98490156D01*
X144892677Y-98502454D01*
X144882776Y-98515681D01*
X144826312Y-98619085D01*
X144824868Y-98621656D01*
X144771957Y-98713302D01*
X144765357Y-98729233D01*
X144759636Y-98741190D01*
X144745633Y-98766837D01*
X144745631Y-98766841D01*
X144708870Y-98865399D01*
X144707250Y-98869516D01*
X144671603Y-98955576D01*
X144671601Y-98955582D01*
X144663857Y-98984479D01*
X144660266Y-98995712D01*
X144645632Y-99034946D01*
X144645630Y-99034953D01*
X144625961Y-99125369D01*
X144624570Y-99131102D01*
X144603731Y-99208876D01*
X144598171Y-99251101D01*
X144596398Y-99261269D01*
X144584806Y-99314557D01*
X144584803Y-99314574D01*
X144579105Y-99394234D01*
X144578360Y-99401569D01*
X144569500Y-99468876D01*
X144569500Y-99524124D01*
X144569184Y-99532970D01*
X144564390Y-99599998D01*
X124635610Y-99599998D01*
X124630816Y-99532970D01*
X124630500Y-99524124D01*
X124630500Y-99468880D01*
X124630499Y-99468876D01*
X124621634Y-99401547D01*
X124620893Y-99394234D01*
X124615196Y-99314572D01*
X124603593Y-99261237D01*
X124601830Y-99251124D01*
X124596270Y-99208884D01*
X124575420Y-99131072D01*
X124574035Y-99125358D01*
X124554371Y-99034960D01*
X124554369Y-99034954D01*
X124539727Y-98995701D01*
X124536136Y-98984463D01*
X124528401Y-98955590D01*
X124528393Y-98955567D01*
X124492741Y-98869499D01*
X124491132Y-98865412D01*
X124454367Y-98766839D01*
X124440362Y-98741190D01*
X124434640Y-98729228D01*
X124428048Y-98713314D01*
X124428041Y-98713299D01*
X124375129Y-98621653D01*
X124373684Y-98619080D01*
X124352398Y-98580098D01*
X124317226Y-98515685D01*
X124307326Y-98502460D01*
X124299210Y-98490156D01*
X124297730Y-98487594D01*
X124296924Y-98486197D01*
X124296922Y-98486195D01*
X124296922Y-98486194D01*
X124224805Y-98392211D01*
X124223913Y-98391034D01*
X124145742Y-98286609D01*
X124145741Y-98286608D01*
X124145739Y-98286605D01*
X124145734Y-98286600D01*
X124145726Y-98286591D01*
X123943405Y-98084270D01*
X123943396Y-98084262D01*
X123943383Y-98084252D01*
X123838821Y-98005978D01*
X123837906Y-98005284D01*
X123743803Y-97933076D01*
X123739843Y-97930789D01*
X123727536Y-97922671D01*
X123714315Y-97912773D01*
X123610918Y-97856314D01*
X123608345Y-97854869D01*
X123516704Y-97801960D01*
X123516688Y-97801952D01*
X123500769Y-97795358D01*
X123488803Y-97789633D01*
X123463170Y-97775637D01*
X123463163Y-97775634D01*
X123463161Y-97775633D01*
X123364596Y-97738870D01*
X123360491Y-97737254D01*
X123274417Y-97701601D01*
X123245525Y-97693859D01*
X123234292Y-97690268D01*
X123195042Y-97675629D01*
X123104629Y-97655961D01*
X123098895Y-97654570D01*
X123021121Y-97633731D01*
X123021118Y-97633730D01*
X123021116Y-97633730D01*
X122999450Y-97630877D01*
X122978897Y-97628171D01*
X122968728Y-97626398D01*
X122915438Y-97614805D01*
X122915425Y-97614803D01*
X122835764Y-97609105D01*
X122828429Y-97608360D01*
X122761123Y-97599500D01*
X122761120Y-97599500D01*
X122705876Y-97599500D01*
X122697030Y-97599184D01*
X122630001Y-97594390D01*
X122629999Y-97594390D01*
X122562970Y-97599184D01*
X122554124Y-97599500D01*
X122498877Y-97599500D01*
X122431569Y-97608360D01*
X122424234Y-97609105D01*
X122344574Y-97614803D01*
X122344557Y-97614806D01*
X122291269Y-97626398D01*
X122281101Y-97628171D01*
X122238876Y-97633731D01*
X122161102Y-97654570D01*
X122155369Y-97655961D01*
X122064953Y-97675630D01*
X122064946Y-97675632D01*
X122025712Y-97690266D01*
X122014479Y-97693857D01*
X121985582Y-97701601D01*
X121985576Y-97701603D01*
X121899516Y-97737250D01*
X121895399Y-97738870D01*
X121796841Y-97775631D01*
X121796837Y-97775633D01*
X121771190Y-97789636D01*
X121759233Y-97795357D01*
X121743302Y-97801957D01*
X121651656Y-97854868D01*
X121649085Y-97856312D01*
X121545681Y-97912776D01*
X121532454Y-97922677D01*
X121520156Y-97930789D01*
X121516210Y-97933067D01*
X121516195Y-97933077D01*
X121422196Y-98005204D01*
X121421022Y-98006093D01*
X121316615Y-98084252D01*
X121316594Y-98084270D01*
X121114270Y-98286594D01*
X121114252Y-98286615D01*
X121036093Y-98391022D01*
X121035204Y-98392196D01*
X120963077Y-98486195D01*
X120963067Y-98486210D01*
X120960789Y-98490156D01*
X120952677Y-98502454D01*
X120942776Y-98515681D01*
X120886312Y-98619085D01*
X120884868Y-98621656D01*
X120831957Y-98713302D01*
X120825357Y-98729233D01*
X120819636Y-98741190D01*
X120805633Y-98766837D01*
X120805631Y-98766841D01*
X120768870Y-98865399D01*
X120767250Y-98869516D01*
X120731603Y-98955576D01*
X120731601Y-98955582D01*
X120723857Y-98984479D01*
X120720266Y-98995712D01*
X120705632Y-99034946D01*
X120705630Y-99034953D01*
X120685961Y-99125369D01*
X120684570Y-99131102D01*
X120663731Y-99208876D01*
X120658171Y-99251101D01*
X120656398Y-99261269D01*
X120644806Y-99314557D01*
X120644803Y-99314574D01*
X120639105Y-99394234D01*
X120638360Y-99401569D01*
X120629500Y-99468876D01*
X120629500Y-99524124D01*
X120629184Y-99532970D01*
X120624390Y-99599998D01*
X115200529Y-99599998D01*
X115220185Y-99533057D01*
X115236814Y-99512420D01*
X124278676Y-90470557D01*
X124339997Y-90437074D01*
X124409689Y-90442058D01*
X124413742Y-90443652D01*
X124488390Y-90474573D01*
X124741006Y-90535221D01*
X125000000Y-90555604D01*
X125258994Y-90535221D01*
X125511610Y-90474573D01*
X125751628Y-90375154D01*
X125973140Y-90239412D01*
X126170689Y-90070689D01*
X126339412Y-89873140D01*
X126475154Y-89651628D01*
X126478117Y-89644473D01*
X126506047Y-89577047D01*
X126549888Y-89522644D01*
X126616182Y-89500579D01*
X126620608Y-89500500D01*
X128579392Y-89500500D01*
X128646431Y-89520185D01*
G37*
%TD.AperFunction*%
%TA.AperFunction,Conductor*%
G36*
X171346942Y-99600185D02*
G01*
X171367584Y-99616819D01*
X184808058Y-113057293D01*
X184841543Y-113118616D01*
X184840152Y-113177067D01*
X184814366Y-113273302D01*
X184814364Y-113273313D01*
X184794532Y-113499998D01*
X184794532Y-113500001D01*
X184814364Y-113726686D01*
X184814366Y-113726697D01*
X184873258Y-113946488D01*
X184873261Y-113946497D01*
X184969431Y-114152732D01*
X184969432Y-114152734D01*
X185099954Y-114339141D01*
X185260858Y-114500045D01*
X185260861Y-114500047D01*
X185447266Y-114630568D01*
X185653504Y-114726739D01*
X185873308Y-114785635D01*
X186020333Y-114798498D01*
X186099998Y-114805468D01*
X186100000Y-114805468D01*
X186100002Y-114805468D01*
X186179667Y-114798498D01*
X186326692Y-114785635D01*
X186422932Y-114759847D01*
X186492781Y-114761510D01*
X186542706Y-114791941D01*
X189038584Y-117287819D01*
X189072069Y-117349142D01*
X189067085Y-117418834D01*
X189025213Y-117474767D01*
X188959749Y-117499184D01*
X188950903Y-117499500D01*
X185700097Y-117499500D01*
X185633058Y-117479815D01*
X185612416Y-117463181D01*
X185587590Y-117438355D01*
X185587588Y-117438352D01*
X185468717Y-117319481D01*
X185468716Y-117319480D01*
X185364960Y-117259577D01*
X185364959Y-117259576D01*
X185331783Y-117240422D01*
X185275881Y-117225443D01*
X185179057Y-117199499D01*
X185020943Y-117199499D01*
X185013347Y-117199499D01*
X185013331Y-117199500D01*
X179682412Y-117199500D01*
X179615373Y-117179815D01*
X179605097Y-117172445D01*
X179602263Y-117170185D01*
X179602262Y-117170184D01*
X179499500Y-117105614D01*
X179449523Y-117074211D01*
X179279254Y-117014631D01*
X179279249Y-117014630D01*
X179100004Y-116994435D01*
X179099996Y-116994435D01*
X178920750Y-117014630D01*
X178920739Y-117014633D01*
X178865453Y-117033978D01*
X178795674Y-117037539D01*
X178735047Y-117002809D01*
X178702821Y-116940816D01*
X178700500Y-116916936D01*
X178700500Y-113129060D01*
X178700501Y-113129047D01*
X178700501Y-112960945D01*
X178700501Y-112960943D01*
X178659577Y-112808215D01*
X178580520Y-112671284D01*
X170411940Y-104502705D01*
X170378456Y-104441383D01*
X170379847Y-104382931D01*
X170405635Y-104286692D01*
X170422634Y-104092384D01*
X170425468Y-104060001D01*
X170425468Y-104059998D01*
X170405819Y-103835413D01*
X170405635Y-103833308D01*
X170346739Y-103613504D01*
X170250568Y-103407266D01*
X170120047Y-103220861D01*
X170120045Y-103220858D01*
X169959141Y-103059954D01*
X169772734Y-102929432D01*
X169772732Y-102929431D01*
X169757163Y-102922171D01*
X169714132Y-102902105D01*
X169661694Y-102855934D01*
X169642542Y-102788740D01*
X169662758Y-102721859D01*
X169714134Y-102677341D01*
X169772484Y-102650132D01*
X169958820Y-102519657D01*
X170119657Y-102358820D01*
X170250134Y-102172482D01*
X170346265Y-101966326D01*
X170346269Y-101966317D01*
X170398872Y-101770000D01*
X169435686Y-101770000D01*
X169440080Y-101765606D01*
X169492741Y-101674394D01*
X169520000Y-101572661D01*
X169520000Y-101467339D01*
X169492741Y-101365606D01*
X169440080Y-101274394D01*
X169435686Y-101270000D01*
X170398872Y-101270000D01*
X170398872Y-101269999D01*
X170346269Y-101073682D01*
X170346265Y-101073673D01*
X170250134Y-100867517D01*
X170119657Y-100681179D01*
X169958820Y-100520342D01*
X169772482Y-100389865D01*
X169714133Y-100362657D01*
X169661694Y-100316484D01*
X169642542Y-100249291D01*
X169662758Y-100182410D01*
X169714129Y-100137895D01*
X169772734Y-100110568D01*
X169959139Y-99980047D01*
X170120047Y-99819139D01*
X170250118Y-99633375D01*
X170304693Y-99589752D01*
X170351692Y-99580500D01*
X171279903Y-99580500D01*
X171346942Y-99600185D01*
G37*
%TD.AperFunction*%
%TA.AperFunction,Conductor*%
G36*
X194276008Y-114675623D02*
G01*
X194335910Y-114779376D01*
X194420624Y-114864090D01*
X194524377Y-114923992D01*
X194607332Y-114946220D01*
X194003247Y-115550304D01*
X194067593Y-115595360D01*
X194200514Y-115657342D01*
X194252953Y-115703514D01*
X194272105Y-115770708D01*
X194251889Y-115837589D01*
X194200514Y-115882106D01*
X194067344Y-115944204D01*
X194067342Y-115944205D01*
X193886668Y-116070713D01*
X193730713Y-116226668D01*
X193618713Y-116386623D01*
X193564136Y-116430248D01*
X193517138Y-116439500D01*
X193342862Y-116439500D01*
X193275823Y-116419815D01*
X193241287Y-116386623D01*
X193129286Y-116226668D01*
X192973330Y-116070712D01*
X192792662Y-115944207D01*
X192792654Y-115944203D01*
X192659486Y-115882106D01*
X192607046Y-115835934D01*
X192587894Y-115768740D01*
X192608110Y-115701859D01*
X192659486Y-115657342D01*
X192792402Y-115595362D01*
X192792410Y-115595358D01*
X192856751Y-115550305D01*
X192856751Y-115550304D01*
X192252668Y-114946220D01*
X192335623Y-114923992D01*
X192439376Y-114864090D01*
X192524090Y-114779376D01*
X192583992Y-114675623D01*
X192606220Y-114592667D01*
X193210304Y-115196751D01*
X193210305Y-115196751D01*
X193255358Y-115132410D01*
X193255362Y-115132402D01*
X193317618Y-114998894D01*
X193363790Y-114946454D01*
X193430983Y-114927302D01*
X193497864Y-114947517D01*
X193542382Y-114998894D01*
X193604636Y-115132400D01*
X193649694Y-115196750D01*
X194253779Y-114592666D01*
X194276008Y-114675623D01*
G37*
%TD.AperFunction*%
%TA.AperFunction,Conductor*%
G36*
X136743039Y-51019685D02*
G01*
X136788794Y-51072489D01*
X136800000Y-51124000D01*
X136800000Y-73300000D01*
X143400000Y-79900000D01*
X170400000Y-79900000D01*
X170400000Y-65424000D01*
X170419685Y-65356961D01*
X170472489Y-65311206D01*
X170524000Y-65300000D01*
X171050874Y-65300000D01*
X171117913Y-65319685D01*
X171138555Y-65336319D01*
X174063181Y-68260945D01*
X174096666Y-68322268D01*
X174099500Y-68348626D01*
X174099500Y-74494486D01*
X174129059Y-74681118D01*
X174187454Y-74860836D01*
X174201494Y-74888390D01*
X174273240Y-75029199D01*
X174384310Y-75182074D01*
X174384312Y-75182076D01*
X175863318Y-76661082D01*
X175896803Y-76722405D01*
X175891819Y-76792097D01*
X175849947Y-76848030D01*
X175784483Y-76872447D01*
X175717184Y-76858121D01*
X175546802Y-76767050D01*
X175546796Y-76767048D01*
X175358201Y-76709838D01*
X175358198Y-76709837D01*
X175162069Y-76690521D01*
X174965939Y-76709837D01*
X174777335Y-76767050D01*
X174603536Y-76859948D01*
X174603529Y-76859952D01*
X174451185Y-76984978D01*
X174326159Y-77137322D01*
X174326155Y-77137329D01*
X174233257Y-77311128D01*
X174176044Y-77499732D01*
X174159472Y-77667995D01*
X174133311Y-77732783D01*
X174123750Y-77743522D01*
X171004093Y-80863181D01*
X170942770Y-80896666D01*
X170916412Y-80899500D01*
X143541518Y-80899500D01*
X143474479Y-80879815D01*
X143453837Y-80863181D01*
X131446546Y-68855888D01*
X131446545Y-68855887D01*
X131331807Y-68779222D01*
X131204332Y-68726421D01*
X131204322Y-68726418D01*
X131068996Y-68699500D01*
X131068994Y-68699500D01*
X131068993Y-68699500D01*
X118068994Y-68699500D01*
X117931006Y-68699500D01*
X117931004Y-68699500D01*
X117795677Y-68726418D01*
X117795667Y-68726421D01*
X117668192Y-68779222D01*
X117553454Y-68855887D01*
X114355887Y-72053454D01*
X114279222Y-72168192D01*
X114226421Y-72295667D01*
X114226418Y-72295677D01*
X114199500Y-72431004D01*
X114199500Y-73824071D01*
X114179815Y-73891110D01*
X114140291Y-73929798D01*
X114121257Y-73941462D01*
X113926859Y-74060588D01*
X113729311Y-74229311D01*
X113560588Y-74426859D01*
X113429799Y-74640290D01*
X113377987Y-74687165D01*
X113324071Y-74699500D01*
X111275929Y-74699500D01*
X111208890Y-74679815D01*
X111170201Y-74640290D01*
X111039412Y-74426860D01*
X110870689Y-74229311D01*
X110673140Y-74060588D01*
X110451628Y-73924846D01*
X110451627Y-73924845D01*
X110451623Y-73924843D01*
X110274251Y-73851374D01*
X110211610Y-73825427D01*
X110211611Y-73825427D01*
X110060364Y-73789116D01*
X109958994Y-73764779D01*
X109958992Y-73764778D01*
X109958991Y-73764778D01*
X109700000Y-73744396D01*
X109441009Y-73764778D01*
X109188389Y-73825427D01*
X108948376Y-73924843D01*
X108726859Y-74060588D01*
X108529311Y-74229311D01*
X108360588Y-74426859D01*
X108224843Y-74648376D01*
X108125427Y-74888389D01*
X108064778Y-75141009D01*
X108044396Y-75400000D01*
X108064778Y-75658990D01*
X108125427Y-75911610D01*
X108224843Y-76151623D01*
X108224845Y-76151627D01*
X108224846Y-76151628D01*
X108360588Y-76373140D01*
X108529311Y-76570689D01*
X108726860Y-76739412D01*
X108948372Y-76875154D01*
X108948374Y-76875154D01*
X108948376Y-76875156D01*
X108993752Y-76893951D01*
X109188390Y-76974573D01*
X109441006Y-77035221D01*
X109700000Y-77055604D01*
X109958994Y-77035221D01*
X110211610Y-76974573D01*
X110451628Y-76875154D01*
X110673140Y-76739412D01*
X110870689Y-76570689D01*
X111039412Y-76373140D01*
X111170201Y-76159709D01*
X111222013Y-76112835D01*
X111275929Y-76100500D01*
X113324071Y-76100500D01*
X113391110Y-76120185D01*
X113429798Y-76159708D01*
X113560588Y-76373140D01*
X113729311Y-76570689D01*
X113926860Y-76739412D01*
X114148372Y-76875154D01*
X114148374Y-76875154D01*
X114148376Y-76875156D01*
X114193752Y-76893951D01*
X114388390Y-76974573D01*
X114641006Y-77035221D01*
X114900000Y-77055604D01*
X115158994Y-77035221D01*
X115411610Y-76974573D01*
X115651628Y-76875154D01*
X115873140Y-76739412D01*
X116070689Y-76570689D01*
X116239412Y-76373140D01*
X116375154Y-76151628D01*
X116474573Y-75911610D01*
X116535221Y-75658994D01*
X116555604Y-75400000D01*
X116535221Y-75141006D01*
X116474573Y-74888390D01*
X116375154Y-74648372D01*
X116239412Y-74426860D01*
X116070689Y-74229311D01*
X115873140Y-74060588D01*
X115659709Y-73929798D01*
X115612835Y-73877987D01*
X115600500Y-73824071D01*
X115600500Y-72841519D01*
X115620185Y-72774480D01*
X115636819Y-72753838D01*
X118253838Y-70136819D01*
X118315161Y-70103334D01*
X118341519Y-70100500D01*
X130658481Y-70100500D01*
X130725520Y-70120185D01*
X130746162Y-70136819D01*
X136601605Y-75992262D01*
X142297163Y-81687819D01*
X142330648Y-81749142D01*
X142325664Y-81818834D01*
X142283792Y-81874767D01*
X142218328Y-81899184D01*
X142209482Y-81899500D01*
X138448626Y-81899500D01*
X138381587Y-81879815D01*
X138360945Y-81863181D01*
X132357991Y-75860227D01*
X132324506Y-75798904D01*
X132324266Y-75747321D01*
X132335448Y-75693511D01*
X132355525Y-75400000D01*
X132335448Y-75106489D01*
X132290127Y-74888390D01*
X132275595Y-74818456D01*
X132275590Y-74818440D01*
X132215148Y-74648372D01*
X132177072Y-74541236D01*
X132041722Y-74280024D01*
X132041721Y-74280022D01*
X132041717Y-74280016D01*
X131872067Y-74039676D01*
X131720821Y-73877732D01*
X131671260Y-73824665D01*
X131671258Y-73824664D01*
X131671256Y-73824661D01*
X131473887Y-73664090D01*
X131443049Y-73639001D01*
X131443047Y-73639000D01*
X131443045Y-73638998D01*
X131191680Y-73486139D01*
X131191675Y-73486137D01*
X130921845Y-73368934D01*
X130638560Y-73289561D01*
X130638556Y-73289560D01*
X130638555Y-73289560D01*
X130492826Y-73269530D01*
X130347099Y-73249500D01*
X130347098Y-73249500D01*
X130052902Y-73249500D01*
X130052901Y-73249500D01*
X129761445Y-73289560D01*
X129761439Y-73289561D01*
X129478154Y-73368934D01*
X129208324Y-73486137D01*
X129208319Y-73486139D01*
X128956954Y-73638998D01*
X128728743Y-73824661D01*
X128527936Y-74039671D01*
X128452171Y-74147008D01*
X128397429Y-74190426D01*
X128350866Y-74199500D01*
X126849134Y-74199500D01*
X126782095Y-74179815D01*
X126747829Y-74147008D01*
X126672063Y-74039671D01*
X126520821Y-73877732D01*
X126471260Y-73824665D01*
X126471258Y-73824664D01*
X126471256Y-73824661D01*
X126273887Y-73664090D01*
X126243049Y-73639001D01*
X126243047Y-73639000D01*
X126243045Y-73638998D01*
X125991680Y-73486139D01*
X125991675Y-73486137D01*
X125721845Y-73368934D01*
X125438560Y-73289561D01*
X125438556Y-73289560D01*
X125438555Y-73289560D01*
X125292826Y-73269530D01*
X125147099Y-73249500D01*
X125147098Y-73249500D01*
X124852902Y-73249500D01*
X124852901Y-73249500D01*
X124561445Y-73289560D01*
X124561439Y-73289561D01*
X124278154Y-73368934D01*
X124008324Y-73486137D01*
X124008319Y-73486139D01*
X123756954Y-73638998D01*
X123528743Y-73824661D01*
X123327932Y-74039676D01*
X123158282Y-74280016D01*
X123158278Y-74280022D01*
X123022927Y-74541237D01*
X122924409Y-74818440D01*
X122924404Y-74818456D01*
X122864552Y-75106486D01*
X122864551Y-75106488D01*
X122844475Y-75400000D01*
X122864551Y-75693511D01*
X122864552Y-75693513D01*
X122924404Y-75981543D01*
X122924409Y-75981559D01*
X123022927Y-76258762D01*
X123158278Y-76519977D01*
X123158282Y-76519983D01*
X123327932Y-76760323D01*
X123327935Y-76760326D01*
X123528028Y-76974573D01*
X123528743Y-76975338D01*
X123647978Y-77072343D01*
X123756951Y-77160999D01*
X123756953Y-77161000D01*
X123756954Y-77161001D01*
X124008319Y-77313860D01*
X124008324Y-77313862D01*
X124278154Y-77431065D01*
X124278159Y-77431067D01*
X124561445Y-77510440D01*
X124817681Y-77545659D01*
X124852901Y-77550500D01*
X124852902Y-77550500D01*
X125147099Y-77550500D01*
X125178520Y-77546180D01*
X125438555Y-77510440D01*
X125721841Y-77431067D01*
X125991682Y-77313859D01*
X126243049Y-77160999D01*
X126471260Y-76975335D01*
X126672065Y-76760326D01*
X126747829Y-76652991D01*
X126802571Y-76609574D01*
X126849134Y-76600500D01*
X128350866Y-76600500D01*
X128417905Y-76620185D01*
X128452170Y-76652991D01*
X128482034Y-76695299D01*
X128527936Y-76760328D01*
X128691411Y-76935366D01*
X128728028Y-76974573D01*
X128728743Y-76975338D01*
X128847978Y-77072343D01*
X128956951Y-77160999D01*
X128956953Y-77161000D01*
X128956954Y-77161001D01*
X129208319Y-77313860D01*
X129208324Y-77313862D01*
X129478154Y-77431065D01*
X129478159Y-77431067D01*
X129761445Y-77510440D01*
X130017681Y-77545659D01*
X130052901Y-77550500D01*
X130052902Y-77550500D01*
X130347099Y-77550500D01*
X130400907Y-77543104D01*
X130554788Y-77521953D01*
X130623882Y-77532325D01*
X130659353Y-77557117D01*
X136390055Y-83287819D01*
X136423540Y-83349142D01*
X136418556Y-83418834D01*
X136376684Y-83474767D01*
X136311220Y-83499184D01*
X136302374Y-83499500D01*
X133298625Y-83499500D01*
X133231586Y-83479815D01*
X133210944Y-83463181D01*
X132357991Y-82610228D01*
X132324506Y-82548905D01*
X132324266Y-82497319D01*
X132335448Y-82443511D01*
X132355525Y-82150000D01*
X132335448Y-81856489D01*
X132313141Y-81749142D01*
X132275595Y-81568456D01*
X132275590Y-81568440D01*
X132220411Y-81413181D01*
X132177072Y-81291236D01*
X132041722Y-81030024D01*
X132041721Y-81030022D01*
X132041717Y-81030016D01*
X131872067Y-80789676D01*
X131764820Y-80674843D01*
X131671260Y-80574665D01*
X131671258Y-80574664D01*
X131671256Y-80574661D01*
X131443045Y-80388998D01*
X131191680Y-80236139D01*
X131191675Y-80236137D01*
X130921845Y-80118934D01*
X130638560Y-80039561D01*
X130638556Y-80039560D01*
X130638555Y-80039560D01*
X130492826Y-80019530D01*
X130347099Y-79999500D01*
X130347098Y-79999500D01*
X130052902Y-79999500D01*
X130052901Y-79999500D01*
X129761445Y-80039560D01*
X129761439Y-80039561D01*
X129478154Y-80118934D01*
X129208324Y-80236137D01*
X129208319Y-80236139D01*
X128956954Y-80388998D01*
X128728743Y-80574661D01*
X128527936Y-80789671D01*
X128452171Y-80897008D01*
X128397429Y-80940426D01*
X128350866Y-80949500D01*
X126849134Y-80949500D01*
X126782095Y-80929815D01*
X126747829Y-80897008D01*
X126672063Y-80789671D01*
X126486460Y-80590940D01*
X126471260Y-80574665D01*
X126471258Y-80574664D01*
X126471256Y-80574661D01*
X126243045Y-80388998D01*
X125991680Y-80236139D01*
X125991675Y-80236137D01*
X125721845Y-80118934D01*
X125438560Y-80039561D01*
X125438556Y-80039560D01*
X125438555Y-80039560D01*
X125292826Y-80019530D01*
X125147099Y-79999500D01*
X125147098Y-79999500D01*
X124852902Y-79999500D01*
X124852901Y-79999500D01*
X124561445Y-80039560D01*
X124561439Y-80039561D01*
X124278154Y-80118934D01*
X124008324Y-80236137D01*
X124008319Y-80236139D01*
X123756954Y-80388998D01*
X123528743Y-80574661D01*
X123327932Y-80789676D01*
X123158282Y-81030016D01*
X123158278Y-81030022D01*
X123022927Y-81291237D01*
X122924409Y-81568440D01*
X122924404Y-81568456D01*
X122864552Y-81856486D01*
X122864551Y-81856488D01*
X122844475Y-82150000D01*
X122864551Y-82443511D01*
X122864552Y-82443513D01*
X122924404Y-82731543D01*
X122924409Y-82731559D01*
X123022927Y-83008762D01*
X123158278Y-83269977D01*
X123158282Y-83269983D01*
X123327932Y-83510323D01*
X123327935Y-83510326D01*
X123528028Y-83724573D01*
X123528743Y-83725338D01*
X123656384Y-83829181D01*
X123756951Y-83910999D01*
X123756953Y-83911000D01*
X123756954Y-83911001D01*
X124008319Y-84063860D01*
X124008324Y-84063862D01*
X124278154Y-84181065D01*
X124278159Y-84181067D01*
X124561445Y-84260440D01*
X124817681Y-84295659D01*
X124852901Y-84300500D01*
X124852902Y-84300500D01*
X125147099Y-84300500D01*
X125178520Y-84296180D01*
X125438555Y-84260440D01*
X125721841Y-84181067D01*
X125991682Y-84063859D01*
X126243049Y-83910999D01*
X126471260Y-83725335D01*
X126672065Y-83510326D01*
X126747829Y-83402991D01*
X126802571Y-83359574D01*
X126849134Y-83350500D01*
X128350866Y-83350500D01*
X128417905Y-83370185D01*
X128452171Y-83402992D01*
X128527936Y-83510328D01*
X128635177Y-83625154D01*
X128728028Y-83724573D01*
X128728743Y-83725338D01*
X128856384Y-83829181D01*
X128956951Y-83910999D01*
X128956953Y-83911000D01*
X128956954Y-83911001D01*
X129208319Y-84063860D01*
X129208324Y-84063862D01*
X129478154Y-84181065D01*
X129478159Y-84181067D01*
X129761445Y-84260440D01*
X130017681Y-84295659D01*
X130052901Y-84300500D01*
X130052902Y-84300500D01*
X130347099Y-84300500D01*
X130389540Y-84294666D01*
X130554788Y-84271953D01*
X130623882Y-84282325D01*
X130659353Y-84307117D01*
X131967927Y-85615690D01*
X132120801Y-85726760D01*
X132138039Y-85735543D01*
X132289163Y-85812545D01*
X132289165Y-85812545D01*
X132289168Y-85812547D01*
X132385497Y-85843846D01*
X132468881Y-85870940D01*
X132655514Y-85900500D01*
X182675675Y-85900500D01*
X182742714Y-85920185D01*
X182788469Y-85972989D01*
X182798413Y-86042147D01*
X182793381Y-86063503D01*
X182785495Y-86087299D01*
X182785493Y-86087310D01*
X182775000Y-86190014D01*
X182775000Y-87090000D01*
X183808520Y-87090000D01*
X183807665Y-87092064D01*
X183775000Y-87256282D01*
X183775000Y-87423718D01*
X183807665Y-87587936D01*
X183808520Y-87590000D01*
X182775000Y-87590000D01*
X182775000Y-88489985D01*
X182785493Y-88592689D01*
X182785494Y-88592696D01*
X182840641Y-88759118D01*
X182840643Y-88759123D01*
X182932684Y-88908344D01*
X183056655Y-89032315D01*
X183205876Y-89124356D01*
X183205881Y-89124358D01*
X183372303Y-89179505D01*
X183372310Y-89179506D01*
X183475014Y-89189999D01*
X183475027Y-89190000D01*
X184375000Y-89190000D01*
X184375000Y-88156480D01*
X184377064Y-88157335D01*
X184541282Y-88190000D01*
X184708718Y-88190000D01*
X184872936Y-88157335D01*
X184875000Y-88156480D01*
X184875000Y-89190000D01*
X185774973Y-89190000D01*
X185774985Y-89189999D01*
X185877689Y-89179506D01*
X185877696Y-89179505D01*
X186044118Y-89124358D01*
X186044123Y-89124356D01*
X186193344Y-89032315D01*
X186317315Y-88908344D01*
X186409356Y-88759123D01*
X186409358Y-88759118D01*
X186464505Y-88592696D01*
X186464506Y-88592689D01*
X186474999Y-88489985D01*
X186475000Y-88489972D01*
X186475000Y-87590000D01*
X185441480Y-87590000D01*
X185442335Y-87587936D01*
X185475000Y-87423718D01*
X185475000Y-87256282D01*
X185442335Y-87092064D01*
X185441480Y-87090000D01*
X186475000Y-87090000D01*
X186475000Y-86190027D01*
X186474999Y-86190014D01*
X186464506Y-86087310D01*
X186464505Y-86087303D01*
X186409358Y-85920881D01*
X186409356Y-85920876D01*
X186317315Y-85771655D01*
X186193344Y-85647684D01*
X186044123Y-85555643D01*
X186044118Y-85555641D01*
X185987926Y-85537021D01*
X185930481Y-85497248D01*
X185903658Y-85432732D01*
X185915973Y-85363956D01*
X185958037Y-85316215D01*
X186058964Y-85248778D01*
X186290620Y-85045620D01*
X186493778Y-84813964D01*
X186664960Y-84557772D01*
X186801238Y-84281427D01*
X186808363Y-84260439D01*
X186900276Y-83989671D01*
X186900276Y-83989670D01*
X186900280Y-83989659D01*
X186960391Y-83687460D01*
X186980543Y-83380000D01*
X186960391Y-83072540D01*
X186900280Y-82770341D01*
X186801238Y-82478573D01*
X186801230Y-82478556D01*
X186664965Y-82202238D01*
X186664956Y-82202223D01*
X186630062Y-82150000D01*
X186493778Y-81946036D01*
X186435703Y-81879815D01*
X186290620Y-81714379D01*
X186058969Y-81511226D01*
X186058967Y-81511224D01*
X186058964Y-81511222D01*
X186046811Y-81503101D01*
X186002007Y-81449492D01*
X185993298Y-81380168D01*
X186023452Y-81317139D01*
X186046807Y-81296900D01*
X186058964Y-81288778D01*
X186290620Y-81085620D01*
X186493778Y-80853964D01*
X186664960Y-80597772D01*
X186801238Y-80321427D01*
X186830190Y-80236139D01*
X186900276Y-80029671D01*
X186900276Y-80029670D01*
X186900280Y-80029659D01*
X186960391Y-79727460D01*
X186980543Y-79420000D01*
X186960391Y-79112540D01*
X186900280Y-78810341D01*
X186801238Y-78518573D01*
X186801230Y-78518556D01*
X186664965Y-78242238D01*
X186664956Y-78242223D01*
X186519669Y-78024785D01*
X186493778Y-77986036D01*
X186345052Y-77816447D01*
X186290620Y-77754379D01*
X186058969Y-77551226D01*
X186058967Y-77551224D01*
X186058964Y-77551222D01*
X186046811Y-77543101D01*
X186002007Y-77489492D01*
X185993298Y-77420168D01*
X186023452Y-77357139D01*
X186046807Y-77336900D01*
X186058964Y-77328778D01*
X186290620Y-77125620D01*
X186493778Y-76893964D01*
X186506347Y-76875154D01*
X186578579Y-76767050D01*
X186664960Y-76637772D01*
X186801238Y-76361427D01*
X186836088Y-76258764D01*
X186900276Y-76069671D01*
X186900276Y-76069670D01*
X186900280Y-76069659D01*
X186960391Y-75767460D01*
X186980543Y-75460000D01*
X186960391Y-75152540D01*
X186900280Y-74850341D01*
X186801238Y-74558573D01*
X186792689Y-74541237D01*
X186664965Y-74282238D01*
X186664956Y-74282223D01*
X186596529Y-74179815D01*
X186493778Y-74026036D01*
X186419608Y-73941462D01*
X186290620Y-73794379D01*
X186167200Y-73686142D01*
X186058964Y-73591222D01*
X186058958Y-73591218D01*
X186058951Y-73591212D01*
X185802774Y-73420041D01*
X185802767Y-73420037D01*
X185526429Y-73283762D01*
X185526419Y-73283758D01*
X185234671Y-73184723D01*
X185234651Y-73184718D01*
X184932470Y-73124611D01*
X184932460Y-73124609D01*
X184625000Y-73104457D01*
X184317540Y-73124609D01*
X184317534Y-73124610D01*
X184317529Y-73124611D01*
X184015348Y-73184718D01*
X184015333Y-73184722D01*
X183723577Y-73283760D01*
X183723556Y-73283769D01*
X183447238Y-73420034D01*
X183447223Y-73420043D01*
X183191034Y-73591223D01*
X182959379Y-73794379D01*
X182756223Y-74026034D01*
X182585043Y-74282223D01*
X182585034Y-74282238D01*
X182448769Y-74558556D01*
X182448760Y-74558577D01*
X182349722Y-74850333D01*
X182349718Y-74850348D01*
X182289611Y-75152529D01*
X182289609Y-75152541D01*
X182269457Y-75460000D01*
X182270070Y-75469347D01*
X182254811Y-75537530D01*
X182205113Y-75586640D01*
X182136752Y-75601085D01*
X182125938Y-75599767D01*
X182124337Y-75599500D01*
X182124335Y-75599500D01*
X181875665Y-75599500D01*
X181630383Y-75640429D01*
X181395197Y-75721169D01*
X181395188Y-75721172D01*
X181176493Y-75839524D01*
X180980257Y-75992261D01*
X180811833Y-76175217D01*
X180675826Y-76383393D01*
X180575936Y-76611118D01*
X180514892Y-76852175D01*
X180514890Y-76852187D01*
X180494357Y-77099994D01*
X180494357Y-77100005D01*
X180514890Y-77347812D01*
X180514892Y-77347824D01*
X180575937Y-77588881D01*
X180615447Y-77678956D01*
X180624350Y-77748256D01*
X180594373Y-77811368D01*
X180535033Y-77848255D01*
X180465171Y-77847204D01*
X180414210Y-77816447D01*
X178293357Y-75695593D01*
X178259872Y-75634270D01*
X178264856Y-75564578D01*
X178306728Y-75508645D01*
X178372192Y-75484228D01*
X178397766Y-75485828D01*
X178397806Y-75485427D01*
X178403868Y-75486024D01*
X178600000Y-75505341D01*
X178796132Y-75486024D01*
X178984727Y-75428814D01*
X179158538Y-75335910D01*
X179310883Y-75210883D01*
X179435910Y-75058538D01*
X179528814Y-74884727D01*
X179586024Y-74696132D01*
X179602596Y-74527863D01*
X179628756Y-74463077D01*
X179638309Y-74452346D01*
X186344114Y-67746543D01*
X186420775Y-67631811D01*
X186473580Y-67504328D01*
X186500500Y-67368994D01*
X186500500Y-67231006D01*
X186500500Y-65424000D01*
X186520185Y-65356961D01*
X186572989Y-65311206D01*
X186624500Y-65300000D01*
X190000000Y-65300000D01*
X190000000Y-60124000D01*
X190019685Y-60056961D01*
X190072489Y-60011206D01*
X190124000Y-60000000D01*
X198876000Y-60000000D01*
X198943039Y-60019685D01*
X198988794Y-60072489D01*
X199000000Y-60124000D01*
X199000000Y-139876000D01*
X198980315Y-139943039D01*
X198927511Y-139988794D01*
X198876000Y-140000000D01*
X190000000Y-140000000D01*
X190000000Y-148876000D01*
X189980315Y-148943039D01*
X189927511Y-148988794D01*
X189876000Y-149000000D01*
X147823537Y-149000000D01*
X147756498Y-148980315D01*
X147710743Y-148927511D01*
X147700799Y-148858353D01*
X147729824Y-148794797D01*
X147748046Y-148777627D01*
X147748049Y-148777625D01*
X147777931Y-148754694D01*
X147778884Y-148753972D01*
X147883395Y-148675739D01*
X148085739Y-148473395D01*
X148163967Y-148368892D01*
X148164816Y-148367773D01*
X148236924Y-148273803D01*
X148239205Y-148269850D01*
X148247319Y-148257546D01*
X148257226Y-148244315D01*
X148313711Y-148140868D01*
X148315076Y-148138435D01*
X148368043Y-148046697D01*
X148374642Y-148030763D01*
X148380365Y-148018803D01*
X148394367Y-147993161D01*
X148431124Y-147894609D01*
X148432738Y-147890508D01*
X148468395Y-147804426D01*
X148468394Y-147804426D01*
X148468398Y-147804419D01*
X148476143Y-147775510D01*
X148479725Y-147764303D01*
X148494369Y-147725046D01*
X148514044Y-147634595D01*
X148515425Y-147628909D01*
X148515429Y-147628895D01*
X148536270Y-147551116D01*
X148541831Y-147508869D01*
X148543591Y-147498770D01*
X148555196Y-147445428D01*
X148560893Y-147365758D01*
X148561637Y-147358432D01*
X148561638Y-147358429D01*
X148570500Y-147291120D01*
X148570500Y-147235874D01*
X148570816Y-147227028D01*
X148575610Y-147160001D01*
X148575610Y-147159998D01*
X148570816Y-147092970D01*
X148570500Y-147084124D01*
X148570500Y-147028880D01*
X148570499Y-147028876D01*
X148561634Y-146961547D01*
X148560893Y-146954234D01*
X148555196Y-146874572D01*
X148543593Y-146821237D01*
X148541830Y-146811124D01*
X148536270Y-146768884D01*
X148515420Y-146691072D01*
X148514035Y-146685358D01*
X148494371Y-146594960D01*
X148494369Y-146594954D01*
X148479727Y-146555701D01*
X148476136Y-146544463D01*
X148468401Y-146515590D01*
X148468393Y-146515567D01*
X148432741Y-146429499D01*
X148431132Y-146425412D01*
X148394367Y-146326839D01*
X148380362Y-146301190D01*
X148374640Y-146289228D01*
X148368048Y-146273314D01*
X148368041Y-146273299D01*
X148315129Y-146181653D01*
X148313684Y-146179080D01*
X148257229Y-146075691D01*
X148257226Y-146075685D01*
X148247326Y-146062460D01*
X148239210Y-146050156D01*
X148237730Y-146047594D01*
X148236924Y-146046197D01*
X148236922Y-146046195D01*
X148236922Y-146046194D01*
X148164805Y-145952211D01*
X148163913Y-145951034D01*
X148085742Y-145846609D01*
X148085741Y-145846608D01*
X148085739Y-145846605D01*
X148085734Y-145846600D01*
X148085726Y-145846591D01*
X147883405Y-145644270D01*
X147883396Y-145644262D01*
X147883383Y-145644252D01*
X147778821Y-145565978D01*
X147777906Y-145565284D01*
X147683803Y-145493076D01*
X147679843Y-145490789D01*
X147667536Y-145482671D01*
X147654315Y-145472773D01*
X147550918Y-145416314D01*
X147548345Y-145414869D01*
X147456704Y-145361960D01*
X147456688Y-145361952D01*
X147440769Y-145355358D01*
X147428803Y-145349633D01*
X147403170Y-145335637D01*
X147403163Y-145335634D01*
X147403161Y-145335633D01*
X147304596Y-145298870D01*
X147300491Y-145297254D01*
X147214417Y-145261601D01*
X147185525Y-145253859D01*
X147174292Y-145250268D01*
X147135042Y-145235629D01*
X147044629Y-145215961D01*
X147038895Y-145214570D01*
X146961121Y-145193731D01*
X146961118Y-145193730D01*
X146961116Y-145193730D01*
X146939450Y-145190877D01*
X146918897Y-145188171D01*
X146908728Y-145186398D01*
X146855438Y-145174805D01*
X146855425Y-145174803D01*
X146775764Y-145169105D01*
X146768429Y-145168360D01*
X146701123Y-145159500D01*
X146701120Y-145159500D01*
X146645876Y-145159500D01*
X146637030Y-145159184D01*
X146570001Y-145154390D01*
X146569999Y-145154390D01*
X146502970Y-145159184D01*
X146494124Y-145159500D01*
X146438877Y-145159500D01*
X146371569Y-145168360D01*
X146364234Y-145169105D01*
X146284574Y-145174803D01*
X146284557Y-145174806D01*
X146231269Y-145186398D01*
X146221101Y-145188171D01*
X146178876Y-145193731D01*
X146101102Y-145214570D01*
X146095369Y-145215961D01*
X146004953Y-145235630D01*
X146004946Y-145235632D01*
X145965712Y-145250266D01*
X145954479Y-145253857D01*
X145925582Y-145261601D01*
X145925576Y-145261603D01*
X145839516Y-145297250D01*
X145835399Y-145298870D01*
X145736841Y-145335631D01*
X145736837Y-145335633D01*
X145711190Y-145349636D01*
X145699233Y-145355357D01*
X145683302Y-145361957D01*
X145591656Y-145414868D01*
X145589085Y-145416312D01*
X145485681Y-145472776D01*
X145472454Y-145482677D01*
X145460156Y-145490789D01*
X145456210Y-145493067D01*
X145456195Y-145493077D01*
X145362196Y-145565204D01*
X145361022Y-145566093D01*
X145256615Y-145644252D01*
X145256594Y-145644270D01*
X145054270Y-145846594D01*
X145054252Y-145846615D01*
X144976093Y-145951022D01*
X144975204Y-145952196D01*
X144903077Y-146046195D01*
X144903067Y-146046210D01*
X144900789Y-146050156D01*
X144892677Y-146062454D01*
X144882776Y-146075681D01*
X144826312Y-146179085D01*
X144824868Y-146181656D01*
X144771957Y-146273302D01*
X144765357Y-146289233D01*
X144759636Y-146301190D01*
X144745633Y-146326837D01*
X144745631Y-146326841D01*
X144708870Y-146425399D01*
X144707250Y-146429516D01*
X144671603Y-146515576D01*
X144671601Y-146515582D01*
X144663857Y-146544479D01*
X144660266Y-146555712D01*
X144645632Y-146594946D01*
X144645630Y-146594953D01*
X144625961Y-146685369D01*
X144624570Y-146691102D01*
X144603731Y-146768876D01*
X144598171Y-146811101D01*
X144596398Y-146821269D01*
X144584806Y-146874557D01*
X144584803Y-146874574D01*
X144579105Y-146954234D01*
X144578360Y-146961569D01*
X144569500Y-147028876D01*
X144569500Y-147084124D01*
X144569184Y-147092970D01*
X144564390Y-147159998D01*
X144564390Y-147160001D01*
X144569184Y-147227028D01*
X144569500Y-147235874D01*
X144569500Y-147291123D01*
X144578360Y-147358429D01*
X144579105Y-147365764D01*
X144584803Y-147445425D01*
X144584805Y-147445438D01*
X144596398Y-147498728D01*
X144598171Y-147508897D01*
X144603731Y-147551121D01*
X144624570Y-147628895D01*
X144625961Y-147634629D01*
X144645629Y-147725042D01*
X144660268Y-147764292D01*
X144663859Y-147775525D01*
X144671601Y-147804417D01*
X144707254Y-147890491D01*
X144708875Y-147894609D01*
X144745633Y-147993160D01*
X144745637Y-147993170D01*
X144759633Y-148018803D01*
X144765358Y-148030769D01*
X144771952Y-148046688D01*
X144771960Y-148046704D01*
X144824869Y-148138345D01*
X144826314Y-148140918D01*
X144882773Y-148244315D01*
X144892671Y-148257536D01*
X144900789Y-148269843D01*
X144903076Y-148273803D01*
X144975284Y-148367906D01*
X144975978Y-148368821D01*
X145054254Y-148473385D01*
X145054262Y-148473396D01*
X145054270Y-148473405D01*
X145256591Y-148675726D01*
X145256599Y-148675733D01*
X145256605Y-148675739D01*
X145256608Y-148675741D01*
X145256609Y-148675742D01*
X145361034Y-148753913D01*
X145362211Y-148754805D01*
X145391950Y-148777625D01*
X145433153Y-148834053D01*
X145437307Y-148903799D01*
X145403094Y-148964719D01*
X145341376Y-148997472D01*
X145316463Y-149000000D01*
X123883537Y-149000000D01*
X123816498Y-148980315D01*
X123770743Y-148927511D01*
X123760799Y-148858353D01*
X123789824Y-148794797D01*
X123808046Y-148777627D01*
X123808049Y-148777625D01*
X123837931Y-148754694D01*
X123838884Y-148753972D01*
X123943395Y-148675739D01*
X124145739Y-148473395D01*
X124223967Y-148368892D01*
X124224816Y-148367773D01*
X124296924Y-148273803D01*
X124299205Y-148269850D01*
X124307319Y-148257546D01*
X124317226Y-148244315D01*
X124373711Y-148140868D01*
X124375076Y-148138435D01*
X124428043Y-148046697D01*
X124434642Y-148030763D01*
X124440365Y-148018803D01*
X124454367Y-147993161D01*
X124491124Y-147894609D01*
X124492738Y-147890508D01*
X124528395Y-147804426D01*
X124528394Y-147804426D01*
X124528398Y-147804419D01*
X124536143Y-147775510D01*
X124539725Y-147764303D01*
X124554369Y-147725046D01*
X124574044Y-147634595D01*
X124575425Y-147628909D01*
X124575429Y-147628895D01*
X124596270Y-147551116D01*
X124601831Y-147508869D01*
X124603591Y-147498770D01*
X124615196Y-147445428D01*
X124620893Y-147365758D01*
X124621637Y-147358432D01*
X124621638Y-147358429D01*
X124630500Y-147291120D01*
X124630500Y-147235874D01*
X124630816Y-147227028D01*
X124635610Y-147160001D01*
X124635610Y-147159998D01*
X124630816Y-147092970D01*
X124630500Y-147084124D01*
X124630500Y-147028880D01*
X124630499Y-147028876D01*
X124621634Y-146961547D01*
X124620893Y-146954234D01*
X124615196Y-146874572D01*
X124603593Y-146821237D01*
X124601830Y-146811124D01*
X124596270Y-146768884D01*
X124575420Y-146691072D01*
X124574035Y-146685358D01*
X124554371Y-146594960D01*
X124554369Y-146594954D01*
X124539727Y-146555701D01*
X124536136Y-146544463D01*
X124528401Y-146515590D01*
X124528393Y-146515567D01*
X124492741Y-146429499D01*
X124491132Y-146425412D01*
X124454367Y-146326839D01*
X124440362Y-146301190D01*
X124434640Y-146289228D01*
X124428048Y-146273314D01*
X124428041Y-146273299D01*
X124375129Y-146181653D01*
X124373684Y-146179080D01*
X124317229Y-146075691D01*
X124317226Y-146075685D01*
X124307326Y-146062460D01*
X124299210Y-146050156D01*
X124297730Y-146047594D01*
X124296924Y-146046197D01*
X124296922Y-146046195D01*
X124296922Y-146046194D01*
X124224805Y-145952211D01*
X124223913Y-145951034D01*
X124145742Y-145846609D01*
X124145741Y-145846608D01*
X124145739Y-145846605D01*
X124145734Y-145846600D01*
X124145726Y-145846591D01*
X123943405Y-145644270D01*
X123943396Y-145644262D01*
X123943383Y-145644252D01*
X123838821Y-145565978D01*
X123837906Y-145565284D01*
X123743803Y-145493076D01*
X123739843Y-145490789D01*
X123727536Y-145482671D01*
X123714315Y-145472773D01*
X123610918Y-145416314D01*
X123608345Y-145414869D01*
X123516704Y-145361960D01*
X123516688Y-145361952D01*
X123500769Y-145355358D01*
X123488803Y-145349633D01*
X123463170Y-145335637D01*
X123463163Y-145335634D01*
X123463161Y-145335633D01*
X123364596Y-145298870D01*
X123360491Y-145297254D01*
X123274417Y-145261601D01*
X123245525Y-145253859D01*
X123234292Y-145250268D01*
X123195042Y-145235629D01*
X123104629Y-145215961D01*
X123098895Y-145214570D01*
X123021121Y-145193731D01*
X123021118Y-145193730D01*
X123021116Y-145193730D01*
X122999450Y-145190877D01*
X122978897Y-145188171D01*
X122968728Y-145186398D01*
X122915438Y-145174805D01*
X122915425Y-145174803D01*
X122835764Y-145169105D01*
X122828429Y-145168360D01*
X122761123Y-145159500D01*
X122761120Y-145159500D01*
X122705876Y-145159500D01*
X122697030Y-145159184D01*
X122630001Y-145154390D01*
X122629999Y-145154390D01*
X122562970Y-145159184D01*
X122554124Y-145159500D01*
X122498877Y-145159500D01*
X122431569Y-145168360D01*
X122424234Y-145169105D01*
X122344574Y-145174803D01*
X122344557Y-145174806D01*
X122291269Y-145186398D01*
X122281101Y-145188171D01*
X122238876Y-145193731D01*
X122161102Y-145214570D01*
X122155369Y-145215961D01*
X122064953Y-145235630D01*
X122064946Y-145235632D01*
X122025712Y-145250266D01*
X122014479Y-145253857D01*
X121985582Y-145261601D01*
X121985576Y-145261603D01*
X121899516Y-145297250D01*
X121895399Y-145298870D01*
X121796841Y-145335631D01*
X121796837Y-145335633D01*
X121771190Y-145349636D01*
X121759233Y-145355357D01*
X121743302Y-145361957D01*
X121651656Y-145414868D01*
X121649085Y-145416312D01*
X121545681Y-145472776D01*
X121532454Y-145482677D01*
X121520156Y-145490789D01*
X121516210Y-145493067D01*
X121516195Y-145493077D01*
X121422196Y-145565204D01*
X121421022Y-145566093D01*
X121316615Y-145644252D01*
X121316594Y-145644270D01*
X121114270Y-145846594D01*
X121114252Y-145846615D01*
X121036093Y-145951022D01*
X121035204Y-145952196D01*
X120963077Y-146046195D01*
X120963067Y-146046210D01*
X120960789Y-146050156D01*
X120952677Y-146062454D01*
X120942776Y-146075681D01*
X120886312Y-146179085D01*
X120884868Y-146181656D01*
X120831957Y-146273302D01*
X120825357Y-146289233D01*
X120819636Y-146301190D01*
X120805633Y-146326837D01*
X120805631Y-146326841D01*
X120768870Y-146425399D01*
X120767250Y-146429516D01*
X120731603Y-146515576D01*
X120731601Y-146515582D01*
X120723857Y-146544479D01*
X120720266Y-146555712D01*
X120705632Y-146594946D01*
X120705630Y-146594953D01*
X120685961Y-146685369D01*
X120684570Y-146691102D01*
X120663731Y-146768876D01*
X120658171Y-146811101D01*
X120656398Y-146821269D01*
X120644806Y-146874557D01*
X120644803Y-146874574D01*
X120639105Y-146954234D01*
X120638360Y-146961569D01*
X120629500Y-147028876D01*
X120629500Y-147084124D01*
X120629184Y-147092970D01*
X120624390Y-147159998D01*
X120624390Y-147160001D01*
X120629184Y-147227028D01*
X120629500Y-147235874D01*
X120629500Y-147291123D01*
X120638360Y-147358429D01*
X120639105Y-147365764D01*
X120644803Y-147445425D01*
X120644805Y-147445438D01*
X120656398Y-147498728D01*
X120658171Y-147508897D01*
X120663731Y-147551121D01*
X120684570Y-147628895D01*
X120685961Y-147634629D01*
X120705629Y-147725042D01*
X120720268Y-147764292D01*
X120723859Y-147775525D01*
X120731601Y-147804417D01*
X120767254Y-147890491D01*
X120768875Y-147894609D01*
X120805633Y-147993160D01*
X120805637Y-147993170D01*
X120819633Y-148018803D01*
X120825358Y-148030769D01*
X120831952Y-148046688D01*
X120831960Y-148046704D01*
X120884869Y-148138345D01*
X120886314Y-148140918D01*
X120942773Y-148244315D01*
X120952671Y-148257536D01*
X120960789Y-148269843D01*
X120963076Y-148273803D01*
X121035284Y-148367906D01*
X121035978Y-148368821D01*
X121114254Y-148473385D01*
X121114262Y-148473396D01*
X121114270Y-148473405D01*
X121316591Y-148675726D01*
X121316599Y-148675733D01*
X121316605Y-148675739D01*
X121316608Y-148675741D01*
X121316609Y-148675742D01*
X121421034Y-148753913D01*
X121422211Y-148754805D01*
X121451950Y-148777625D01*
X121493153Y-148834053D01*
X121497307Y-148903799D01*
X121463094Y-148964719D01*
X121401376Y-148997472D01*
X121376463Y-149000000D01*
X110124000Y-149000000D01*
X110056961Y-148980315D01*
X110011206Y-148927511D01*
X110000000Y-148876000D01*
X110000000Y-140000000D01*
X101124000Y-140000000D01*
X101056961Y-139980315D01*
X101011206Y-139927511D01*
X101000000Y-139876000D01*
X101000000Y-137779054D01*
X113999498Y-137779054D01*
X114040423Y-137931785D01*
X114065113Y-137974549D01*
X114069358Y-137981900D01*
X114069359Y-137981904D01*
X114069360Y-137981904D01*
X114119479Y-138068714D01*
X114119481Y-138068717D01*
X114238349Y-138187585D01*
X114238355Y-138187590D01*
X116908058Y-140857293D01*
X116941543Y-140918616D01*
X116940152Y-140977067D01*
X116914366Y-141073302D01*
X116914364Y-141073313D01*
X116894532Y-141299998D01*
X116894532Y-141300001D01*
X116914364Y-141526686D01*
X116914366Y-141526697D01*
X116973258Y-141746488D01*
X116973261Y-141746497D01*
X117069431Y-141952732D01*
X117069432Y-141952734D01*
X117199954Y-142139141D01*
X117360858Y-142300045D01*
X117360861Y-142300047D01*
X117547266Y-142430568D01*
X117753504Y-142526739D01*
X117973308Y-142585635D01*
X118135230Y-142599801D01*
X118199998Y-142605468D01*
X118200000Y-142605468D01*
X118200002Y-142605468D01*
X118256673Y-142600509D01*
X118426692Y-142585635D01*
X118646496Y-142526739D01*
X118852734Y-142430568D01*
X119039139Y-142300047D01*
X119200047Y-142139139D01*
X119330118Y-141953375D01*
X119384693Y-141909752D01*
X119431692Y-141900500D01*
X119673331Y-141900500D01*
X119673347Y-141900501D01*
X119680943Y-141900501D01*
X119839054Y-141900501D01*
X119839057Y-141900501D01*
X119991785Y-141859577D01*
X120041904Y-141830639D01*
X120128716Y-141780520D01*
X120240520Y-141668716D01*
X120240520Y-141668714D01*
X120250728Y-141658507D01*
X120250730Y-141658504D01*
X121416470Y-140492763D01*
X121477791Y-140459280D01*
X121536238Y-140460670D01*
X121664592Y-140495063D01*
X121852918Y-140511539D01*
X121899999Y-140515659D01*
X121900000Y-140515659D01*
X121900001Y-140515659D01*
X121939234Y-140512226D01*
X122135408Y-140495063D01*
X122363663Y-140433903D01*
X122577830Y-140334035D01*
X122771401Y-140198495D01*
X122938495Y-140031401D01*
X123074035Y-139837830D01*
X123173903Y-139623663D01*
X123235063Y-139395408D01*
X123255659Y-139160000D01*
X123235063Y-138924592D01*
X123173903Y-138696337D01*
X123074035Y-138482171D01*
X123056616Y-138457293D01*
X122938494Y-138288597D01*
X122771402Y-138121506D01*
X122771401Y-138121505D01*
X122585405Y-137991269D01*
X122541781Y-137936692D01*
X122534588Y-137867193D01*
X122566110Y-137804839D01*
X122585405Y-137788119D01*
X122661373Y-137734925D01*
X122029409Y-137102962D01*
X122092993Y-137085925D01*
X122207007Y-137020099D01*
X122300099Y-136927007D01*
X122365925Y-136812993D01*
X122382962Y-136749410D01*
X123014925Y-137381373D01*
X123014926Y-137381373D01*
X123073598Y-137297582D01*
X123073600Y-137297578D01*
X123173429Y-137083492D01*
X123173433Y-137083483D01*
X123234567Y-136855326D01*
X123234569Y-136855315D01*
X123255157Y-136620001D01*
X123255157Y-136619998D01*
X123234569Y-136384684D01*
X123234567Y-136384673D01*
X123173433Y-136156516D01*
X123173429Y-136156507D01*
X123073600Y-135942423D01*
X123073599Y-135942421D01*
X123014925Y-135858626D01*
X123014925Y-135858625D01*
X122382962Y-136490589D01*
X122365925Y-136427007D01*
X122300099Y-136312993D01*
X122207007Y-136219901D01*
X122092993Y-136154075D01*
X122029410Y-136137037D01*
X122661373Y-135505073D01*
X122661373Y-135505072D01*
X122585405Y-135451880D01*
X122541780Y-135397304D01*
X122534586Y-135327805D01*
X122566108Y-135265451D01*
X122585399Y-135248734D01*
X122771401Y-135118495D01*
X122938495Y-134951401D01*
X123074035Y-134757830D01*
X123173903Y-134543663D01*
X123235063Y-134315408D01*
X123255659Y-134080000D01*
X123235063Y-133844592D01*
X123200671Y-133716239D01*
X123202334Y-133646393D01*
X123232763Y-133596470D01*
X136192416Y-120636819D01*
X136253739Y-120603334D01*
X136280097Y-120600500D01*
X145978734Y-120600500D01*
X146045773Y-120620185D01*
X146091528Y-120672989D01*
X146101472Y-120742147D01*
X146091116Y-120776903D01*
X146087169Y-120785369D01*
X146026097Y-120916335D01*
X146026094Y-120916344D01*
X145964938Y-121144586D01*
X145964936Y-121144596D01*
X145944341Y-121379999D01*
X145944341Y-121380000D01*
X145964936Y-121615403D01*
X145964938Y-121615413D01*
X146026094Y-121843655D01*
X146026096Y-121843659D01*
X146026097Y-121843663D01*
X146066271Y-121929816D01*
X146125965Y-122057830D01*
X146125967Y-122057834D01*
X146261501Y-122251395D01*
X146261506Y-122251402D01*
X146428597Y-122418493D01*
X146428603Y-122418498D01*
X146614158Y-122548425D01*
X146657783Y-122603002D01*
X146664977Y-122672500D01*
X146633454Y-122734855D01*
X146614158Y-122751575D01*
X146428597Y-122881505D01*
X146261505Y-123048597D01*
X146125965Y-123242169D01*
X146125964Y-123242171D01*
X146026098Y-123456335D01*
X146026094Y-123456344D01*
X145964938Y-123684586D01*
X145964936Y-123684596D01*
X145944341Y-123919999D01*
X145944341Y-123920000D01*
X145964936Y-124155403D01*
X145964938Y-124155413D01*
X146026094Y-124383655D01*
X146026096Y-124383659D01*
X146026097Y-124383663D01*
X146095167Y-124531784D01*
X146125965Y-124597830D01*
X146125967Y-124597834D01*
X146261501Y-124791395D01*
X146261506Y-124791402D01*
X146428597Y-124958493D01*
X146428603Y-124958498D01*
X146614158Y-125088425D01*
X146657783Y-125143002D01*
X146664977Y-125212500D01*
X146633454Y-125274855D01*
X146614158Y-125291575D01*
X146428597Y-125421505D01*
X146261505Y-125588597D01*
X146125965Y-125782169D01*
X146125964Y-125782171D01*
X146026098Y-125996335D01*
X146026094Y-125996344D01*
X145964938Y-126224586D01*
X145964936Y-126224596D01*
X145944341Y-126459999D01*
X145944341Y-126460000D01*
X145964936Y-126695403D01*
X145964938Y-126695413D01*
X146026094Y-126923655D01*
X146026096Y-126923659D01*
X146026097Y-126923663D01*
X146125965Y-127137830D01*
X146125967Y-127137834D01*
X146261501Y-127331395D01*
X146261506Y-127331402D01*
X146428597Y-127498493D01*
X146428603Y-127498498D01*
X146614158Y-127628425D01*
X146657783Y-127683002D01*
X146664977Y-127752500D01*
X146633454Y-127814855D01*
X146614158Y-127831575D01*
X146428597Y-127961505D01*
X146261505Y-128128597D01*
X146125965Y-128322169D01*
X146125964Y-128322171D01*
X146026098Y-128536335D01*
X146026094Y-128536344D01*
X145964938Y-128764586D01*
X145964936Y-128764596D01*
X145944341Y-128999999D01*
X145944341Y-129000000D01*
X145964936Y-129235403D01*
X145964938Y-129235413D01*
X146026094Y-129463655D01*
X146026096Y-129463659D01*
X146026097Y-129463663D01*
X146122913Y-129671284D01*
X146125965Y-129677830D01*
X146125967Y-129677834D01*
X146261501Y-129871395D01*
X146261506Y-129871402D01*
X146428597Y-130038493D01*
X146428603Y-130038498D01*
X146614158Y-130168425D01*
X146657783Y-130223002D01*
X146664977Y-130292500D01*
X146633454Y-130354855D01*
X146614158Y-130371575D01*
X146428597Y-130501505D01*
X146261505Y-130668597D01*
X146125965Y-130862169D01*
X146125964Y-130862171D01*
X146026098Y-131076335D01*
X146026094Y-131076344D01*
X145964938Y-131304586D01*
X145964936Y-131304596D01*
X145944341Y-131539999D01*
X145944341Y-131540000D01*
X145964936Y-131775403D01*
X145964938Y-131775413D01*
X146026094Y-132003655D01*
X146026096Y-132003659D01*
X146026097Y-132003663D01*
X146125965Y-132217830D01*
X146125967Y-132217834D01*
X146261501Y-132411395D01*
X146261506Y-132411402D01*
X146428597Y-132578493D01*
X146428603Y-132578498D01*
X146614158Y-132708425D01*
X146657783Y-132763002D01*
X146664977Y-132832500D01*
X146633454Y-132894855D01*
X146614158Y-132911575D01*
X146428597Y-133041505D01*
X146261505Y-133208597D01*
X146125965Y-133402169D01*
X146125964Y-133402171D01*
X146026098Y-133616335D01*
X146026094Y-133616344D01*
X145964938Y-133844586D01*
X145964936Y-133844596D01*
X145944341Y-134079999D01*
X145944341Y-134080000D01*
X145964936Y-134315403D01*
X145964938Y-134315413D01*
X146026094Y-134543655D01*
X146026096Y-134543659D01*
X146026097Y-134543663D01*
X146125965Y-134757830D01*
X146125967Y-134757834D01*
X146190503Y-134850000D01*
X146261505Y-134951401D01*
X146428599Y-135118495D01*
X146577478Y-135222741D01*
X146614594Y-135248730D01*
X146658218Y-135303307D01*
X146665411Y-135372806D01*
X146633889Y-135435160D01*
X146614593Y-135451880D01*
X146538626Y-135505072D01*
X146538625Y-135505072D01*
X147170590Y-136137037D01*
X147107007Y-136154075D01*
X146992993Y-136219901D01*
X146899901Y-136312993D01*
X146834075Y-136427007D01*
X146817037Y-136490589D01*
X146185073Y-135858625D01*
X146185072Y-135858625D01*
X146126401Y-135942419D01*
X146026570Y-136156507D01*
X146026566Y-136156516D01*
X145965432Y-136384673D01*
X145965430Y-136384684D01*
X145944843Y-136619998D01*
X145944843Y-136620001D01*
X145965430Y-136855315D01*
X145965432Y-136855326D01*
X146026566Y-137083483D01*
X146026570Y-137083492D01*
X146126400Y-137297579D01*
X146126402Y-137297583D01*
X146185072Y-137381373D01*
X146185073Y-137381373D01*
X146817037Y-136749409D01*
X146834075Y-136812993D01*
X146899901Y-136927007D01*
X146992993Y-137020099D01*
X147107007Y-137085925D01*
X147170590Y-137102962D01*
X146538625Y-137734925D01*
X146614594Y-137788119D01*
X146658219Y-137842696D01*
X146665413Y-137912194D01*
X146633890Y-137974549D01*
X146614595Y-137991269D01*
X146428594Y-138121508D01*
X146261505Y-138288597D01*
X146125965Y-138482169D01*
X146125964Y-138482171D01*
X146026098Y-138696335D01*
X146026094Y-138696344D01*
X145964938Y-138924586D01*
X145964936Y-138924596D01*
X145944341Y-139159999D01*
X145944341Y-139160000D01*
X145964936Y-139395403D01*
X145964938Y-139395413D01*
X146026094Y-139623655D01*
X146026096Y-139623659D01*
X146026097Y-139623663D01*
X146125965Y-139837830D01*
X146125967Y-139837834D01*
X146188760Y-139927511D01*
X146261505Y-140031401D01*
X146428599Y-140198495D01*
X146525384Y-140266265D01*
X146622165Y-140334032D01*
X146622167Y-140334033D01*
X146622170Y-140334035D01*
X146674970Y-140358656D01*
X146727410Y-140404828D01*
X146736139Y-140424763D01*
X146737313Y-140424277D01*
X146740425Y-140431790D01*
X146756297Y-140459280D01*
X146757210Y-140460861D01*
X146776956Y-140495063D01*
X146819481Y-140568717D01*
X146938349Y-140687585D01*
X146938355Y-140687590D01*
X149915139Y-143664374D01*
X149915149Y-143664385D01*
X149919479Y-143668715D01*
X149919480Y-143668716D01*
X150031284Y-143780520D01*
X150118095Y-143830639D01*
X150118097Y-143830641D01*
X150156151Y-143852611D01*
X150168215Y-143859577D01*
X150320943Y-143900501D01*
X150320946Y-143900501D01*
X150486653Y-143900501D01*
X150486669Y-143900500D01*
X165013331Y-143900500D01*
X165013347Y-143900501D01*
X165020943Y-143900501D01*
X165179054Y-143900501D01*
X165179057Y-143900501D01*
X165331785Y-143859577D01*
X165381904Y-143830639D01*
X165468716Y-143780520D01*
X165580520Y-143668716D01*
X165580520Y-143668714D01*
X165590728Y-143658507D01*
X165590730Y-143658504D01*
X167558506Y-141690728D01*
X167558511Y-141690724D01*
X167568714Y-141680520D01*
X167568716Y-141680520D01*
X167680520Y-141568716D01*
X167759577Y-141431784D01*
X167800500Y-141279057D01*
X167800500Y-140131692D01*
X167820185Y-140064653D01*
X167853374Y-140030119D01*
X168039139Y-139900047D01*
X168200047Y-139739139D01*
X168330568Y-139552734D01*
X168426739Y-139346496D01*
X168485635Y-139126692D01*
X168505468Y-138900000D01*
X168485635Y-138673308D01*
X168426739Y-138453504D01*
X168330568Y-138247266D01*
X168200047Y-138060861D01*
X168200045Y-138060858D01*
X168039141Y-137899954D01*
X167852734Y-137769432D01*
X167852732Y-137769431D01*
X167646497Y-137673261D01*
X167646488Y-137673258D01*
X167426697Y-137614366D01*
X167426693Y-137614365D01*
X167426692Y-137614365D01*
X167426691Y-137614364D01*
X167426686Y-137614364D01*
X167200002Y-137594532D01*
X167199998Y-137594532D01*
X166973313Y-137614364D01*
X166973302Y-137614366D01*
X166753511Y-137673258D01*
X166753502Y-137673261D01*
X166547267Y-137769431D01*
X166547265Y-137769432D01*
X166360858Y-137899954D01*
X166199954Y-138060858D01*
X166069432Y-138247265D01*
X166069431Y-138247267D01*
X165973261Y-138453502D01*
X165973258Y-138453511D01*
X165914366Y-138673302D01*
X165914364Y-138673313D01*
X165894532Y-138899998D01*
X165894532Y-138900001D01*
X165914364Y-139126686D01*
X165914366Y-139126697D01*
X165973258Y-139346488D01*
X165973261Y-139346497D01*
X166069431Y-139552732D01*
X166069432Y-139552734D01*
X166199954Y-139739141D01*
X166360858Y-139900045D01*
X166360861Y-139900047D01*
X166546624Y-140030118D01*
X166590248Y-140084693D01*
X166599500Y-140131692D01*
X166599500Y-140899903D01*
X166579815Y-140966942D01*
X166563181Y-140987584D01*
X164887584Y-142663181D01*
X164826261Y-142696666D01*
X164799903Y-142699500D01*
X150700097Y-142699500D01*
X150633058Y-142679815D01*
X150612416Y-142663181D01*
X148247246Y-140298011D01*
X148213761Y-140236688D01*
X148218745Y-140166996D01*
X148247242Y-140122653D01*
X148338495Y-140031401D01*
X148474035Y-139837830D01*
X148573903Y-139623663D01*
X148635063Y-139395408D01*
X148655659Y-139160000D01*
X148635063Y-138924592D01*
X148573903Y-138696337D01*
X148474035Y-138482171D01*
X148456616Y-138457293D01*
X148338494Y-138288597D01*
X148171402Y-138121506D01*
X148171401Y-138121505D01*
X147985405Y-137991269D01*
X147941781Y-137936692D01*
X147934588Y-137867193D01*
X147966110Y-137804839D01*
X147985405Y-137788119D01*
X148061373Y-137734925D01*
X147429409Y-137102962D01*
X147492993Y-137085925D01*
X147607007Y-137020099D01*
X147700099Y-136927007D01*
X147765925Y-136812993D01*
X147782962Y-136749410D01*
X148414925Y-137381373D01*
X148414926Y-137381373D01*
X148473598Y-137297582D01*
X148473600Y-137297578D01*
X148573429Y-137083492D01*
X148573433Y-137083483D01*
X148634567Y-136855326D01*
X148634569Y-136855315D01*
X148655157Y-136620001D01*
X148655157Y-136619998D01*
X148634569Y-136384684D01*
X148634567Y-136384673D01*
X148573433Y-136156516D01*
X148573429Y-136156507D01*
X148473600Y-135942423D01*
X148473599Y-135942421D01*
X148414925Y-135858626D01*
X148414925Y-135858625D01*
X147782962Y-136490589D01*
X147765925Y-136427007D01*
X147700099Y-136312993D01*
X147607007Y-136219901D01*
X147492993Y-136154075D01*
X147429410Y-136137037D01*
X148061373Y-135505073D01*
X148061373Y-135505072D01*
X147985405Y-135451880D01*
X147941780Y-135397304D01*
X147934586Y-135327805D01*
X147966108Y-135265451D01*
X147985399Y-135248734D01*
X148171401Y-135118495D01*
X148338495Y-134951401D01*
X148474035Y-134757830D01*
X148573903Y-134543663D01*
X148635063Y-134315408D01*
X148638917Y-134271342D01*
X148664368Y-134206276D01*
X148674756Y-134194477D01*
X152847821Y-130021413D01*
X152909142Y-129987930D01*
X152978834Y-129992914D01*
X153034767Y-130034786D01*
X153059184Y-130100250D01*
X153059500Y-130109096D01*
X153059500Y-135433330D01*
X153059499Y-135433348D01*
X153059499Y-135599054D01*
X153059498Y-135599054D01*
X153100423Y-135751785D01*
X153129358Y-135801900D01*
X153129359Y-135801904D01*
X153129360Y-135801904D01*
X153159253Y-135853682D01*
X153179479Y-135888714D01*
X153179481Y-135888717D01*
X153298349Y-136007585D01*
X153298355Y-136007590D01*
X155748058Y-138457293D01*
X155781543Y-138518616D01*
X155780152Y-138577067D01*
X155754366Y-138673302D01*
X155754364Y-138673313D01*
X155734532Y-138899998D01*
X155734532Y-138900001D01*
X155754364Y-139126686D01*
X155754366Y-139126697D01*
X155813258Y-139346488D01*
X155813261Y-139346497D01*
X155909431Y-139552732D01*
X155909432Y-139552734D01*
X156039954Y-139739141D01*
X156200858Y-139900045D01*
X156200861Y-139900047D01*
X156387266Y-140030568D01*
X156593504Y-140126739D01*
X156813308Y-140185635D01*
X156960333Y-140198498D01*
X157039998Y-140205468D01*
X157040000Y-140205468D01*
X157040002Y-140205468D01*
X157119667Y-140198498D01*
X157266692Y-140185635D01*
X157486496Y-140126739D01*
X157692734Y-140030568D01*
X157879139Y-139900047D01*
X158040047Y-139739139D01*
X158170568Y-139552734D01*
X158266739Y-139346496D01*
X158325635Y-139126692D01*
X158345468Y-138900000D01*
X158325635Y-138673308D01*
X158266739Y-138453504D01*
X158170568Y-138247266D01*
X158040047Y-138060861D01*
X158040045Y-138060858D01*
X157879141Y-137899954D01*
X157692734Y-137769432D01*
X157692732Y-137769431D01*
X157486497Y-137673261D01*
X157486488Y-137673258D01*
X157266697Y-137614366D01*
X157266693Y-137614365D01*
X157266692Y-137614365D01*
X157266691Y-137614364D01*
X157266686Y-137614364D01*
X157040002Y-137594532D01*
X157039998Y-137594532D01*
X156813313Y-137614364D01*
X156813302Y-137614366D01*
X156717067Y-137640152D01*
X156647217Y-137638489D01*
X156597293Y-137608058D01*
X154296819Y-135307584D01*
X154263334Y-135246261D01*
X154260500Y-135219903D01*
X154260500Y-128660096D01*
X154280185Y-128593057D01*
X154296815Y-128572419D01*
X155138535Y-127730698D01*
X155199856Y-127697215D01*
X155212324Y-127695162D01*
X155261618Y-127689608D01*
X155330439Y-127701663D01*
X155381818Y-127749012D01*
X155399500Y-127812828D01*
X155399500Y-128913330D01*
X155399499Y-128913348D01*
X155399499Y-129079054D01*
X155399498Y-129079054D01*
X155440423Y-129231786D01*
X155440424Y-129231787D01*
X155443241Y-129236666D01*
X155468504Y-129280423D01*
X155519480Y-129368716D01*
X155519482Y-129368718D01*
X155638349Y-129487585D01*
X155638355Y-129487590D01*
X156403181Y-130252416D01*
X156436666Y-130313739D01*
X156439500Y-130340097D01*
X156439500Y-133618306D01*
X156419815Y-133685345D01*
X156386623Y-133719881D01*
X156200859Y-133849953D01*
X156039954Y-134010858D01*
X155909432Y-134197265D01*
X155909431Y-134197267D01*
X155813261Y-134403502D01*
X155813258Y-134403511D01*
X155754366Y-134623302D01*
X155754364Y-134623313D01*
X155734532Y-134849998D01*
X155734532Y-134850001D01*
X155754364Y-135076686D01*
X155754366Y-135076697D01*
X155813258Y-135296488D01*
X155813261Y-135296497D01*
X155909431Y-135502732D01*
X155909432Y-135502734D01*
X156039954Y-135689141D01*
X156200858Y-135850045D01*
X156206052Y-135853682D01*
X156387266Y-135980568D01*
X156593504Y-136076739D01*
X156813308Y-136135635D01*
X156975230Y-136149801D01*
X157039998Y-136155468D01*
X157040000Y-136155468D01*
X157040002Y-136155468D01*
X157096673Y-136150509D01*
X157266692Y-136135635D01*
X157486496Y-136076739D01*
X157692734Y-135980568D01*
X157879139Y-135850047D01*
X158040047Y-135689139D01*
X158170568Y-135502734D01*
X158266739Y-135296496D01*
X158325635Y-135076692D01*
X158345468Y-134850000D01*
X158325635Y-134623308D01*
X158319389Y-134599999D01*
X165921127Y-134599999D01*
X165921128Y-134600000D01*
X166884314Y-134600000D01*
X166879920Y-134604394D01*
X166827259Y-134695606D01*
X166800000Y-134797339D01*
X166800000Y-134902661D01*
X166827259Y-135004394D01*
X166879920Y-135095606D01*
X166884314Y-135100000D01*
X165921128Y-135100000D01*
X165973730Y-135296317D01*
X165973734Y-135296326D01*
X166069865Y-135502482D01*
X166200342Y-135688820D01*
X166361179Y-135849657D01*
X166547517Y-135980134D01*
X166753673Y-136076265D01*
X166753682Y-136076269D01*
X166949999Y-136128872D01*
X166950000Y-136128871D01*
X166950000Y-135165686D01*
X166954394Y-135170080D01*
X167045606Y-135222741D01*
X167147339Y-135250000D01*
X167252661Y-135250000D01*
X167354394Y-135222741D01*
X167445606Y-135170080D01*
X167450000Y-135165686D01*
X167450000Y-136128872D01*
X167646317Y-136076269D01*
X167646326Y-136076265D01*
X167852482Y-135980134D01*
X168038820Y-135849657D01*
X168199657Y-135688820D01*
X168330134Y-135502482D01*
X168426265Y-135296326D01*
X168426269Y-135296317D01*
X168478872Y-135100000D01*
X167515686Y-135100000D01*
X167520080Y-135095606D01*
X167572741Y-135004394D01*
X167600000Y-134902661D01*
X167600000Y-134797339D01*
X167572741Y-134695606D01*
X167520080Y-134604394D01*
X167515686Y-134600000D01*
X168478872Y-134600000D01*
X168478872Y-134599999D01*
X168426269Y-134403682D01*
X168426265Y-134403673D01*
X168330134Y-134197517D01*
X168199657Y-134011179D01*
X168038820Y-133850342D01*
X167852482Y-133719865D01*
X167646328Y-133623734D01*
X167450000Y-133571127D01*
X167450000Y-134534314D01*
X167445606Y-134529920D01*
X167354394Y-134477259D01*
X167252661Y-134450000D01*
X167147339Y-134450000D01*
X167045606Y-134477259D01*
X166954394Y-134529920D01*
X166950000Y-134534314D01*
X166950000Y-133571127D01*
X166753671Y-133623734D01*
X166547517Y-133719865D01*
X166361179Y-133850342D01*
X166200342Y-134011179D01*
X166069865Y-134197517D01*
X165973734Y-134403673D01*
X165973730Y-134403682D01*
X165921127Y-134599999D01*
X158319389Y-134599999D01*
X158266739Y-134403504D01*
X158170568Y-134197266D01*
X158040047Y-134010861D01*
X158040045Y-134010858D01*
X157879140Y-133849953D01*
X157693377Y-133719881D01*
X157649752Y-133665304D01*
X157640500Y-133618306D01*
X157640500Y-129960946D01*
X157640499Y-129960939D01*
X157629277Y-129919057D01*
X157599577Y-129808215D01*
X157570639Y-129758095D01*
X157520520Y-129671284D01*
X157408716Y-129559480D01*
X157408715Y-129559479D01*
X157404385Y-129555149D01*
X157404374Y-129555139D01*
X156636819Y-128787584D01*
X156603334Y-128726261D01*
X156600500Y-128699903D01*
X156600500Y-124900097D01*
X156620185Y-124833058D01*
X156636819Y-124812416D01*
X156789237Y-124659998D01*
X156980520Y-124468716D01*
X157059577Y-124331784D01*
X157100501Y-124179057D01*
X157100501Y-124020942D01*
X157100501Y-124013347D01*
X157100500Y-124013329D01*
X157100500Y-119520096D01*
X157120185Y-119453057D01*
X157136814Y-119432420D01*
X159990573Y-116578660D01*
X160051894Y-116545177D01*
X160121586Y-116550161D01*
X160177519Y-116592033D01*
X160201936Y-116657497D01*
X160201780Y-116677150D01*
X160194532Y-116759997D01*
X160194532Y-116760001D01*
X160214364Y-116986686D01*
X160214366Y-116986697D01*
X160273258Y-117206488D01*
X160273261Y-117206497D01*
X160369431Y-117412732D01*
X160369432Y-117412734D01*
X160499954Y-117599141D01*
X160660858Y-117760045D01*
X160660861Y-117760047D01*
X160847266Y-117890568D01*
X160905275Y-117917618D01*
X160957714Y-117963791D01*
X160976866Y-118030984D01*
X160956650Y-118097865D01*
X160905275Y-118142382D01*
X160847267Y-118169431D01*
X160847265Y-118169432D01*
X160660858Y-118299954D01*
X160499954Y-118460858D01*
X160369432Y-118647265D01*
X160369431Y-118647267D01*
X160273261Y-118853502D01*
X160273258Y-118853511D01*
X160214366Y-119073302D01*
X160214364Y-119073313D01*
X160194532Y-119299998D01*
X160194532Y-119300001D01*
X160214364Y-119526686D01*
X160214366Y-119526697D01*
X160273258Y-119746488D01*
X160273261Y-119746497D01*
X160369431Y-119952732D01*
X160369432Y-119952734D01*
X160499954Y-120139141D01*
X160660858Y-120300045D01*
X160660861Y-120300047D01*
X160847266Y-120430568D01*
X160905865Y-120457893D01*
X160958305Y-120504065D01*
X160977457Y-120571258D01*
X160957242Y-120638139D01*
X160905867Y-120682657D01*
X160847515Y-120709867D01*
X160661179Y-120840342D01*
X160500342Y-121001179D01*
X160369865Y-121187517D01*
X160273734Y-121393673D01*
X160273730Y-121393682D01*
X160221127Y-121589999D01*
X160221128Y-121590000D01*
X161184314Y-121590000D01*
X161179920Y-121594394D01*
X161127259Y-121685606D01*
X161100000Y-121787339D01*
X161100000Y-121892661D01*
X161127259Y-121994394D01*
X161179920Y-122085606D01*
X161184314Y-122090000D01*
X160221128Y-122090000D01*
X160273730Y-122286317D01*
X160273734Y-122286326D01*
X160369865Y-122492482D01*
X160500342Y-122678820D01*
X160661179Y-122839657D01*
X160847517Y-122970134D01*
X161053673Y-123066265D01*
X161053682Y-123066269D01*
X161249999Y-123118872D01*
X161250000Y-123118871D01*
X161250000Y-122155686D01*
X161254394Y-122160080D01*
X161345606Y-122212741D01*
X161447339Y-122240000D01*
X161552661Y-122240000D01*
X161654394Y-122212741D01*
X161745606Y-122160080D01*
X161750000Y-122155686D01*
X161750000Y-123118872D01*
X161946317Y-123066269D01*
X161946326Y-123066265D01*
X162152482Y-122970134D01*
X162338820Y-122839657D01*
X162499657Y-122678820D01*
X162630134Y-122492482D01*
X162726265Y-122286326D01*
X162726269Y-122286317D01*
X162778872Y-122090000D01*
X161815686Y-122090000D01*
X161820080Y-122085606D01*
X161872741Y-121994394D01*
X161900000Y-121892661D01*
X161900000Y-121787339D01*
X161872741Y-121685606D01*
X161820080Y-121594394D01*
X161815686Y-121590000D01*
X162778872Y-121590000D01*
X162778872Y-121589999D01*
X162726269Y-121393682D01*
X162726265Y-121393673D01*
X162630134Y-121187517D01*
X162499657Y-121001179D01*
X162338820Y-120840342D01*
X162152482Y-120709865D01*
X162094133Y-120682657D01*
X162041694Y-120636484D01*
X162022542Y-120569291D01*
X162042758Y-120502410D01*
X162094129Y-120457895D01*
X162152734Y-120430568D01*
X162339139Y-120300047D01*
X162500047Y-120139139D01*
X162630568Y-119952734D01*
X162726739Y-119746496D01*
X162785635Y-119526692D01*
X162804308Y-119313257D01*
X162805468Y-119300001D01*
X162805468Y-119299998D01*
X162793938Y-119168212D01*
X162785635Y-119073308D01*
X162726739Y-118853504D01*
X162630568Y-118647266D01*
X162516394Y-118484207D01*
X162500045Y-118460858D01*
X162339141Y-118299954D01*
X162152734Y-118169432D01*
X162152728Y-118169429D01*
X162094725Y-118142382D01*
X162042285Y-118096210D01*
X162023133Y-118029017D01*
X162043348Y-117962135D01*
X162094725Y-117917618D01*
X162152734Y-117890568D01*
X162339139Y-117760047D01*
X162500047Y-117599139D01*
X162630568Y-117412734D01*
X162726739Y-117206496D01*
X162785635Y-116986692D01*
X162803673Y-116780518D01*
X162805468Y-116760001D01*
X162805468Y-116759998D01*
X162796500Y-116657497D01*
X162785635Y-116533308D01*
X162726739Y-116313504D01*
X162630568Y-116107266D01*
X162516394Y-115944207D01*
X162500045Y-115920858D01*
X162339141Y-115759954D01*
X162152734Y-115629432D01*
X162152728Y-115629429D01*
X162094725Y-115602382D01*
X162042285Y-115556210D01*
X162023133Y-115489017D01*
X162043348Y-115422135D01*
X162094725Y-115377618D01*
X162152734Y-115350568D01*
X162339139Y-115220047D01*
X162500047Y-115059139D01*
X162630568Y-114872734D01*
X162726739Y-114666496D01*
X162785635Y-114446692D01*
X162802634Y-114252384D01*
X162805468Y-114220001D01*
X162805468Y-114219998D01*
X162792870Y-114076008D01*
X162785635Y-113993308D01*
X162726739Y-113773504D01*
X162630568Y-113567266D01*
X162500047Y-113380861D01*
X162500045Y-113380858D01*
X162339141Y-113219954D01*
X162152734Y-113089432D01*
X162152728Y-113089429D01*
X162094725Y-113062382D01*
X162042285Y-113016210D01*
X162023133Y-112949017D01*
X162043348Y-112882135D01*
X162094725Y-112837618D01*
X162152734Y-112810568D01*
X162339139Y-112680047D01*
X162500047Y-112519139D01*
X162630568Y-112332734D01*
X162726739Y-112126496D01*
X162785635Y-111906692D01*
X162802634Y-111712384D01*
X162805468Y-111680001D01*
X162805468Y-111679998D01*
X162789603Y-111498663D01*
X162785635Y-111453308D01*
X162726739Y-111233504D01*
X162630568Y-111027266D01*
X162500047Y-110840861D01*
X162500045Y-110840858D01*
X162339141Y-110679954D01*
X162152734Y-110549432D01*
X162152728Y-110549429D01*
X162094725Y-110522382D01*
X162042285Y-110476210D01*
X162023133Y-110409017D01*
X162043348Y-110342135D01*
X162094725Y-110297618D01*
X162152734Y-110270568D01*
X162339139Y-110140047D01*
X162500047Y-109979139D01*
X162630568Y-109792734D01*
X162726739Y-109586496D01*
X162785635Y-109366692D01*
X162804376Y-109152478D01*
X162805468Y-109140001D01*
X162805468Y-109139998D01*
X162792227Y-108988652D01*
X162785635Y-108913308D01*
X162726739Y-108693504D01*
X162630568Y-108487266D01*
X162500047Y-108300861D01*
X162500045Y-108300858D01*
X162339141Y-108139954D01*
X162152734Y-108009432D01*
X162152728Y-108009429D01*
X162094725Y-107982382D01*
X162042285Y-107936210D01*
X162023133Y-107869017D01*
X162043348Y-107802135D01*
X162094725Y-107757618D01*
X162152734Y-107730568D01*
X162339139Y-107600047D01*
X162500047Y-107439139D01*
X162630568Y-107252734D01*
X162726739Y-107046496D01*
X162785635Y-106826692D01*
X162802634Y-106632384D01*
X162805468Y-106600001D01*
X162805468Y-106599998D01*
X162792227Y-106448652D01*
X162785635Y-106373308D01*
X162726739Y-106153504D01*
X162630568Y-105947266D01*
X162500047Y-105760861D01*
X162500045Y-105760858D01*
X162339141Y-105599954D01*
X162152734Y-105469432D01*
X162152728Y-105469429D01*
X162094725Y-105442382D01*
X162042285Y-105396210D01*
X162023133Y-105329017D01*
X162043348Y-105262135D01*
X162094725Y-105217618D01*
X162152734Y-105190568D01*
X162339139Y-105060047D01*
X162500047Y-104899139D01*
X162630568Y-104712734D01*
X162726739Y-104506496D01*
X162785635Y-104286692D01*
X162802634Y-104092384D01*
X162805468Y-104060001D01*
X162805468Y-104059998D01*
X162785819Y-103835413D01*
X162785635Y-103833308D01*
X162726739Y-103613504D01*
X162630568Y-103407266D01*
X162500047Y-103220861D01*
X162500045Y-103220858D01*
X162339141Y-103059954D01*
X162152734Y-102929432D01*
X162152728Y-102929429D01*
X162094725Y-102902382D01*
X162042285Y-102856210D01*
X162023133Y-102789017D01*
X162043348Y-102722135D01*
X162094725Y-102677618D01*
X162095319Y-102677341D01*
X162152734Y-102650568D01*
X162339139Y-102520047D01*
X162500047Y-102359139D01*
X162630568Y-102172734D01*
X162726739Y-101966496D01*
X162785635Y-101746692D01*
X162805468Y-101520000D01*
X162800458Y-101462741D01*
X162795877Y-101410371D01*
X162785635Y-101293308D01*
X162726739Y-101073504D01*
X162630568Y-100867266D01*
X162511717Y-100697527D01*
X162500045Y-100680858D01*
X162339143Y-100519956D01*
X162314536Y-100502726D01*
X162270912Y-100448149D01*
X162263719Y-100378650D01*
X162295241Y-100316296D01*
X162355471Y-100280882D01*
X162372404Y-100277861D01*
X162407483Y-100274091D01*
X162542331Y-100223796D01*
X162657546Y-100137546D01*
X162743796Y-100022331D01*
X162794091Y-99887483D01*
X162800500Y-99827873D01*
X162800500Y-99704500D01*
X162820185Y-99637461D01*
X162872989Y-99591706D01*
X162924500Y-99580500D01*
X167888308Y-99580500D01*
X167955347Y-99600185D01*
X167989880Y-99633374D01*
X168075480Y-99755624D01*
X168119954Y-99819141D01*
X168280858Y-99980045D01*
X168280861Y-99980047D01*
X168467266Y-100110568D01*
X168525865Y-100137893D01*
X168578305Y-100184065D01*
X168597457Y-100251258D01*
X168577242Y-100318139D01*
X168525867Y-100362657D01*
X168467515Y-100389867D01*
X168281179Y-100520342D01*
X168120342Y-100681179D01*
X167989865Y-100867517D01*
X167893734Y-101073673D01*
X167893730Y-101073682D01*
X167841127Y-101269999D01*
X167841128Y-101270000D01*
X168804314Y-101270000D01*
X168799920Y-101274394D01*
X168747259Y-101365606D01*
X168720000Y-101467339D01*
X168720000Y-101572661D01*
X168747259Y-101674394D01*
X168799920Y-101765606D01*
X168804314Y-101770000D01*
X167841128Y-101770000D01*
X167893730Y-101966317D01*
X167893734Y-101966326D01*
X167989865Y-102172482D01*
X168120342Y-102358820D01*
X168281179Y-102519657D01*
X168467518Y-102650134D01*
X168467520Y-102650135D01*
X168525865Y-102677342D01*
X168578305Y-102723514D01*
X168597457Y-102790707D01*
X168577242Y-102857589D01*
X168525867Y-102902105D01*
X168467268Y-102929431D01*
X168467264Y-102929433D01*
X168280858Y-103059954D01*
X168119954Y-103220858D01*
X167989432Y-103407265D01*
X167989431Y-103407267D01*
X167893261Y-103613502D01*
X167893258Y-103613511D01*
X167834366Y-103833302D01*
X167834364Y-103833313D01*
X167814532Y-104059998D01*
X167814532Y-104060001D01*
X167834364Y-104286686D01*
X167834366Y-104286697D01*
X167893258Y-104506488D01*
X167893261Y-104506497D01*
X167989431Y-104712732D01*
X167989432Y-104712734D01*
X168119954Y-104899141D01*
X168280858Y-105060045D01*
X168280861Y-105060047D01*
X168467266Y-105190568D01*
X168525275Y-105217618D01*
X168577714Y-105263791D01*
X168596866Y-105330984D01*
X168576650Y-105397865D01*
X168525275Y-105442382D01*
X168467267Y-105469431D01*
X168467265Y-105469432D01*
X168280858Y-105599954D01*
X168119954Y-105760858D01*
X167989432Y-105947265D01*
X167989431Y-105947267D01*
X167893261Y-106153502D01*
X167893258Y-106153511D01*
X167834366Y-106373302D01*
X167834364Y-106373313D01*
X167814532Y-106599998D01*
X167814532Y-106600001D01*
X167834364Y-106826686D01*
X167834366Y-106826697D01*
X167893258Y-107046488D01*
X167893261Y-107046497D01*
X167989431Y-107252732D01*
X167989432Y-107252734D01*
X168119954Y-107439141D01*
X168280858Y-107600045D01*
X168280861Y-107600047D01*
X168467266Y-107730568D01*
X168525275Y-107757618D01*
X168577714Y-107803791D01*
X168596866Y-107870984D01*
X168576650Y-107937865D01*
X168525275Y-107982382D01*
X168467267Y-108009431D01*
X168467265Y-108009432D01*
X168280858Y-108139954D01*
X168119954Y-108300858D01*
X167989432Y-108487265D01*
X167989431Y-108487267D01*
X167893261Y-108693502D01*
X167893258Y-108693511D01*
X167834366Y-108913302D01*
X167834364Y-108913313D01*
X167814532Y-109139998D01*
X167814532Y-109140001D01*
X167834364Y-109366686D01*
X167834366Y-109366697D01*
X167893258Y-109586488D01*
X167893261Y-109586497D01*
X167989431Y-109792732D01*
X167989432Y-109792734D01*
X168119954Y-109979141D01*
X168280858Y-110140045D01*
X168280861Y-110140047D01*
X168467266Y-110270568D01*
X168525275Y-110297618D01*
X168577714Y-110343791D01*
X168596866Y-110410984D01*
X168576650Y-110477865D01*
X168525275Y-110522382D01*
X168467267Y-110549431D01*
X168467265Y-110549432D01*
X168280858Y-110679954D01*
X168119954Y-110840858D01*
X167989432Y-111027265D01*
X167989431Y-111027267D01*
X167893261Y-111233502D01*
X167893258Y-111233511D01*
X167834366Y-111453302D01*
X167834364Y-111453313D01*
X167814532Y-111679998D01*
X167814532Y-111680001D01*
X167834364Y-111906686D01*
X167834366Y-111906697D01*
X167893258Y-112126488D01*
X167893261Y-112126497D01*
X167989431Y-112332732D01*
X167989432Y-112332734D01*
X168119954Y-112519141D01*
X168280858Y-112680045D01*
X168280861Y-112680047D01*
X168467266Y-112810568D01*
X168525275Y-112837618D01*
X168577714Y-112883791D01*
X168596866Y-112950984D01*
X168576650Y-113017865D01*
X168525275Y-113062382D01*
X168467267Y-113089431D01*
X168467265Y-113089432D01*
X168280858Y-113219954D01*
X168119954Y-113380858D01*
X167989432Y-113567265D01*
X167989431Y-113567267D01*
X167893261Y-113773502D01*
X167893258Y-113773511D01*
X167834366Y-113993302D01*
X167834364Y-113993313D01*
X167814532Y-114219998D01*
X167814532Y-114220001D01*
X167834364Y-114446686D01*
X167834366Y-114446697D01*
X167893258Y-114666488D01*
X167893261Y-114666497D01*
X167989431Y-114872732D01*
X167989432Y-114872734D01*
X168119954Y-115059141D01*
X168280858Y-115220045D01*
X168280861Y-115220047D01*
X168467266Y-115350568D01*
X168525275Y-115377618D01*
X168577714Y-115423791D01*
X168596866Y-115490984D01*
X168576650Y-115557865D01*
X168525275Y-115602382D01*
X168467267Y-115629431D01*
X168467265Y-115629432D01*
X168280858Y-115759954D01*
X168119954Y-115920858D01*
X167989432Y-116107265D01*
X167989431Y-116107267D01*
X167893261Y-116313502D01*
X167893258Y-116313511D01*
X167834366Y-116533302D01*
X167834364Y-116533313D01*
X167814532Y-116759998D01*
X167814532Y-116760001D01*
X167834364Y-116986686D01*
X167834366Y-116986697D01*
X167893258Y-117206488D01*
X167893261Y-117206497D01*
X167989431Y-117412732D01*
X167989432Y-117412734D01*
X168119954Y-117599141D01*
X168280858Y-117760045D01*
X168280861Y-117760047D01*
X168467266Y-117890568D01*
X168525275Y-117917618D01*
X168577714Y-117963791D01*
X168596866Y-118030984D01*
X168576650Y-118097865D01*
X168525275Y-118142382D01*
X168467267Y-118169431D01*
X168467265Y-118169432D01*
X168280858Y-118299954D01*
X168119954Y-118460858D01*
X167989432Y-118647265D01*
X167989431Y-118647267D01*
X167893261Y-118853502D01*
X167893258Y-118853511D01*
X167834366Y-119073302D01*
X167834364Y-119073313D01*
X167814532Y-119299998D01*
X167814532Y-119300001D01*
X167834364Y-119526686D01*
X167834366Y-119526697D01*
X167893258Y-119746488D01*
X167893261Y-119746497D01*
X167989431Y-119952732D01*
X167989432Y-119952734D01*
X168119954Y-120139141D01*
X168280858Y-120300045D01*
X168280861Y-120300047D01*
X168467266Y-120430568D01*
X168525275Y-120457618D01*
X168577714Y-120503791D01*
X168596866Y-120570984D01*
X168576650Y-120637865D01*
X168525275Y-120682382D01*
X168467267Y-120709431D01*
X168467265Y-120709432D01*
X168280858Y-120839954D01*
X168119954Y-121000858D01*
X167989432Y-121187265D01*
X167989431Y-121187267D01*
X167893261Y-121393502D01*
X167893258Y-121393511D01*
X167834366Y-121613302D01*
X167834364Y-121613313D01*
X167814532Y-121839998D01*
X167814532Y-121840001D01*
X167834364Y-122066686D01*
X167834366Y-122066697D01*
X167893258Y-122286488D01*
X167893261Y-122286497D01*
X167989431Y-122492732D01*
X167989432Y-122492734D01*
X168119954Y-122679141D01*
X168280858Y-122840045D01*
X168280861Y-122840047D01*
X168467266Y-122970568D01*
X168673504Y-123066739D01*
X168893308Y-123125635D01*
X169055230Y-123139801D01*
X169119998Y-123145468D01*
X169120000Y-123145468D01*
X169120002Y-123145468D01*
X169176673Y-123140509D01*
X169346692Y-123125635D01*
X169566496Y-123066739D01*
X169772734Y-122970568D01*
X169959139Y-122840047D01*
X170120047Y-122679139D01*
X170250568Y-122492734D01*
X170346739Y-122286496D01*
X170405635Y-122066692D01*
X170422634Y-121872384D01*
X170425468Y-121840001D01*
X170425468Y-121839998D01*
X170412477Y-121691514D01*
X170405635Y-121613308D01*
X170346739Y-121393504D01*
X170250568Y-121187266D01*
X170136394Y-121024207D01*
X170120045Y-121000858D01*
X169959141Y-120839954D01*
X169772734Y-120709432D01*
X169772728Y-120709429D01*
X169714725Y-120682382D01*
X169662285Y-120636210D01*
X169643133Y-120569017D01*
X169663348Y-120502135D01*
X169714725Y-120457618D01*
X169772734Y-120430568D01*
X169959139Y-120300047D01*
X170120047Y-120139139D01*
X170250568Y-119952734D01*
X170346739Y-119746496D01*
X170405635Y-119526692D01*
X170424308Y-119313257D01*
X170425468Y-119300001D01*
X170425468Y-119299998D01*
X170413938Y-119168212D01*
X170405635Y-119073308D01*
X170346739Y-118853504D01*
X170250568Y-118647266D01*
X170136394Y-118484207D01*
X170120045Y-118460858D01*
X169959141Y-118299954D01*
X169772734Y-118169432D01*
X169772728Y-118169429D01*
X169714725Y-118142382D01*
X169662285Y-118096210D01*
X169643133Y-118029017D01*
X169663348Y-117962135D01*
X169714725Y-117917618D01*
X169772734Y-117890568D01*
X169959139Y-117760047D01*
X170120047Y-117599139D01*
X170250118Y-117413375D01*
X170304693Y-117369752D01*
X170351692Y-117360500D01*
X173659903Y-117360500D01*
X173726942Y-117380185D01*
X173747584Y-117396819D01*
X174515139Y-118164374D01*
X174515149Y-118164385D01*
X174519479Y-118168715D01*
X174519480Y-118168716D01*
X174631284Y-118280520D01*
X174680644Y-118309017D01*
X174718095Y-118330639D01*
X174718097Y-118330641D01*
X174756151Y-118352611D01*
X174768215Y-118359577D01*
X174920943Y-118400500D01*
X175079057Y-118400500D01*
X175817588Y-118400500D01*
X175884627Y-118420185D01*
X175894903Y-118427555D01*
X175897736Y-118429814D01*
X175897738Y-118429816D01*
X176050478Y-118525789D01*
X176220745Y-118585368D01*
X176220750Y-118585369D01*
X176389383Y-118604369D01*
X176453797Y-118631435D01*
X176493352Y-118689030D01*
X176499500Y-118727589D01*
X176499500Y-120513330D01*
X176499499Y-120513348D01*
X176499499Y-120679054D01*
X176499498Y-120679054D01*
X176540423Y-120831785D01*
X176554876Y-120856818D01*
X176619477Y-120968712D01*
X176619481Y-120968717D01*
X176738349Y-121087585D01*
X176738355Y-121087590D01*
X181735139Y-126084374D01*
X181735149Y-126084385D01*
X181739479Y-126088715D01*
X181739480Y-126088716D01*
X181851284Y-126200520D01*
X181851286Y-126200521D01*
X181851290Y-126200524D01*
X181936131Y-126249506D01*
X181988216Y-126279577D01*
X182100019Y-126309534D01*
X182140942Y-126320500D01*
X182140943Y-126320500D01*
X193553331Y-126320500D01*
X193553347Y-126320501D01*
X193560943Y-126320501D01*
X193719054Y-126320501D01*
X193719057Y-126320501D01*
X193871785Y-126279577D01*
X193923879Y-126249500D01*
X194008716Y-126200520D01*
X194120520Y-126088716D01*
X194120520Y-126088714D01*
X194130724Y-126078511D01*
X194130728Y-126078506D01*
X194289954Y-125919279D01*
X194351275Y-125885796D01*
X194409726Y-125887186D01*
X194480280Y-125906092D01*
X194631031Y-125919281D01*
X194699998Y-125925315D01*
X194700000Y-125925315D01*
X194700002Y-125925315D01*
X194754930Y-125920509D01*
X194919720Y-125906092D01*
X195132763Y-125849007D01*
X195332658Y-125755795D01*
X195513329Y-125629288D01*
X195669288Y-125473329D01*
X195795795Y-125292658D01*
X195889007Y-125092763D01*
X195946092Y-124879720D01*
X195964552Y-124668717D01*
X195965315Y-124660001D01*
X195965315Y-124659998D01*
X195954098Y-124531790D01*
X195946092Y-124440280D01*
X195890092Y-124231286D01*
X195889009Y-124227244D01*
X195889008Y-124227243D01*
X195889007Y-124227237D01*
X195795795Y-124027343D01*
X195669288Y-123846671D01*
X195669286Y-123846668D01*
X195513330Y-123690712D01*
X195332662Y-123564207D01*
X195332654Y-123564203D01*
X195200077Y-123502382D01*
X195147637Y-123456210D01*
X195128485Y-123389017D01*
X195148700Y-123322136D01*
X195200077Y-123277618D01*
X195251095Y-123253828D01*
X195332658Y-123215795D01*
X195513329Y-123089288D01*
X195669288Y-122933329D01*
X195795795Y-122752658D01*
X195889007Y-122552763D01*
X195946092Y-122339720D01*
X195965315Y-122120000D01*
X195946092Y-121900280D01*
X195889007Y-121687237D01*
X195795795Y-121487343D01*
X195669288Y-121306671D01*
X195669286Y-121306668D01*
X195513330Y-121150712D01*
X195332662Y-121024207D01*
X195332654Y-121024203D01*
X195213663Y-120968717D01*
X195200076Y-120962381D01*
X195147637Y-120916210D01*
X195128485Y-120849017D01*
X195148700Y-120782136D01*
X195200077Y-120737618D01*
X195332658Y-120675795D01*
X195513329Y-120549288D01*
X195669288Y-120393329D01*
X195795795Y-120212658D01*
X195889007Y-120012763D01*
X195946092Y-119799720D01*
X195965315Y-119580000D01*
X195946092Y-119360280D01*
X195889007Y-119147237D01*
X195795795Y-118947343D01*
X195669288Y-118766671D01*
X195669286Y-118766668D01*
X195513330Y-118610712D01*
X195332662Y-118484207D01*
X195332654Y-118484203D01*
X195271626Y-118455745D01*
X195200076Y-118422381D01*
X195147637Y-118376210D01*
X195128485Y-118309017D01*
X195148700Y-118242136D01*
X195200077Y-118197618D01*
X195332658Y-118135795D01*
X195513329Y-118009288D01*
X195669288Y-117853329D01*
X195795795Y-117672658D01*
X195889007Y-117472763D01*
X195946092Y-117259720D01*
X195965315Y-117040000D01*
X195963095Y-117014630D01*
X195959374Y-116972099D01*
X195946092Y-116820280D01*
X195889007Y-116607237D01*
X195795795Y-116407343D01*
X195669288Y-116226671D01*
X195669286Y-116226668D01*
X195513330Y-116070712D01*
X195332662Y-115944207D01*
X195332654Y-115944203D01*
X195199486Y-115882106D01*
X195147046Y-115835934D01*
X195127894Y-115768740D01*
X195148110Y-115701859D01*
X195199486Y-115657342D01*
X195332402Y-115595362D01*
X195332410Y-115595358D01*
X195396751Y-115550305D01*
X195396751Y-115550304D01*
X194792668Y-114946220D01*
X194875623Y-114923992D01*
X194979376Y-114864090D01*
X195064090Y-114779376D01*
X195123992Y-114675623D01*
X195146220Y-114592667D01*
X195750304Y-115196751D01*
X195750305Y-115196751D01*
X195795358Y-115132410D01*
X195795362Y-115132402D01*
X195888532Y-114932598D01*
X195888536Y-114932587D01*
X195945597Y-114719634D01*
X195945598Y-114719626D01*
X195964813Y-114500001D01*
X195964813Y-114499998D01*
X195945598Y-114280373D01*
X195945597Y-114280366D01*
X195888533Y-114067404D01*
X195795360Y-113867595D01*
X195795359Y-113867593D01*
X195750304Y-113803248D01*
X195750304Y-113803247D01*
X195146220Y-114407331D01*
X195123992Y-114324377D01*
X195064090Y-114220624D01*
X194979376Y-114135910D01*
X194875623Y-114076008D01*
X194792667Y-114053779D01*
X195396751Y-113449694D01*
X195332402Y-113404638D01*
X195132593Y-113311466D01*
X195132587Y-113311463D01*
X194919634Y-113254402D01*
X194919626Y-113254401D01*
X194700002Y-113235187D01*
X194699998Y-113235187D01*
X194480373Y-113254401D01*
X194480366Y-113254402D01*
X194267404Y-113311466D01*
X194067594Y-113404640D01*
X194003248Y-113449694D01*
X194607333Y-114053779D01*
X194524377Y-114076008D01*
X194420624Y-114135910D01*
X194335910Y-114220624D01*
X194276008Y-114324377D01*
X194253779Y-114407333D01*
X193649694Y-113803248D01*
X193604640Y-113867594D01*
X193542382Y-114001106D01*
X193496209Y-114053545D01*
X193429016Y-114072697D01*
X193362135Y-114052481D01*
X193317618Y-114001106D01*
X193255360Y-113867595D01*
X193255359Y-113867593D01*
X193210304Y-113803248D01*
X193210304Y-113803247D01*
X192606220Y-114407331D01*
X192583992Y-114324377D01*
X192524090Y-114220624D01*
X192439376Y-114135910D01*
X192335623Y-114076008D01*
X192252667Y-114053779D01*
X192856751Y-113449694D01*
X192792402Y-113404638D01*
X192592593Y-113311466D01*
X192592587Y-113311463D01*
X192379634Y-113254402D01*
X192379626Y-113254401D01*
X192160002Y-113235187D01*
X192159998Y-113235187D01*
X191940373Y-113254401D01*
X191940366Y-113254402D01*
X191727404Y-113311466D01*
X191527594Y-113404640D01*
X191463248Y-113449694D01*
X192067333Y-114053779D01*
X191984377Y-114076008D01*
X191880624Y-114135910D01*
X191795910Y-114220624D01*
X191736008Y-114324377D01*
X191713779Y-114407333D01*
X191109694Y-113803248D01*
X191064640Y-113867594D01*
X190971466Y-114067404D01*
X190914402Y-114280366D01*
X190914401Y-114280373D01*
X190895187Y-114499998D01*
X190895187Y-114500001D01*
X190914401Y-114719626D01*
X190914402Y-114719634D01*
X190971463Y-114932587D01*
X190971466Y-114932593D01*
X191064638Y-115132402D01*
X191109694Y-115196750D01*
X191713779Y-114592666D01*
X191736008Y-114675623D01*
X191795910Y-114779376D01*
X191880624Y-114864090D01*
X191984377Y-114923992D01*
X192067332Y-114946220D01*
X191463247Y-115550304D01*
X191527593Y-115595360D01*
X191660514Y-115657342D01*
X191712953Y-115703514D01*
X191732105Y-115770708D01*
X191711889Y-115837589D01*
X191660514Y-115882106D01*
X191527344Y-115944204D01*
X191527342Y-115944205D01*
X191346668Y-116070713D01*
X191190713Y-116226668D01*
X191078713Y-116386623D01*
X191024136Y-116430248D01*
X190977138Y-116439500D01*
X189940097Y-116439500D01*
X189873058Y-116419815D01*
X189852416Y-116403181D01*
X187391941Y-113942706D01*
X187358456Y-113881383D01*
X187359847Y-113822931D01*
X187385635Y-113726692D01*
X187405468Y-113500000D01*
X187385635Y-113273308D01*
X187326739Y-113053504D01*
X187230568Y-112847266D01*
X187100047Y-112660861D01*
X187100045Y-112660858D01*
X186939141Y-112499954D01*
X186752734Y-112369432D01*
X186752732Y-112369431D01*
X186546497Y-112273261D01*
X186546488Y-112273258D01*
X186326697Y-112214366D01*
X186326693Y-112214365D01*
X186326692Y-112214365D01*
X186326691Y-112214364D01*
X186326686Y-112214364D01*
X186100002Y-112194532D01*
X186099998Y-112194532D01*
X185873313Y-112214364D01*
X185873302Y-112214366D01*
X185777067Y-112240152D01*
X185707217Y-112238489D01*
X185657293Y-112208058D01*
X181949232Y-108499997D01*
X184795034Y-108499997D01*
X184795034Y-108500002D01*
X184814858Y-108726599D01*
X184814860Y-108726610D01*
X184873730Y-108946317D01*
X184873735Y-108946331D01*
X184969863Y-109152478D01*
X185020974Y-109225472D01*
X185700000Y-108546446D01*
X185700000Y-108552661D01*
X185727259Y-108654394D01*
X185779920Y-108745606D01*
X185854394Y-108820080D01*
X185945606Y-108872741D01*
X186047339Y-108900000D01*
X186053553Y-108900000D01*
X185374526Y-109579025D01*
X185447513Y-109630132D01*
X185447521Y-109630136D01*
X185653668Y-109726264D01*
X185653682Y-109726269D01*
X185873389Y-109785139D01*
X185873400Y-109785141D01*
X186099998Y-109804966D01*
X186100002Y-109804966D01*
X186326599Y-109785141D01*
X186326610Y-109785139D01*
X186546317Y-109726269D01*
X186546331Y-109726264D01*
X186752478Y-109630136D01*
X186825471Y-109579024D01*
X186146447Y-108900000D01*
X186152661Y-108900000D01*
X186254394Y-108872741D01*
X186345606Y-108820080D01*
X186420080Y-108745606D01*
X186472741Y-108654394D01*
X186500000Y-108552661D01*
X186500000Y-108546447D01*
X187179024Y-109225471D01*
X187230136Y-109152478D01*
X187326264Y-108946331D01*
X187326269Y-108946317D01*
X187385139Y-108726610D01*
X187385141Y-108726599D01*
X187404966Y-108500002D01*
X187404966Y-108499997D01*
X187385141Y-108273400D01*
X187385139Y-108273389D01*
X187326269Y-108053682D01*
X187326264Y-108053668D01*
X187230136Y-107847521D01*
X187230132Y-107847513D01*
X187179025Y-107774526D01*
X186500000Y-108453551D01*
X186500000Y-108447339D01*
X186472741Y-108345606D01*
X186420080Y-108254394D01*
X186345606Y-108179920D01*
X186254394Y-108127259D01*
X186152661Y-108100000D01*
X186146448Y-108100000D01*
X186825472Y-107420974D01*
X186752478Y-107369863D01*
X186546331Y-107273735D01*
X186546317Y-107273730D01*
X186326610Y-107214860D01*
X186326599Y-107214858D01*
X186100002Y-107195034D01*
X186099998Y-107195034D01*
X185873400Y-107214858D01*
X185873389Y-107214860D01*
X185653682Y-107273730D01*
X185653673Y-107273734D01*
X185447516Y-107369866D01*
X185447512Y-107369868D01*
X185374526Y-107420973D01*
X185374526Y-107420974D01*
X186053553Y-108100000D01*
X186047339Y-108100000D01*
X185945606Y-108127259D01*
X185854394Y-108179920D01*
X185779920Y-108254394D01*
X185727259Y-108345606D01*
X185700000Y-108447339D01*
X185700000Y-108453552D01*
X185020974Y-107774526D01*
X185020973Y-107774526D01*
X184969868Y-107847512D01*
X184969866Y-107847516D01*
X184873734Y-108053673D01*
X184873730Y-108053682D01*
X184814860Y-108273389D01*
X184814858Y-108273400D01*
X184795034Y-108499997D01*
X181949232Y-108499997D01*
X172067590Y-98618355D01*
X172067588Y-98618352D01*
X171948717Y-98499481D01*
X171948716Y-98499480D01*
X171861904Y-98449360D01*
X171861904Y-98449359D01*
X171861900Y-98449358D01*
X171811785Y-98420423D01*
X171659057Y-98379499D01*
X171500943Y-98379499D01*
X171493347Y-98379499D01*
X171493331Y-98379500D01*
X170351692Y-98379500D01*
X170284653Y-98359815D01*
X170250119Y-98326625D01*
X170120047Y-98140861D01*
X170120045Y-98140858D01*
X169959141Y-97979954D01*
X169772734Y-97849432D01*
X169772732Y-97849431D01*
X169566497Y-97753261D01*
X169566488Y-97753258D01*
X169346697Y-97694366D01*
X169346693Y-97694365D01*
X169346692Y-97694365D01*
X169346691Y-97694364D01*
X169346686Y-97694364D01*
X169120002Y-97674532D01*
X169119998Y-97674532D01*
X168893313Y-97694364D01*
X168893302Y-97694366D01*
X168673511Y-97753258D01*
X168673502Y-97753261D01*
X168467267Y-97849431D01*
X168467265Y-97849432D01*
X168280858Y-97979954D01*
X168119954Y-98140858D01*
X168052039Y-98237853D01*
X167989881Y-98326624D01*
X167935307Y-98370248D01*
X167888308Y-98379500D01*
X163249098Y-98379500D01*
X163182059Y-98359815D01*
X163136304Y-98307011D01*
X163126360Y-98237853D01*
X163155385Y-98174297D01*
X163161417Y-98167819D01*
X163188378Y-98140858D01*
X163280520Y-98048716D01*
X163359577Y-97911784D01*
X163400501Y-97759057D01*
X163400501Y-97600942D01*
X163400501Y-97593347D01*
X163400500Y-97593329D01*
X163400500Y-97131692D01*
X163420185Y-97064653D01*
X163453374Y-97030119D01*
X163639139Y-96900047D01*
X163800047Y-96739139D01*
X163930568Y-96552734D01*
X164026739Y-96346496D01*
X164085635Y-96126692D01*
X164105468Y-95900000D01*
X164105468Y-95899997D01*
X166495034Y-95899997D01*
X166495034Y-95900002D01*
X166514858Y-96126599D01*
X166514860Y-96126610D01*
X166573730Y-96346317D01*
X166573735Y-96346331D01*
X166669863Y-96552478D01*
X166720974Y-96625472D01*
X167400000Y-95946446D01*
X167400000Y-95952661D01*
X167427259Y-96054394D01*
X167479920Y-96145606D01*
X167554394Y-96220080D01*
X167645606Y-96272741D01*
X167747339Y-96300000D01*
X167753553Y-96300000D01*
X167074526Y-96979025D01*
X167147513Y-97030132D01*
X167147521Y-97030136D01*
X167353668Y-97126264D01*
X167353682Y-97126269D01*
X167573389Y-97185139D01*
X167573400Y-97185141D01*
X167799998Y-97204966D01*
X167800002Y-97204966D01*
X168026599Y-97185141D01*
X168026610Y-97185139D01*
X168246317Y-97126269D01*
X168246331Y-97126264D01*
X168452478Y-97030136D01*
X168525471Y-96979024D01*
X167846447Y-96300000D01*
X167852661Y-96300000D01*
X167954394Y-96272741D01*
X168045606Y-96220080D01*
X168120080Y-96145606D01*
X168172741Y-96054394D01*
X168200000Y-95952661D01*
X168200000Y-95946447D01*
X168879024Y-96625471D01*
X168930136Y-96552478D01*
X169026264Y-96346331D01*
X169026269Y-96346317D01*
X169085139Y-96126610D01*
X169085141Y-96126599D01*
X169104966Y-95900002D01*
X169104966Y-95899997D01*
X169085141Y-95673400D01*
X169085139Y-95673389D01*
X169026269Y-95453682D01*
X169026264Y-95453668D01*
X168930136Y-95247521D01*
X168930132Y-95247513D01*
X168879025Y-95174526D01*
X168200000Y-95853551D01*
X168200000Y-95847339D01*
X168172741Y-95745606D01*
X168120080Y-95654394D01*
X168045606Y-95579920D01*
X167954394Y-95527259D01*
X167852661Y-95500000D01*
X167846448Y-95500000D01*
X168525472Y-94820974D01*
X168452478Y-94769863D01*
X168246331Y-94673735D01*
X168246317Y-94673730D01*
X168026610Y-94614860D01*
X168026599Y-94614858D01*
X167800002Y-94595034D01*
X167799998Y-94595034D01*
X167573400Y-94614858D01*
X167573389Y-94614860D01*
X167353682Y-94673730D01*
X167353673Y-94673734D01*
X167147516Y-94769866D01*
X167147512Y-94769868D01*
X167074526Y-94820973D01*
X167074526Y-94820974D01*
X167753553Y-95500000D01*
X167747339Y-95500000D01*
X167645606Y-95527259D01*
X167554394Y-95579920D01*
X167479920Y-95654394D01*
X167427259Y-95745606D01*
X167400000Y-95847339D01*
X167400000Y-95853552D01*
X166720974Y-95174526D01*
X166720973Y-95174526D01*
X166669868Y-95247512D01*
X166669866Y-95247516D01*
X166573734Y-95453673D01*
X166573730Y-95453682D01*
X166514860Y-95673389D01*
X166514858Y-95673400D01*
X166495034Y-95899997D01*
X164105468Y-95899997D01*
X164085635Y-95673308D01*
X164026739Y-95453504D01*
X163930568Y-95247266D01*
X163800047Y-95060861D01*
X163800045Y-95060858D01*
X163639141Y-94899954D01*
X163452734Y-94769432D01*
X163452732Y-94769431D01*
X163246497Y-94673261D01*
X163246488Y-94673258D01*
X163026697Y-94614366D01*
X163026693Y-94614365D01*
X163026692Y-94614365D01*
X163026691Y-94614364D01*
X163026686Y-94614364D01*
X162800002Y-94594532D01*
X162799998Y-94594532D01*
X162573313Y-94614364D01*
X162573302Y-94614366D01*
X162353511Y-94673258D01*
X162353502Y-94673261D01*
X162147267Y-94769431D01*
X162147265Y-94769432D01*
X161960858Y-94899954D01*
X161799954Y-95060858D01*
X161669432Y-95247265D01*
X161669431Y-95247267D01*
X161573261Y-95453502D01*
X161573258Y-95453511D01*
X161514366Y-95673302D01*
X161514364Y-95673313D01*
X161494532Y-95899998D01*
X161494532Y-95900001D01*
X161514364Y-96126686D01*
X161514366Y-96126697D01*
X161573258Y-96346488D01*
X161573261Y-96346497D01*
X161669431Y-96552732D01*
X161669432Y-96552734D01*
X161799954Y-96739141D01*
X161960858Y-96900045D01*
X161960861Y-96900047D01*
X162146624Y-97030118D01*
X162190248Y-97084693D01*
X162199500Y-97131692D01*
X162199500Y-97379902D01*
X162179815Y-97446941D01*
X162163181Y-97467583D01*
X161987583Y-97643181D01*
X161926260Y-97676666D01*
X161899902Y-97679500D01*
X161100098Y-97679500D01*
X161033059Y-97659815D01*
X161012417Y-97643181D01*
X151907590Y-88538355D01*
X151907588Y-88538352D01*
X151788717Y-88419481D01*
X151788716Y-88419480D01*
X151701904Y-88369360D01*
X151701904Y-88369359D01*
X151701900Y-88369358D01*
X151651785Y-88340423D01*
X151499057Y-88299499D01*
X151340943Y-88299499D01*
X151333347Y-88299499D01*
X151333331Y-88299500D01*
X131820608Y-88299500D01*
X131753569Y-88279815D01*
X131707814Y-88227011D01*
X131706047Y-88222953D01*
X131675156Y-88148376D01*
X131641381Y-88093260D01*
X131539412Y-87926860D01*
X131370689Y-87729311D01*
X131173140Y-87560588D01*
X130951628Y-87424846D01*
X130951627Y-87424845D01*
X130951623Y-87424843D01*
X130785627Y-87356086D01*
X130711610Y-87325427D01*
X130711611Y-87325427D01*
X130573921Y-87292370D01*
X130458994Y-87264779D01*
X130458992Y-87264778D01*
X130458991Y-87264778D01*
X130200000Y-87244396D01*
X129941009Y-87264778D01*
X129688389Y-87325427D01*
X129448376Y-87424843D01*
X129226859Y-87560588D01*
X129029311Y-87729311D01*
X128860588Y-87926859D01*
X128724843Y-88148376D01*
X128693953Y-88222953D01*
X128650112Y-88277356D01*
X128583818Y-88299421D01*
X128579392Y-88299500D01*
X126620608Y-88299500D01*
X126553569Y-88279815D01*
X126507814Y-88227011D01*
X126506047Y-88222953D01*
X126475156Y-88148376D01*
X126441381Y-88093260D01*
X126339412Y-87926860D01*
X126170689Y-87729311D01*
X125973140Y-87560588D01*
X125751628Y-87424846D01*
X125751627Y-87424845D01*
X125751623Y-87424843D01*
X125585627Y-87356086D01*
X125511610Y-87325427D01*
X125511611Y-87325427D01*
X125373921Y-87292370D01*
X125258994Y-87264779D01*
X125258992Y-87264778D01*
X125258991Y-87264778D01*
X125000000Y-87244396D01*
X124741009Y-87264778D01*
X124488389Y-87325427D01*
X124248376Y-87424843D01*
X124026859Y-87560588D01*
X123829311Y-87729311D01*
X123660588Y-87926859D01*
X123524843Y-88148376D01*
X123425427Y-88388389D01*
X123364778Y-88641009D01*
X123344396Y-88900000D01*
X123364778Y-89158990D01*
X123425426Y-89411610D01*
X123456319Y-89486190D01*
X123463788Y-89555659D01*
X123432513Y-89618138D01*
X123429439Y-89621324D01*
X114231286Y-98819478D01*
X114119481Y-98931282D01*
X114119479Y-98931285D01*
X114105447Y-98955590D01*
X114082284Y-98995711D01*
X114069361Y-99018094D01*
X114069359Y-99018096D01*
X114040425Y-99068209D01*
X114040424Y-99068210D01*
X114040423Y-99068215D01*
X113999499Y-99220943D01*
X113999499Y-99220945D01*
X113999499Y-99389046D01*
X113999500Y-99389059D01*
X113999500Y-137613330D01*
X113999499Y-137613348D01*
X113999499Y-137779054D01*
X113999498Y-137779054D01*
X101000000Y-137779054D01*
X101000000Y-82979054D01*
X103099498Y-82979054D01*
X103138107Y-83123140D01*
X103140423Y-83131785D01*
X103141689Y-83133977D01*
X103141695Y-83133999D01*
X103141700Y-83133997D01*
X103219475Y-83268709D01*
X103219481Y-83268717D01*
X103338349Y-83387585D01*
X103338355Y-83387590D01*
X108129439Y-88178674D01*
X108162924Y-88239997D01*
X108157940Y-88309689D01*
X108156319Y-88313807D01*
X108125426Y-88388388D01*
X108125426Y-88388389D01*
X108064778Y-88641009D01*
X108044396Y-88900000D01*
X108064778Y-89158990D01*
X108125427Y-89411610D01*
X108224843Y-89651623D01*
X108224845Y-89651627D01*
X108224846Y-89651628D01*
X108360588Y-89873140D01*
X108529311Y-90070689D01*
X108726860Y-90239412D01*
X108948372Y-90375154D01*
X108948374Y-90375154D01*
X108948376Y-90375156D01*
X109009693Y-90400554D01*
X109188390Y-90474573D01*
X109441006Y-90535221D01*
X109700000Y-90555604D01*
X109958994Y-90535221D01*
X110211610Y-90474573D01*
X110451628Y-90375154D01*
X110673140Y-90239412D01*
X110870689Y-90070689D01*
X111039412Y-89873140D01*
X111175154Y-89651628D01*
X111178117Y-89644473D01*
X111206047Y-89577047D01*
X111249888Y-89522644D01*
X111316182Y-89500579D01*
X111320608Y-89500500D01*
X113279392Y-89500500D01*
X113346431Y-89520185D01*
X113392186Y-89572989D01*
X113393953Y-89577047D01*
X113424843Y-89651623D01*
X113424845Y-89651627D01*
X113424846Y-89651628D01*
X113560588Y-89873140D01*
X113729311Y-90070689D01*
X113926860Y-90239412D01*
X114148372Y-90375154D01*
X114148374Y-90375154D01*
X114148376Y-90375156D01*
X114209693Y-90400554D01*
X114388390Y-90474573D01*
X114641006Y-90535221D01*
X114900000Y-90555604D01*
X115158994Y-90535221D01*
X115411610Y-90474573D01*
X115651628Y-90375154D01*
X115873140Y-90239412D01*
X116070689Y-90070689D01*
X116239412Y-89873140D01*
X116375154Y-89651628D01*
X116474573Y-89411610D01*
X116535221Y-89158994D01*
X116555604Y-88900000D01*
X116535221Y-88641006D01*
X116474573Y-88388390D01*
X116375154Y-88148372D01*
X116239412Y-87926860D01*
X116070689Y-87729311D01*
X115873140Y-87560588D01*
X115651628Y-87424846D01*
X115651627Y-87424845D01*
X115651623Y-87424843D01*
X115485627Y-87356086D01*
X115411610Y-87325427D01*
X115411611Y-87325427D01*
X115273921Y-87292370D01*
X115158994Y-87264779D01*
X115158992Y-87264778D01*
X115158991Y-87264778D01*
X114900000Y-87244396D01*
X114641009Y-87264778D01*
X114388389Y-87325427D01*
X114148376Y-87424843D01*
X113926859Y-87560588D01*
X113729311Y-87729311D01*
X113560588Y-87926859D01*
X113424843Y-88148376D01*
X113393953Y-88222953D01*
X113350112Y-88277356D01*
X113283818Y-88299421D01*
X113279392Y-88299500D01*
X111320608Y-88299500D01*
X111253569Y-88279815D01*
X111207814Y-88227011D01*
X111206047Y-88222953D01*
X111175156Y-88148376D01*
X111141381Y-88093260D01*
X111039412Y-87926860D01*
X110870689Y-87729311D01*
X110673140Y-87560588D01*
X110451628Y-87424846D01*
X110451627Y-87424845D01*
X110451623Y-87424843D01*
X110285627Y-87356086D01*
X110211610Y-87325427D01*
X110211611Y-87325427D01*
X110073921Y-87292370D01*
X109958994Y-87264779D01*
X109958992Y-87264778D01*
X109958991Y-87264778D01*
X109700000Y-87244396D01*
X109441009Y-87264778D01*
X109188389Y-87325426D01*
X109188388Y-87325426D01*
X109113807Y-87356319D01*
X109044338Y-87363788D01*
X108981859Y-87332512D01*
X108978674Y-87329439D01*
X104336819Y-82687584D01*
X104303334Y-82626261D01*
X104300500Y-82599903D01*
X104300500Y-81582298D01*
X104320185Y-81515259D01*
X104372989Y-81469504D01*
X104442147Y-81459560D01*
X104505703Y-81488585D01*
X104539060Y-81534845D01*
X104579225Y-81631811D01*
X104616648Y-81687819D01*
X104655887Y-81746545D01*
X105603454Y-82694112D01*
X105603457Y-82694114D01*
X105688296Y-82750801D01*
X105718189Y-82770775D01*
X105718191Y-82770776D01*
X105718193Y-82770777D01*
X105845667Y-82823578D01*
X105845672Y-82823580D01*
X105845676Y-82823580D01*
X105845677Y-82823581D01*
X105981004Y-82850500D01*
X105981007Y-82850500D01*
X108124071Y-82850500D01*
X108191110Y-82870185D01*
X108229798Y-82909708D01*
X108360588Y-83123140D01*
X108529311Y-83320689D01*
X108726860Y-83489412D01*
X108948372Y-83625154D01*
X108948374Y-83625154D01*
X108948376Y-83625156D01*
X109009693Y-83650554D01*
X109188390Y-83724573D01*
X109441006Y-83785221D01*
X109700000Y-83805604D01*
X109958994Y-83785221D01*
X110211610Y-83724573D01*
X110451628Y-83625154D01*
X110673140Y-83489412D01*
X110870689Y-83320689D01*
X111039412Y-83123140D01*
X111170201Y-82909709D01*
X111222013Y-82862835D01*
X111275929Y-82850500D01*
X113324071Y-82850500D01*
X113391110Y-82870185D01*
X113429798Y-82909708D01*
X113560588Y-83123140D01*
X113729311Y-83320689D01*
X113926860Y-83489412D01*
X114148372Y-83625154D01*
X114148374Y-83625154D01*
X114148376Y-83625156D01*
X114209693Y-83650554D01*
X114388390Y-83724573D01*
X114641006Y-83785221D01*
X114900000Y-83805604D01*
X115158994Y-83785221D01*
X115411610Y-83724573D01*
X115651628Y-83625154D01*
X115873140Y-83489412D01*
X116070689Y-83320689D01*
X116239412Y-83123140D01*
X116375154Y-82901628D01*
X116474573Y-82661610D01*
X116535221Y-82408994D01*
X116555604Y-82150000D01*
X116535221Y-81891006D01*
X116474573Y-81638390D01*
X116381288Y-81413181D01*
X116375156Y-81398376D01*
X116363998Y-81380168D01*
X116239412Y-81176860D01*
X116070689Y-80979311D01*
X115873140Y-80810588D01*
X115651628Y-80674846D01*
X115651627Y-80674845D01*
X115651623Y-80674843D01*
X115465543Y-80597767D01*
X115411610Y-80575427D01*
X115411611Y-80575427D01*
X115273921Y-80542370D01*
X115158994Y-80514779D01*
X115158992Y-80514778D01*
X115158991Y-80514778D01*
X114900000Y-80494396D01*
X114641009Y-80514778D01*
X114388389Y-80575427D01*
X114148376Y-80674843D01*
X113926859Y-80810588D01*
X113729311Y-80979311D01*
X113560588Y-81176859D01*
X113492005Y-81288778D01*
X113436002Y-81380168D01*
X113429799Y-81390290D01*
X113377987Y-81437165D01*
X113324071Y-81449500D01*
X111275929Y-81449500D01*
X111208890Y-81429815D01*
X111170201Y-81390290D01*
X111039412Y-81176860D01*
X110870689Y-80979311D01*
X110673140Y-80810588D01*
X110451628Y-80674846D01*
X110451627Y-80674845D01*
X110451623Y-80674843D01*
X110265543Y-80597767D01*
X110211610Y-80575427D01*
X110211611Y-80575427D01*
X110073921Y-80542370D01*
X109958994Y-80514779D01*
X109958992Y-80514778D01*
X109958991Y-80514778D01*
X109700000Y-80494396D01*
X109441009Y-80514778D01*
X109188389Y-80575427D01*
X108948376Y-80674843D01*
X108726859Y-80810588D01*
X108529311Y-80979311D01*
X108360588Y-81176859D01*
X108292005Y-81288778D01*
X108236002Y-81380168D01*
X108229799Y-81390290D01*
X108177987Y-81437165D01*
X108124071Y-81449500D01*
X106391519Y-81449500D01*
X106324480Y-81429815D01*
X106303838Y-81413181D01*
X105936819Y-81046162D01*
X105903334Y-80984839D01*
X105900500Y-80958481D01*
X105900500Y-72441519D01*
X105920185Y-72374480D01*
X105936819Y-72353838D01*
X112153838Y-66136819D01*
X112215161Y-66103334D01*
X112241519Y-66100500D01*
X117618996Y-66100500D01*
X117710040Y-66082389D01*
X117754328Y-66073580D01*
X117818069Y-66047177D01*
X117881807Y-66020777D01*
X117881808Y-66020776D01*
X117881811Y-66020775D01*
X117996543Y-65944114D01*
X124687826Y-59252829D01*
X124749147Y-59219346D01*
X124818835Y-59224329D01*
X124963199Y-59278175D01*
X125228840Y-59335961D01*
X125480605Y-59353967D01*
X125499999Y-59355355D01*
X125500000Y-59355355D01*
X125500001Y-59355355D01*
X125518100Y-59354060D01*
X125771160Y-59335961D01*
X126036801Y-59278175D01*
X126291513Y-59183172D01*
X126291517Y-59183169D01*
X126291519Y-59183169D01*
X126458325Y-59092086D01*
X126530113Y-59052887D01*
X126747742Y-58889971D01*
X126939971Y-58697742D01*
X127102887Y-58480113D01*
X127200529Y-58301294D01*
X127233169Y-58241519D01*
X127233169Y-58241517D01*
X127233172Y-58241513D01*
X127328175Y-57986801D01*
X127385961Y-57721160D01*
X127405355Y-57450000D01*
X127385961Y-57178840D01*
X127328175Y-56913199D01*
X127233172Y-56658487D01*
X127233170Y-56658484D01*
X127233169Y-56658480D01*
X127102890Y-56419892D01*
X127102889Y-56419891D01*
X127102887Y-56419887D01*
X126939971Y-56202258D01*
X126939966Y-56202253D01*
X126939961Y-56202247D01*
X126747752Y-56010038D01*
X126747746Y-56010033D01*
X126747742Y-56010029D01*
X126530113Y-55847113D01*
X126530108Y-55847110D01*
X126530107Y-55847109D01*
X126291518Y-55716830D01*
X126291519Y-55716830D01*
X126227116Y-55692809D01*
X126036801Y-55621825D01*
X126036794Y-55621823D01*
X126036793Y-55621823D01*
X125771167Y-55564040D01*
X125771160Y-55564039D01*
X125500001Y-55544645D01*
X125499999Y-55544645D01*
X125228839Y-55564039D01*
X125228832Y-55564040D01*
X124963206Y-55621823D01*
X124963202Y-55621824D01*
X124963199Y-55621825D01*
X124835843Y-55669326D01*
X124708480Y-55716830D01*
X124469892Y-55847109D01*
X124469891Y-55847110D01*
X124252259Y-56010028D01*
X124252247Y-56010038D01*
X124060038Y-56202247D01*
X124060028Y-56202259D01*
X123897110Y-56419891D01*
X123897109Y-56419892D01*
X123766830Y-56658480D01*
X123765061Y-56663224D01*
X123671825Y-56913199D01*
X123671824Y-56913202D01*
X123671823Y-56913206D01*
X123614040Y-57178832D01*
X123614039Y-57178839D01*
X123594645Y-57449998D01*
X123594645Y-57450001D01*
X123614039Y-57721160D01*
X123614040Y-57721167D01*
X123671823Y-57986796D01*
X123725668Y-58131160D01*
X123730652Y-58200852D01*
X123697167Y-58262174D01*
X117296162Y-64663181D01*
X117234839Y-64696666D01*
X117208481Y-64699500D01*
X111831004Y-64699500D01*
X111695677Y-64726418D01*
X111695667Y-64726421D01*
X111568192Y-64779222D01*
X111453454Y-64855887D01*
X104655887Y-71653454D01*
X104628369Y-71694639D01*
X104600974Y-71735639D01*
X104579225Y-71768189D01*
X104579222Y-71768194D01*
X104539061Y-71865153D01*
X104495220Y-71919557D01*
X104428926Y-71941622D01*
X104361227Y-71924343D01*
X104313616Y-71873206D01*
X104300500Y-71817701D01*
X104300500Y-66200097D01*
X104320185Y-66133058D01*
X104336819Y-66112416D01*
X107312416Y-63136819D01*
X107373739Y-63103334D01*
X107400097Y-63100500D01*
X115363331Y-63100500D01*
X115363347Y-63100501D01*
X115370943Y-63100501D01*
X115529054Y-63100501D01*
X115529057Y-63100501D01*
X115681785Y-63059577D01*
X115752270Y-63018882D01*
X115818716Y-62980520D01*
X115930520Y-62868716D01*
X115930520Y-62868714D01*
X115940724Y-62858511D01*
X115940728Y-62858506D01*
X119584822Y-59214411D01*
X119646143Y-59180928D01*
X119715832Y-59185911D01*
X119963199Y-59278175D01*
X120228840Y-59335961D01*
X120480605Y-59353967D01*
X120499999Y-59355355D01*
X120500000Y-59355355D01*
X120500001Y-59355355D01*
X120518100Y-59354060D01*
X120771160Y-59335961D01*
X121036801Y-59278175D01*
X121291513Y-59183172D01*
X121291517Y-59183169D01*
X121291519Y-59183169D01*
X121458325Y-59092086D01*
X121530113Y-59052887D01*
X121747742Y-58889971D01*
X121939971Y-58697742D01*
X122102887Y-58480113D01*
X122200529Y-58301294D01*
X122233169Y-58241519D01*
X122233169Y-58241517D01*
X122233172Y-58241513D01*
X122328175Y-57986801D01*
X122385961Y-57721160D01*
X122405355Y-57450000D01*
X122385961Y-57178840D01*
X122328175Y-56913199D01*
X122233172Y-56658487D01*
X122233170Y-56658484D01*
X122233169Y-56658480D01*
X122102890Y-56419892D01*
X122102889Y-56419891D01*
X122102887Y-56419887D01*
X121939971Y-56202258D01*
X121939966Y-56202253D01*
X121939961Y-56202247D01*
X121747752Y-56010038D01*
X121747746Y-56010033D01*
X121747742Y-56010029D01*
X121530113Y-55847113D01*
X121530108Y-55847110D01*
X121530107Y-55847109D01*
X121291518Y-55716830D01*
X121291519Y-55716830D01*
X121227116Y-55692809D01*
X121036801Y-55621825D01*
X121036794Y-55621823D01*
X121036793Y-55621823D01*
X120771167Y-55564040D01*
X120771160Y-55564039D01*
X120500001Y-55544645D01*
X120499999Y-55544645D01*
X120228839Y-55564039D01*
X120228832Y-55564040D01*
X119963206Y-55621823D01*
X119963202Y-55621824D01*
X119963199Y-55621825D01*
X119835843Y-55669326D01*
X119708480Y-55716830D01*
X119469892Y-55847109D01*
X119469891Y-55847110D01*
X119252259Y-56010028D01*
X119252247Y-56010038D01*
X119060038Y-56202247D01*
X119060028Y-56202259D01*
X118897110Y-56419891D01*
X118897109Y-56419892D01*
X118766830Y-56658480D01*
X118765061Y-56663224D01*
X118671825Y-56913199D01*
X118671824Y-56913202D01*
X118671823Y-56913206D01*
X118614040Y-57178832D01*
X118614039Y-57178839D01*
X118594645Y-57449998D01*
X118594645Y-57450001D01*
X118614039Y-57721160D01*
X118614040Y-57721167D01*
X118627181Y-57781574D01*
X118671825Y-57986801D01*
X118764087Y-58234164D01*
X118769071Y-58303854D01*
X118735586Y-58365177D01*
X115237584Y-61863181D01*
X115176261Y-61896666D01*
X115149903Y-61899500D01*
X107179057Y-61899500D01*
X107020943Y-61899500D01*
X106868215Y-61940423D01*
X106868214Y-61940423D01*
X106868212Y-61940424D01*
X106868209Y-61940425D01*
X106818096Y-61969359D01*
X106818095Y-61969360D01*
X106774689Y-61994420D01*
X106731285Y-62019479D01*
X106731282Y-62019481D01*
X103219481Y-65531282D01*
X103219479Y-65531285D01*
X103169361Y-65618094D01*
X103169359Y-65618096D01*
X103140425Y-65668209D01*
X103140424Y-65668210D01*
X103140423Y-65668215D01*
X103099499Y-65820943D01*
X103099499Y-65820945D01*
X103099499Y-65989046D01*
X103099500Y-65989059D01*
X103099500Y-82813330D01*
X103099499Y-82813348D01*
X103099499Y-82979054D01*
X103099498Y-82979054D01*
X101000000Y-82979054D01*
X101000000Y-60124000D01*
X101019685Y-60056961D01*
X101072489Y-60011206D01*
X101124000Y-60000000D01*
X110000000Y-60000000D01*
X110000000Y-56002155D01*
X113600000Y-56002155D01*
X113600000Y-57200000D01*
X114845879Y-57200000D01*
X114826901Y-57245818D01*
X114800000Y-57381056D01*
X114800000Y-57518944D01*
X114826901Y-57654182D01*
X114845879Y-57700000D01*
X113600000Y-57700000D01*
X113600000Y-58897844D01*
X113606401Y-58957372D01*
X113606403Y-58957379D01*
X113656645Y-59092086D01*
X113656649Y-59092093D01*
X113742809Y-59207187D01*
X113742812Y-59207190D01*
X113857906Y-59293350D01*
X113857913Y-59293354D01*
X113992620Y-59343596D01*
X113992627Y-59343598D01*
X114052155Y-59349999D01*
X114052172Y-59350000D01*
X115250000Y-59350000D01*
X115250000Y-58104120D01*
X115295818Y-58123099D01*
X115431056Y-58150000D01*
X115568944Y-58150000D01*
X115704182Y-58123099D01*
X115750000Y-58104120D01*
X115750000Y-59350000D01*
X116947828Y-59350000D01*
X116947844Y-59349999D01*
X117007372Y-59343598D01*
X117007379Y-59343596D01*
X117142086Y-59293354D01*
X117142093Y-59293350D01*
X117257187Y-59207190D01*
X117257190Y-59207187D01*
X117343350Y-59092093D01*
X117343354Y-59092086D01*
X117393596Y-58957379D01*
X117393598Y-58957372D01*
X117399999Y-58897844D01*
X117400000Y-58897827D01*
X117400000Y-57700000D01*
X116154121Y-57700000D01*
X116173099Y-57654182D01*
X116200000Y-57518944D01*
X116200000Y-57381056D01*
X116173099Y-57245818D01*
X116154121Y-57200000D01*
X117400000Y-57200000D01*
X117400000Y-56002172D01*
X117399999Y-56002155D01*
X117393598Y-55942627D01*
X117393596Y-55942620D01*
X117343354Y-55807913D01*
X117343350Y-55807906D01*
X117257190Y-55692812D01*
X117257187Y-55692809D01*
X117142093Y-55606649D01*
X117142086Y-55606645D01*
X117007379Y-55556403D01*
X117007372Y-55556401D01*
X116947844Y-55550000D01*
X115750000Y-55550000D01*
X115750000Y-56795879D01*
X115704182Y-56776901D01*
X115568944Y-56750000D01*
X115431056Y-56750000D01*
X115295818Y-56776901D01*
X115250000Y-56795879D01*
X115250000Y-55550000D01*
X114052155Y-55550000D01*
X113992627Y-55556401D01*
X113992620Y-55556403D01*
X113857913Y-55606645D01*
X113857906Y-55606649D01*
X113742812Y-55692809D01*
X113742809Y-55692812D01*
X113656649Y-55807906D01*
X113656645Y-55807913D01*
X113606403Y-55942620D01*
X113606401Y-55942627D01*
X113600000Y-56002155D01*
X110000000Y-56002155D01*
X110000000Y-51124000D01*
X110019685Y-51056961D01*
X110072489Y-51011206D01*
X110124000Y-51000000D01*
X136676000Y-51000000D01*
X136743039Y-51019685D01*
G37*
%TD.AperFunction*%
%TD*%
M02*
